<svg width="308" height="88" viewBox="0 0 308 88" fill="none" xmlns="http://www.w3.org/2000/svg">
<g clip-path="url(#clip0_2001_410)">
<path d="M117.165 70V17.6364H137.21C140.994 17.6364 144.139 18.233 146.645 19.4261C149.168 20.6023 151.051 22.2131 152.295 24.2585C153.557 26.304 154.188 28.6222 154.188 31.2131C154.188 33.3438 153.778 35.1676 152.96 36.6847C152.142 38.1847 151.043 39.4034 149.662 40.3409C148.281 41.2784 146.739 41.9517 145.034 42.3608V42.8722C146.892 42.9744 148.673 43.5455 150.378 44.5852C152.099 45.608 153.506 47.0568 154.597 48.9318C155.688 50.8068 156.233 53.0739 156.233 55.733C156.233 58.4432 155.577 60.8807 154.264 63.0455C152.952 65.1932 150.974 66.8892 148.332 68.1335C145.69 69.3778 142.366 70 138.361 70H117.165ZM126.651 62.0739H136.852C140.295 62.0739 142.776 61.4176 144.293 60.1051C145.827 58.7756 146.594 57.071 146.594 54.9915C146.594 53.4403 146.21 52.0426 145.443 50.7983C144.676 49.5369 143.585 48.5483 142.17 47.8324C140.756 47.0994 139.068 46.733 137.108 46.733H126.651V62.0739ZM126.651 39.9063H136.034C137.67 39.9063 139.145 39.608 140.457 39.0114C141.77 38.3977 142.801 37.5369 143.551 36.429C144.318 35.304 144.702 33.9744 144.702 32.4403C144.702 30.4119 143.986 28.7415 142.554 27.429C141.139 26.1165 139.034 25.4602 136.239 25.4602H126.651V39.9063Z" fill="#030712"/>
<path d="M161.916 70V30.7273H171.172V70H161.916ZM166.569 25.1534C165.103 25.1534 163.842 24.6676 162.785 23.696C161.728 22.7074 161.2 21.5227 161.2 20.142C161.2 18.7443 161.728 17.5597 162.785 16.5881C163.842 15.5994 165.103 15.1051 166.569 15.1051C168.052 15.1051 169.314 15.5994 170.353 16.5881C171.41 17.5597 171.939 18.7443 171.939 20.142C171.939 21.5227 171.41 22.7074 170.353 23.696C169.314 24.6676 168.052 25.1534 166.569 25.1534Z" fill="#030712"/>
<path d="M178.018 70V64.1193L198.268 38.7301V38.3977H178.683V30.7273H209.595V37.0426L190.316 61.9972V62.3296H210.26V70H178.018Z" fill="#030712"/>
<path d="M216.288 70V64.1193L236.538 38.7301V38.3977H216.953V30.7273H247.864V37.0426L228.586 61.9972V62.3296H248.529V70H216.288Z" fill="#030712"/>
<path d="M264.324 17.6364V70H255.069V17.6364H264.324Z" fill="#030712"/>
<path d="M277.435 84.7273C276.174 84.7273 275.006 84.625 273.932 84.4205C272.875 84.233 272.032 84.0114 271.401 83.7557L273.549 76.5455C274.895 76.9375 276.097 77.125 277.154 77.108C278.211 77.0909 279.14 76.7585 279.941 76.1108C280.759 75.4801 281.449 74.4233 282.012 72.9403L282.804 70.8182L268.563 30.7273H278.381L287.432 60.3864H287.841L296.918 30.7273H306.762L291.037 74.7557C290.304 76.8352 289.333 78.6165 288.123 80.0994C286.912 81.5994 285.429 82.7415 283.674 83.5256C281.935 84.3267 279.856 84.7273 277.435 84.7273Z" fill="#030712"/>
<g clip-path="url(#clip1_2001_410)">
<path d="M0.17981 20.7904C0.0805036 9.74511 8.95394 0.710665 19.9992 0.611358L67.9973 0.179815C79.0425 0.0805089 88.0769 8.95395 88.1763 19.9992L88.6078 67.9973C88.7071 79.0425 79.8337 88.077 68.7884 88.1763L20.7904 88.6078C9.74511 88.7071 0.710659 79.8337 0.611353 68.7884L0.17981 20.7904Z" fill="url(#paint0_linear_2001_410)"/>
<path d="M64.0188 31.472C64.0188 33.0657 63.7961 34.4602 63.3508 35.6555C62.929 36.8274 62.3196 37.8352 61.5227 38.679C60.7258 39.5462 59.7649 40.2845 58.6399 40.8938C57.5383 41.5032 56.3079 42.0188 54.9485 42.4407V42.7923C58.3704 43.6595 61.0774 45.136 63.0696 47.222C64.054 48.3001 64.8157 49.5423 65.3547 50.9485C65.9172 52.3548 66.1985 53.9368 66.1985 55.6946C66.1985 65.093 59.3313 69.7923 45.5969 69.7923H22.3938V65.9602H25.3469C26.5891 65.9602 27.5266 65.6438 28.1594 65.011C28.7922 64.3782 29.1086 63.136 29.1086 61.2845V26.7962C29.1086 25.0852 28.7805 23.8899 28.1243 23.2102C27.468 22.5305 26.5422 22.1907 25.3469 22.1907H22.3938V18.3938H43.4172C50.261 18.3938 55.4055 19.4485 58.8508 21.5579C62.2961 23.6673 64.0188 26.972 64.0188 31.472ZM43.0657 22.7884H40.4641V40.718H43.2063C46.4876 40.718 48.7844 39.9915 50.0969 38.5384C50.7766 37.7884 51.2454 36.8391 51.5032 35.6907C51.7844 34.5188 51.9251 33.1126 51.9251 31.472C51.9251 28.2141 51.2571 25.9524 49.9211 24.6868C48.5852 23.4212 46.3001 22.7884 43.0657 22.7884ZM45.386 45.1126H40.4641V65.3977H45.2454C48.4563 65.3977 50.7297 64.6477 52.0657 63.1477C53.4016 61.6712 54.0696 59.1048 54.0696 55.4485C54.0696 53.6907 53.929 52.1673 53.6477 50.8782C53.3665 49.5657 52.886 48.4876 52.2063 47.6438C51.5266 46.8001 50.636 46.1673 49.5344 45.7454C48.4329 45.3235 47.0501 45.1126 45.386 45.1126Z" fill="#FFFFF4"/>
</g>
</g>
<defs>
<linearGradient id="paint0_linear_2001_410" x1="88.3938" y1="0.393823" x2="0.393799" y2="88.3938" gradientUnits="userSpaceOnUse">
<stop stop-color="#9995FF"/>
<stop offset="1" stop-color="#165EFB"/>
</linearGradient>
<clipPath id="clip0_2001_410">
<rect width="308" height="88" fill="white"/>
</clipPath>
<clipPath id="clip1_2001_410">
<rect width="88" height="88" fill="white" transform="translate(0 0.791168) rotate(-0.515124)"/>
</clipPath>
</defs>
</svg>
