<svg width="360" height="360" viewBox="0 0 360 360" fill="none" xmlns="http://www.w3.org/2000/svg">
<path d="M6.84931 97.8586C13.3726 50.3735 50.3735 13.3726 97.8586 6.84931C125.19 3.09464 155.23 0 180 0C204.77 0 234.81 3.09464 262.141 6.84931C309.627 13.3726 346.627 50.3735 353.151 97.8586C356.905 125.19 360 155.23 360 180C360 204.77 356.905 234.81 353.151 262.141C346.627 309.627 309.627 346.627 262.141 353.151C234.81 356.905 204.77 360 180 360C155.23 360 125.19 356.905 97.8586 353.151C50.3735 346.627 13.3726 309.627 6.84931 262.141C3.09464 234.81 0 204.77 0 180C0 155.23 3.09464 125.19 6.84931 97.8586Z" fill="url(#paint0_radial_422_56)"/>
<path d="M103.838 145.09V191.335H126.96C130.129 191.335 133.11 190.745 135.903 189.563C138.696 188.328 141.14 186.663 143.235 184.568C145.33 182.473 146.968 180.029 148.149 177.236C149.385 174.39 150.002 171.382 150.002 168.213C150.002 165.044 149.385 162.063 148.149 159.27C146.968 156.423 145.33 153.953 143.235 151.858C141.14 149.763 138.696 148.125 135.903 146.943C133.11 145.708 130.129 145.09 126.96 145.09H103.838ZM103.838 237.5H80.7153V121.968H126.96C131.204 121.968 135.286 122.532 139.207 123.66C143.127 124.734 146.78 126.292 150.164 128.333C153.601 130.32 156.716 132.737 159.509 135.583C162.356 138.376 164.773 141.492 166.76 144.929C168.801 148.367 170.359 152.046 171.433 155.967C172.561 159.888 173.125 163.97 173.125 168.213C173.125 174.551 171.917 180.54 169.5 186.179C167.083 191.765 163.779 196.653 159.59 200.842C155.4 205.032 150.486 208.335 144.846 210.752C139.26 213.169 133.298 214.377 126.96 214.377H103.838V237.5Z" fill="url(#paint1_linear_422_56)"/>
<path d="M209.863 237.5H186.741V121.968H209.863V168.213H256.028V121.968H279.15V237.5H256.028V191.335H209.863V237.5Z" fill="url(#paint2_linear_422_56)"/>
<defs>
<radialGradient id="paint0_radial_422_56" cx="0" cy="0" r="1" gradientUnits="userSpaceOnUse" gradientTransform="translate(180 360) rotate(-90) scale(360)">
<stop stop-color="#170041"/>
<stop offset="1"/>
</radialGradient>
<linearGradient id="paint1_linear_422_56" x1="182.558" y1="122.5" x2="182.558" y2="237.5" gradientUnits="userSpaceOnUse">
<stop stop-color="white"/>
<stop offset="1" stop-color="#CBBDE4"/>
</linearGradient>
<linearGradient id="paint2_linear_422_56" x1="182.558" y1="122.5" x2="182.558" y2="237.5" gradientUnits="userSpaceOnUse">
<stop stop-color="white"/>
<stop offset="1" stop-color="#CBBDE4"/>
</linearGradient>
</defs>
</svg>
