<svg width="720" height="280" viewBox="0 0 720 280" fill="none" xmlns="http://www.w3.org/2000/svg">
<g style="mix-blend-mode:exclusion">
<mask id="path-1-outside-1_278_57" maskUnits="userSpaceOnUse" x="0.182617" y="158.082" width="719" height="122" fill="black">
<rect fill="white" x="0.182617" y="158.082" width="719" height="122"/>
<path d="M24.9548 275.133H2.18262V161.351H24.9548V206.896H70.4199V161.351H93.1921V275.133H70.4199V229.668H24.9548V275.133ZM204.117 229.668C204.117 235.963 202.927 241.887 200.547 247.441C198.167 252.943 194.913 257.756 190.787 261.882C186.661 265.955 181.821 269.182 176.267 271.562C170.766 273.943 164.868 275.133 158.573 275.133C152.278 275.133 146.354 273.943 140.8 271.562C135.298 269.182 130.485 265.955 126.359 261.882C122.286 257.756 119.059 252.943 116.678 247.441C114.298 241.887 113.108 235.963 113.108 229.668V161.351H135.801V229.668C135.801 232.789 136.383 235.725 137.546 238.475C138.763 241.226 140.403 243.633 142.466 245.696C144.529 247.759 146.936 249.398 149.686 250.615C152.49 251.779 155.452 252.361 158.573 252.361C161.694 252.361 164.63 251.779 167.38 250.615C170.184 249.398 172.617 247.759 174.68 245.696C176.743 243.633 178.357 241.226 179.52 238.475C180.737 235.725 181.345 232.789 181.345 229.668V161.351H204.117V229.668ZM246.647 275.133H223.875V161.351H246.647V275.133ZM349.082 275.133H261.008L309.568 184.123H261.008V161.351H349.082L300.681 252.361H349.082V275.133ZM385.978 275.133H363.206V161.351H385.978V275.133ZM498.173 275.133H473.813L429.935 200.231V275.133H407.163V161.351H431.522L475.4 236.333V161.351H498.173V275.133ZM609.891 263.628C604.602 268.124 598.704 271.589 592.197 274.022C585.691 276.402 578.92 277.593 571.885 277.593C566.489 277.593 561.279 276.878 556.254 275.45C551.281 274.075 546.626 272.118 542.289 269.579C537.951 266.987 533.984 263.919 530.387 260.375C526.79 256.778 523.722 252.81 521.183 248.473C518.644 244.082 516.66 239.374 515.232 234.349C513.857 229.324 513.169 224.114 513.169 218.718C513.169 213.323 513.857 208.139 515.232 203.166C516.66 198.194 518.644 193.539 521.183 189.201C523.722 184.811 526.79 180.844 530.387 177.3C533.984 173.703 537.951 170.635 542.289 168.096C546.626 165.556 551.281 163.599 556.254 162.224C561.279 160.796 566.489 160.082 571.885 160.082C578.92 160.082 585.691 161.298 592.197 163.732C598.704 166.112 604.602 169.55 609.891 174.046L597.99 193.883C594.551 190.392 590.584 187.667 586.088 185.71C581.591 183.7 576.857 182.695 571.885 182.695C566.912 182.695 562.231 183.647 557.841 185.552C553.503 187.456 549.694 190.048 546.415 193.327C543.135 196.554 540.543 200.363 538.639 204.753C536.735 209.091 535.782 213.746 535.782 218.718C535.782 223.743 536.735 228.451 538.639 232.842C540.543 237.232 543.135 241.067 546.415 244.347C549.694 247.626 553.503 250.218 557.841 252.123C562.231 254.027 566.912 254.979 571.885 254.979C574.741 254.979 577.518 254.635 580.216 253.948C582.914 253.26 585.479 252.308 587.913 251.091V218.718H609.891V263.628ZM694.395 229.668V206.896C694.395 203.775 693.786 200.839 692.57 198.088C691.406 195.285 689.792 192.851 687.729 190.788C685.667 188.725 683.233 187.112 680.43 185.948C677.679 184.732 674.743 184.123 671.622 184.123C668.501 184.123 665.539 184.732 662.736 185.948C659.985 187.112 657.578 188.725 655.515 190.788C653.452 192.851 651.812 195.285 650.596 198.088C649.432 200.839 648.85 203.775 648.85 206.896V229.668H694.395ZM717.167 275.133H694.395V252.361H648.85V275.133H626.157V206.896C626.157 200.601 627.347 194.703 629.728 189.201C632.108 183.647 635.335 178.807 639.408 174.681C643.534 170.555 648.348 167.302 653.849 164.922C659.403 162.541 665.328 161.351 671.622 161.351C677.917 161.351 683.815 162.541 689.316 164.922C694.871 167.302 699.711 170.555 703.837 174.681C707.963 178.807 711.216 183.647 713.596 189.201C715.977 194.703 717.167 200.601 717.167 206.896V275.133Z"/>
</mask>
<path d="M24.9548 275.133H2.18262V161.351H24.9548V206.896H70.4199V161.351H93.1921V275.133H70.4199V229.668H24.9548V275.133ZM204.117 229.668C204.117 235.963 202.927 241.887 200.547 247.441C198.167 252.943 194.913 257.756 190.787 261.882C186.661 265.955 181.821 269.182 176.267 271.562C170.766 273.943 164.868 275.133 158.573 275.133C152.278 275.133 146.354 273.943 140.8 271.562C135.298 269.182 130.485 265.955 126.359 261.882C122.286 257.756 119.059 252.943 116.678 247.441C114.298 241.887 113.108 235.963 113.108 229.668V161.351H135.801V229.668C135.801 232.789 136.383 235.725 137.546 238.475C138.763 241.226 140.403 243.633 142.466 245.696C144.529 247.759 146.936 249.398 149.686 250.615C152.49 251.779 155.452 252.361 158.573 252.361C161.694 252.361 164.63 251.779 167.38 250.615C170.184 249.398 172.617 247.759 174.68 245.696C176.743 243.633 178.357 241.226 179.52 238.475C180.737 235.725 181.345 232.789 181.345 229.668V161.351H204.117V229.668ZM246.647 275.133H223.875V161.351H246.647V275.133ZM349.082 275.133H261.008L309.568 184.123H261.008V161.351H349.082L300.681 252.361H349.082V275.133ZM385.978 275.133H363.206V161.351H385.978V275.133ZM498.173 275.133H473.813L429.935 200.231V275.133H407.163V161.351H431.522L475.4 236.333V161.351H498.173V275.133ZM609.891 263.628C604.602 268.124 598.704 271.589 592.197 274.022C585.691 276.402 578.92 277.593 571.885 277.593C566.489 277.593 561.279 276.878 556.254 275.45C551.281 274.075 546.626 272.118 542.289 269.579C537.951 266.987 533.984 263.919 530.387 260.375C526.79 256.778 523.722 252.81 521.183 248.473C518.644 244.082 516.66 239.374 515.232 234.349C513.857 229.324 513.169 224.114 513.169 218.718C513.169 213.323 513.857 208.139 515.232 203.166C516.66 198.194 518.644 193.539 521.183 189.201C523.722 184.811 526.79 180.844 530.387 177.3C533.984 173.703 537.951 170.635 542.289 168.096C546.626 165.556 551.281 163.599 556.254 162.224C561.279 160.796 566.489 160.082 571.885 160.082C578.92 160.082 585.691 161.298 592.197 163.732C598.704 166.112 604.602 169.55 609.891 174.046L597.99 193.883C594.551 190.392 590.584 187.667 586.088 185.71C581.591 183.7 576.857 182.695 571.885 182.695C566.912 182.695 562.231 183.647 557.841 185.552C553.503 187.456 549.694 190.048 546.415 193.327C543.135 196.554 540.543 200.363 538.639 204.753C536.735 209.091 535.782 213.746 535.782 218.718C535.782 223.743 536.735 228.451 538.639 232.842C540.543 237.232 543.135 241.067 546.415 244.347C549.694 247.626 553.503 250.218 557.841 252.123C562.231 254.027 566.912 254.979 571.885 254.979C574.741 254.979 577.518 254.635 580.216 253.948C582.914 253.26 585.479 252.308 587.913 251.091V218.718H609.891V263.628ZM694.395 229.668V206.896C694.395 203.775 693.786 200.839 692.57 198.088C691.406 195.285 689.792 192.851 687.729 190.788C685.667 188.725 683.233 187.112 680.43 185.948C677.679 184.732 674.743 184.123 671.622 184.123C668.501 184.123 665.539 184.732 662.736 185.948C659.985 187.112 657.578 188.725 655.515 190.788C653.452 192.851 651.812 195.285 650.596 198.088C649.432 200.839 648.85 203.775 648.85 206.896V229.668H694.395ZM717.167 275.133H694.395V252.361H648.85V275.133H626.157V206.896C626.157 200.601 627.347 194.703 629.728 189.201C632.108 183.647 635.335 178.807 639.408 174.681C643.534 170.555 648.348 167.302 653.849 164.922C659.403 162.541 665.328 161.351 671.622 161.351C677.917 161.351 683.815 162.541 689.316 164.922C694.871 167.302 699.711 170.555 703.837 174.681C707.963 178.807 711.216 183.647 713.596 189.201C715.977 194.703 717.167 200.601 717.167 206.896V275.133Z" stroke="url(#paint0_linear_278_57)" stroke-width="4" mask="url(#path-1-outside-1_278_57)"/>
</g>
<path d="M25.377 27.1895V77.6387H50.6016C54.0586 77.6387 57.3105 76.9941 60.3574 75.7051C63.4043 74.3574 66.0703 72.541 68.3555 70.2559C70.6406 67.9707 72.4277 65.3047 73.7168 62.2578C75.0645 59.1523 75.7383 55.8711 75.7383 52.4141C75.7383 48.957 75.0645 45.7051 73.7168 42.6582C72.4277 39.5527 70.6406 36.8574 68.3555 34.5723C66.0703 32.2871 63.4043 30.5 60.3574 29.2109C57.3105 27.8633 54.0586 27.1895 50.6016 27.1895H25.377ZM25.377 128H0.152344V1.96484H50.6016C55.2305 1.96484 59.6836 2.58008 63.9609 3.81055C68.2383 4.98242 72.2227 6.68164 75.9141 8.9082C79.6641 11.0762 83.0625 13.7129 86.1094 16.8184C89.2148 19.8652 91.8516 23.2637 94.0195 27.0137C96.2461 30.7637 97.9453 34.7773 99.1172 39.0547C100.348 43.332 100.963 47.7852 100.963 52.4141C100.963 59.3281 99.6445 65.8613 97.0078 72.0137C94.3711 78.1074 90.7676 83.4395 86.1973 88.0098C81.627 92.5801 76.2656 96.1836 70.1133 98.8203C64.0195 101.457 57.5156 102.775 50.6016 102.775H25.377V128Z" fill="#D4D4D4"/>
<path d="M189.996 77.6387V52.4141C189.996 48.957 189.322 45.7051 187.975 42.6582C186.686 39.5527 184.898 36.8574 182.613 34.5723C180.328 32.2871 177.633 30.5 174.527 29.2109C171.48 27.8633 168.229 27.1895 164.771 27.1895C161.314 27.1895 158.033 27.8633 154.928 29.2109C151.881 30.5 149.215 32.2871 146.93 34.5723C144.645 36.8574 142.828 39.5527 141.48 42.6582C140.191 45.7051 139.547 48.957 139.547 52.4141V77.6387H189.996ZM215.221 128H189.996V102.775H139.547V128H114.41V52.4141C114.41 45.4414 115.729 38.9082 118.365 32.8145C121.002 26.6621 124.576 21.3008 129.088 16.7305C133.658 12.1602 138.99 8.55664 145.084 5.91992C151.236 3.2832 157.799 1.96484 164.771 1.96484C171.744 1.96484 178.277 3.2832 184.371 5.91992C190.523 8.55664 195.885 12.1602 200.455 16.7305C205.025 21.3008 208.629 26.6621 211.266 32.8145C213.902 38.9082 215.221 45.4414 215.221 52.4141V128Z" fill="#D4D4D4"/>
<path d="M286.148 128H261.012V27.1895H223.131V1.96484H323.941V27.1895H286.148V128Z" fill="#D4D4D4"/>
<path d="M362.525 27.1895V77.6387H387.75C391.207 77.6387 394.459 76.9941 397.506 75.7051C400.553 74.3574 403.219 72.541 405.504 70.2559C407.789 67.9707 409.576 65.3047 410.865 62.2578C412.213 59.1523 412.887 55.8711 412.887 52.4141C412.887 48.957 412.213 45.7051 410.865 42.6582C409.576 39.5527 407.789 36.8574 405.504 34.5723C403.219 32.2871 400.553 30.5 397.506 29.2109C394.459 27.8633 391.207 27.1895 387.75 27.1895H362.525ZM362.525 128H337.301V1.96484H387.75C392.379 1.96484 396.832 2.58008 401.109 3.81055C405.387 4.98242 409.371 6.68164 413.062 8.9082C416.812 11.0762 420.211 13.7129 423.258 16.8184C426.363 19.8652 429 23.2637 431.168 27.0137C433.395 30.7637 435.094 34.7773 436.266 39.0547C437.496 43.332 438.111 47.7852 438.111 52.4141C438.111 56.75 437.555 60.9688 436.441 65.0703C435.387 69.1719 433.834 73.0684 431.783 76.7598C429.791 80.4512 427.33 83.8496 424.4 86.9551C421.471 90.0605 418.189 92.7559 414.557 95.041L428.531 128H401.725L390.738 102.6L362.525 102.775V128Z" fill="#D4D4D4"/>
<path d="M479.947 128H454.723V1.96484H479.947V128Z" fill="#D4D4D4"/>
<path d="M604.049 115.08C598.189 120.119 591.627 123.986 584.361 126.682C577.096 129.377 569.566 130.725 561.773 130.725C555.797 130.725 550.025 129.934 544.459 128.352C538.951 126.828 533.766 124.66 528.902 121.848C524.098 118.977 519.703 115.549 515.719 111.564C511.734 107.58 508.307 103.186 505.436 98.3809C502.623 93.5176 500.426 88.332 498.844 82.8242C497.32 77.2578 496.559 71.4863 496.559 65.5098C496.559 59.5332 497.32 53.7617 498.844 48.1953C500.426 42.6289 502.623 37.4434 505.436 32.6387C508.307 27.7754 511.734 23.3516 515.719 19.3672C519.703 15.3828 524.098 11.9844 528.902 9.17188C533.766 6.30078 538.951 4.10352 544.459 2.58008C550.025 0.998047 555.797 0.207031 561.773 0.207031C569.566 0.207031 577.096 1.55469 584.361 4.25C591.627 6.88672 598.189 10.7539 604.049 15.8516L590.689 37.8242C586.998 33.8398 582.633 30.793 577.594 28.6836C572.555 26.5156 567.281 25.4316 561.773 25.4316C556.207 25.4316 550.992 26.4863 546.129 28.5957C541.266 30.7051 537.018 33.5762 533.385 37.209C529.752 40.7832 526.881 45.0312 524.771 49.9531C522.662 54.8164 521.607 60.002 521.607 65.5098C521.607 71.0176 522.662 76.2031 524.771 81.0664C526.881 85.8711 529.752 90.0898 533.385 93.7227C537.018 97.3555 541.266 100.227 546.129 102.336C550.992 104.445 556.207 105.5 561.773 105.5C567.281 105.5 572.555 104.445 577.594 102.336C582.633 100.168 586.998 97.0918 590.689 93.1074L604.049 115.08Z" fill="#D4D4D4"/>
<path d="M643.951 128H618.727V1.96484H643.951V64.9824L690.885 1.96484H719.537L679.723 55.1387L719.537 128H690.885L663.199 77.0234L643.951 102.775V128Z" fill="#D4D4D4"/>
<defs>
<linearGradient id="paint0_linear_278_57" x1="-0.999994" y1="155" x2="728" y2="299" gradientUnits="userSpaceOnUse">
<stop stop-color="#D9D9D9"/>
<stop offset="1" stop-color="#958CFF"/>
<stop offset="1" stop-color="#958CFF"/>
</linearGradient>
</defs>
</svg>
