<?xml version="1.0" standalone="no"?>
<!DOCTYPE svg PUBLIC "-//W3C//DTD SVG 1.1//EN" "http://www.w3.org/Graphics/SVG/1.1/DTD/svg11.dtd" >
<svg xmlns="http://www.w3.org/2000/svg" xmlns:xlink="http://www.w3.org/1999/xlink" version="1.1">
<metadata>
Created by FontForge 20170731 at Sun Nov 22 11:20:21 2020
 By Aleksey,,,
Copyright 2020 The Bodoni Moda Project Authors (https://github.com/indestructible-type)
</metadata>
<defs>
<font id="BodoniModa28pt-Bold" horiz-adv-x="0" >
  <font-face 
    font-family="Bodoni Moda 28pt"
    font-weight="700"
    font-stretch="normal"
    units-per-em="2000"
    panose-1="0 0 0 0 0 0 0 0 0 0"
    ascent="1600"
    descent="-400"
    x-height="920"
    cap-height="1500"
    bbox="-421 -725 2950 2099"
    underline-thickness="50"
    underline-position="-175"
    unicode-range="U+000D-FB02"
  />
<missing-glyph horiz-adv-x="1200" 
d="M213 0v1500h774v-1500h-774zM253 39h694v1422h-694v-1422zM601 443q-56 0 -56 69q0 13 1 21q5 38 12.5 61t13.5 49t8 71q-38 -24 -57 -42.5t-35.5 -36.5t-46.5 -41q-5 -4 -9.5 -6.5t-8.5 -5.5q-59 -33 -87 15q-29 49 31 83q11 7 18 10q36 14 59.5 19.5t49 12.5t65.5 28
q-40 21 -65.5 28.5t-49 13t-59.5 19.5q-7 3 -18 10q-60 34 -31 83q28 48 87 14q4 -2 8.5 -4.5t9.5 -6.5q30 -23 46.5 -41t35.5 -36.5t57 -42.5q-2 45 -8 70.5t-13.5 49t-12.5 61.5q-1 7 -1 20q0 69 56 69q57 0 57 -69q0 -13 -1 -20q-6 -38 -13 -61.5t-13 -49t-9 -70.5
q39 24 58 42.5t35.5 36.5t46.5 41q5 4 9 6.5t8 4.5q60 34 88 -14q29 -49 -31 -83q-11 -7 -19 -10q-35 -14 -58.5 -19.5t-49 -13t-65.5 -28.5q40 -21 65.5 -28t49 -12.5t58.5 -19.5q8 -3 19 -10q60 -34 31 -83q-28 -48 -88 -15q-4 3 -8 5.5t-9 6.5q-30 23 -46.5 41
t-35.5 36.5t-58 42.5q3 -45 9 -71t13 -49t13 -61q1 -8 1 -21q0 -69 -57 -69z" />
    <glyph glyph-name="fi" unicode="fi" horiz-adv-x="1283" 
d="M211 0v1023q0 117 42.5 209t118 156.5t175 98t213.5 33.5q91 0 170 -30t127.5 -80.5t48.5 -112.5q0 -80 -47.5 -124.5t-112.5 -44.5q-56 0 -106 38t-50 116q0 48 23.5 83t59.5 54t73 19q60 0 109 -38.5t49 -102.5h-13q0 58 -46.5 105t-122 75t-162.5 28q-90 0 -152 -51.5
t-94.5 -146.5t-32.5 -227v-1080h-270zM40 0v15h1199v-15h-1199zM819 0v905h-779v15h1059v-920h-280z" />
    <glyph glyph-name="fl" unicode="fl" horiz-adv-x="1383" 
d="M211 0v1023q0 144 62 256t171 176.5t251 64.5q91 0 152.5 -33t93.5 -84t32 -106q0 -80 -47.5 -124.5t-112.5 -44.5q-56 0 -106 38t-50 116q0 72 50 111.5t106 39.5q60 0 109 -36t49 -100h-13q0 53 -31 100.5t-89.5 77.5t-142.5 30q-70 0 -117.5 -53.5t-72 -149
t-24.5 -222.5v-1080h-270zM40 0v15h1296v-15h-1296zM40 905v15h713v-15h-713zM886 0v1460l280 80v-1540h-280z" />
    <glyph glyph-name="f_f" unicode="ff" horiz-adv-x="1459" 
d="M1335 1520q91 0 152.5 -36t92.5 -88t31 -99q0 -80 -47.5 -124.5t-112.5 -44.5q-56 0 -106 38t-50 116q0 47 23 82t58 54t72 20q35 -1 66.5 -18t48.5 -46q-22 51 -79.5 91t-148.5 40q-72 0 -119.5 -53.5t-71 -149t-23.5 -222.5v-160h280v-15h-280v-890h240v-15h-1321v15
h811v890h-811v15h811v103q0 141 60 253.5t168.5 178t255.5 65.5zM715 1420q91 0 163.5 -33t115 -85.5t42.5 -109.5q0 -80 -47.5 -124.5t-112.5 -44.5q-56 0 -106 38t-50 116q0 43 23.5 77t59 54t72.5 20q39 -1 73.5 -21t49.5 -55q-16 43 -58 77.5t-97.5 54.5t-117.5 20
q-82 0 -136 -53t-81 -148.5t-27 -222.5v-974h-270v917q0 139 63.5 251.5t177 179t263.5 66.5z" />
    <glyph glyph-name="f_f_i" unicode="ffi" horiz-adv-x="1894" 
d="M1439 0v905h-1399v15h1679v-920h-280zM40 0v15h1811v-15h-1811zM211 0v923q0 104 36.5 194.5t103 158t155.5 106t194 38.5q104 0 179 -32t116 -84t41 -112q0 -80 -47.5 -124.5t-112.5 -44.5q-56 0 -106 38t-50 116q0 72 50 111.5t107 39.5q39 0 75 -21.5t59 -53t23 -61.5
h-13q0 61 -41 108.5t-108.5 75t-146.5 27.5q-74 0 -129 -46.5t-85 -140.5t-30 -236v-980h-270zM831 0v1023q0 144 66 256t187 176.5t286 64.5q109 0 189 -33t123.5 -84t43.5 -106q0 -80 -47.5 -124.5t-112.5 -44.5q-56 0 -106 38t-50 116q0 72 50 111.5t106 39.5
q60 0 109 -36t49 -100h-13q0 51 -42.5 99t-119 78.5t-179.5 30.5q-90 0 -149.5 -53.5t-89.5 -149t-30 -222.5v-1080h-270z" />
    <glyph glyph-name="f_f_l" unicode="ffl" horiz-adv-x="2019" 
d="M40 0v15h811v890h-811v15h811v103q0 146 62.5 258.5t171 175.5t245.5 63q88 0 153.5 -31.5t101.5 -81.5t36 -105q0 -80 -47.5 -124.5t-112.5 -44.5q-56 0 -106 38t-50 116q0 70 49 110t104 41q43 -1 81 -28t51 -63q-17 62 -84.5 109t-160.5 47q-77 0 -127 -53t-73.5 -148
t-23.5 -222v-160h280v-15h-280v-890h851v-15h-1932zM211 8v915q0 139 63.5 251.5t174.5 179t256 66.5q104 0 178 -34t113.5 -86.5t39.5 -107.5q0 -80 -47.5 -124.5t-112.5 -44.5q-56 0 -106 38t-50 116q0 71 49.5 110.5t105.5 40.5q35 -1 66.5 -17t48.5 -43
q-29 55 -99.5 94.5t-160.5 39.5q-79 0 -135 -52.5t-85 -147.5t-29 -222v-972h-270zM1526 8v1452l280 80v-1532h-280z" />
    <glyph glyph-name="f_j.liga" unicode="fj" horiz-adv-x="1235" 
d="M638 -520q-89 0 -157 32t-106.5 86t-38.5 120q0 73 48 118.5t116 45.5q40 0 77 -18.5t60.5 -52.5t23.5 -82q0 -60 -42 -104.5t-115 -44.5q-44 0 -81.5 20t-61 51.5t-23.5 66.5h14q0 -63 37 -113t98 -79t134 -29q72 0 108.5 48.5t50.5 128t15 175.5t1 191v865h-756v15
h1035v-943q0 -98 -31.5 -187.5t-90 -159t-138.5 -110t-177 -40.5zM40 0v15h651v-15h-651zM211 0v1023q0 141 63.5 253.5t184 178t290.5 65.5q108 0 181 -35.5t109.5 -88t36.5 -104.5q0 -80 -49.5 -122t-110.5 -42q-35 0 -71 15.5t-60.5 48.5t-24.5 85q0 72 47.5 111.5
t104.5 39.5q39 0 76.5 -16t61.5 -46.5t24 -73.5h-13q0 50 -35.5 98t-102 80t-159.5 32q-100 0 -162.5 -52.5t-91.5 -147.5t-29 -222v-1080h-270z" />
    <glyph glyph-name=".notdef" horiz-adv-x="1200" 
d="M213 0v1500h774v-1500h-774zM253 39h694v1422h-694v-1422zM601 443q-56 0 -56 69q0 13 1 21q5 38 12.5 61t13.5 49t8 71q-38 -24 -57 -42.5t-35.5 -36.5t-46.5 -41q-5 -4 -9.5 -6.5t-8.5 -5.5q-59 -33 -87 15q-29 49 31 83q11 7 18 10q36 14 59.5 19.5t49 12.5t65.5 28
q-40 21 -65.5 28.5t-49 13t-59.5 19.5q-7 3 -18 10q-60 34 -31 83q28 48 87 14q4 -2 8.5 -4.5t9.5 -6.5q30 -23 46.5 -41t35.5 -36.5t57 -42.5q-2 45 -8 70.5t-13.5 49t-12.5 61.5q-1 7 -1 20q0 69 56 69q57 0 57 -69q0 -13 -1 -20q-6 -38 -13 -61.5t-13 -49t-9 -70.5
q39 24 58 42.5t35.5 36.5t46.5 41q5 4 9 6.5t8 4.5q60 34 88 -14q29 -49 -31 -83q-11 -7 -19 -10q-35 -14 -58.5 -19.5t-49 -13t-65.5 -28.5q40 -21 65.5 -28t49 -12.5t58.5 -19.5q8 -3 19 -10q60 -34 31 -83q-28 -48 -88 -15q-4 3 -8 5.5t-9 6.5q-30 23 -46.5 41
t-35.5 36.5t-58 42.5q3 -45 9 -71t13 -49t13 -61q1 -8 1 -21q0 -69 -57 -69z" />
    <glyph glyph-name=".null" 
 />
    <glyph glyph-name="nonmarkingreturn" horiz-adv-x="666" 
 />
    <glyph glyph-name="CR" unicode="&#xd;" horiz-adv-x="500" 
 />
    <glyph glyph-name="space" unicode=" " horiz-adv-x="500" 
 />
    <glyph glyph-name="exclam" unicode="!" horiz-adv-x="755" 
d="M369 516q0 94 -23 184t-54.5 181.5t-58.5 189.5t-35 207q-1 11 -0.5 20t0.5 18q0 84 42.5 142t135.5 58t136.5 -58t43.5 -142q0 -9 -0.5 -18t-1.5 -20q-8 -109 -35 -207t-58.5 -189.5t-54.5 -181.5t-23 -184h-14zM378 -20q-49 0 -90 24.5t-65.5 65.5t-24.5 90
q0 50 24.5 91t65.5 65.5t90 24.5q50 0 90.5 -24.5t65 -65.5t24.5 -91q0 -49 -24.5 -90t-65 -65.5t-90.5 -24.5z" />
    <glyph glyph-name="quotedbl" unicode="&#x22;" horiz-adv-x="959" 
d="M693 906q0 83 -20 137.5t-47.5 96.5t-51.5 84t-32 98q-1 11 -1.5 19t-0.5 17q0 74 47 118t113 44q67 0 113.5 -44t46.5 -118v-17t-2 -19q-8 -56 -32 -98t-51.5 -84t-47.5 -96.5t-20 -137.5h-14zM253 906q0 83 -20 137.5t-47.5 96.5t-51.5 84t-32 98q-1 11 -1.5 19
t-0.5 17q0 74 47 118t113 44q67 0 113.5 -44t46.5 -118v-17t-2 -19q-8 -56 -32 -98t-51.5 -84t-47.5 -96.5t-20 -137.5h-14z" />
    <glyph glyph-name="numbersign" unicode="#" horiz-adv-x="1264" 
d="M705 -12l200 1520l15 2l-200 -1520zM60 493v15h1085v-15h-1085zM325 -10l200 1520h15l-200 -1520h-15zM120 1022v16h1085v-16h-1085z" />
    <glyph glyph-name="dollar" unicode="$" horiz-adv-x="1189" 
d="M600 -29q-178 0 -299.5 53.5t-183 132t-61.5 153.5q0 81 46 137.5t123 56.5q39 0 76 -19t62 -55t25 -88q0 -47 -24 -83.5t-61.5 -57t-78.5 -20.5q-40 0 -78.5 15.5t-63 44.5t-24.5 69l14 -3q0 -71 59.5 -145.5t176 -126t286.5 -51.5q154 0 230.5 77.5t76.5 203.5
q0 86 -43 143.5t-113.5 98.5t-154.5 76.5t-168.5 76.5t-155 98.5t-113.5 142.5t-43 209q0 94 40.5 169.5t109.5 129.5t155.5 82.5t178.5 28.5q118 0 222 -43t168.5 -115t64.5 -160q0 -71 -43 -123.5t-121 -52.5q-37 0 -74.5 19t-62.5 54t-25 84q0 68 45.5 112t110.5 44
q41 0 79.5 -17t63.5 -48t25 -72h-13q0 85 -62.5 154t-162.5 109.5t-214 40.5q-98 0 -158.5 -31.5t-88.5 -85.5t-28 -122q0 -78 43 -131.5t113 -93t154.5 -75.5t168.5 -77.5t154.5 -99.5t113 -142.5t42.5 -207.5q0 -144 -65 -249.5t-180 -162.5t-264 -57zM482 -160v1820h16
v-1820h-16zM643 -160v1820h15v-1820h-15z" />
    <glyph glyph-name="percent" unicode="%" horiz-adv-x="2039" 
d="M487 0l1048 1500h18l-1048 -1500h-18zM510 640q-85 0 -163.5 28.5t-141 84.5t-99 138t-36.5 189t36.5 189t99 138t141 84.5t163.5 28.5t163.5 -28.5t141 -84.5t99 -138t36.5 -189t-41.5 -189t-108.5 -138t-143.5 -84.5t-146.5 -28.5zM510 655q37 0 62 28t40 82.5
t21.5 134t6.5 180.5q0 102 -6.5 181t-21.5 133.5t-40 82.5t-62 28q-36 0 -61 -28t-40.5 -82.5t-22 -133.5t-6.5 -181q0 -101 6.5 -180.5t22 -134t40.5 -82.5t61 -28zM1530 -20q-85 0 -163.5 28.5t-141 84.5t-99 138t-36.5 189t36.5 189t99 138t141 84.5t163.5 28.5
t163.5 -28.5t141 -84.5t99 -138t36.5 -189t-42 -189t-108.5 -138t-143 -84.5t-146.5 -28.5zM1530 -5q37 0 61.5 28t40 82.5t22 134t6.5 180.5q0 102 -6.5 181t-22 133.5t-40 82.5t-61.5 28t-62 -28t-40 -82.5t-21.5 -133.5t-6.5 -181q0 -101 6.5 -180.5t21.5 -134t40 -82.5
t62 -28z" />
    <glyph glyph-name="ampersand" unicode="&#x26;" horiz-adv-x="1722" 
d="M1080 0l-662 980q-39 57 -65.5 125.5t-26.5 120.5q0 90 59.5 156t165.5 102t247 36q132 0 230 -30t151.5 -85t53.5 -130q0 -70 -34.5 -121t-94 -89.5t-136.5 -70t-162 -61.5l-7 9q28 20 59 54t52.5 100t21.5 179q0 56 -11.5 109t-41.5 87.5t-86 34.5q-54 0 -87.5 -29.5
t-48.5 -74.5t-15 -92q0 -60 41 -147t105 -183l631 -965h249v-15h-588zM568 -20q-158 0 -267.5 47.5t-166 132t-56.5 193.5q0 94 38.5 166t98.5 124.5t125.5 89t120 59t79.5 34.5l6 -11q-47 -26 -80 -66.5t-50 -99.5t-17 -140q0 -85 22 -168t65 -150.5t106.5 -108
t145.5 -40.5q103 0 199.5 47t179.5 131t148.5 194.5t107 239t54.5 263.5h15q-13 -134 -56.5 -268t-116 -254t-175 -213.5t-234 -147.5t-292.5 -54zM1168 905v15h480v-15h-480z" />
    <glyph glyph-name="quotesingle" unicode="'" horiz-adv-x="519" 
d="M253 906q0 83 -20 137.5t-47.5 96.5t-51.5 84t-32 98q-1 11 -1.5 19t-0.5 17q0 74 47 118t113 44q67 0 113.5 -44t46.5 -118v-17t-2 -19q-8 -56 -32 -98t-51.5 -84t-47.5 -96.5t-20 -137.5h-14z" />
    <glyph glyph-name="parenleft" unicode="(" horiz-adv-x="744" 
d="M706 -340q-122 53 -227 148t-183.5 224.5t-122 286t-43.5 331.5q0 233 76 422t206.5 323.5t293.5 204.5l7 -11q-74 -49 -126 -147t-84.5 -227.5t-47.5 -275t-15 -289.5t15 -295.5t47.5 -289t84.5 -241.5t126 -153z" />
    <glyph glyph-name="parenright" unicode=")" horiz-adv-x="752" 
d="M46 -340l-7 11q74 49 126 147t84.5 227.5t47.5 275t15 289.5t-15 295.5t-47.5 289t-84.5 241.5t-126 153l7 11q122 -52 227 -147.5t183.5 -225t122 -286t43.5 -331.5q0 -233 -76 -422t-206.5 -323.5t-293.5 -204.5z" />
    <glyph glyph-name="asterisk" unicode="*" horiz-adv-x="1259" 
d="M630 293q-66 0 -108 44.5t-42 117.5q0 9 0.5 18t1.5 19q7 55 28.5 95.5t47 81t44 93t20.5 130.5q-67 -40 -103.5 -82.5t-59 -84t-47 -81t-68.5 -73.5q-8 -7 -15 -11t-15 -9q-64 -36 -123 -22t-92 71q-33 58 -16 116t81 95q8 5 15 8.5t17 7.5q51 21 97.5 23t94 0.5
t102 8.5t123.5 48q-69 37 -123.5 47t-102 8.5t-94 0.5t-97.5 23q-10 4 -17 8.5t-15 8.5q-64 36 -81 94.5t16 115.5q33 58 92 72t123 -23q8 -4 15 -8.5t15 -11.5q44 -34 68.5 -73.5t47 -81t59 -84t103.5 -82.5q-2 78 -20.5 130.5t-44 93t-47 81t-28.5 96.5q-1 11 -1.5 19
t-0.5 17q0 74 42 118t108 44t108 -44t42 -118v-17t-2 -19q-8 -56 -29.5 -96.5t-47 -81t-44 -93t-20.5 -130.5q68 40 104 82.5t58.5 84t47 81t68.5 73.5q8 7 16 11.5t15 8.5q64 37 123 23t92 -72q33 -57 16 -115.5t-81 -94.5q-7 -4 -15 -8.5t-18 -8.5q-51 -21 -97.5 -23
t-94 -0.5t-102 -8.5t-123.5 -47q69 -38 123.5 -48.5t102 -9t94 -0.5t97.5 -22q10 -4 18 -7.5t15 -8.5q64 -37 81 -95t-16 -116q-33 -57 -92 -71t-123 22q-7 5 -15 9t-16 11q-44 34 -68.5 73.5t-47 81t-58.5 84t-104 82.5q2 -78 20.5 -130.5t43.5 -93t47 -81t30 -95.5
q2 -10 2 -19v-18q0 -73 -42 -117.5t-108 -44.5z" />
    <glyph glyph-name="plus" unicode="+" horiz-adv-x="1059" 
d="M180 704v135h699v-135h-699zM462 421v699h135v-699h-135z" />
    <glyph glyph-name="comma" unicode="," horiz-adv-x="553" 
d="M76 -304v15q92 0 168 34t127.5 95t72.5 144t3 180h5q2 -47 -24.5 -89t-71 -68.5t-95.5 -26.5q-86 0 -133.5 53.5t-47.5 124.5q0 48 26.5 89t70.5 65t97 24q54 0 100 -31t73 -87t27 -134q0 -108 -48.5 -196t-137.5 -140t-212 -52z" />
    <glyph glyph-name="hyphen" unicode="-" horiz-adv-x="719" 
d="M120 543v14h480v-14h-480z" />
    <glyph glyph-name="period" unicode="." horiz-adv-x="519" 
d="M260 -20q-50 0 -90.5 24.5t-65 65.5t-24.5 90t24.5 90.5t65 66t90.5 24.5q49 0 90.5 -24.5t65.5 -66t24 -90.5t-24 -90t-65.5 -65.5t-90.5 -24.5z" />
    <glyph glyph-name="slash" unicode="/" horiz-adv-x="1044" 
d="M80 -300l870 1860h15l-870 -1860h-15z" />
    <glyph glyph-name="zero" unicode="0" horiz-adv-x="1319" 
d="M660 -20q-129 0 -236 58.5t-183.5 163t-118.5 244.5t-42 304t44.5 304t123.5 245t184 163t228 58t228 -58t184.5 -163t123.5 -245t44 -304t-41.5 -304t-118.5 -244.5t-183.5 -163t-236.5 -58.5zM660 -6q79 0 124.5 59.5t68.5 163.5t30 241t7 292t-8.5 292t-32 241
t-69 163.5t-120.5 59.5q-70 0 -115 -59.5t-70 -163.5t-35 -241t-10 -292t7 -292t30 -241t69.5 -163.5t123.5 -59.5z" />
    <glyph glyph-name="one" unicode="1" horiz-adv-x="989" 
d="M360 5v1480h-226v15h536v-1495h-310zM100 0v15h790v-15h-790z" />
    <glyph glyph-name="two" unicode="2" horiz-adv-x="1199" 
d="M80 0v200l443 343q126 97 185.5 225.5t59.5 291.5q0 115 -35 208.5t-98.5 150t-149.5 56.5q-103 0 -190 -49t-136.5 -139.5t-40.5 -215.5h-14q0 40 28 74.5t72 56.5t92 22q45 0 86 -22t67 -61t26 -89q0 -55 -25 -96t-67.5 -64t-92.5 -23t-92 25.5t-68 71t-28 105.5
q-8 135 51.5 236t175 157t271.5 56q154 0 263 -51t167 -137.5t58 -191.5q0 -85 -34 -153t-87.5 -122t-115.5 -99.5t-119 -86.5l-479 -379h861v150h15v-450h-1049z" />
    <glyph glyph-name="three" unicode="3" horiz-adv-x="1141" 
d="M512 -20q-154 0 -256.5 50.5t-154 128t-51.5 159.5q0 81 49.5 129.5t120.5 48.5q65 0 111 -44t46 -117q0 -44 -23 -79t-60 -55.5t-80 -20.5q-41 0 -78 19t-60.5 50.5t-23.5 68.5h13q0 -82 50 -153.5t137.5 -116t199.5 -44.5q102 0 165.5 53.5t93 145.5t29.5 207
q0 61 -13.5 129t-50 128t-104.5 98t-176 38v10q181 0 308 -33t206 -90.5t115.5 -132t36.5 -157.5q0 -97 -45.5 -175t-123.5 -132.5t-176.5 -83.5t-204.5 -29zM396 808v10q101 0 158.5 33t84.5 86t34 113.5t7 116.5q0 64 -11 123t-35 105t-62 73.5t-92 27.5q-52 0 -113.5 -20
t-116.5 -57t-90.5 -87.5t-35.5 -111.5h-13q0 43 25.5 75t63.5 50t75 18q43 0 80 -19t60 -54t23 -83q0 -52 -25 -88t-62.5 -54.5t-75.5 -18.5q-42 0 -80 21.5t-62 60.5t-24 92q0 62 37 116t98.5 95t136.5 64t151 23q84 0 167 -21.5t151.5 -63.5t110 -105t41.5 -146
q0 -75 -30 -142.5t-99.5 -119.5t-186.5 -82t-290 -30z" />
    <glyph glyph-name="four" unicode="4" horiz-adv-x="1279" 
d="M540 0v15h190v1343l-633 -920h1163v-15h-1191l741 1077h230v-1485h150v-15h-650z" />
    <glyph glyph-name="five" unicode="5" horiz-adv-x="1069" 
d="M432 -20q-114 0 -207 39.5t-148.5 107t-55.5 151.5q0 85 48.5 134.5t124.5 49.5q68 0 121 -44.5t53 -127.5q0 -50 -24.5 -88t-64.5 -60t-85 -22q-30 0 -60.5 16t-55.5 40.5t-40 52t-15 49.5h14q0 -63 31 -114.5t83.5 -88.5t117 -57t131.5 -20q86 0 140.5 41t85 107.5
t42.5 145t12 153.5q0 123 -35 219t-97 150.5t-143 54.5q-71 0 -125.5 -25.5t-91 -62t-53.5 -67.5h-14q16 37 62.5 82.5t128 79t202.5 33.5q144 0 256 -53.5t175.5 -157t63.5 -253.5q0 -97 -43.5 -181.5t-122 -148t-183.5 -99.5t-228 -36zM114 714v786h811v109h15v-409h-811
v-486h-15z" />
    <glyph glyph-name="six" unicode="6" horiz-adv-x="1219" 
d="M638 -20q-161 0 -282 72.5t-188.5 215t-67.5 352.5q0 182 67.5 344.5t190 287.5t289 196.5t363.5 71.5v-14q-134 0 -241.5 -68.5t-183 -185.5t-115.5 -266t-40 -309v-117q0 -118 11.5 -220.5t36.5 -180t65.5 -121t100.5 -43.5q59 0 96 39.5t56.5 109.5t26.5 161.5
t7 194.5q0 158 -23 257t-67.5 145.5t-108.5 46.5q-74 0 -118.5 -43.5t-63.5 -130t-19 -215.5h-13q0 131 20.5 226.5t79.5 147t175 51.5q84 0 166.5 -28t151 -86.5t109.5 -150.5t41 -220q0 -150 -63 -267.5t-180.5 -185t-278.5 -67.5z" />
    <glyph glyph-name="seven" unicode="7" horiz-adv-x="1079" 
d="M488 -20q-81 0 -136.5 49t-55.5 153q0 59 31 124t80 135.5t105 146.5t106 158q35 58 73.5 128t82 149.5t90.5 166.5h-769v-150h-15v460h980l-27.5 -51t-72.5 -135t-100 -183.5t-110.5 -198.5t-102.5 -178q-50 -84 -80 -133t-43 -81.5t-13 -67.5q0 -47 25 -80t57.5 -63.5
t57.5 -68.5t25 -94q0 -77 -49.5 -131.5t-138.5 -54.5z" />
    <glyph glyph-name="eight" unicode="8" horiz-adv-x="1199" 
d="M600 -20q-263 0 -391.5 110t-128.5 290q0 169 113 273.5t345 116.5q-204 13 -311 104.5t-107 245.5q0 110 55 201t162 145t263 54t263.5 -54t162 -145t54.5 -201q0 -154 -107 -245.5t-311 -104.5q232 -12 345 -116.5t113 -273.5q0 -180 -127.5 -290t-392.5 -110zM600 -5
q74 0 118 53t63 140.5t19 191.5t-19 190.5t-63 138.5t-118 52t-118 -52t-63 -138.5t-19 -190.5t19 -191.5t63 -140.5t118 -53zM600 780q59 0 94 39.5t50.5 115.5t15.5 185q0 78 -8.5 147.5t-27 123t-49 84t-75.5 30.5q-44 0 -75 -30.5t-49.5 -84t-27 -123t-8.5 -147.5
q0 -109 15.5 -185t50.5 -115.5t94 -39.5z" />
    <glyph glyph-name="nine" unicode="9" horiz-adv-x="1219" 
d="M210 -20v14q135 0 242 68.5t182.5 185.5t115.5 266t40 309v117q0 118 -11 220.5t-36.5 180t-66 121t-100.5 43.5q-59 0 -95.5 -39.5t-56.5 -109.5t-27 -161.5t-7 -194.5q0 -158 23 -257t67.5 -145.5t108.5 -46.5q74 0 118.5 43.5t63.5 130t19 215.5h13q0 -131 -20.5 -226
t-79.5 -147t-175 -52q-83 0 -166 28.5t-151.5 87t-109.5 150.5t-41 219q0 150 63.5 267.5t180.5 185t278 67.5t282 -72.5t188.5 -215t67.5 -352.5q0 -182 -67.5 -344.5t-190 -287.5t-289 -196.5t-363.5 -71.5z" />
    <glyph glyph-name="colon" unicode=":" horiz-adv-x="517" 
d="M260 720q-50 0 -90.5 24.5t-65 65.5t-24.5 90t24.5 90.5t65 66t90.5 24.5q49 0 90.5 -24.5t65.5 -66t24 -90.5t-24 -90t-65.5 -65.5t-90.5 -24.5zM260 -20q-50 0 -90.5 24.5t-65 65.5t-24.5 90t24.5 90.5t65 66t90.5 24.5q49 0 90.5 -24.5t65.5 -66t24 -90.5t-24 -90
t-65.5 -65.5t-90.5 -24.5z" />
    <glyph glyph-name="semicolon" unicode=";" horiz-adv-x="553" 
d="M262 720q-50 0 -90.5 24.5t-65 65.5t-24.5 90t24.5 90.5t65 66t90.5 24.5q49 0 90.5 -24.5t65.5 -66t24 -90.5t-24 -90t-65.5 -65.5t-90.5 -24.5zM78 -304v15q92 0 168 34t127.5 95t72.5 144t3 180h5q2 -47 -24.5 -89t-71 -68.5t-95.5 -26.5q-86 0 -133.5 53.5
t-47.5 124.5q0 48 26.5 89t70.5 65t97 24q54 0 100 -31t73 -87t27 -134q0 -108 -48.5 -196t-137.5 -140t-212 -52z" />
    <glyph glyph-name="less" unicode="&#x3c;" horiz-adv-x="1119" 
d="M120 769v17l880 418v-16zM1000 346l-880 418v17l880 -419v-16z" />
    <glyph glyph-name="equal" unicode="=" horiz-adv-x="1119" 
d="M120 914v14h880v-14h-880zM120 613v14h880v-14h-880z" />
    <glyph glyph-name="greater" unicode="&#x3e;" horiz-adv-x="1119" 
d="M120 1188v16l880 -418v-22l-880 -418v16l868 413z" />
    <glyph glyph-name="question" unicode="?" horiz-adv-x="1169" 
d="M498 488v228q94 29 148.5 89t78 141t23.5 174q0 71 -6.5 138t-29 121t-69 86t-125.5 32q-73 0 -141 -28t-122.5 -76t-87 -109t-32.5 -127h-13q0 43 23.5 76t61 52t77.5 19q43 0 80 -19.5t60.5 -55.5t23.5 -84q0 -52 -25 -88t-63 -54.5t-76 -18.5q-64 0 -114 46.5
t-50 126.5q0 62 32 126t91.5 117.5t142.5 86.5t186 33q154 0 265.5 -50t172 -140t60.5 -210q0 -115 -72 -204.5t-198 -143.5t-287 -63v-221h-15zM538 -20q-49 0 -90 24.5t-65.5 65.5t-24.5 90q0 50 24.5 91t65.5 65.5t90 24.5q50 0 91 -24.5t65 -65.5t24 -91q0 -49 -24 -90
t-65 -65.5t-91 -24.5z" />
    <glyph glyph-name="at" unicode="@" horiz-adv-x="2019" 
d="M838 -428q-137 0 -267 44.5t-234 144t-165.5 262.5t-61.5 399q0 188 53.5 360.5t150.5 317.5t229.5 253t291.5 167.5t335 59.5q190 0 329.5 -69t230.5 -183t135.5 -251.5t44.5 -274.5q0 -123 -35 -242t-104.5 -214.5t-174 -152.5t-244.5 -57q-89 0 -142.5 26.5t-78.5 69
t-28 92.5t7 96l144 620h300l-148 -633q-4 -19 -11.5 -48t-11.5 -60.5t-0.5 -59.5t20.5 -45t53 -17q88 0 167 49t140 135.5t96.5 200t35.5 240.5q0 135 -43 269.5t-132.5 246.5t-226 179.5t-323.5 67.5q-172 0 -328.5 -59t-287 -165.5t-227 -249.5t-149.5 -313.5t-53 -355.5
q0 -232 60.5 -392t162.5 -257.5t229 -141.5t261 -44q161 0 293 33t238 98.5t190 162.5l11 -9q-126 -147 -306.5 -223.5t-425.5 -76.5zM790 140q-85 0 -153.5 36.5t-108.5 108t-40 175.5q0 113 37.5 219.5t102.5 192t148 136t174 50.5q68 0 110.5 -30t66 -80t32 -111
t8.5 -122q0 -115 -26.5 -219t-75.5 -184t-118.5 -126t-156.5 -46zM911 221q43 0 86 38t78 104.5t55.5 151t20.5 177.5q0 32 -2.5 79.5t-12.5 95t-32.5 79.5t-62.5 32t-81 -44.5t-74.5 -118.5t-54.5 -165t-21 -184q0 -67 10.5 -122.5t33 -89t57.5 -33.5z" />
    <glyph glyph-name="A" unicode="A" horiz-adv-x="1577" 
d="M402 480v15h584v-15h-584zM870 1530l525 -1515h146v-15h-683v15h178l-379 1172l-412 -1172h233v-15h-441v15h190l533 1515h110z" />
    <glyph glyph-name="B" unicode="B" horiz-adv-x="1402" 
d="M37 0v15h660q81 0 144.5 51.5t99.5 143t36 210.5t-36 194.5t-99.5 111.5t-144.5 36h-220v11h281q156 0 282.5 -35t201.5 -116.5t75 -221.5q0 -217 -147.5 -308.5t-411.5 -91.5h-721zM217 7v1486h311v-1486h-311zM477 767v11h200q71 0 130.5 33.5t95 106.5t35.5 192
t-35.5 202.5t-95 128t-130.5 44.5h-640v15h681q249 0 394.5 -87.5t145.5 -282.5q0 -187 -138 -275t-402 -88h-241z" />
    <glyph glyph-name="C" unicode="C" horiz-adv-x="1417" 
d="M806 -20q-223 0 -384.5 99.5t-248.5 273.5t-87 397t87 397t248.5 273.5t384.5 99.5q93 0 172 -32t141 -90l176 102h14v-440h-17q-35 128 -102.5 226.5t-160 155t-203.5 56.5q-112 0 -187.5 -65t-119.5 -173t-63.5 -240.5t-19.5 -269.5q0 -136 19.5 -269t63.5 -241
t119.5 -173t187.5 -65q101 0 181 34.5t140.5 95t101.5 139.5t63 169h17v-440h-14l-161 112q-65 -61 -152.5 -96.5t-195.5 -35.5z" />
    <glyph glyph-name="D" unicode="D" horiz-adv-x="1522" 
d="M677 1500q238 0 408 -94.5t261 -263.5t91 -392q0 -167 -54 -304.5t-154.5 -237.5t-240.5 -154t-311 -54h-640v15h180v1470h-180v15h640zM528 15h149q116 0 194.5 59t126 161t68.5 235t21 280q0 148 -23.5 280.5t-73.5 234.5t-127.5 161t-185.5 59h-149v-1470z" />
    <glyph glyph-name="E" unicode="E" horiz-adv-x="1263" 
d="M37 0v15h180v1470h-180v15h1143v-410h-15q-15 107 -67.5 197t-139 144t-203.5 54h-227v-1470h207q137 0 231.5 56t149 154t69.5 225h15v-450h-1163zM855 526q-15 67 -55 122t-94 87.5t-111 32.5h-142v15h142q57 0 111 30.5t94 83t55 119.5h15v-490h-15z" />
    <glyph glyph-name="F" unicode="F" horiz-adv-x="1213" 
d="M855 496q-15 67 -52 122t-94 87.5t-134 32.5h-130v16h130q77 0 134 30t94 82.5t52 119.5h15v-490h-15zM1150 1500v-410h-15q-15 107 -62 197t-126.5 144t-191.5 54h-227v-1470h199v-15h-690v15h180v1470h-180v15h1113z" />
    <glyph glyph-name="G" unicode="G" horiz-adv-x="1519" 
d="M856 578h640v-16h-100v-252q-49 -51 -103.5 -108t-123.5 -107.5t-160 -82.5t-213 -32q-223 0 -382 95.5t-243.5 268.5t-84.5 406q0 175 58 316.5t160 243t236 156t286 54.5q87 0 167 -30.5t145 -84.5l197 95h14v-440h-16q-15 80 -58.5 158t-108 141t-145 100.5
t-169.5 37.5q-112 0 -191 -64.5t-129 -172.5t-73 -240.5t-23 -269.5q0 -136 16 -270.5t55.5 -243.5t110 -175t178.5 -66q63 0 109 27.5t77.5 68.5t52 84.5t31.5 74.5v312h-210v16z" />
    <glyph glyph-name="H" unicode="H" horiz-adv-x="1594" 
d="M1557 1500v-15h-180v-1470h180v-15h-670v15h180v717h-540v-717h181v-15h-671v15h180v1470h-180v15h671v-15h-181v-737h540v737h-180v15h670z" />
    <glyph glyph-name="I" unicode="I" horiz-adv-x="844" 
d="M37 0v15h220v1470h-220v15h770v-15h-239v-1470h239v-15h-770z" />
    <glyph glyph-name="J" unicode="J" horiz-adv-x="1071" 
d="M1033 1500v-15h-200v-1145q-28 -71 -67.5 -142t-94.5 -129.5t-129.5 -94t-173.5 -35.5q-102 0 -180.5 34.5t-122.5 94.5t-44 135q0 57 24.5 99t65.5 65t89 23q42 0 83 -20t68 -59t27 -95q0 -54 -25.5 -91.5t-66.5 -57.5t-89 -19q-46 1 -89 31t-55 74q13 -60 55 -103.5
t102.5 -67.5t127.5 -24q77 0 117 47.5t54.5 141.5t14.5 233v1105h-260v15h769z" />
    <glyph glyph-name="K" unicode="K" horiz-adv-x="1540" 
d="M291 434l899 1051h-233v15h480v-15h-225l-899 -1051h-22zM37 0v15h180v1470h-180v15h690v-15h-199v-1470h179v-15h-670zM807 0v15h196l-425 748l205 232l580 -980h164v-15h-720z" />
    <glyph glyph-name="L" unicode="L" horiz-adv-x="1239" 
d="M37 0v15h180v1470h-180v15h670v-15h-179v-1470h202q110 0 190 32t133.5 90t84.5 138t42 175h15v-450h-1158z" />
    <glyph glyph-name="M" unicode="M" horiz-adv-x="1786" 
d="M755 -20l-556 1520h311l401 -1075l377 1075h16l-531 -1520h-18zM207 1500v-1485h153v-15h-313v15h144v1470h-154v15h170zM1750 1500v-15h-141v-1470h141v-15h-611v15h161v1485h450z" />
    <glyph glyph-name="N" unicode="N" horiz-adv-x="1517" 
d="M253 1500v-1485h232v-15h-448v15h200v1470h-200v15h216zM1481 1500v-15h-210v-1505h-20l-1008 1520h369l643 -990v975h-228v15h454z" />
    <glyph glyph-name="O" unicode="O" horiz-adv-x="1531" 
d="M766 -20q-159 0 -285.5 58.5t-214.5 163t-134 244.5t-46 304t48.5 304t139 245t215.5 163t277 58q153 0 277.5 -58t215 -163t139 -245t48.5 -304t-46 -304t-134 -245t-214 -163t-286 -58zM766 -6q105 0 169.5 59.5t99.5 163.5t48 241t13 292t-15.5 292t-52.5 241
t-101 163.5t-161 59.5q-96 0 -160.5 -59.5t-101.5 -163.5t-52.5 -241t-15.5 -292t13 -292t48 -241t100 -163.5t169 -59.5z" />
    <glyph glyph-name="P" unicode="P" horiz-adv-x="1356" 
d="M727 1500q191 0 312.5 -51.5t179.5 -146.5t58 -225t-58 -221t-179.5 -139t-312.5 -48h-199v-654h179v-15h-670v15h180v1470h-180v15h690zM528 684h159q64 0 111.5 36t78 94.5t45.5 127t15 135.5t-15 138.5t-45.5 132.5t-78 99t-111.5 38h-159v-801z" />
    <glyph glyph-name="Q" unicode="Q" horiz-adv-x="1531" 
d="M1166 -500q-186 0 -301 24.5t-175 81.5t-82 155.5t-22 246.5q90 -24 176.5 -24t173.5 24q0 -136 6 -230.5t28 -152.5t68.5 -84t127.5 -26v-15zM766 -20q-159 0 -285.5 58.5t-214.5 163t-134 244.5t-46 304t48.5 304t139 245t215.5 163t277 58q153 0 277.5 -58t215 -163
t139 -245t48.5 -304t-46 -304t-134 -245t-214 -163t-286 -58zM766 -6q105 0 169.5 59.5t99.5 163.5t48 241t13 292t-15.5 292t-52.5 241t-101 163.5t-161 59.5q-96 0 -160.5 -59.5t-101.5 -163.5t-52.5 -241t-15.5 -292t13 -292t48 -241t100 -163.5t169 -59.5z" />
    <glyph glyph-name="R" unicode="R" horiz-adv-x="1493" 
d="M398 765v11h289q96 0 160.5 38t97.5 116.5t33 197.5t-33 198.5t-97.5 119t-159.5 39.5h-651v15h700q166 0 292.5 -39t197.5 -121t71 -212t-67 -210t-192.5 -116.5t-301.5 -36.5h-339zM37 0v15h711v-15h-711zM237 8v1484h310v-1484h-310zM1227 -15q-102 0 -160 32.5
t-85.5 88t-35.5 124.5t-9 142.5t-6.5 142.5t-27.5 124.5t-73 88t-143 32.5h-289v10h449q140 0 222 -41t122 -108.5t52.5 -148t12.5 -161.5t2 -148t21.5 -108t71.5 -41q32 0 61 7.5t50 17.5l5 -13q-24 -13 -87.5 -27t-152.5 -14z" />
    <glyph glyph-name="S" unicode="S" horiz-adv-x="1198" 
d="M621 -30q-113 0 -196.5 37t-142.5 98l-180 -125h-14v470h16q28 -87 70 -169.5t102.5 -149t143 -106t191.5 -39.5q95 0 164 38t106.5 104.5t37.5 153.5q0 81 -44 136t-116 95t-158 75.5t-172.5 77t-158.5 100.5t-116 144.5t-44 209.5q0 125 62.5 215t164 137.5t218.5 47.5
q90 0 165.5 -29t134.5 -86l175 115h13v-450h-16q-40 135 -104 232t-153 149t-204 52q-121 0 -183 -67t-62 -169q0 -73 43.5 -124t114.5 -90t156.5 -76t170.5 -81.5t156 -105.5t114.5 -148.5t43.5 -211.5q0 -140 -66 -243t-179 -160t-254 -57z" />
    <glyph glyph-name="T" unicode="T" horiz-adv-x="1369" 
d="M310 0v15h220v1470h-127q-81 0 -141.5 -36.5t-103 -100.5t-68.5 -148.5t-37 -179.5h-16v480h1296v-480h-16q-11 95 -37 179.5t-68.5 148.5t-103 100.5t-141.5 36.5h-127v-1470h220v-15h-750z" />
    <glyph glyph-name="U" unicode="U" horiz-adv-x="1457" 
d="M1419 1500v-15h-195v-1025q0 -247 -112 -368.5t-356 -121.5q-282 0 -411 115.5t-129 374.5v1025h-180v15h690v-15h-200v-1005q0 -99 12 -186t44.5 -153.5t92.5 -104t157 -37.5q116 0 200.5 48t130.5 149.5t46 263.5v1025h-186v15h396z" />
    <glyph glyph-name="V" unicode="V" horiz-adv-x="1570" 
d="M1538 1500v-15h-181l-542 -1515h-113l-525 1515h-145v15h720v-15h-215l381 -1177l422 1177h-247v15h445z" />
    <glyph glyph-name="W" unicode="W" horiz-adv-x="2211" 
d="M734 -20l-547 1505h-163v15h1674v-15h-544l408 -1142l428 1142h-202v15h400v-15h-181l-562 -1505h-65l-548 1505h-293l410 -1142l177 466l9 -25l-306 -804h-95zM1315 928l-14 11l207 556l17 -2z" />
    <glyph glyph-name="X" unicode="X" horiz-adv-x="1590" 
d="M884 0v15h185l-847 1470h-129v15h680v-15h-199l856 -1470h136v-15h-682zM24 0v15h218l545 819l17 -5l-543 -814h241v-15h-478zM790 764l459 721h-232v15h439v-15h-189l-461 -726z" />
    <glyph glyph-name="Y" unicode="Y" horiz-adv-x="1478" 
d="M423 0v15h180v705l-443 765h-136v15h700v-15h-204l385 -704l355 704h-224v15h418v-15h-175l-366 -722v-748h201v-15h-691z" />
    <glyph glyph-name="Z" unicode="Z" horiz-adv-x="1232" 
d="M27 0v15l770 1470h-303q-137 0 -220 -44t-126.5 -124t-63.5 -187h-16v370h1079v-15l-770 -1470h364q137 0 219.5 46t126.5 134t64 215h15v-410h-1139z" />
    <glyph glyph-name="bracketleft" unicode="[" horiz-adv-x="709" 
d="M110 -300v1860h300v-1860h-300zM110 -300v15h540v-15h-540zM110 1545v15h540v-15h-540z" />
    <glyph glyph-name="backslash" unicode="\" horiz-adv-x="1042" 
d="M946 -300l-866 1860h17l866 -1860h-17z" />
    <glyph glyph-name="bracketright" unicode="]" horiz-adv-x="709" 
d="M300 -300v1860h300v-1860h-300zM60 -300v15h540v-15h-540zM60 1545v15h540v-15h-540z" />
    <glyph glyph-name="asciicircum" unicode="^" horiz-adv-x="1089" 
d="M210 1252l-10 8l280 280h130l280 -280l-10 -8l-336 194z" />
    <glyph glyph-name="underscore" unicode="_" horiz-adv-x="1119" 
d="M-11 -307v14h1140v-14h-1140z" />
    <glyph glyph-name="grave" unicode="`" horiz-adv-x="1000" 
d="M689 1683l-279 85q-49 10 -76 43t-30.5 74t17.5 73q19 28 57 41.5t80.5 1.5t71.5 -60l167 -248z" />
    <glyph glyph-name="a" unicode="a" horiz-adv-x="1160" 
d="M888 -20q-64 0 -115.5 17t-81.5 56t-30 103v453q0 72 -13.5 143t-53.5 118t-120 47q-47 0 -100.5 -11t-101 -34.5t-77.5 -60.5t-30 -89h-16q0 63 47 101.5t110 38.5q65 0 114.5 -35t49.5 -101q0 -71 -50.5 -107.5t-113.5 -36.5q-69 0 -114 37.5t-45 102.5q0 56 32.5 96.5
t87 66.5t121.5 38.5t135 12.5q153 0 244.5 -42.5t132 -116.5t40.5 -168v-506q0 -33 16 -56t54 -23q28 0 68.5 25t66.5 78l9 -9q-29 -66 -100 -102t-166 -36zM362 -20q-130 0 -207.5 66.5t-77.5 180.5q0 134 115 207t328 73h234v-13h-166q-76 0 -121.5 -39.5t-66 -95.5
t-20.5 -106q0 -47 11 -90t36 -70t67 -27q44 0 82 32t61.5 97t23.5 167h11q0 -118 -35.5 -204t-104.5 -132t-170 -46z" />
    <glyph glyph-name="b" unicode="b" horiz-adv-x="1265" 
d="M769 -20q-131 0 -211.5 93.5t-101.5 263.5v-337h-412v15h132v1470h-132v15h412v-917q21 170 101 262.5t212 92.5q109 0 205.5 -57t156.5 -164t60 -257t-60 -257.5t-156.5 -165t-205.5 -57.5zM706 16q58 0 94.5 51.5t54 150.5t17.5 242t-17.5 241.5t-54 149.5t-94.5 51
q-62 0 -119.5 -49t-94 -147t-36.5 -246t36.5 -246.5t94 -148t119.5 -49.5z" />
    <glyph glyph-name="c" unicode="c" horiz-adv-x="1049" 
d="M561 -20q-136 0 -246 52.5t-175 159t-65 268.5q0 143 57.5 251t166.5 168.5t265 60.5q117 0 205 -37t137 -98.5t49 -136.5q0 -73 -46.5 -115t-111.5 -42q-37 0 -75 16.5t-63.5 51t-25.5 87.5q0 71 50 110.5t114 39.5q62 0 109 -38.5t47 -109.5h-13q0 57 -29 103
t-75.5 78.5t-102 50t-108.5 17.5q-73 0 -116.5 -44t-66 -114t-30 -149t-7.5 -150q0 -86 10 -166t34 -143.5t68 -100.5t113 -37q81 0 142.5 34t104.5 94.5t68 141.5h16q-39 -135 -134 -219t-266 -84z" />
    <glyph glyph-name="d" unicode="d" horiz-adv-x="1265" 
d="M497 -19q-109 0 -205.5 57t-156.5 164t-60 257t60 257.5t156.5 165t205.5 57.5q131 0 211 -93.5t101 -263.5v903h-131v15h412v-1485h131v-15h-412v336q-21 -170 -100.5 -262.5t-211.5 -92.5zM559 17q63 0 120.5 49t93.5 147t36 246t-36 246.5t-93.5 148t-120.5 49.5
q-58 0 -94.5 -51.5t-53.5 -150.5t-17 -242t17 -241.5t53.5 -149.5t94.5 -51z" />
    <glyph glyph-name="e" unicode="e" horiz-adv-x="1065" 
d="M564 -20q-141 0 -251.5 55.5t-174 162.5t-63.5 262t61.5 262t170.5 162.5t250 55.5q148 0 244.5 -59.5t144 -155.5t47.5 -205h-784v15h487q0 64 -4.5 132t-18 127t-41.5 95t-75 36q-51 0 -85 -37t-53 -100t-27 -142.5t-8 -165.5q0 -97 9.5 -183t34.5 -151.5t69.5 -103.5
t114.5 -38q139 0 235.5 79t133.5 199h16q-39 -129 -145.5 -215.5t-287.5 -86.5z" />
    <glyph glyph-name="f" unicode="f" horiz-adv-x="810" 
d="M207 0v1023q0 141 60 253.5t168.5 178t255.5 65.5q89 0 150.5 -35.5t93.5 -88t32 -104.5q0 -80 -49.5 -122t-110.5 -42q-35 0 -71 15.5t-60.5 48.5t-24.5 85q0 72 47.5 111.5t103.5 39.5q40 0 77.5 -16t61.5 -46.5t24 -73.5h-13q0 58 -34 106t-89.5 77t-122.5 29
q-82 0 -132.5 -53t-73.5 -148.5t-23 -222.5v-1080h-270zM36 0v15h673v-15h-673zM36 905v15h713v-15h-713z" />
    <glyph glyph-name="g" unicode="g" horiz-adv-x="1259" 
d="M518 -520q-90 0 -175 14t-152.5 44.5t-107 78.5t-39.5 115q0 63 35.5 103.5t87.5 63.5t104.5 32t86.5 9h11q-44 -26 -64 -71.5t-20 -109.5q0 -65 30 -125t92.5 -97.5t160.5 -37.5q67 0 133 16t119.5 48t86.5 79.5t33 111.5q0 67 -38.5 105.5t-98.5 55.5t-125 17h-67.5
h-92.5h-68q-154 0 -248 45.5t-94 145.5q0 62 35 103t93 65.5t128 35.5t141 11l-1 -10q-28 0 -65 -5t-71.5 -16.5t-57 -30t-22.5 -44.5q0 -40 49.5 -51.5t131.5 -11.5q35 0 69.5 0.5t67.5 1t61 0.5q56 0 115.5 -14.5t110 -51t82 -102t31.5 -167.5q0 -95 -38.5 -163
t-106 -110.5t-155.5 -62.5t-188 -20zM502 326q-70 0 -142 17t-132.5 53.5t-97 95t-36.5 141.5t36.5 141t97 94.5t132.5 53.5t142 17t141 -17t130.5 -53.5t95.5 -94.5t36 -141t-36 -141.5t-95.5 -95t-130.5 -53.5t-141 -17zM502 341q41 0 67 41t38.5 107.5t12.5 143.5
q0 81 -12.5 147.5t-38.5 105t-67 38.5q-42 0 -68 -38.5t-38.5 -105t-12.5 -147.5q0 -77 7 -143.5t32.5 -107.5t79.5 -41zM1094 619q-48 0 -87 33t-39 93q0 62 39.5 90t86.5 28q45 0 87 -28t42 -81h-13q0 61 -48 111t-134 50q-44 0 -93 -20t-90 -67.5t-61 -131.5l-11 7
q20 87 63 137t94.5 70t96.5 20q64 0 108 -26t67 -66.5t23 -83.5q0 -75 -41 -105t-90 -30z" />
    <glyph glyph-name="h" unicode="h" horiz-adv-x="1240" 
d="M44 0v15h132v1470h-132v15h412v-1485h101v-15h-513zM685 0v15h101v614q0 84 -7 139t-27.5 81.5t-62.5 26.5q-69 0 -114 -41t-71.5 -106t-37 -140t-10.5 -143l-12 -4q0 73 12 159t46.5 163t101.5 126.5t177 49.5q113 0 174.5 -39t85.5 -107.5t24 -155.5v-623h132v-15h-512
z" />
    <glyph glyph-name="i" unicode="i" horiz-adv-x="636" 
d="M326 1179q-71 0 -120.5 49.5t-49.5 120.5q0 73 49.5 121.5t120.5 48.5q73 0 121.5 -48.5t48.5 -121.5q0 -71 -48.5 -120.5t-121.5 -49.5zM466 920v-905h132v-15h-544v15h132v890h-132v15h412z" />
    <glyph glyph-name="j" unicode="j" horiz-adv-x="660" 
d="M62 -520q-88 0 -156 32t-106.5 86t-38.5 120q0 73 48 118.5t116 45.5q40 0 77 -18.5t60.5 -52.5t23.5 -82q0 -60 -44 -104.5t-117 -44.5q-44 0 -80.5 20t-59 51.5t-22.5 66.5h14q0 -63 37 -113t98 -79.5t134 -29.5q72 0 108.5 48.5t50.5 129t15 177t1 191.5v863h-172v15
h451v-943q0 -98 -31.5 -187.5t-90 -159t-138.5 -110t-178 -40.5zM345 1180q-72 0 -121 49.5t-49 120.5q0 73 49 121.5t121 48.5t120.5 -48.5t48.5 -121.5q0 -71 -48.5 -120.5t-120.5 -49.5z" />
    <glyph glyph-name="k" unicode="k" horiz-adv-x="1281" 
d="M44 0v15h172v1470h-172v15h452v-1485h110v-15h-562zM703 0v15h123l-385 518l522 372h-232v15h429v-15h-175l-324 -237l510 -653h87v-15h-555z" />
    <glyph glyph-name="l" unicode="l" horiz-adv-x="711" 
d="M496 1500v-1485h171v-15h-623v15h172v1470h-172v15h452z" />
    <glyph glyph-name="m" unicode="m" horiz-adv-x="1770" 
d="M455 920v-905h97v-15h-508v15h132v890h-132v15h411zM1025 638v-623h97v-15h-472v15h96v615q0 84 -6.5 139t-26 82t-55.5 27q-57 0 -95.5 -40t-62.5 -104t-34.5 -139t-10.5 -148l-10 -4q0 73 10.5 159t42 163t94.5 126t167 49q100 0 158.5 -39t83 -107.5t24.5 -155.5z
M1595 638v-623h132v-15h-508v15h97v615q0 84 -7 139t-26.5 82t-56.5 27q-56 0 -95 -40t-62 -104t-33.5 -139t-10.5 -148l-10 -4q0 73 10 159t41 163t94 126t168 49q100 0 158.5 -39t83.5 -107.5t25 -155.5z" />
    <glyph glyph-name="n" unicode="n" horiz-adv-x="1240" 
d="M455 920v-905h102v-15h-513v15h132v890h-132v15h411zM1065 638v-623h132v-15h-512v15h101v614q0 84 -7 139t-27.5 81.5t-62.5 26.5q-69 0 -114.5 -41t-71.5 -106t-37 -140t-11 -143l-12 -4q0 73 12 159t46.5 163t102 126.5t178.5 49.5q112 0 173.5 -39t85.5 -107.5
t24 -155.5z" />
    <glyph glyph-name="o" unicode="o" horiz-adv-x="1124" 
d="M563 -20q-151 0 -260.5 66t-168.5 175t-59 239t59 239t168.5 175t260.5 66t260.5 -66t168.5 -175t59 -239t-59 -239t-168.5 -175t-260.5 -66zM563 -5q55 0 91.5 38.5t58 104.5t30 149.5t8.5 172.5q0 90 -8.5 173t-30 149t-58 104.5t-91.5 38.5q-56 0 -92.5 -38.5
t-57.5 -104.5t-30 -149t-9 -173q0 -89 9 -172.5t30 -149.5t57.5 -104.5t92.5 -38.5z" />
    <glyph glyph-name="p" unicode="p" horiz-adv-x="1265" 
d="M44 -500v15h132v1390h-132v15h412v-337q21 170 101 262.5t212 92.5q109 0 205.5 -57t156.5 -164t60 -257t-60 -257.5t-156.5 -165t-205.5 -57.5q-131 0 -211.5 93.5t-101.5 263.5v-822h131v-15h-543zM706 16q58 0 94.5 51.5t54 150.5t17.5 242t-17.5 241.5t-54 149.5
t-94.5 51q-62 0 -119.5 -49t-94 -147t-36.5 -246t36.5 -246.5t94 -148t119.5 -49.5z" />
    <glyph glyph-name="q" unicode="q" horiz-adv-x="1265" 
d="M678 -500v15h131v821q-21 -170 -100.5 -262.5t-211.5 -92.5q-109 0 -205.5 57t-156.5 164t-60 257t60 257.5t156.5 165t205.5 57.5q131 0 211 -93.5t101 -263.5v338h412v-15h-131v-1390h131v-15h-543zM559 17q63 0 120.5 49t93.5 147t36 246t-36 246.5t-93.5 148
t-120.5 49.5q-58 0 -94.5 -51.5t-53.5 -150.5t-17 -242t17 -241.5t53.5 -149.5t94.5 -51z" />
    <glyph glyph-name="r" unicode="r" horiz-adv-x="978" 
d="M445 436q0 103 14 194t46.5 160.5t87 109.5t135.5 40q69 0 116.5 -30.5t73 -78.5t25.5 -101q0 -70 -45.5 -121t-120.5 -51t-121.5 46t-46.5 109q0 74 47.5 120.5t118.5 46.5q48 0 85.5 -21.5t59 -55.5t21.5 -73h-14q0 49 -24 93.5t-68.5 72.5t-107.5 28q-76 0 -128 -38.5
t-83.5 -106t-46 -156t-14.5 -187.5h-10zM455 920v-905h150v-15h-561v15h132v890h-132v15h411z" />
    <glyph glyph-name="s" unicode="s" horiz-adv-x="904" 
d="M85 -20v312h16q26 -90 79 -156.5t127.5 -103t163.5 -36.5q63 0 112 17.5t77 51.5t28 83q0 55 -42 87t-108.5 54.5t-141 46.5t-140.5 60.5t-108 97t-42 157.5q0 79 37.5 144t107 104t164.5 39q70 0 126.5 -23t100.5 -59l116 84h13v-280h-15q-26 69 -72 128.5t-112.5 96.5
t-155.5 37q-54 0 -94 -16.5t-62 -45t-22 -66.5q0 -53 43.5 -85.5t112 -56t145 -48.5t145 -62.5t112 -96.5t43.5 -152q0 -104 -51.5 -173.5t-134 -104.5t-174.5 -35q-78 0 -144 25t-118 71l-118 -96h-14z" />
    <glyph glyph-name="t" unicode="t" horiz-adv-x="738" 
d="M402 -14q-97 0 -147 32.5t-68.5 88t-18.5 125.5v888q68 0 148 15.5t132 44.5v-1004q0 -75 18 -106t59 -31q47 0 99.5 44t84.5 121l14 -6q-37 -93 -117.5 -152.5t-203.5 -59.5zM24 905v15h638v-15h-638z" />
    <glyph glyph-name="u" unicode="u" horiz-adv-x="1241" 
d="M460 -20q-112 0 -173.5 39.5t-86 107.5t-24.5 155v623h-132v15h412v-629q0 -84 7 -139t27.5 -81.5t62.5 -26.5q69 0 114.5 41t71 106t36.5 140t11 143l12 4q0 -73 -11.5 -159t-46 -163t-101.5 -126.5t-179 -49.5zM786 0v905h-130v15h410v-905h132v-15h-412z" />
    <glyph glyph-name="v" unicode="v" horiz-adv-x="1148" 
d="M1132 920v-15h-160l-375 -925h-84l-380 925h-125v15h582v-15h-149l242 -666l271 666h-189v15h367z" />
    <glyph glyph-name="w" unicode="w" horiz-adv-x="1654" 
d="M1637 920v-15h-183l-309 -925h-87l-255 695l-285 -695h-87l-299 925h-124v15h588v-15h-169l187 -648l280 683h146l195 -639l202 604h-204v15h404z" />
    <glyph glyph-name="x" unicode="x" horiz-adv-x="1157" 
d="M583 0v15h127l-561 890h-111v15h566v-15h-135l569 -890h92v-15h-547zM28 0v15h142l754 890h-162v15h343v-15h-161l-754 -890h202v-15h-364z" />
    <glyph glyph-name="y" unicode="y" horiz-adv-x="1205" 
d="M453 905l317 -627l-157 -326l-494 953h-120v15h646v-15h-192zM1217 920v-15h-156l-591 -1289q-28 -59 -68 -97.5t-109 -38.5q-38 0 -73.5 17t-59 50.5t-23.5 83.5q0 46 22 81.5t58.5 55.5t80.5 20q43 0 80 -23.5t58 -63.5t14 -90l593 1294h-194v15h368z" />
    <glyph glyph-name="z" unicode="z" horiz-adv-x="966" 
d="M35 0v15l538 890h-151q-94 0 -159.5 -40t-104 -114t-53.5 -175h-15v344h800v-15l-541 -890h196q88 0 151.5 20.5t106 63t68 109.5t36.5 160h15v-368h-887z" />
    <glyph glyph-name="braceleft" unicode="{" horiz-adv-x="663" 
d="M604 1560v-15q-62 0 -104 -36.5t-63 -94t-21 -120.5q0 -66 17 -123.5t34 -123t17 -155.5q0 -81 -36 -131.5t-115 -80t-208 -49.5q129 -20 208 -49.5t115 -79.5t36 -132q0 -90 -17 -155.5t-34 -123t-17 -123.5q0 -63 21 -121t63 -95t104 -37v-15q-190 0 -298 34
t-152 100.5t-44 165.5q0 96 18 164t42 119.5t42 95.5t18 91q0 62 -37.5 100t-82.5 53v16q45 15 82.5 53.5t37.5 99.5q0 47 -18 91.5t-42 96t-42 119.5t-18 163q0 99 44 165.5t152 99.5t298 33z" />
    <glyph glyph-name="bar" unicode="|" horiz-adv-x="464" 
d="M225 -500v2060h15v-2060h-15z" />
    <glyph glyph-name="braceright" unicode="}" horiz-adv-x="663" 
d="M554 627q-134 20 -216.5 49.5t-120 80t-37.5 133.5q0 90 17 155.5t34 123t17 123.5q0 63 -21 121t-63 95t-104 37v15q190 0 298 -33.5t152 -100.5t44 -166q0 -95 -18 -163t-42 -120t-42 -96t-18 -91q0 -61 37.5 -99.5t82.5 -53.5v-10zM60 -300v15q62 0 104 36.5t63 94
t21 120.5q0 66 -17 123.5t-34 123t-17 155.5q0 83 37.5 133.5t120 80.5t216.5 50v-11q-45 -15 -82.5 -53t-37.5 -100q0 -47 18 -91t42 -95.5t42 -119.5t18 -164q0 -99 -44 -165t-152 -99.5t-298 -33.5z" />
    <glyph glyph-name="asciitilde" unicode="~" horiz-adv-x="1375" 
d="M878 656q-76 0 -126 19t-86 47t-70 56t-76.5 47t-107.5 19q-52 0 -97 -15.5t-72.5 -50.5t-27.5 -92h-15q0 115 37.5 196.5t104.5 124.5t156 43q66 0 112 -19t82.5 -47t71.5 -56t77 -47t103 -19q63 0 112 16t77 50.5t28 91.5h15q0 -115 -37 -196.5t-104.5 -124.5
t-156.5 -43z" />
    <glyph glyph-name="uni00A0" unicode="&#xa0;" horiz-adv-x="500" 
 />
    <glyph glyph-name="exclamdown" unicode="&#xa1;" horiz-adv-x="758" 
d="M383 -476q-92 0 -136 58t-44 142q0 9 1 18.5t2 19.5q8 110 35 207.5t58 189.5t54 182t23 183h15q0 -93 23 -183t54 -182t58.5 -189.5t35.5 -207.5q1 -10 0.5 -19.5t-0.5 -18.5q0 -84 -42.5 -142t-136.5 -58zM382 700q-50 0 -90.5 24.5t-65 65.5t-24.5 90t24.5 90.5
t65 65.5t90.5 24q49 0 90 -24t65.5 -65.5t24.5 -90.5t-24.5 -90t-65.5 -65.5t-90 -24.5z" />
    <glyph glyph-name="cent" unicode="&#xa2;" horiz-adv-x="1049" 
d="M561 -20q-136 0 -246 52.5t-175 159t-65 268.5q0 143 57.5 251t166.5 168.5t265 60.5q117 0 205 -37t137 -98.5t49 -136.5q0 -73 -46.5 -115t-111.5 -42q-37 0 -75 16.5t-63.5 51t-25.5 87.5q0 71 50 110.5t114 39.5q62 0 109 -38.5t47 -109.5h-13q0 57 -29 103
t-75.5 78.5t-102 50t-108.5 17.5q-73 0 -116.5 -44t-66 -114t-30 -149t-7.5 -150q0 -86 10 -166t34 -143.5t68 -100.5t113 -37q81 0 142.5 34t104.5 94.5t68 141.5h16q-39 -135 -134 -219t-266 -84zM560 -170v1279h15v-1279h-15z" />
    <glyph glyph-name="sterling" unicode="&#xa3;" horiz-adv-x="1311" 
d="M145 -40q-11 83 7 152.5t51.5 128t69 107.5t60.5 92t25 81q0 86 -24.5 155.5t-56.5 134t-56.5 134t-24.5 155.5q0 140 71 233t199.5 140t301.5 47q122 0 214.5 -32.5t155.5 -85.5t95 -116t32 -125q0 -53 -25 -94.5t-65.5 -65t-89.5 -23.5q-42 0 -81.5 21.5t-65.5 60
t-26 90.5q0 48 24 86.5t63.5 61t85.5 22.5q47 0 87.5 -22t65.5 -58t25 -79h-13q0 61 -31 121t-90 109t-141.5 79t-185.5 30q-78 0 -129 -30t-81 -79.5t-42 -107t-12 -113.5q0 -74 17 -132t39 -107.5t39 -99t17 -105.5q0 -90 -38 -156t-97 -118.5t-124.5 -101.5
t-121.5 -103.5t-87.5 -123.5t-21.5 -163h-15zM913 -61q-102 0 -181.5 18.5t-143 42.5t-115.5 42.5t-99 18.5q-41 0 -86.5 -12.5t-81 -35t-45.5 -53.5h-9q15 65 51 128t88 114t116.5 81t135.5 30q75 0 125 -10t89.5 -23.5t80.5 -23.5t98 -10q47 0 101.5 6.5t102.5 26t78.5 57
t30.5 98.5h15q0 -182 -44 -290.5t-123.5 -156.5t-183.5 -48zM29 795v16h901v-16h-901z" />
    <glyph glyph-name="currency" unicode="&#xa4;" horiz-adv-x="1140" 
d="M90 278l-10 11l156 157q-124 130 -124 324t124 323l-157 157l11 11l157 -157q59 58 141 91.5t183 33.5t183 -33.5t140 -91.5l157 156l11 -10l-157 -157q123 -128 123 -323q0 -193 -122 -324l155 -156l-11 -11l-155 156q-59 -57 -141 -91t-183 -34t-183 33.5t-141 91.5z
M571 327q136 0 234.5 61t151.5 161.5t53 220.5t-53 220.5t-151.5 161t-234.5 60.5t-235 -60.5t-152.5 -161t-53.5 -220.5t53.5 -220.5t152.5 -161.5t235 -61z" />
    <glyph glyph-name="yen" unicode="&#xa5;" horiz-adv-x="1478" 
d="M603 0v720l-451 780h360l393 -719l362 715h19l-373 -733v-763h-310zM423 0v15h691v-15h-691zM277 333v15h995v-15h-995zM277 634v15h995v-15h-995zM24 1485v15h700v-15h-700zM1036 1485v15h418v-15h-418z" />
    <glyph glyph-name="brokenbar" unicode="&#xa6;" horiz-adv-x="439" 
d="M215 -500v832h15v-832h-15zM215 818v742h15v-742h-15z" />
    <glyph glyph-name="section" unicode="&#xa7;" horiz-adv-x="952" 
d="M288 1314q0 -61 42.5 -103.5t109.5 -76t142 -66t142 -71t109.5 -92t42.5 -130.5q0 -67 -30.5 -112.5t-79 -79.5t-102.5 -65l-12 1q56 36 77.5 63.5t21.5 69.5q0 59 -44.5 98t-115 68t-149.5 58.5t-149.5 69.5t-115 99.5t-44.5 150.5q0 104 53 176.5t136.5 110t175.5 37.5
q66 0 131 -14.5t119 -47t86 -85t32 -128.5q0 -72 -43 -118.5t-107 -46.5q-57 0 -97.5 35.5t-40.5 100.5q0 60 44.5 98t99.5 38q39 0 75 -22t45 -53q-8 84 -61 134t-128.5 72t-154.5 22q-64 0 -111.5 -28.5t-73 -72t-25.5 -90.5zM228 867q0 -59 46.5 -97.5t120 -67
t155.5 -57.5t155.5 -68.5t120 -100t46.5 -152.5q0 -104 -51 -181.5t-145 -120t-221 -42.5q-66 0 -135.5 14.5t-128 47t-95 87t-36.5 133.5q0 73 43 118.5t106 45.5q57 0 97.5 -35.5t40.5 -101.5q0 -59 -44.5 -97t-101.5 -38q-38 0 -73 20t-45 53q9 -66 45 -110.5t89.5 -71
t115.5 -38.5t122 -12q84 0 138.5 31.5t81.5 79t27 94.5q0 59 -43.5 98.5t-113 69t-147 58t-146.5 63.5t-113 85.5t-44 125.5q0 73 32 128.5t77.5 95.5t86.5 66h13q-19 -14 -36.5 -31.5t-28.5 -40t-11 -51.5z" />
    <glyph glyph-name="dieresis" unicode="&#xa8;" horiz-adv-x="1000" 
d="M687 1685q-47 0 -81 34t-34 81q0 48 34 82t81 34q48 0 82 -34t34 -82q0 -47 -34 -81t-82 -34zM313 1685q-47 0 -81 34t-34 81q0 48 34 82t81 34q48 0 82 -34t34 -82q0 -47 -34 -81t-82 -34z" />
    <glyph glyph-name="copyright" unicode="&#xa9;" horiz-adv-x="1739" 
d="M894 301q81 0 139.5 36t96.5 95.5t55 131.5h11v-264h-9l-96 67q-39 -36 -91.5 -57.5t-117.5 -21.5q-134 0 -231 59.5t-149 164t-52 238.5t52 238.5t149 164t231 59.5q56 0 103.5 -19t84.5 -54l105 61h9v-264h-11q-21 76 -61 135.5t-95.5 93.5t-122.5 34t-112 -39
t-72 -104t-38.5 -144.5t-11.5 -161.5t11.5 -161.5t38.5 -144.5t72 -104t112 -39zM870 1520q160 0 299.5 -59.5t245.5 -165.5t165.5 -245.5t59.5 -299.5t-59.5 -299.5t-165.5 -245.5t-245.5 -165.5t-299.5 -59.5t-299.5 59.5t-245.5 165.5t-165.5 245.5t-59.5 299.5
t59.5 299.5t165.5 245.5t245.5 165.5t299.5 59.5zM870 -5q156 0 293 58.5t241 162.5t162.5 241t58.5 293t-58.5 293t-162.5 241t-241 162.5t-293 58.5t-293 -58.5t-241 -162.5t-162.5 -241t-58.5 -293t58.5 -293t162.5 -241t241 -162.5t293 -58.5z" />
    <glyph glyph-name="ordfeminine" unicode="&#xaa;" horiz-adv-x="712" 
d="M525 952q-58 0 -97.5 24t-39.5 81v272q0 44 -7.5 86.5t-31.5 70.5t-72 28q-38 0 -81 -11.5t-74 -37.5t-31 -68h-10q0 38 28.5 61t65.5 23q39 0 69 -21t30 -60q0 -43 -30.5 -65t-68.5 -22q-41 0 -68 22.5t-27 61.5q0 45 33.5 73.5t85.5 42t107 13.5q91 0 146 -25.5
t79.5 -70t24.5 -101.5v-303q0 -20 9.5 -34t33.5 -14q16 0 40 15t40 47l5 -5q-17 -40 -59.5 -61.5t-99.5 -21.5zM209 952q-78 0 -124.5 40t-46.5 108q0 80 69 124t197 44h140v-8h-99q-46 0 -73.5 -23.5t-39.5 -57.5t-12 -63q0 -43 15.5 -77.5t52.5 -34.5q40 0 70 42.5
t30 134.5h7q0 -106 -47.5 -167.5t-138.5 -61.5z" />
    <glyph glyph-name="guillemotleft" unicode="&#xab;" horiz-adv-x="1449" 
d="M1330 290l-720 468v34l720 468l8 -7l-356 -477l356 -479zM770 290l-720 468v34l720 468l8 -7l-376 -477l376 -479z" />
    <glyph glyph-name="logicalnot" unicode="&#xac;" horiz-adv-x="971" 
d="M837 406v359h-717v15h732v-374h-15z" />
    <glyph glyph-name="uni00AD" unicode="&#xad;" horiz-adv-x="719" 
d="M120 543v14h480v-14h-480z" />
    <glyph glyph-name="registered" unicode="&#xae;" horiz-adv-x="1739" 
d="M870 -20q-160 0 -299.5 59.5t-245.5 165.5t-165.5 245.5t-59.5 299.5t59.5 299.5t165.5 245.5t245.5 165.5t299.5 59.5t299.5 -59.5t245.5 -165.5t165.5 -245.5t59.5 -299.5t-59.5 -299.5t-165.5 -245.5t-245.5 -165.5t-299.5 -59.5zM870 -5q156 0 293 58.5t241 163
t162.5 241t58.5 292.5t-58.5 292.5t-162.5 241t-241 163t-293 58.5t-293 -58.5t-241 -163t-162.5 -241t-58.5 -292.5t58.5 -292.5t162.5 -241t241 -163t293 -58.5zM1180 287q-82 0 -118.5 33.5t-46.5 86.5t-9.5 112.5t-6.5 112.5t-38 86.5t-105 33.5h-84v-447h120v-9h-427v9
h121v882h-121v9h421q149 0 242.5 -53t93.5 -170q0 -106 -72.5 -156.5t-203.5 -59.5q101 -3 153.5 -36.5t72.5 -85t22 -108.5t1 -108t10 -83t49 -32q19 0 36.5 4.5t29.5 10.5l4 -8q-14 -8 -52.5 -16t-91.5 -8zM772 761h84q86 0 130 52.5t44 158.5q0 108 -44 161.5t-130 53.5
h-84v-426z" />
    <glyph glyph-name="macron" unicode="&#xaf;" horiz-adv-x="1000" 
d="M260 1700v15h480v-15h-480z" />
    <glyph glyph-name="degree" unicode="&#xb0;" horiz-adv-x="639" 
d="M320 1120q-66 0 -120.5 32.5t-87 87t-32.5 120.5t32.5 120.5t87 87t120.5 32.5t120.5 -32.5t87 -87t32.5 -120.5t-32.5 -120.5t-87 -87t-120.5 -32.5zM320 1171q81 0 135 54t54 135t-54 135t-135 54q-80 0 -134.5 -54t-54.5 -135q0 -80 54.5 -134.5t134.5 -54.5z" />
    <glyph glyph-name="plusminus" unicode="&#xb1;" horiz-adv-x="1059" 
d="M180 704v135h699v-135h-699zM121 14v14h819v-14h-819zM462 421v699h135v-699h-135z" />
    <glyph glyph-name="uni00B2" unicode="&#xb2;" horiz-adv-x="939" 
d="M171 916v120l266 206q75 58 111 135t36 175q0 103 -46.5 176t-123.5 73q-62 0 -114 -29.5t-81.5 -84t-24.5 -128.5h-9q0 35 36.5 63t79.5 28q40 0 73.5 -28.5t33.5 -74.5q0 -49 -32.5 -79.5t-78.5 -30.5q-44 0 -77.5 34t-35.5 88q-8 121 75 195t224 74q138 0 215.5 -66.5
t77.5 -161.5q0 -52 -20 -92.5t-52.5 -72.5t-70 -59.5t-71.5 -51.5l-287 -228h516v90h9v-270h-629z" />
    <glyph glyph-name="uni00B3" unicode="&#xb3;" horiz-adv-x="899" 
d="M415 902q-92 0 -153.5 30t-92.5 76.5t-31 96.5q0 48 30 77.5t72 29.5q39 0 66.5 -26.5t27.5 -70.5q0 -40 -30 -66.5t-68 -26.5q-37 0 -67 24.5t-30 58.5h8q0 -50 30 -92.5t82 -69t120 -26.5q92 0 132.5 69.5t40.5 173.5q0 48 -15.5 103t-60 94t-130.5 39v6
q144 0 232 -34.5t127.5 -91t39.5 -122.5q0 -78 -47 -134.5t-122.5 -87t-160.5 -30.5zM346 1399v6q80 0 116 33.5t45 82.5t9 93q0 51 -12 96t-38.5 73t-69.5 28q-31 0 -68 -12t-70 -34t-54 -52t-21 -67h-8q0 39 32 62.5t66 23.5q38 0 68 -25.5t30 -68.5q0 -47 -32 -71.5
t-66 -24.5q-38 0 -69 28t-31 76q0 50 38 90.5t96.5 64.5t119.5 24q67 0 132 -23t107.5 -68t42.5 -111q0 -60 -33 -111t-112.5 -82t-217.5 -31z" />
    <glyph glyph-name="acute" unicode="&#xb4;" horiz-adv-x="1000" 
d="M311 1683l-8 10l168 248q29 48 71 60t80.5 -1.5t56.5 -41.5q22 -32 18 -73t-31 -74t-75 -43z" />
    <glyph glyph-name="uni00B5" unicode="&#xb5;" horiz-adv-x="1241" 
d="M1066 920v-905h132v-15h-412v338q-11 -86 -43.5 -168.5t-99.5 -136t-183 -53.5q-132 0 -192.5 56.5t-76.5 147.5v-426q0 -81 37 -137.5t98 -87.5t131 -37q-37 13 -61 60t-24 97q0 61 44.5 106t108.5 45q65 0 109 -45t44 -114t-49 -117t-148 -48q-77 0 -147 32t-114 94
t-44 152v1147h-132v15h412v-629q0 -84 7 -139t27.5 -81.5t62.5 -26.5q69 0 114.5 41t71 106t36.5 140t11 143v431h-130v15h410z" />
    <glyph glyph-name="paragraph" unicode="&#xb6;" horiz-adv-x="1295" 
d="M696 579q-165 0 -294 51.5t-202.5 154t-73.5 254.5q0 153 73.5 255.5t202.5 154t294 51.5h513v-15h-353v-906h-160zM648 -300v15h561v-15h-561zM848 -300v1800h15v-1800h-15zM1005 -300v1800h15v-1800h-15z" />
    <glyph glyph-name="periodcentered" unicode="&#xb7;" horiz-adv-x="517" 
d="M260 680q-50 0 -90.5 24.5t-65 65.5t-24.5 90t24.5 90.5t65 66t90.5 24.5q49 0 90.5 -24.5t65.5 -66t24 -90.5t-24 -90t-65.5 -65.5t-90.5 -24.5z" />
    <glyph glyph-name="cedilla" unicode="&#xb8;" horiz-adv-x="1000" 
d="M308 -495v15q89 0 132.5 37t43.5 94q0 52 -25.5 78t-67.5 34.5t-92 8.5l171 231h19l-111 -151q96 -3 170 -20t116 -51.5t42 -90.5q0 -50 -36.5 -92t-123.5 -67.5t-238 -25.5z" />
    <glyph glyph-name="uni00B9" unicode="&#xb9;" horiz-adv-x="1059" 
d="M417 915v888h-136v9h322v-897h-186zM261 912v9h474v-9h-474z" />
    <glyph glyph-name="ordmasculine" unicode="&#xba;" horiz-adv-x="1124" 
d="M566 950q-91 0 -156.5 39.5t-101 105t-35.5 143.5t35.5 143.5t101 105t156.5 39.5q90 0 156 -39.5t101.5 -105t35.5 -143.5t-35.5 -143.5t-101.5 -105t-156 -39.5zM566 959q44 0 69 40t35 104t10 135t-10 135t-35 104t-69 40q-45 0 -69 -40t-34 -104t-10 -135t10 -135
t34 -104t69 -40z" />
    <glyph glyph-name="guillemotright" unicode="&#xbb;" horiz-adv-x="1459" 
d="M689 290l-8 7l376 477l-376 479l8 7l720 -468v-34zM129 290l-8 7l356 477l-356 479l8 7l720 -468v-34z" />
    <glyph glyph-name="onequarter" unicode="&#xbc;" horiz-adv-x="1341" 
d="M81 -200l965 1500h15l-964 -1500h-16zM44 712v9h474v-9h-474zM864 -206v9h114v806l-380 -553h698v-8h-714l444 646h138v-891h90v-9h-390zM200 715v888h-136v9h322v-897h-186z" />
    <glyph glyph-name="onehalf" unicode="&#xbd;" horiz-adv-x="1399" 
d="M79 -200l965 1500h15l-965 -1500h-15zM44 712v9h474v-9h-474zM730 -202v120l266 206q75 58 111 135t36 175q0 103 -46.5 176t-123.5 73q-62 0 -114 -29.5t-81.5 -84t-24.5 -128.5h-9q0 35 36.5 63t79.5 28q40 0 73.5 -28.5t33.5 -74.5q0 -49 -32.5 -79.5t-78.5 -30.5
q-44 0 -77.5 34t-35.5 88q-8 121 75 195t224 74q138 0 215.5 -66.5t77.5 -161.5q0 -52 -20 -92.5t-52.5 -72.5t-70 -59.5t-71.5 -51.5l-287 -228h516v90h9v-270h-629zM200 715v888h-136v9h322v-897h-186z" />
    <glyph glyph-name="threequarters" unicode="&#xbe;" horiz-adv-x="1461" 
d="M199 -200l965 1500h15l-965 -1500h-15zM317 696q-92 0 -153.5 30t-92.5 76.5t-31 96.5q0 48 30 77.5t72 29.5q39 0 66.5 -26.5t27.5 -70.5q0 -40 -30 -66.5t-68 -26.5q-37 0 -67 24.5t-30 58.5h8q0 -50 30 -92.5t82 -69t120 -26.5q92 0 132.5 69.5t40.5 173.5
q0 48 -15.5 103t-60 94t-130.5 39v6q144 0 232 -34.5t127.5 -91t39.5 -122.5q0 -78 -47 -134.5t-122.5 -87t-160.5 -30.5zM984 -206v9h114v806l-380 -553h698v-8h-714l444 646h138v-891h90v-9h-390zM248 1193v6q80 0 116 33.5t45 82.5t9 93q0 51 -12 96t-38.5 73t-69.5 28
q-31 0 -68 -12t-70 -34t-54 -52t-21 -67h-8q0 39 32 62.5t66 23.5q38 0 68 -25.5t30 -68.5q0 -47 -32 -71.5t-66 -24.5q-38 0 -69 28t-31 76q0 50 38 90.5t96.5 64.5t119.5 24q67 0 132 -23t107.5 -68t42.5 -111q0 -60 -33 -111t-112.5 -82t-217.5 -31z" />
    <glyph glyph-name="questiondown" unicode="&#xbf;" horiz-adv-x="1169" 
d="M593 -480q-153 0 -264.5 50t-172.5 140t-61 210q0 115 72.5 204.5t198 143.5t286.5 63v221h15v-228q-94 -29 -148.5 -89t-78 -141t-23.5 -174q0 -70 6.5 -137.5t29 -121.5t69 -86t125.5 -32q73 0 141 28t122.5 76t87 109t32.5 127h13q0 -42 -23 -75t-60 -52.5t-79 -19.5
q-41 0 -79 20t-61.5 56t-23.5 83q0 53 25.5 89t63.5 54t75 18q65 0 114.5 -46t49.5 -127q0 -61 -31.5 -125t-91 -117.5t-143 -87t-186.5 -33.5zM627 700q-49 0 -90 24.5t-65.5 65.5t-24.5 90q0 50 24.5 91t65.5 65t90 24q50 0 91 -24t65 -65t24 -91q0 -49 -24 -90t-65 -65.5
t-91 -24.5z" />
    <glyph glyph-name="Agrave" unicode="&#xc0;" horiz-adv-x="1577" 
d="M402 480v15h584v-15h-584zM870 1530l525 -1515h146v-15h-683v15h178l-379 1172l-412 -1172h233v-15h-441v15h190l533 1515h110zM899 1683l-279 85q-49 10 -76 43t-30.5 74t17.5 73q19 28 57 41.5t80.5 1.5t71.5 -60l167 -248z" />
    <glyph glyph-name="Aacute" unicode="&#xc1;" horiz-adv-x="1577" 
d="M402 480v15h584v-15h-584zM870 1530l525 -1515h146v-15h-683v15h178l-379 1172l-412 -1172h233v-15h-441v15h190l533 1515h110zM713 1683l-8 10l168 248q29 48 71 60t80.5 -1.5t56.5 -41.5q22 -32 18 -73t-31 -74t-75 -43z" />
    <glyph glyph-name="Acircumflex" unicode="&#xc2;" horiz-adv-x="1577" 
d="M402 480v15h584v-15h-584zM870 1530l525 -1515h146v-15h-683v15h178l-379 1172l-412 -1172h233v-15h-441v15h190l533 1515h110zM491 1709l-8 8l240 270h170l240 -270l-8 -8l-318 138z" />
    <glyph glyph-name="Atilde" unicode="&#xc3;" horiz-adv-x="1577" 
d="M402 480v15h584v-15h-584zM870 1530l525 -1515h146v-15h-683v15h178l-379 1172l-412 -1172h233v-15h-441v15h190l533 1515h110zM974 1660q-58 0 -105 24t-88 55t-85 55t-97 24q-54 0 -90 -31t-36 -87h-15q0 85 23 151.5t68 104.5t109 38q61 0 106.5 -24t84 -55t77.5 -55
t87 -24q61 0 93.5 31.5t32.5 86.5h15q0 -95 -14 -160.5t-53 -99.5t-113 -34z" />
    <glyph glyph-name="Adieresis" unicode="&#xc4;" horiz-adv-x="1577" 
d="M402 480v15h584v-15h-584zM870 1530l525 -1515h146v-15h-683v15h178l-379 1172l-412 -1172h233v-15h-441v15h190l533 1515h110zM994 1685q-47 0 -81 34t-34 81q0 48 34 82t81 34q48 0 82 -34t34 -82q0 -47 -34 -81t-82 -34zM620 1685q-47 0 -81 34t-34 81q0 48 34 82
t81 34q48 0 82 -34t34 -82q0 -47 -34 -81t-82 -34z" />
    <glyph glyph-name="Aring" unicode="&#xc5;" horiz-adv-x="1577" 
d="M402 480v15h584v-15h-584zM870 1530l525 -1515h146v-15h-683v15h178l-379 1172l-412 -1172h233v-15h-441v15h190l533 1515h110zM807 1680q-91 0 -145.5 52t-54.5 128q0 77 54.5 128.5t145.5 51.5q92 0 146 -51.5t54 -128.5q0 -76 -54 -128t-146 -52zM807 1695
q30 0 47.5 20.5t24.5 57.5t7 87t-7 87t-24.5 57.5t-47.5 20.5t-47.5 -20.5t-24.5 -57.5t-7 -87t7 -87t24.5 -57.5t47.5 -20.5z" />
    <glyph glyph-name="AE" unicode="&#xc6;" horiz-adv-x="2095" 
d="M205 0l842 1500h17l-840 -1500h-19zM30 0v15h440v-15h-440zM489 482l3 15h578v-15h-581zM870 0v15h710q132 0 225 56t146.5 154t68.5 225h15v-450h-1165zM1050 0v1500h310v-1500h-310zM1690 526q-15 67 -55 122t-94 87.5t-111 32.5h-120v15h120q57 0 111 30.5t94 83
t55 119.5h15v-490h-15zM2000 1090q-15 107 -67 197t-136.5 144t-196.5 54h-550v15h965v-410h-15z" />
    <glyph glyph-name="Ccedilla" unicode="&#xc7;" horiz-adv-x="1417" 
d="M806 -20q-223 0 -384.5 99.5t-248.5 273.5t-87 397t87 397t248.5 273.5t384.5 99.5q93 0 172 -32t141 -90l176 102h14v-440h-17q-35 128 -102.5 226.5t-160 155t-203.5 56.5q-112 0 -187.5 -65t-119.5 -173t-63.5 -240.5t-19.5 -269.5q0 -136 19.5 -269t63.5 -241
t119.5 -173t187.5 -65q101 0 181 34.5t140.5 95t101.5 139.5t63 169h17v-440h-14l-161 112q-65 -61 -152.5 -96.5t-195.5 -35.5zM655 -505v15q89 0 132.5 37t43.5 94q0 52 -25.5 78t-67.5 34.5t-92 8.5l171 231h19l-111 -151q96 -3 170 -20t116 -51.5t42 -90.5
q0 -50 -36.5 -92t-123.5 -67.5t-238 -25.5z" />
    <glyph glyph-name="Egrave" unicode="&#xc8;" horiz-adv-x="1263" 
d="M37 0v15h180v1470h-180v15h1143v-410h-15q-15 107 -67.5 197t-139 144t-203.5 54h-227v-1470h207q137 0 231.5 56t149 154t69.5 225h15v-450h-1163zM855 526q-15 67 -55 122t-94 87.5t-111 32.5h-142v15h142q57 0 111 30.5t94 83t55 119.5h15v-490h-15zM760 1683l-279 85
q-49 10 -76 43t-30.5 74t17.5 73q19 28 57 41.5t80.5 1.5t71.5 -60l167 -248z" />
    <glyph glyph-name="Eacute" unicode="&#xc9;" horiz-adv-x="1263" 
d="M37 0v15h180v1470h-180v15h1143v-410h-15q-15 107 -67.5 197t-139 144t-203.5 54h-227v-1470h207q137 0 231.5 56t149 154t69.5 225h15v-450h-1163zM855 526q-15 67 -55 122t-94 87.5t-111 32.5h-142v15h142q57 0 111 30.5t94 83t55 119.5h15v-490h-15zM574 1683l-8 10
l168 248q29 48 71 60t80.5 -1.5t56.5 -41.5q22 -32 18 -73t-31 -74t-75 -43z" />
    <glyph glyph-name="Ecircumflex" unicode="&#xca;" horiz-adv-x="1263" 
d="M37 0v15h180v1470h-180v15h1143v-410h-15q-15 107 -67.5 197t-139 144t-203.5 54h-227v-1470h207q137 0 231.5 56t149 154t69.5 225h15v-450h-1163zM855 526q-15 67 -55 122t-94 87.5t-111 32.5h-142v15h142q57 0 111 30.5t94 83t55 119.5h15v-490h-15zM352 1709l-8 8
l240 270h170l240 -270l-8 -8l-318 138z" />
    <glyph glyph-name="Edieresis" unicode="&#xcb;" horiz-adv-x="1263" 
d="M37 0v15h180v1470h-180v15h1143v-410h-15q-15 107 -67.5 197t-139 144t-203.5 54h-227v-1470h207q137 0 231.5 56t149 154t69.5 225h15v-450h-1163zM855 526q-15 67 -55 122t-94 87.5t-111 32.5h-142v15h142q57 0 111 30.5t94 83t55 119.5h15v-490h-15zM855 1685
q-47 0 -81 34t-34 81q0 48 34 82t81 34q48 0 82 -34t34 -82q0 -47 -34 -81t-82 -34zM481 1685q-47 0 -81 34t-34 81q0 48 34 82t81 34q48 0 82 -34t34 -82q0 -47 -34 -81t-82 -34z" />
    <glyph glyph-name="Igrave" unicode="&#xcc;" horiz-adv-x="844" 
d="M37 0v15h220v1470h-220v15h770v-15h-239v-1470h239v-15h-770zM504 1683l-279 85q-49 10 -76 43t-30.5 74t17.5 73q19 28 57 41.5t80.5 1.5t71.5 -60l167 -248z" />
    <glyph glyph-name="Iacute" unicode="&#xcd;" horiz-adv-x="844" 
d="M37 0v15h220v1470h-220v15h770v-15h-239v-1470h239v-15h-770zM317 1683l-8 10l168 248q29 48 71 60t80.5 -1.5t56.5 -41.5q22 -32 18 -73t-31 -74t-75 -43z" />
    <glyph glyph-name="Icircumflex" unicode="&#xce;" horiz-adv-x="844" 
d="M37 0v15h220v1470h-220v15h770v-15h-239v-1470h239v-15h-770zM96 1709l-8 8l240 270h170l240 -270l-8 -8l-318 138z" />
    <glyph glyph-name="Idieresis" unicode="&#xcf;" horiz-adv-x="844" 
d="M37 0v15h220v1470h-220v15h770v-15h-239v-1470h239v-15h-770zM598 1685q-47 0 -81 34t-34 81q0 48 34 82t81 34q48 0 82 -34t34 -82q0 -47 -34 -81t-82 -34zM224 1685q-47 0 -81 34t-34 81q0 48 34 82t81 34q48 0 82 -34t34 -82q0 -47 -34 -81t-82 -34z" />
    <glyph glyph-name="Eth" unicode="&#xd0;" horiz-adv-x="1522" 
d="M66 743v14h701v-14h-701zM677 1500q238 0 408 -94.5t261 -263.5t91 -392q0 -167 -54 -304.5t-154.5 -237.5t-240.5 -154t-311 -54h-640v15h180v1470h-180v15h640zM528 15h149q116 0 194.5 59t126 161t68.5 235t21 280q0 148 -23.5 280.5t-73.5 234.5t-127.5 161
t-185.5 59h-149v-1470z" />
    <glyph glyph-name="Ntilde" unicode="&#xd1;" horiz-adv-x="1517" 
d="M253 1500v-1485h232v-15h-448v15h200v1470h-200v15h216zM1481 1500v-15h-210v-1505h-20l-1008 1520h369l643 -990v975h-228v15h454zM960 1660q-58 0 -105 24t-88 55t-85 55t-97 24q-54 0 -90 -31t-36 -87h-15q0 85 23 151.5t68 104.5t109 38q61 0 106.5 -24t84 -55
t77.5 -55t87 -24q61 0 93.5 31.5t32.5 86.5h15q0 -95 -14 -160.5t-53 -99.5t-113 -34z" />
    <glyph glyph-name="Ograve" unicode="&#xd2;" horiz-adv-x="1531" 
d="M766 -20q-159 0 -285.5 58.5t-214.5 163t-134 244.5t-46 304t48.5 304t139 245t215.5 163t277 58q153 0 277.5 -58t215 -163t139 -245t48.5 -304t-46 -304t-134 -245t-214 -163t-286 -58zM766 -6q105 0 169.5 59.5t99.5 163.5t48 241t13 292t-15.5 292t-52.5 241
t-101 163.5t-161 59.5q-96 0 -160.5 -59.5t-101.5 -163.5t-52.5 -241t-15.5 -292t13 -292t48 -241t100 -163.5t169 -59.5zM859 1683l-279 85q-49 10 -76 43t-30.5 74t17.5 73q19 28 57 41.5t80.5 1.5t71.5 -60l167 -248z" />
    <glyph glyph-name="Oacute" unicode="&#xd3;" horiz-adv-x="1531" 
d="M766 -20q-159 0 -285.5 58.5t-214.5 163t-134 244.5t-46 304t48.5 304t139 245t215.5 163t277 58q153 0 277.5 -58t215 -163t139 -245t48.5 -304t-46 -304t-134 -245t-214 -163t-286 -58zM766 -6q105 0 169.5 59.5t99.5 163.5t48 241t13 292t-15.5 292t-52.5 241
t-101 163.5t-161 59.5q-96 0 -160.5 -59.5t-101.5 -163.5t-52.5 -241t-15.5 -292t13 -292t48 -241t100 -163.5t169 -59.5zM672 1683l-8 10l168 248q29 48 71 60t80.5 -1.5t56.5 -41.5q22 -32 18 -73t-31 -74t-75 -43z" />
    <glyph glyph-name="Ocircumflex" unicode="&#xd4;" horiz-adv-x="1531" 
d="M766 -20q-159 0 -285.5 58.5t-214.5 163t-134 244.5t-46 304t48.5 304t139 245t215.5 163t277 58q153 0 277.5 -58t215 -163t139 -245t48.5 -304t-46 -304t-134 -245t-214 -163t-286 -58zM766 -6q105 0 169.5 59.5t99.5 163.5t48 241t13 292t-15.5 292t-52.5 241
t-101 163.5t-161 59.5q-96 0 -160.5 -59.5t-101.5 -163.5t-52.5 -241t-15.5 -292t13 -292t48 -241t100 -163.5t169 -59.5zM451 1709l-8 8l240 270h170l240 -270l-8 -8l-318 138z" />
    <glyph glyph-name="Otilde" unicode="&#xd5;" horiz-adv-x="1531" 
d="M766 -20q-159 0 -285.5 58.5t-214.5 163t-134 244.5t-46 304t48.5 304t139 245t215.5 163t277 58q153 0 277.5 -58t215 -163t139 -245t48.5 -304t-46 -304t-134 -245t-214 -163t-286 -58zM766 -6q105 0 169.5 59.5t99.5 163.5t48 241t13 292t-15.5 292t-52.5 241
t-101 163.5t-161 59.5q-96 0 -160.5 -59.5t-101.5 -163.5t-52.5 -241t-15.5 -292t13 -292t48 -241t100 -163.5t169 -59.5zM934 1660q-58 0 -105 24t-88 55t-85 55t-97 24q-54 0 -90 -31t-36 -87h-15q0 85 23 151.5t68 104.5t109 38q61 0 106.5 -24t84 -55t77.5 -55t87 -24
q61 0 93.5 31.5t32.5 86.5h15q0 -95 -14 -160.5t-53 -99.5t-113 -34z" />
    <glyph glyph-name="Odieresis" unicode="&#xd6;" horiz-adv-x="1531" 
d="M766 -20q-159 0 -285.5 58.5t-214.5 163t-134 244.5t-46 304t48.5 304t139 245t215.5 163t277 58q153 0 277.5 -58t215 -163t139 -245t48.5 -304t-46 -304t-134 -245t-214 -163t-286 -58zM766 -6q105 0 169.5 59.5t99.5 163.5t48 241t13 292t-15.5 292t-52.5 241
t-101 163.5t-161 59.5q-96 0 -160.5 -59.5t-101.5 -163.5t-52.5 -241t-15.5 -292t13 -292t48 -241t100 -163.5t169 -59.5zM953 1685q-47 0 -81 34t-34 81q0 48 34 82t81 34q48 0 82 -34t34 -82q0 -47 -34 -81t-82 -34zM579 1685q-47 0 -81 34t-34 81q0 48 34 82t81 34
q48 0 82 -34t34 -82q0 -47 -34 -81t-82 -34z" />
    <glyph glyph-name="multiply" unicode="&#xd7;" horiz-adv-x="894" 
d="M232 476l-96 96l494 494l96 -96zM630 475l-493 494l95 96l494 -494z" />
    <glyph glyph-name="Oslash" unicode="&#xd8;" horiz-adv-x="1531" 
d="M337 -200l870 1860h15l-870 -1860h-15zM766 -20q-159 0 -285.5 58.5t-214.5 163t-134 244.5t-46 304t48.5 304t139 245t215.5 163t277 58q153 0 277.5 -58t215 -163t139 -245t48.5 -304t-46 -304t-134 -245t-214 -163t-286 -58zM766 -6q105 0 169.5 59.5t99.5 163.5
t48 241t13 292t-15.5 292t-52.5 241t-101 163.5t-161 59.5q-96 0 -160.5 -59.5t-101.5 -163.5t-52.5 -241t-15.5 -292t13 -292t48 -241t100 -163.5t169 -59.5z" />
    <glyph glyph-name="Ugrave" unicode="&#xd9;" horiz-adv-x="1457" 
d="M1419 1500v-15h-195v-1025q0 -247 -112 -368.5t-356 -121.5q-282 0 -411 115.5t-129 374.5v1025h-180v15h690v-15h-200v-1005q0 -99 12 -186t44.5 -153.5t92.5 -104t157 -37.5q116 0 200.5 48t130.5 149.5t46 263.5v1025h-186v15h396zM901 1683l-279 85q-49 10 -76 43
t-30.5 74t17.5 73q19 28 57 41.5t80.5 1.5t71.5 -60l167 -248z" />
    <glyph glyph-name="Uacute" unicode="&#xda;" horiz-adv-x="1457" 
d="M1419 1500v-15h-195v-1025q0 -247 -112 -368.5t-356 -121.5q-282 0 -411 115.5t-129 374.5v1025h-180v15h690v-15h-200v-1005q0 -99 12 -186t44.5 -153.5t92.5 -104t157 -37.5q116 0 200.5 48t130.5 149.5t46 263.5v1025h-186v15h396zM714 1683l-8 10l168 248
q29 48 71 60t80.5 -1.5t56.5 -41.5q22 -32 18 -73t-31 -74t-75 -43z" />
    <glyph glyph-name="Ucircumflex" unicode="&#xdb;" horiz-adv-x="1457" 
d="M1419 1500v-15h-195v-1025q0 -247 -112 -368.5t-356 -121.5q-282 0 -411 115.5t-129 374.5v1025h-180v15h690v-15h-200v-1005q0 -99 12 -186t44.5 -153.5t92.5 -104t157 -37.5q116 0 200.5 48t130.5 149.5t46 263.5v1025h-186v15h396zM492 1709l-8 8l240 270h170
l240 -270l-8 -8l-318 138z" />
    <glyph glyph-name="Udieresis" unicode="&#xdc;" horiz-adv-x="1457" 
d="M1419 1500v-15h-195v-1025q0 -247 -112 -368.5t-356 -121.5q-282 0 -411 115.5t-129 374.5v1025h-180v15h690v-15h-200v-1005q0 -99 12 -186t44.5 -153.5t92.5 -104t157 -37.5q116 0 200.5 48t130.5 149.5t46 263.5v1025h-186v15h396zM995 1685q-47 0 -81 34t-34 81
q0 48 34 82t81 34q48 0 82 -34t34 -82q0 -47 -34 -81t-82 -34zM621 1685q-47 0 -81 34t-34 81q0 48 34 82t81 34q48 0 82 -34t34 -82q0 -47 -34 -81t-82 -34z" />
    <glyph glyph-name="Yacute" unicode="&#xdd;" horiz-adv-x="1478" 
d="M423 0v15h180v705l-443 765h-136v15h700v-15h-204l385 -704l355 704h-224v15h418v-15h-175l-366 -722v-748h201v-15h-691zM716 1683l-8 10l168 248q29 48 71 60t80.5 -1.5t56.5 -41.5q22 -32 18 -73t-31 -74t-75 -43z" />
    <glyph glyph-name="Thorn" unicode="&#xde;" horiz-adv-x="1339" 
d="M480 360v15h190q72 0 121.5 37.5t80.5 98t44.5 131.5t13.5 138t-13.5 138t-44.5 131.5t-80.5 98t-121.5 37.5h-190v15h260q271 0 400.5 -112.5t129.5 -307.5t-129.5 -307.5t-400.5 -112.5h-260zM29 0v15h671v-15h-671zM210 0v1500h310v-1500h-310zM29 1485v15h671v-15
h-671z" />
    <glyph glyph-name="germandbls" unicode="&#xdf;" horiz-adv-x="1541" 
d="M210 0v982q0 138 51.5 239t140 167.5t202 99t237.5 32.5q111 0 212.5 -26.5t180 -75t124 -113.5t45.5 -143q0 -110 -65.5 -189t-198 -121.5t-333.5 -42.5v9q82 0 135.5 32.5t84 82.5t42.5 106t12 104q0 54 -12 117t-40 119t-76 91.5t-121 35.5q-96 0 -158.5 -44.5
t-98 -121t-49.5 -174t-14 -204.5v-962h-301zM29 0v15h631v-15h-631zM1017 -20q-159 0 -250 90t-91 246q0 77 49 126.5t120 49.5q65 0 111.5 -44t46.5 -113q0 -47 -23.5 -82t-60.5 -54t-80 -19q-34 0 -71 17.5t-63 48t-27 70.5h13q0 -108 41 -176.5t102.5 -102t123.5 -33.5
q59 0 95 31t55 79.5t25.5 103t6.5 102.5q0 71 -10.5 154t-44 158t-100.5 123.5t-179 48.5v9q181 0 306.5 -36t202.5 -100.5t112 -149t35 -182.5q0 -88 -37.5 -156t-101.5 -114.5t-143 -70.5t-163 -24z" />
    <glyph glyph-name="agrave" unicode="&#xe0;" horiz-adv-x="1160" 
d="M888 -20q-64 0 -115.5 17t-81.5 56t-30 103v453q0 72 -13.5 143t-53.5 118t-120 47q-47 0 -100.5 -11t-101 -34.5t-77.5 -60.5t-30 -89h-16q0 63 47 101.5t110 38.5q65 0 114.5 -35t49.5 -101q0 -71 -50.5 -107.5t-113.5 -36.5q-69 0 -114 37.5t-45 102.5q0 56 32.5 96.5
t87 66.5t121.5 38.5t135 12.5q153 0 244.5 -42.5t132 -116.5t40.5 -168v-506q0 -33 16 -56t54 -23q28 0 68.5 25t66.5 78l9 -9q-29 -66 -100 -102t-166 -36zM362 -20q-130 0 -207.5 66.5t-77.5 180.5q0 134 115 207t328 73h234v-13h-166q-76 0 -121.5 -39.5t-66 -95.5
t-20.5 -106q0 -47 11 -90t36 -70t67 -27q44 0 82 32t61.5 97t23.5 167h11q0 -118 -35.5 -204t-104.5 -132t-170 -46zM654 1103l-279 85q-49 10 -76 43t-30.5 74t17.5 73q19 28 57 41.5t80.5 1.5t71.5 -60l167 -248z" />
    <glyph glyph-name="aacute" unicode="&#xe1;" horiz-adv-x="1160" 
d="M888 -20q-64 0 -115.5 17t-81.5 56t-30 103v453q0 72 -13.5 143t-53.5 118t-120 47q-47 0 -100.5 -11t-101 -34.5t-77.5 -60.5t-30 -89h-16q0 63 47 101.5t110 38.5q65 0 114.5 -35t49.5 -101q0 -71 -50.5 -107.5t-113.5 -36.5q-69 0 -114 37.5t-45 102.5q0 56 32.5 96.5
t87 66.5t121.5 38.5t135 12.5q153 0 244.5 -42.5t132 -116.5t40.5 -168v-506q0 -33 16 -56t54 -23q28 0 68.5 25t66.5 78l9 -9q-29 -66 -100 -102t-166 -36zM362 -20q-130 0 -207.5 66.5t-77.5 180.5q0 134 115 207t328 73h234v-13h-166q-76 0 -121.5 -39.5t-66 -95.5
t-20.5 -106q0 -47 11 -90t36 -70t67 -27q44 0 82 32t61.5 97t23.5 167h11q0 -118 -35.5 -204t-104.5 -132t-170 -46zM467 1103l-8 10l168 248q29 48 71 60t80.5 -1.5t56.5 -41.5q22 -32 18 -73t-31 -74t-75 -43z" />
    <glyph glyph-name="acircumflex" unicode="&#xe2;" horiz-adv-x="1160" 
d="M888 -20q-64 0 -115.5 17t-81.5 56t-30 103v453q0 72 -13.5 143t-53.5 118t-120 47q-47 0 -100.5 -11t-101 -34.5t-77.5 -60.5t-30 -89h-16q0 63 47 101.5t110 38.5q65 0 114.5 -35t49.5 -101q0 -71 -50.5 -107.5t-113.5 -36.5q-69 0 -114 37.5t-45 102.5q0 56 32.5 96.5
t87 66.5t121.5 38.5t135 12.5q153 0 244.5 -42.5t132 -116.5t40.5 -168v-506q0 -33 16 -56t54 -23q28 0 68.5 25t66.5 78l9 -9q-29 -66 -100 -102t-166 -36zM362 -20q-130 0 -207.5 66.5t-77.5 180.5q0 134 115 207t328 73h234v-13h-166q-76 0 -121.5 -39.5t-66 -95.5
t-20.5 -106q0 -47 11 -90t36 -70t67 -27q44 0 82 32t61.5 97t23.5 167h11q0 -118 -35.5 -204t-104.5 -132t-170 -46zM245 1129l-8 8l240 270h170l240 -270l-8 -8l-318 138z" />
    <glyph glyph-name="atilde" unicode="&#xe3;" horiz-adv-x="1160" 
d="M888 -20q-64 0 -115.5 17t-81.5 56t-30 103v453q0 72 -13.5 143t-53.5 118t-120 47q-47 0 -100.5 -11t-101 -34.5t-77.5 -60.5t-30 -89h-16q0 63 47 101.5t110 38.5q65 0 114.5 -35t49.5 -101q0 -71 -50.5 -107.5t-113.5 -36.5q-69 0 -114 37.5t-45 102.5q0 56 32.5 96.5
t87 66.5t121.5 38.5t135 12.5q153 0 244.5 -42.5t132 -116.5t40.5 -168v-506q0 -33 16 -56t54 -23q28 0 68.5 25t66.5 78l9 -9q-29 -66 -100 -102t-166 -36zM362 -20q-130 0 -207.5 66.5t-77.5 180.5q0 134 115 207t328 73h234v-13h-166q-76 0 -121.5 -39.5t-66 -95.5
t-20.5 -106q0 -47 11 -90t36 -70t67 -27q44 0 82 32t61.5 97t23.5 167h11q0 -118 -35.5 -204t-104.5 -132t-170 -46zM728 1080q-58 0 -105 24t-88 55t-85 55t-97 24q-54 0 -90 -31t-36 -87h-15q0 85 23 151.5t68 104.5t109 38q61 0 106.5 -24t84 -55t77.5 -55t87 -24
q61 0 93.5 31.5t32.5 86.5h15q0 -95 -14 -160.5t-53 -99.5t-113 -34z" />
    <glyph glyph-name="adieresis" unicode="&#xe4;" horiz-adv-x="1160" 
d="M888 -20q-64 0 -115.5 17t-81.5 56t-30 103v453q0 72 -13.5 143t-53.5 118t-120 47q-47 0 -100.5 -11t-101 -34.5t-77.5 -60.5t-30 -89h-16q0 63 47 101.5t110 38.5q65 0 114.5 -35t49.5 -101q0 -71 -50.5 -107.5t-113.5 -36.5q-69 0 -114 37.5t-45 102.5q0 56 32.5 96.5
t87 66.5t121.5 38.5t135 12.5q153 0 244.5 -42.5t132 -116.5t40.5 -168v-506q0 -33 16 -56t54 -23q28 0 68.5 25t66.5 78l9 -9q-29 -66 -100 -102t-166 -36zM362 -20q-130 0 -207.5 66.5t-77.5 180.5q0 134 115 207t328 73h234v-13h-166q-76 0 -121.5 -39.5t-66 -95.5
t-20.5 -106q0 -47 11 -90t36 -70t67 -27q44 0 82 32t61.5 97t23.5 167h11q0 -118 -35.5 -204t-104.5 -132t-170 -46zM748 1105q-47 0 -81 34t-34 81q0 48 34 82t81 34q48 0 82 -34t34 -82q0 -47 -34 -81t-82 -34zM374 1105q-47 0 -81 34t-34 81q0 48 34 82t81 34
q48 0 82 -34t34 -82q0 -47 -34 -81t-82 -34z" />
    <glyph glyph-name="aring" unicode="&#xe5;" horiz-adv-x="1160" 
d="M888 -20q-64 0 -115.5 17t-81.5 56t-30 103v453q0 72 -13.5 143t-53.5 118t-120 47q-47 0 -100.5 -11t-101 -34.5t-77.5 -60.5t-30 -89h-16q0 63 47 101.5t110 38.5q65 0 114.5 -35t49.5 -101q0 -71 -50.5 -107.5t-113.5 -36.5q-69 0 -114 37.5t-45 102.5q0 56 32.5 96.5
t87 66.5t121.5 38.5t135 12.5q153 0 244.5 -42.5t132 -116.5t40.5 -168v-506q0 -33 16 -56t54 -23q28 0 68.5 25t66.5 78l9 -9q-29 -66 -100 -102t-166 -36zM362 -20q-130 0 -207.5 66.5t-77.5 180.5q0 134 115 207t328 73h234v-13h-166q-76 0 -121.5 -39.5t-66 -95.5
t-20.5 -106q0 -47 11 -90t36 -70t67 -27q44 0 82 32t61.5 97t23.5 167h11q0 -118 -35.5 -204t-104.5 -132t-170 -46zM561 1100q-91 0 -145.5 52t-54.5 128q0 77 54.5 128.5t145.5 51.5q92 0 146 -51.5t54 -128.5q0 -76 -54 -128t-146 -52zM561 1115q30 0 47.5 20.5
t24.5 57.5t7 87t-7 87t-24.5 57.5t-47.5 20.5t-47.5 -20.5t-24.5 -57.5t-7 -87t7 -87t24.5 -57.5t47.5 -20.5z" />
    <glyph glyph-name="ae" unicode="&#xe6;" horiz-adv-x="1712" 
d="M430 -20q-59 0 -120.5 12.5t-113.5 40.5t-84 76t-32 118q0 84 52.5 147t152.5 98.5t242 35.5h134v101q0 50 -7.5 104t-27 100t-57 75t-96.5 29q-39 0 -83.5 -7.5t-86.5 -24.5t-74 -43.5t-47 -65.5q17 37 55 59t77 25q63 0 108.5 -38.5t45.5 -95.5q0 -71 -53.5 -107.5
t-114.5 -36.5q-64 0 -108.5 37.5t-44.5 102.5q0 75 55.5 122.5t142 69.5t180.5 22q102 0 171 -26t110 -70t61 -98l-24 -4q52 100 144.5 152t214.5 52q148 0 245 -60t144.5 -156t47.5 -205h-609q-1 -10 -1 -21v-22q0 -95 9.5 -180.5t34.5 -151t69.5 -103t114.5 -37.5
q139 0 236 79t134 199h16q-39 -129 -146 -215.5t-288 -86.5q-135 0 -234 63.5t-148 183.5l24 -1q-32 -84 -97 -139t-149 -82t-175 -27zM509 7q44 0 78 42t54 121.5t20 190.5v133h-79q-69 0 -113 -37.5t-65 -97t-21 -124.5q0 -110 34.5 -169t91.5 -59zM1030 537h312
q-1 64 -5 132t-18 126.5t-42 95t-75 36.5q-62 0 -98 -54.5t-53 -143.5t-21 -192z" />
    <glyph glyph-name="ccedilla" unicode="&#xe7;" horiz-adv-x="1049" 
d="M561 -20q-136 0 -246 52.5t-175 159t-65 268.5q0 143 57.5 251t166.5 168.5t265 60.5q117 0 205 -37t137 -98.5t49 -136.5q0 -73 -46.5 -115t-111.5 -42q-37 0 -75 16.5t-63.5 51t-25.5 87.5q0 71 50 110.5t114 39.5q62 0 109 -38.5t47 -109.5h-13q0 57 -29 103
t-75.5 78.5t-102 50t-108.5 17.5q-73 0 -116.5 -44t-66 -114t-30 -149t-7.5 -150q0 -86 10 -166t34 -143.5t68 -100.5t113 -37q81 0 142.5 34t104.5 94.5t68 141.5h16q-39 -135 -134 -219t-266 -84zM377 -501v15q89 0 132.5 37t43.5 94q0 52 -25.5 78t-67.5 34.5t-92 8.5
l171 231h19l-111 -151q96 -3 170 -20t116 -51.5t42 -90.5q0 -50 -36.5 -92t-123.5 -67.5t-238 -25.5z" />
    <glyph glyph-name="egrave" unicode="&#xe8;" horiz-adv-x="1065" 
d="M564 -20q-141 0 -251.5 55.5t-174 162.5t-63.5 262t61.5 262t170.5 162.5t250 55.5q148 0 244.5 -59.5t144 -155.5t47.5 -205h-784v15h487q0 64 -4.5 132t-18 127t-41.5 95t-75 36q-51 0 -85 -37t-53 -100t-27 -142.5t-8 -165.5q0 -97 9.5 -183t34.5 -151.5t69.5 -103.5
t114.5 -38q139 0 235.5 79t133.5 199h16q-39 -129 -145.5 -215.5t-287.5 -86.5zM645 1103l-279 85q-49 10 -76 43t-30.5 74t17.5 73q19 28 57 41.5t80.5 1.5t71.5 -60l167 -248z" />
    <glyph glyph-name="eacute" unicode="&#xe9;" horiz-adv-x="1065" 
d="M564 -20q-141 0 -251.5 55.5t-174 162.5t-63.5 262t61.5 262t170.5 162.5t250 55.5q148 0 244.5 -59.5t144 -155.5t47.5 -205h-784v15h487q0 64 -4.5 132t-18 127t-41.5 95t-75 36q-51 0 -85 -37t-53 -100t-27 -142.5t-8 -165.5q0 -97 9.5 -183t34.5 -151.5t69.5 -103.5
t114.5 -38q139 0 235.5 79t133.5 199h16q-39 -129 -145.5 -215.5t-287.5 -86.5zM458 1103l-8 10l168 248q29 48 71 60t80.5 -1.5t56.5 -41.5q22 -32 18 -73t-31 -74t-75 -43z" />
    <glyph glyph-name="ecircumflex" unicode="&#xea;" horiz-adv-x="1065" 
d="M564 -20q-141 0 -251.5 55.5t-174 162.5t-63.5 262t61.5 262t170.5 162.5t250 55.5q148 0 244.5 -59.5t144 -155.5t47.5 -205h-784v15h487q0 64 -4.5 132t-18 127t-41.5 95t-75 36q-51 0 -85 -37t-53 -100t-27 -142.5t-8 -165.5q0 -97 9.5 -183t34.5 -151.5t69.5 -103.5
t114.5 -38q139 0 235.5 79t133.5 199h16q-39 -129 -145.5 -215.5t-287.5 -86.5zM237 1129l-8 8l240 270h170l240 -270l-8 -8l-318 138z" />
    <glyph glyph-name="edieresis" unicode="&#xeb;" horiz-adv-x="1065" 
d="M564 -20q-141 0 -251.5 55.5t-174 162.5t-63.5 262t61.5 262t170.5 162.5t250 55.5q148 0 244.5 -59.5t144 -155.5t47.5 -205h-784v15h487q0 64 -4.5 132t-18 127t-41.5 95t-75 36q-51 0 -85 -37t-53 -100t-27 -142.5t-8 -165.5q0 -97 9.5 -183t34.5 -151.5t69.5 -103.5
t114.5 -38q139 0 235.5 79t133.5 199h16q-39 -129 -145.5 -215.5t-287.5 -86.5zM739 1105q-47 0 -81 34t-34 81q0 48 34 82t81 34q48 0 82 -34t34 -82q0 -47 -34 -81t-82 -34zM365 1105q-47 0 -81 34t-34 81q0 48 34 82t81 34q48 0 82 -34t34 -82q0 -47 -34 -81t-82 -34z
" />
    <glyph glyph-name="igrave" unicode="&#xec;" horiz-adv-x="638" 
d="M466 920v-905h132v-15h-544v15h132v890h-132v15h412zM420 1103l-279 85q-49 10 -76 43t-30.5 74t17.5 73q19 28 57 41.5t80.5 1.5t71.5 -60l167 -248z" />
    <glyph glyph-name="iacute" unicode="&#xed;" horiz-adv-x="638" 
d="M466 920v-905h132v-15h-544v15h132v890h-132v15h412zM233 1103l-8 10l168 248q29 48 71 60t80.5 -1.5t56.5 -41.5q22 -32 18 -73t-31 -74t-75 -43z" />
    <glyph glyph-name="icircumflex" unicode="&#xee;" horiz-adv-x="638" 
d="M466 920v-905h132v-15h-544v15h132v890h-132v15h412zM11 1129l-8 8l240 270h170l240 -270l-8 -8l-318 138z" />
    <glyph glyph-name="idieresis" unicode="&#xef;" horiz-adv-x="638" 
d="M466 920v-905h132v-15h-544v15h132v890h-132v15h412zM514 1105q-47 0 -81 34t-34 81q0 48 34 82t81 34q48 0 82 -34t34 -82q0 -47 -34 -81t-82 -34zM140 1105q-47 0 -81 34t-34 81q0 48 34 82t81 34q48 0 82 -34t34 -82q0 -47 -34 -81t-82 -34z" />
    <glyph glyph-name="eth" unicode="&#xf0;" horiz-adv-x="1219" 
d="M582 -20q-161 0 -277.5 67.5t-180 185t-63.5 267.5q0 128 41 220t109 150.5t151 86.5t166 28q109 0 168.5 -55t83 -151t23.5 -218h-13q0 130 -23 216t-69 129t-114 43q-48 0 -84.5 -25.5t-61 -79.5t-36.5 -139t-12 -205q0 -104 7 -195.5t26.5 -161t56 -108.5t96.5 -39
q59 0 100 43t66.5 120t36.5 180t11 222l-3 145q0 103 -25.5 214.5t-74.5 215.5t-119.5 187.5t-160.5 133t-197 49.5v14q192 0 357.5 -68t289.5 -190.5t193.5 -286t69.5 -355.5q0 -210 -67.5 -352.5t-188.5 -215t-282 -72.5zM261 1245v15h890v-15h-890z" />
    <glyph glyph-name="ntilde" unicode="&#xf1;" horiz-adv-x="1240" 
d="M455 920v-905h102v-15h-513v15h132v890h-132v15h411zM1065 638v-623h132v-15h-512v15h101v614q0 84 -7 139t-27.5 81.5t-62.5 26.5q-69 0 -114.5 -41t-71.5 -106t-37 -140t-11 -143l-12 -4q0 73 12 159t46.5 163t102 126.5t178.5 49.5q112 0 173.5 -39t85.5 -107.5
t24 -155.5zM802 1080q-58 0 -105 24t-88 55t-85 55t-97 24q-54 0 -90 -31t-36 -87h-15q0 85 23 151.5t68 104.5t109 38q61 0 106.5 -24t84 -55t77.5 -55t87 -24q61 0 93.5 31.5t32.5 86.5h15q0 -95 -14 -160.5t-53 -99.5t-113 -34z" />
    <glyph glyph-name="ograve" unicode="&#xf2;" horiz-adv-x="1124" 
d="M563 -20q-151 0 -260.5 66t-168.5 175t-59 239t59 239t168.5 175t260.5 66t260.5 -66t168.5 -175t59 -239t-59 -239t-168.5 -175t-260.5 -66zM563 -5q55 0 91.5 38.5t58 104.5t30 149.5t8.5 172.5q0 90 -8.5 173t-30 149t-58 104.5t-91.5 38.5q-56 0 -92.5 -38.5
t-57.5 -104.5t-30 -149t-9 -173q0 -89 9 -172.5t30 -149.5t57.5 -104.5t92.5 -38.5zM655 1103l-279 85q-49 10 -76 43t-30.5 74t17.5 73q19 28 57 41.5t80.5 1.5t71.5 -60l167 -248z" />
    <glyph glyph-name="oacute" unicode="&#xf3;" horiz-adv-x="1124" 
d="M563 -20q-151 0 -260.5 66t-168.5 175t-59 239t59 239t168.5 175t260.5 66t260.5 -66t168.5 -175t59 -239t-59 -239t-168.5 -175t-260.5 -66zM563 -5q55 0 91.5 38.5t58 104.5t30 149.5t8.5 172.5q0 90 -8.5 173t-30 149t-58 104.5t-91.5 38.5q-56 0 -92.5 -38.5
t-57.5 -104.5t-30 -149t-9 -173q0 -89 9 -172.5t30 -149.5t57.5 -104.5t92.5 -38.5zM468 1103l-8 10l168 248q29 48 71 60t80.5 -1.5t56.5 -41.5q22 -32 18 -73t-31 -74t-75 -43z" />
    <glyph glyph-name="ocircumflex" unicode="&#xf4;" horiz-adv-x="1124" 
d="M563 -20q-151 0 -260.5 66t-168.5 175t-59 239t59 239t168.5 175t260.5 66t260.5 -66t168.5 -175t59 -239t-59 -239t-168.5 -175t-260.5 -66zM563 -5q55 0 91.5 38.5t58 104.5t30 149.5t8.5 172.5q0 90 -8.5 173t-30 149t-58 104.5t-91.5 38.5q-56 0 -92.5 -38.5
t-57.5 -104.5t-30 -149t-9 -173q0 -89 9 -172.5t30 -149.5t57.5 -104.5t92.5 -38.5zM247 1129l-8 8l240 270h170l240 -270l-8 -8l-318 138z" />
    <glyph glyph-name="otilde" unicode="&#xf5;" horiz-adv-x="1124" 
d="M563 -20q-151 0 -260.5 66t-168.5 175t-59 239t59 239t168.5 175t260.5 66t260.5 -66t168.5 -175t59 -239t-59 -239t-168.5 -175t-260.5 -66zM563 -5q55 0 91.5 38.5t58 104.5t30 149.5t8.5 172.5q0 90 -8.5 173t-30 149t-58 104.5t-91.5 38.5q-56 0 -92.5 -38.5
t-57.5 -104.5t-30 -149t-9 -173q0 -89 9 -172.5t30 -149.5t57.5 -104.5t92.5 -38.5zM730 1080q-58 0 -105 24t-88 55t-85 55t-97 24q-54 0 -90 -31t-36 -87h-15q0 85 23 151.5t68 104.5t109 38q61 0 106.5 -24t84 -55t77.5 -55t87 -24q61 0 93.5 31.5t32.5 86.5h15
q0 -95 -14 -160.5t-53 -99.5t-113 -34z" />
    <glyph glyph-name="odieresis" unicode="&#xf6;" horiz-adv-x="1124" 
d="M563 -20q-151 0 -260.5 66t-168.5 175t-59 239t59 239t168.5 175t260.5 66t260.5 -66t168.5 -175t59 -239t-59 -239t-168.5 -175t-260.5 -66zM563 -5q55 0 91.5 38.5t58 104.5t30 149.5t8.5 172.5q0 90 -8.5 173t-30 149t-58 104.5t-91.5 38.5q-56 0 -92.5 -38.5
t-57.5 -104.5t-30 -149t-9 -173q0 -89 9 -172.5t30 -149.5t57.5 -104.5t92.5 -38.5zM749 1105q-47 0 -81 34t-34 81q0 48 34 82t81 34q48 0 82 -34t34 -82q0 -47 -34 -81t-82 -34zM375 1105q-47 0 -81 34t-34 81q0 48 34 82t81 34q48 0 82 -34t34 -82q0 -47 -34 -81t-82 -34
z" />
    <glyph glyph-name="divide" unicode="&#xf7;" horiz-adv-x="1119" 
d="M561 960q-61 0 -106.5 44.5t-45.5 105.5q0 62 45.5 106t106.5 44q63 0 106 -44t43 -106q0 -61 -43 -105.5t-106 -44.5zM100 763v14h920v-14h-920zM561 250q-61 0 -106.5 44.5t-45.5 105.5q0 62 45.5 106t106.5 44q63 0 106 -44t43 -106q0 -61 -43 -105.5t-106 -44.5z" />
    <glyph glyph-name="oslash" unicode="&#xf8;" horiz-adv-x="1124" 
d="M116 -246l870 1404h15l-870 -1404h-15zM563 -20q-151 0 -260.5 66t-168.5 175t-59 239t59 239t168.5 175t260.5 66t260.5 -66t168.5 -175t59 -239t-59 -239t-168.5 -175t-260.5 -66zM563 -5q55 0 91.5 38.5t58 104.5t30 149.5t8.5 172.5q0 90 -8.5 173t-30 149t-58 104.5
t-91.5 38.5q-56 0 -92.5 -38.5t-57.5 -104.5t-30 -149.5t-9 -172.5t9 -172.5t30 -149.5t57.5 -104.5t92.5 -38.5z" />
    <glyph glyph-name="ugrave" unicode="&#xf9;" horiz-adv-x="1241" 
d="M460 -20q-112 0 -173.5 39.5t-86 107.5t-24.5 155v623h-132v15h412v-629q0 -84 7 -139t27.5 -81.5t62.5 -26.5q69 0 114.5 41t71 106t36.5 140t11 143l12 4q0 -73 -11.5 -159t-46 -163t-101.5 -126.5t-179 -49.5zM786 0v905h-130v15h410v-905h132v-15h-412zM672 1103
l-279 85q-49 10 -76 43t-30.5 74t17.5 73q19 28 57 41.5t80.5 1.5t71.5 -60l167 -248z" />
    <glyph glyph-name="uacute" unicode="&#xfa;" horiz-adv-x="1241" 
d="M460 -20q-112 0 -173.5 39.5t-86 107.5t-24.5 155v623h-132v15h412v-629q0 -84 7 -139t27.5 -81.5t62.5 -26.5q69 0 114.5 41t71 106t36.5 140t11 143l12 4q0 -73 -11.5 -159t-46 -163t-101.5 -126.5t-179 -49.5zM786 0v905h-130v15h410v-905h132v-15h-412zM485 1103
l-8 10l168 248q29 48 71 60t80.5 -1.5t56.5 -41.5q22 -32 18 -73t-31 -74t-75 -43z" />
    <glyph glyph-name="ucircumflex" unicode="&#xfb;" horiz-adv-x="1241" 
d="M460 -20q-112 0 -173.5 39.5t-86 107.5t-24.5 155v623h-132v15h412v-629q0 -84 7 -139t27.5 -81.5t62.5 -26.5q69 0 114.5 41t71 106t36.5 140t11 143l12 4q0 -73 -11.5 -159t-46 -163t-101.5 -126.5t-179 -49.5zM786 0v905h-130v15h410v-905h132v-15h-412zM263 1129
l-8 8l240 270h170l240 -270l-8 -8l-318 138z" />
    <glyph glyph-name="udieresis" unicode="&#xfc;" horiz-adv-x="1241" 
d="M460 -20q-112 0 -173.5 39.5t-86 107.5t-24.5 155v623h-132v15h412v-629q0 -84 7 -139t27.5 -81.5t62.5 -26.5q69 0 114.5 41t71 106t36.5 140t11 143l12 4q0 -73 -11.5 -159t-46 -163t-101.5 -126.5t-179 -49.5zM786 0v905h-130v15h410v-905h132v-15h-412zM766 1105
q-47 0 -81 34t-34 81q0 48 34 82t81 34q48 0 82 -34t34 -82q0 -47 -34 -81t-82 -34zM392 1105q-47 0 -81 34t-34 81q0 48 34 82t81 34q48 0 82 -34t34 -82q0 -47 -34 -81t-82 -34z" />
    <glyph glyph-name="yacute" unicode="&#xfd;" horiz-adv-x="1205" 
d="M453 905l317 -627l-157 -326l-494 953h-120v15h646v-15h-192zM1217 920v-15h-156l-591 -1289q-28 -59 -68 -97.5t-109 -38.5q-38 0 -73.5 17t-59 50.5t-23.5 83.5q0 46 22 81.5t58.5 55.5t80.5 20q43 0 80 -23.5t58 -63.5t14 -90l593 1294h-194v15h368zM555 1103l-8 10
l168 248q29 48 71 60t80.5 -1.5t56.5 -41.5q22 -32 18 -73t-31 -74t-75 -43z" />
    <glyph glyph-name="thorn" unicode="&#xfe;" horiz-adv-x="1252" 
d="M34 -500v15h140v1970h-140v15h420v-917q22 170 101.5 262.5t211.5 92.5q109 0 205.5 -57t156.5 -164t60 -257t-60 -257.5t-156.5 -165t-205.5 -57.5q-131 0 -211 93.5t-102 263.5v-822h140v-15h-560zM705 16q58 0 94.5 51.5t53.5 150.5t17 242t-17 241.5t-53.5 149.5
t-94.5 51q-63 0 -120.5 -49t-94 -147t-36.5 -246t36.5 -246.5t94 -148t120.5 -49.5z" />
    <glyph glyph-name="ydieresis" unicode="&#xff;" horiz-adv-x="1205" 
d="M453 905l317 -627l-157 -326l-494 953h-120v15h646v-15h-192zM1217 920v-15h-156l-591 -1289q-28 -59 -68 -97.5t-109 -38.5q-38 0 -73.5 17t-59 50.5t-23.5 83.5q0 46 22 81.5t58.5 55.5t80.5 20q43 0 80 -23.5t58 -63.5t14 -90l593 1294h-194v15h368zM836 1105
q-47 0 -81 34t-34 81q0 48 34 82t81 34q48 0 82 -34t34 -82q0 -47 -34 -81t-82 -34zM462 1105q-47 0 -81 34t-34 81q0 48 34 82t81 34q48 0 82 -34t34 -82q0 -47 -34 -81t-82 -34z" />
    <glyph glyph-name="Amacron" unicode="&#x100;" horiz-adv-x="1577" 
d="M402 480v15h584v-15h-584zM870 1530l525 -1515h146v-15h-683v15h178l-379 1172l-412 -1172h233v-15h-441v15h190l533 1515h110zM567 1700v15h480v-15h-480z" />
    <glyph glyph-name="amacron" unicode="&#x101;" horiz-adv-x="1160" 
d="M888 -20q-64 0 -115.5 17t-81.5 56t-30 103v453q0 72 -13.5 143t-53.5 118t-120 47q-47 0 -100.5 -11t-101 -34.5t-77.5 -60.5t-30 -89h-16q0 63 47 101.5t110 38.5q65 0 114.5 -35t49.5 -101q0 -71 -50.5 -107.5t-113.5 -36.5q-69 0 -114 37.5t-45 102.5q0 56 32.5 96.5
t87 66.5t121.5 38.5t135 12.5q153 0 244.5 -42.5t132 -116.5t40.5 -168v-506q0 -33 16 -56t54 -23q28 0 68.5 25t66.5 78l9 -9q-29 -66 -100 -102t-166 -36zM362 -20q-130 0 -207.5 66.5t-77.5 180.5q0 134 115 207t328 73h234v-13h-166q-76 0 -121.5 -39.5t-66 -95.5
t-20.5 -106q0 -47 11 -90t36 -70t67 -27q44 0 82 32t61.5 97t23.5 167h11q0 -118 -35.5 -204t-104.5 -132t-170 -46zM321 1120v15h480v-15h-480z" />
    <glyph glyph-name="Abreve" unicode="&#x102;" horiz-adv-x="1577" 
d="M402 480v15h584v-15h-584zM870 1530l525 -1515h146v-15h-683v15h178l-379 1172l-412 -1172h233v-15h-441v15h190l533 1515h110zM807 1680q-85 0 -138 39.5t-77.5 111t-24.5 167.5h12q0 -46 34.5 -74.5t87 -41t106.5 -12.5t106.5 12.5t87 41t34.5 74.5h12
q0 -96 -24.5 -167.5t-77.5 -111t-138 -39.5z" />
    <glyph glyph-name="abreve" unicode="&#x103;" horiz-adv-x="1160" 
d="M888 -20q-64 0 -115.5 17t-81.5 56t-30 103v453q0 72 -13.5 143t-53.5 118t-120 47q-47 0 -100.5 -11t-101 -34.5t-77.5 -60.5t-30 -89h-16q0 63 47 101.5t110 38.5q65 0 114.5 -35t49.5 -101q0 -71 -50.5 -107.5t-113.5 -36.5q-69 0 -114 37.5t-45 102.5q0 56 32.5 96.5
t87 66.5t121.5 38.5t135 12.5q153 0 244.5 -42.5t132 -116.5t40.5 -168v-506q0 -33 16 -56t54 -23q28 0 68.5 25t66.5 78l9 -9q-29 -66 -100 -102t-166 -36zM362 -20q-130 0 -207.5 66.5t-77.5 180.5q0 134 115 207t328 73h234v-13h-166q-76 0 -121.5 -39.5t-66 -95.5
t-20.5 -106q0 -47 11 -90t36 -70t67 -27q44 0 82 32t61.5 97t23.5 167h11q0 -118 -35.5 -204t-104.5 -132t-170 -46zM561 1100q-85 0 -138 39.5t-77.5 111t-24.5 167.5h12q0 -46 34.5 -74.5t87 -41t106.5 -12.5t106.5 12.5t87 41t34.5 74.5h12q0 -96 -24.5 -167.5
t-77.5 -111t-138 -39.5z" />
    <glyph glyph-name="Aogonek" unicode="&#x104;" horiz-adv-x="1577" 
d="M402 480v15h584v-15h-584zM870 1530l525 -1515h146v-15h-683v15h178l-379 1172l-412 -1172h233v-15h-441v15h190l533 1515h110zM1155 -446q-66 0 -121.5 18t-90 56t-34.5 98t32.5 109t84.5 88t113 66.5t118 44.5l5 -11q-21 -12 -41 -45t-33 -84.5t-13 -116.5
q0 -81 29.5 -125t72.5 -44q42 0 68 28t50 70l10 -7q-15 -28 -40 -62t-74.5 -58.5t-135.5 -24.5z" />
    <glyph glyph-name="aogonek" unicode="&#x105;" horiz-adv-x="1160" 
d="M888 -20q-64 0 -115.5 17t-81.5 56t-30 103v453q0 72 -13.5 143t-53.5 118t-120 47q-47 0 -100.5 -11t-101 -34.5t-77.5 -60.5t-30 -89h-16q0 63 47 101.5t110 38.5q65 0 114.5 -35t49.5 -101q0 -71 -50.5 -107.5t-113.5 -36.5q-69 0 -114 37.5t-45 102.5q0 56 32.5 96.5
t87 66.5t121.5 38.5t135 12.5q153 0 244.5 -42.5t132 -116.5t40.5 -168v-506q0 -33 16 -56t54 -23q28 0 68.5 25t66.5 78l9 -9q-29 -66 -100 -102t-166 -36zM362 -20q-130 0 -207.5 66.5t-77.5 180.5q0 134 115 207t328 73h234v-13h-166q-76 0 -121.5 -39.5t-66 -95.5
t-20.5 -106q0 -47 11 -90t36 -70t67 -27q44 0 82 32t61.5 97t23.5 167h11q0 -118 -35.5 -204t-104.5 -132t-170 -46zM955 -446q-66 0 -121.5 18t-90 56t-34.5 98t32.5 109t84.5 88t113 66.5t118 44.5l5 -11q-21 -12 -41 -45t-33 -84.5t-13 -116.5q0 -81 29.5 -125t72.5 -44
q42 0 68 28t50 70l10 -7q-15 -28 -40 -62t-74.5 -58.5t-135.5 -24.5z" />
    <glyph glyph-name="Cacute" unicode="&#x106;" horiz-adv-x="1417" 
d="M806 -20q-223 0 -384.5 99.5t-248.5 273.5t-87 397t87 397t248.5 273.5t384.5 99.5q93 0 172 -32t141 -90l176 102h14v-440h-17q-35 128 -102.5 226.5t-160 155t-203.5 56.5q-112 0 -187.5 -65t-119.5 -173t-63.5 -240.5t-19.5 -269.5q0 -136 19.5 -269t63.5 -241
t119.5 -173t187.5 -65q101 0 181 34.5t140.5 95t101.5 139.5t63 169h17v-440h-14l-161 112q-65 -61 -152.5 -96.5t-195.5 -35.5zM713 1683l-8 10l168 248q29 48 71 60t80.5 -1.5t56.5 -41.5q22 -32 18 -73t-31 -74t-75 -43z" />
    <glyph glyph-name="cacute" unicode="&#x107;" horiz-adv-x="1049" 
d="M561 -20q-136 0 -246 52.5t-175 159t-65 268.5q0 143 57.5 251t166.5 168.5t265 60.5q117 0 205 -37t137 -98.5t49 -136.5q0 -73 -46.5 -115t-111.5 -42q-37 0 -75 16.5t-63.5 51t-25.5 87.5q0 71 50 110.5t114 39.5q62 0 109 -38.5t47 -109.5h-13q0 57 -29 103
t-75.5 78.5t-102 50t-108.5 17.5q-73 0 -116.5 -44t-66 -114t-30 -149t-7.5 -150q0 -86 10 -166t34 -143.5t68 -100.5t113 -37q81 0 142.5 34t104.5 94.5t68 141.5h16q-39 -135 -134 -219t-266 -84zM471 1103l-8 10l168 248q29 48 71 60t80.5 -1.5t56.5 -41.5q22 -32 18 -73
t-31 -74t-75 -43z" />
    <glyph glyph-name="Ccircumflex" unicode="&#x108;" horiz-adv-x="1417" 
d="M806 -20q-223 0 -384.5 99.5t-248.5 273.5t-87 397t87 397t248.5 273.5t384.5 99.5q93 0 172 -32t141 -90l176 102h14v-440h-17q-35 128 -102.5 226.5t-160 155t-203.5 56.5q-112 0 -187.5 -65t-119.5 -173t-63.5 -240.5t-19.5 -269.5q0 -136 19.5 -269t63.5 -241
t119.5 -173t187.5 -65q101 0 181 34.5t140.5 95t101.5 139.5t63 169h17v-440h-14l-161 112q-65 -61 -152.5 -96.5t-195.5 -35.5zM491 1709l-8 8l240 270h170l240 -270l-8 -8l-318 138z" />
    <glyph glyph-name="ccircumflex" unicode="&#x109;" horiz-adv-x="1049" 
d="M561 -20q-136 0 -246 52.5t-175 159t-65 268.5q0 143 57.5 251t166.5 168.5t265 60.5q117 0 205 -37t137 -98.5t49 -136.5q0 -73 -46.5 -115t-111.5 -42q-37 0 -75 16.5t-63.5 51t-25.5 87.5q0 71 50 110.5t114 39.5q62 0 109 -38.5t47 -109.5h-13q0 57 -29 103
t-75.5 78.5t-102 50t-108.5 17.5q-73 0 -116.5 -44t-66 -114t-30 -149t-7.5 -150q0 -86 10 -166t34 -143.5t68 -100.5t113 -37q81 0 142.5 34t104.5 94.5t68 141.5h16q-39 -135 -134 -219t-266 -84zM249 1129l-8 8l240 270h170l240 -270l-8 -8l-318 138z" />
    <glyph glyph-name="Cdotaccent" unicode="&#x10a;" horiz-adv-x="1417" 
d="M806 -20q-223 0 -384.5 99.5t-248.5 273.5t-87 397t87 397t248.5 273.5t384.5 99.5q93 0 172 -32t141 -90l176 102h14v-440h-17q-35 128 -102.5 226.5t-160 155t-203.5 56.5q-112 0 -187.5 -65t-119.5 -173t-63.5 -240.5t-19.5 -269.5q0 -136 19.5 -269t63.5 -241
t119.5 -173t187.5 -65q101 0 181 34.5t140.5 95t101.5 139.5t63 169h17v-440h-14l-161 112q-65 -61 -152.5 -96.5t-195.5 -35.5zM808 1759q-72 0 -121 49.5t-49 120.5q0 73 49 121.5t121 48.5t121 -48.5t49 -121.5q0 -71 -49 -120.5t-121 -49.5z" />
    <glyph glyph-name="cdotaccent" unicode="&#x10b;" horiz-adv-x="1049" 
d="M561 -20q-136 0 -246 52.5t-175 159t-65 268.5q0 143 57.5 251t166.5 168.5t265 60.5q117 0 205 -37t137 -98.5t49 -136.5q0 -73 -46.5 -115t-111.5 -42q-37 0 -75 16.5t-63.5 51t-25.5 87.5q0 71 50 110.5t114 39.5q62 0 109 -38.5t47 -109.5h-13q0 57 -29 103
t-75.5 78.5t-102 50t-108.5 17.5q-73 0 -116.5 -44t-66 -114t-30 -149t-7.5 -150q0 -86 10 -166t34 -143.5t68 -100.5t113 -37q81 0 142.5 34t104.5 94.5t68 141.5h16q-39 -135 -134 -219t-266 -84zM566 1179q-72 0 -121 49.5t-49 120.5q0 73 49 121.5t121 48.5t121 -48.5
t49 -121.5q0 -71 -49 -120.5t-121 -49.5z" />
    <glyph glyph-name="Ccaron" unicode="&#x10c;" horiz-adv-x="1417" 
d="M806 -20q-223 0 -384.5 99.5t-248.5 273.5t-87 397t87 397t248.5 273.5t384.5 99.5q93 0 172 -32t141 -90l176 102h14v-440h-17q-35 128 -102.5 226.5t-160 155t-203.5 56.5q-112 0 -187.5 -65t-119.5 -173t-63.5 -240.5t-19.5 -269.5q0 -136 19.5 -269t63.5 -241
t119.5 -173t187.5 -65q101 0 181 34.5t140.5 95t101.5 139.5t63 169h17v-440h-14l-161 112q-65 -61 -152.5 -96.5t-195.5 -35.5zM723 1700l-240 270l8 8l317 -138l316 138l9 -8l-240 -270h-170z" />
    <glyph glyph-name="ccaron" unicode="&#x10d;" horiz-adv-x="1049" 
d="M561 -20q-136 0 -246 52.5t-175 159t-65 268.5q0 143 57.5 251t166.5 168.5t265 60.5q117 0 205 -37t137 -98.5t49 -136.5q0 -73 -46.5 -115t-111.5 -42q-37 0 -75 16.5t-63.5 51t-25.5 87.5q0 71 50 110.5t114 39.5q62 0 109 -38.5t47 -109.5h-13q0 57 -29 103
t-75.5 78.5t-102 50t-108.5 17.5q-73 0 -116.5 -44t-66 -114t-30 -149t-7.5 -150q0 -86 10 -166t34 -143.5t68 -100.5t113 -37q81 0 142.5 34t104.5 94.5t68 141.5h16q-39 -135 -134 -219t-266 -84zM481 1120l-240 270l8 8l317 -138l316 138l9 -8l-240 -270h-170z" />
    <glyph glyph-name="Dcaron" unicode="&#x10e;" horiz-adv-x="1522" 
d="M677 1500q238 0 408 -94.5t261 -263.5t91 -392q0 -167 -54 -304.5t-154.5 -237.5t-240.5 -154t-311 -54h-640v15h180v1470h-180v15h640zM528 15h149q116 0 194.5 59t126 161t68.5 235t21 280q0 148 -23.5 280.5t-73.5 234.5t-127.5 161t-185.5 59h-149v-1470zM584 1700
l-240 270l8 8l317 -138l316 138l9 -8l-240 -270h-170z" />
    <glyph glyph-name="dcaron" unicode="&#x10f;" horiz-adv-x="1265" 
d="M497 -19q-109 0 -205.5 57t-156.5 164t-60 257t60 257.5t156.5 165t205.5 57.5q131 0 211 -93.5t101 -263.5v903h-131v15h412v-1485h131v-15h-412v336q-21 -170 -100.5 -262.5t-211.5 -92.5zM559 17q63 0 120.5 49t93.5 147t36 246t-36 246.5t-93.5 148t-120.5 49.5
q-58 0 -94.5 -51.5t-53.5 -150.5t-17 -242t17 -241.5t53.5 -149.5t94.5 -51zM1225 980v13q76 0 138 29t103.5 80.5t58 120.5t1.5 148h4q2 -38 -19 -72t-57 -55.5t-78 -21.5q-71 0 -109 43t-38 101q0 59 46 101.5t111 42.5q66 0 114.5 -56t48.5 -153q0 -88 -39 -161
t-111.5 -116.5t-173.5 -43.5z" />
    <glyph glyph-name="Dcroat" unicode="&#x110;" horiz-adv-x="1522" 
d="M66 743v14h701v-14h-701zM677 1500q238 0 408 -94.5t261 -263.5t91 -392q0 -167 -54 -304.5t-154.5 -237.5t-240.5 -154t-311 -54h-640v15h180v1470h-180v15h640zM528 15h149q116 0 194.5 59t126 161t68.5 235t21 280q0 148 -23.5 280.5t-73.5 234.5t-127.5 161
t-185.5 59h-149v-1470z" />
    <glyph glyph-name="dcroat" unicode="&#x111;" horiz-adv-x="1265" 
d="M530 1133v14h699v-14h-699zM497 -19q-109 0 -205.5 57t-156.5 164t-60 257t60 257.5t156.5 165t205.5 57.5q131 0 211 -93.5t101 -263.5v903h-131v15h412v-1485h131v-15h-412v336q-21 -170 -100.5 -262.5t-211.5 -92.5zM559 17q63 0 120.5 49t93.5 147t36 246t-36 246.5
t-93.5 148t-120.5 49.5q-58 0 -94.5 -51.5t-53.5 -150.5t-17 -242t17 -241.5t53.5 -149.5t94.5 -51z" />
    <glyph glyph-name="Emacron" unicode="&#x112;" horiz-adv-x="1263" 
d="M37 0v15h180v1470h-180v15h1143v-410h-15q-15 107 -67.5 197t-139 144t-203.5 54h-227v-1470h207q137 0 231.5 56t149 154t69.5 225h15v-450h-1163zM855 526q-15 67 -55 122t-94 87.5t-111 32.5h-142v15h142q57 0 111 30.5t94 83t55 119.5h15v-490h-15zM428 1700v15h480
v-15h-480z" />
    <glyph glyph-name="emacron" unicode="&#x113;" horiz-adv-x="1065" 
d="M564 -20q-141 0 -251.5 55.5t-174 162.5t-63.5 262t61.5 262t170.5 162.5t250 55.5q148 0 244.5 -59.5t144 -155.5t47.5 -205h-784v15h487q0 64 -4.5 132t-18 127t-41.5 95t-75 36q-51 0 -85 -37t-53 -100t-27 -142.5t-8 -165.5q0 -97 9.5 -183t34.5 -151.5t69.5 -103.5
t114.5 -38q139 0 235.5 79t133.5 199h16q-39 -129 -145.5 -215.5t-287.5 -86.5zM313 1120v15h480v-15h-480z" />
    <glyph glyph-name="Ebreve" unicode="&#x114;" horiz-adv-x="1263" 
d="M37 0v15h180v1470h-180v15h1143v-410h-15q-15 107 -67.5 197t-139 144t-203.5 54h-227v-1470h207q137 0 231.5 56t149 154t69.5 225h15v-450h-1163zM855 526q-15 67 -55 122t-94 87.5t-111 32.5h-142v15h142q57 0 111 30.5t94 83t55 119.5h15v-490h-15zM668 1680
q-85 0 -138 39.5t-77.5 111t-24.5 167.5h12q0 -46 34.5 -74.5t87 -41t106.5 -12.5t106.5 12.5t87 41t34.5 74.5h12q0 -96 -24.5 -167.5t-77.5 -111t-138 -39.5z" />
    <glyph glyph-name="ebreve" unicode="&#x115;" horiz-adv-x="1065" 
d="M564 -20q-141 0 -251.5 55.5t-174 162.5t-63.5 262t61.5 262t170.5 162.5t250 55.5q148 0 244.5 -59.5t144 -155.5t47.5 -205h-784v15h487q0 64 -4.5 132t-18 127t-41.5 95t-75 36q-51 0 -85 -37t-53 -100t-27 -142.5t-8 -165.5q0 -97 9.5 -183t34.5 -151.5t69.5 -103.5
t114.5 -38q139 0 235.5 79t133.5 199h16q-39 -129 -145.5 -215.5t-287.5 -86.5zM553 1100q-85 0 -138 39.5t-77.5 111t-24.5 167.5h12q0 -46 34.5 -74.5t87 -41t106.5 -12.5t106.5 12.5t87 41t34.5 74.5h12q0 -96 -24.5 -167.5t-77.5 -111t-138 -39.5z" />
    <glyph glyph-name="Edotaccent" unicode="&#x116;" horiz-adv-x="1263" 
d="M37 0v15h180v1470h-180v15h1143v-410h-15q-15 107 -67.5 197t-139 144t-203.5 54h-227v-1470h207q137 0 231.5 56t149 154t69.5 225h15v-450h-1163zM855 526q-15 67 -55 122t-94 87.5t-111 32.5h-142v15h142q57 0 111 30.5t94 83t55 119.5h15v-490h-15zM669 1759
q-72 0 -121 49.5t-49 120.5q0 73 49 121.5t121 48.5t121 -48.5t49 -121.5q0 -71 -49 -120.5t-121 -49.5z" />
    <glyph glyph-name="edotaccent" unicode="&#x117;" horiz-adv-x="1065" 
d="M564 -20q-141 0 -251.5 55.5t-174 162.5t-63.5 262t61.5 262t170.5 162.5t250 55.5q148 0 244.5 -59.5t144 -155.5t47.5 -205h-784v15h487q0 64 -4.5 132t-18 127t-41.5 95t-75 36q-51 0 -85 -37t-53 -100t-27 -142.5t-8 -165.5q0 -97 9.5 -183t34.5 -151.5t69.5 -103.5
t114.5 -38q139 0 235.5 79t133.5 199h16q-39 -129 -145.5 -215.5t-287.5 -86.5zM554 1179q-72 0 -121 49.5t-49 120.5q0 73 49 121.5t121 48.5t121 -48.5t49 -121.5q0 -71 -49 -120.5t-121 -49.5z" />
    <glyph glyph-name="Eogonek" unicode="&#x118;" horiz-adv-x="1263" 
d="M37 0v15h180v1470h-180v15h1143v-410h-15q-15 107 -67.5 197t-139 144t-203.5 54h-227v-1470h207q137 0 231.5 56t149 154t69.5 225h15v-450h-1163zM855 526q-15 67 -55 122t-94 87.5t-111 32.5h-142v15h142q57 0 111 30.5t94 83t55 119.5h15v-490h-15zM935 -446
q-66 0 -121.5 18t-90 56t-34.5 98t32.5 109t84.5 88t113 66.5t118 44.5l5 -11q-21 -12 -41 -45t-33 -84.5t-13 -116.5q0 -81 29.5 -125t72.5 -44q42 0 68 28t50 70l10 -7q-15 -28 -40 -62t-74.5 -58.5t-135.5 -24.5z" />
    <glyph glyph-name="eogonek" unicode="&#x119;" horiz-adv-x="1065" 
d="M564 -20q-141 0 -251.5 55.5t-174 162.5t-63.5 262t61.5 262t170.5 162.5t250 55.5q148 0 244.5 -59.5t144 -155.5t47.5 -205h-784v15h487q0 64 -4.5 132t-18 127t-41.5 95t-75 36q-51 0 -85 -37t-53 -100t-27 -142.5t-8 -165.5q0 -97 9.5 -183t34.5 -151.5t69.5 -103.5
t114.5 -38q139 0 235.5 79t133.5 199h16q-39 -129 -145.5 -215.5t-287.5 -86.5zM665 -446q-66 0 -121.5 18t-90 56t-34.5 98t32.5 109t84.5 88t113 66.5t118 44.5l5 -11q-21 -12 -41 -45t-33 -84.5t-13 -116.5q0 -81 29.5 -125t72.5 -44q42 0 68 28t50 70l10 -7
q-15 -28 -40 -62t-74.5 -58.5t-135.5 -24.5z" />
    <glyph glyph-name="Ecaron" unicode="&#x11a;" horiz-adv-x="1263" 
d="M37 0v15h180v1470h-180v15h1143v-410h-15q-15 107 -67.5 197t-139 144t-203.5 54h-227v-1470h207q137 0 231.5 56t149 154t69.5 225h15v-450h-1163zM855 526q-15 67 -55 122t-94 87.5t-111 32.5h-142v15h142q57 0 111 30.5t94 83t55 119.5h15v-490h-15zM584 1700
l-240 270l8 8l317 -138l316 138l9 -8l-240 -270h-170z" />
    <glyph glyph-name="ecaron" unicode="&#x11b;" horiz-adv-x="1065" 
d="M564 -20q-141 0 -251.5 55.5t-174 162.5t-63.5 262t61.5 262t170.5 162.5t250 55.5q148 0 244.5 -59.5t144 -155.5t47.5 -205h-784v15h487q0 64 -4.5 132t-18 127t-41.5 95t-75 36q-51 0 -85 -37t-53 -100t-27 -142.5t-8 -165.5q0 -97 9.5 -183t34.5 -151.5t69.5 -103.5
t114.5 -38q139 0 235.5 79t133.5 199h16q-39 -129 -145.5 -215.5t-287.5 -86.5zM469 1120l-240 270l8 8l317 -138l316 138l9 -8l-240 -270h-170z" />
    <glyph glyph-name="Gcircumflex" unicode="&#x11c;" horiz-adv-x="1519" 
d="M856 578h640v-16h-100v-252q-49 -51 -103.5 -108t-123.5 -107.5t-160 -82.5t-213 -32q-223 0 -382 95.5t-243.5 268.5t-84.5 406q0 175 58 316.5t160 243t236 156t286 54.5q87 0 167 -30.5t145 -84.5l197 95h14v-440h-16q-15 80 -58.5 158t-108 141t-145 100.5
t-169.5 37.5q-112 0 -191 -64.5t-129 -172.5t-73 -240.5t-23 -269.5q0 -136 16 -270.5t55.5 -243.5t110 -175t178.5 -66q63 0 109 27.5t77.5 68.5t52 84.5t31.5 74.5v312h-210v16zM511 1709l-8 8l240 270h170l240 -270l-8 -8l-318 138z" />
    <glyph glyph-name="gcircumflex" unicode="&#x11d;" horiz-adv-x="1259" 
d="M518 -520q-90 0 -175 14t-152.5 44.5t-107 78.5t-39.5 115q0 63 35.5 103.5t87.5 63.5t104.5 32t86.5 9h11q-44 -26 -64 -71.5t-20 -109.5q0 -65 30 -125t92.5 -97.5t160.5 -37.5q67 0 133 16t119.5 48t86.5 79.5t33 111.5q0 67 -38.5 105.5t-98.5 55.5t-125 17h-67.5
h-92.5h-68q-154 0 -248 45.5t-94 145.5q0 62 35 103t93 65.5t128 35.5t141 11l-1 -10q-28 0 -65 -5t-71.5 -16.5t-57 -30t-22.5 -44.5q0 -40 49.5 -51.5t131.5 -11.5q35 0 69.5 0.5t67.5 1t61 0.5q56 0 115.5 -14.5t110 -51t82 -102t31.5 -167.5q0 -95 -38.5 -163
t-106 -110.5t-155.5 -62.5t-188 -20zM502 326q-70 0 -142 17t-132.5 53.5t-97 95t-36.5 141.5t36.5 141t97 94.5t132.5 53.5t142 17t141 -17t130.5 -53.5t95.5 -94.5t36 -141t-36 -141.5t-95.5 -95t-130.5 -53.5t-141 -17zM502 341q41 0 67 41t38.5 107.5t12.5 143.5
q0 81 -12.5 147.5t-38.5 105t-67 38.5q-42 0 -68 -38.5t-38.5 -105t-12.5 -147.5q0 -77 7 -143.5t32.5 -107.5t79.5 -41zM1094 619q-48 0 -87 33t-39 93q0 62 39.5 90t86.5 28q45 0 87 -28t42 -81h-13q0 61 -48 111t-134 50q-44 0 -93 -20t-90 -67.5t-61 -131.5l-11 7
q20 87 63 137t94.5 70t96.5 20q64 0 108 -26t67 -66.5t23 -83.5q0 -75 -41 -105t-90 -30zM237 1129l-8 8l240 270h170l240 -270l-8 -8l-318 138z" />
    <glyph glyph-name="Gbreve" unicode="&#x11e;" horiz-adv-x="1519" 
d="M856 578h640v-16h-100v-252q-49 -51 -103.5 -108t-123.5 -107.5t-160 -82.5t-213 -32q-223 0 -382 95.5t-243.5 268.5t-84.5 406q0 175 58 316.5t160 243t236 156t286 54.5q87 0 167 -30.5t145 -84.5l197 95h14v-440h-16q-15 80 -58.5 158t-108 141t-145 100.5
t-169.5 37.5q-112 0 -191 -64.5t-129 -172.5t-73 -240.5t-23 -269.5q0 -136 16 -270.5t55.5 -243.5t110 -175t178.5 -66q63 0 109 27.5t77.5 68.5t52 84.5t31.5 74.5v312h-210v16zM827 1680q-85 0 -138 39.5t-77.5 111t-24.5 167.5h12q0 -46 34.5 -74.5t87 -41t106.5 -12.5
t106.5 12.5t87 41t34.5 74.5h12q0 -96 -24.5 -167.5t-77.5 -111t-138 -39.5z" />
    <glyph glyph-name="gbreve" unicode="&#x11f;" horiz-adv-x="1259" 
d="M518 -520q-90 0 -175 14t-152.5 44.5t-107 78.5t-39.5 115q0 63 35.5 103.5t87.5 63.5t104.5 32t86.5 9h11q-44 -26 -64 -71.5t-20 -109.5q0 -65 30 -125t92.5 -97.5t160.5 -37.5q67 0 133 16t119.5 48t86.5 79.5t33 111.5q0 67 -38.5 105.5t-98.5 55.5t-125 17h-67.5
h-92.5h-68q-154 0 -248 45.5t-94 145.5q0 62 35 103t93 65.5t128 35.5t141 11l-1 -10q-28 0 -65 -5t-71.5 -16.5t-57 -30t-22.5 -44.5q0 -40 49.5 -51.5t131.5 -11.5q35 0 69.5 0.5t67.5 1t61 0.5q56 0 115.5 -14.5t110 -51t82 -102t31.5 -167.5q0 -95 -38.5 -163
t-106 -110.5t-155.5 -62.5t-188 -20zM502 326q-70 0 -142 17t-132.5 53.5t-97 95t-36.5 141.5t36.5 141t97 94.5t132.5 53.5t142 17t141 -17t130.5 -53.5t95.5 -94.5t36 -141t-36 -141.5t-95.5 -95t-130.5 -53.5t-141 -17zM502 341q41 0 67 41t38.5 107.5t12.5 143.5
q0 81 -12.5 147.5t-38.5 105t-67 38.5q-42 0 -68 -38.5t-38.5 -105t-12.5 -147.5q0 -77 7 -143.5t32.5 -107.5t79.5 -41zM1094 619q-48 0 -87 33t-39 93q0 62 39.5 90t86.5 28q45 0 87 -28t42 -81h-13q0 61 -48 111t-134 50q-44 0 -93 -20t-90 -67.5t-61 -131.5l-11 7
q20 87 63 137t94.5 70t96.5 20q64 0 108 -26t67 -66.5t23 -83.5q0 -75 -41 -105t-90 -30zM553 1100q-85 0 -138 39.5t-77.5 111t-24.5 167.5h12q0 -46 34.5 -74.5t87 -41t106.5 -12.5t106.5 12.5t87 41t34.5 74.5h12q0 -96 -24.5 -167.5t-77.5 -111t-138 -39.5z" />
    <glyph glyph-name="Gdotaccent" unicode="&#x120;" horiz-adv-x="1519" 
d="M856 578h640v-16h-100v-252q-49 -51 -103.5 -108t-123.5 -107.5t-160 -82.5t-213 -32q-223 0 -382 95.5t-243.5 268.5t-84.5 406q0 175 58 316.5t160 243t236 156t286 54.5q87 0 167 -30.5t145 -84.5l197 95h14v-440h-16q-15 80 -58.5 158t-108 141t-145 100.5
t-169.5 37.5q-112 0 -191 -64.5t-129 -172.5t-73 -240.5t-23 -269.5q0 -136 16 -270.5t55.5 -243.5t110 -175t178.5 -66q63 0 109 27.5t77.5 68.5t52 84.5t31.5 74.5v312h-210v16zM828 1759q-72 0 -121 49.5t-49 120.5q0 73 49 121.5t121 48.5t121 -48.5t49 -121.5
q0 -71 -49 -120.5t-121 -49.5z" />
    <glyph glyph-name="gdotaccent" unicode="&#x121;" horiz-adv-x="1259" 
d="M518 -520q-90 0 -175 14t-152.5 44.5t-107 78.5t-39.5 115q0 63 35.5 103.5t87.5 63.5t104.5 32t86.5 9h11q-44 -26 -64 -71.5t-20 -109.5q0 -65 30 -125t92.5 -97.5t160.5 -37.5q67 0 133 16t119.5 48t86.5 79.5t33 111.5q0 67 -38.5 105.5t-98.5 55.5t-125 17h-67.5
h-92.5h-68q-154 0 -248 45.5t-94 145.5q0 62 35 103t93 65.5t128 35.5t141 11l-1 -10q-28 0 -65 -5t-71.5 -16.5t-57 -30t-22.5 -44.5q0 -40 49.5 -51.5t131.5 -11.5q35 0 69.5 0.5t67.5 1t61 0.5q56 0 115.5 -14.5t110 -51t82 -102t31.5 -167.5q0 -95 -38.5 -163
t-106 -110.5t-155.5 -62.5t-188 -20zM502 326q-70 0 -142 17t-132.5 53.5t-97 95t-36.5 141.5t36.5 141t97 94.5t132.5 53.5t142 17t141 -17t130.5 -53.5t95.5 -94.5t36 -141t-36 -141.5t-95.5 -95t-130.5 -53.5t-141 -17zM502 341q41 0 67 41t38.5 107.5t12.5 143.5
q0 81 -12.5 147.5t-38.5 105t-67 38.5q-42 0 -68 -38.5t-38.5 -105t-12.5 -147.5q0 -77 7 -143.5t32.5 -107.5t79.5 -41zM1094 619q-48 0 -87 33t-39 93q0 62 39.5 90t86.5 28q45 0 87 -28t42 -81h-13q0 61 -48 111t-134 50q-44 0 -93 -20t-90 -67.5t-61 -131.5l-11 7
q20 87 63 137t94.5 70t96.5 20q64 0 108 -26t67 -66.5t23 -83.5q0 -75 -41 -105t-90 -30zM554 1179q-72 0 -121 49.5t-49 120.5q0 73 49 121.5t121 48.5t121 -48.5t49 -121.5q0 -71 -49 -120.5t-121 -49.5z" />
    <glyph glyph-name="uni0122" unicode="&#x122;" horiz-adv-x="1519" 
d="M856 578h640v-16h-100v-252q-49 -51 -103.5 -108t-123.5 -107.5t-160 -82.5t-213 -32q-223 0 -382 95.5t-243.5 268.5t-84.5 406q0 175 58 316.5t160 243t236 156t286 54.5q87 0 167 -30.5t145 -84.5l197 95h14v-440h-16q-15 80 -58.5 158t-108 141t-145 100.5
t-169.5 37.5q-112 0 -191 -64.5t-129 -172.5t-73 -240.5t-23 -269.5q0 -136 16 -270.5t55.5 -243.5t110 -175t178.5 -66q63 0 109 27.5t77.5 68.5t52 84.5t31.5 74.5v312h-210v16zM645 -704v13q99 0 172.5 47.5t108.5 129.5t16 185h4q2 -38 -19.5 -71.5t-57 -54.5t-76.5 -21
q-70 0 -107.5 42.5t-37.5 99.5q0 39 21 71.5t56.5 52t77.5 19.5q65 0 112.5 -54t47.5 -148q0 -87 -38.5 -157t-110 -112t-169.5 -42z" />
    <glyph glyph-name="uni0123" unicode="&#x123;" horiz-adv-x="1259" 
d="M518 -520q-90 0 -175 14t-152.5 44.5t-107 78.5t-39.5 115q0 63 35.5 103.5t87.5 63.5t104.5 32t86.5 9h11q-44 -26 -64 -71.5t-20 -109.5q0 -65 30 -125t92.5 -97.5t160.5 -37.5q67 0 133 16t119.5 48t86.5 79.5t33 111.5q0 67 -38.5 105.5t-98.5 55.5t-125 17h-67.5
h-92.5h-68q-154 0 -248 45.5t-94 145.5q0 62 35 103t93 65.5t128 35.5t141 11l-1 -10q-28 0 -65 -5t-71.5 -16.5t-57 -30t-22.5 -44.5q0 -40 49.5 -51.5t131.5 -11.5q35 0 69.5 0.5t67.5 1t61 0.5q56 0 115.5 -14.5t110 -51t82 -102t31.5 -167.5q0 -95 -38.5 -163
t-106 -110.5t-155.5 -62.5t-188 -20zM502 326q-70 0 -142 17t-132.5 53.5t-97 95t-36.5 141.5t36.5 141t97 94.5t132.5 53.5t142 17t141 -17t130.5 -53.5t95.5 -94.5t36 -141t-36 -141.5t-95.5 -95t-130.5 -53.5t-141 -17zM502 341q41 0 67 41t38.5 107.5t12.5 143.5
q0 81 -12.5 147.5t-38.5 105t-67 38.5q-42 0 -68 -38.5t-38.5 -105t-12.5 -147.5q0 -77 7 -143.5t32.5 -107.5t79.5 -41zM1094 619q-48 0 -87 33t-39 93q0 62 39.5 90t86.5 28q45 0 87 -28t42 -81h-13q0 61 -48 111t-134 50q-44 0 -93 -20t-90 -67.5t-61 -131.5l-11 7
q20 87 63 137t94.5 70t96.5 20q64 0 108 -26t67 -66.5t23 -83.5q0 -75 -41 -105t-90 -30zM556 1116q-65 0 -112.5 54t-47.5 148q0 86 39 156.5t110 112.5t169 42v-13q-98 0 -172 -47.5t-108.5 -129t-15.5 -186.5h-5q-1 38 20 72t56.5 55t76.5 21q70 0 107.5 -42.5
t37.5 -99.5q0 -39 -21 -71.5t-56 -52t-78 -19.5z" />
    <glyph glyph-name="Hcircumflex" unicode="&#x124;" horiz-adv-x="1594" 
d="M1557 1500v-15h-180v-1470h180v-15h-670v15h180v717h-540v-717h181v-15h-671v15h180v1470h-180v15h671v-15h-181v-737h540v737h-180v15h670zM483 1709l-8 8l240 270h170l240 -270l-8 -8l-318 138z" />
    <glyph glyph-name="hcircumflex" unicode="&#x125;" horiz-adv-x="1240" 
d="M44 0v15h132v1470h-132v15h412v-1485h101v-15h-513zM685 0v15h101v614q0 84 -7 139t-27.5 81.5t-62.5 26.5q-69 0 -114 -41t-71.5 -106t-37 -140t-10.5 -143l-12 -4q0 73 12 159t46.5 163t101.5 126.5t177 49.5q113 0 174.5 -39t85.5 -107.5t24 -155.5v-623h132v-15h-512
zM366 1616l-8 8l240 270h170l240 -270l-8 -8l-318 138z" />
    <glyph glyph-name="Hbar" unicode="&#x126;" horiz-adv-x="1594" 
d="M36 1123v15h1521v-15h-1521zM1557 1500v-15h-180v-1470h180v-15h-670v15h180v717h-540v-717h181v-15h-671v15h180v1470h-180v15h671v-15h-181v-737h540v737h-180v15h670z" />
    <glyph glyph-name="hbar" unicode="&#x127;" horiz-adv-x="1196" 
d="M68 1183v14h584v-14h-584zM44 0v15h132v1470h-132v15h412v-1485h101v-15h-513zM685 0v15h101v614q0 84 -7 139t-27.5 81.5t-62.5 26.5q-69 0 -114 -41t-71.5 -106t-37 -140t-10.5 -143l-12 -4q0 73 12 159t46.5 163t101.5 126.5t177 49.5q113 0 174.5 -39t85.5 -107.5
t24 -155.5v-623h132v-15h-512z" />
    <glyph glyph-name="Itilde" unicode="&#x128;" horiz-adv-x="844" 
d="M37 0v15h220v1470h-220v15h770v-15h-239v-1470h239v-15h-770zM579 1660q-58 0 -105 24t-88 55t-85 55t-97 24q-54 0 -90 -31t-36 -87h-15q0 85 23 151.5t68 104.5t109 38q61 0 106.5 -24t84 -55t77.5 -55t87 -24q61 0 93.5 31.5t32.5 86.5h15q0 -95 -14 -160.5t-53 -99.5
t-113 -34z" />
    <glyph glyph-name="itilde" unicode="&#x129;" horiz-adv-x="638" 
d="M466 920v-905h132v-15h-544v15h132v890h-132v15h412zM494 1080q-58 0 -105 24t-88 55t-85 55t-97 24q-54 0 -90 -31t-36 -87h-15q0 85 23 151.5t68 104.5t109 38q61 0 106.5 -24t84 -55t77.5 -55t87 -24q61 0 93.5 31.5t32.5 86.5h15q0 -95 -14 -160.5t-53 -99.5
t-113 -34z" />
    <glyph glyph-name="Imacron" unicode="&#x12a;" horiz-adv-x="844" 
d="M37 0v15h220v1470h-220v15h770v-15h-239v-1470h239v-15h-770zM172 1700v15h480v-15h-480z" />
    <glyph glyph-name="imacron" unicode="&#x12b;" horiz-adv-x="638" 
d="M466 920v-905h132v-15h-544v15h132v890h-132v15h412zM87 1120v15h480v-15h-480z" />
    <glyph glyph-name="Ibreve" unicode="&#x12c;" horiz-adv-x="844" 
d="M37 0v15h220v1470h-220v15h770v-15h-239v-1470h239v-15h-770zM412 1680q-85 0 -138 39.5t-77.5 111t-24.5 167.5h12q0 -46 34.5 -74.5t87 -41t106.5 -12.5t106.5 12.5t87 41t34.5 74.5h12q0 -96 -24.5 -167.5t-77.5 -111t-138 -39.5z" />
    <glyph glyph-name="ibreve" unicode="&#x12d;" horiz-adv-x="638" 
d="M466 920v-905h132v-15h-544v15h132v890h-132v15h412zM327 1100q-85 0 -138 39.5t-77.5 111t-24.5 167.5h12q0 -46 34.5 -74.5t87 -41t106.5 -12.5t106.5 12.5t87 41t34.5 74.5h12q0 -96 -24.5 -167.5t-77.5 -111t-138 -39.5z" />
    <glyph glyph-name="Iogonek" unicode="&#x12e;" horiz-adv-x="844" 
d="M37 0v15h220v1470h-220v15h770v-15h-239v-1470h239v-15h-770zM402 -446q-66 0 -121.5 18t-90 56t-34.5 98t32.5 109t84.5 88t113 66.5t118 44.5l5 -11q-21 -12 -41 -45t-33 -84.5t-13 -116.5q0 -81 29.5 -125t72.5 -44q42 0 68 28t50 70l10 -7q-15 -28 -40 -62
t-74.5 -58.5t-135.5 -24.5z" />
    <glyph glyph-name="iogonek" unicode="&#x12f;" horiz-adv-x="638" 
d="M466 920v-905h132v-15h-544v15h132v890h-132v15h412zM328 1179q-72 0 -121 49.5t-49 120.5q0 73 49 121.5t121 48.5t121 -48.5t49 -121.5q0 -71 -49 -120.5t-121 -49.5zM322 -446q-66 0 -121.5 18t-90 56t-34.5 98t32.5 109t84.5 88t113 66.5t118 44.5l5 -11
q-21 -12 -41 -45t-33 -84.5t-13 -116.5q0 -81 29.5 -125t72.5 -44q42 0 68 28t50 70l10 -7q-15 -28 -40 -62t-74.5 -58.5t-135.5 -24.5z" />
    <glyph glyph-name="Idotaccent" unicode="&#x130;" horiz-adv-x="844" 
d="M37 0v15h220v1470h-220v15h770v-15h-239v-1470h239v-15h-770zM413 1759q-72 0 -121 49.5t-49 120.5q0 73 49 121.5t121 48.5t121 -48.5t49 -121.5q0 -71 -49 -120.5t-121 -49.5z" />
    <glyph glyph-name="dotlessi" unicode="&#x131;" horiz-adv-x="638" 
d="M466 920v-905h132v-15h-544v15h132v890h-132v15h412z" />
    <glyph glyph-name="IJ" unicode="&#x132;" horiz-adv-x="1947" 
d="M37 0v15h220v1470h-220v15h770v-15h-239v-1470h239v-15h-770zM1863 1500v-15h-200v-1145q-28 -71 -67.5 -142t-94.5 -129.5t-129.5 -94t-173.5 -35.5q-102 0 -180.5 34.5t-122.5 94.5t-44 135q0 57 24.5 99t65.5 65t89 23q42 0 83 -20t68 -59t27 -95q0 -54 -25.5 -91.5
t-66.5 -57.5t-89 -19q-46 1 -89 31t-55 74q13 -60 55 -103.5t102.5 -67.5t127.5 -24q77 0 117 47.5t54.5 141.5t14.5 233v1105h-260v15h769z" />
    <glyph glyph-name="ij" unicode="&#x133;" horiz-adv-x="1245" 
d="M326 1179q-71 0 -120.5 49.5t-49.5 120.5q0 73 49.5 121.5t120.5 48.5q73 0 121.5 -48.5t48.5 -121.5q0 -71 -48.5 -120.5t-121.5 -49.5zM466 920v-905h132v-15h-544v15h132v890h-132v15h412zM622 -520q-88 0 -156 32t-106.5 86t-38.5 120q0 73 48 118.5t116 45.5
q40 0 77 -18.5t60.5 -52.5t23.5 -82q0 -60 -44 -104.5t-117 -44.5q-44 0 -80.5 20t-59 51.5t-22.5 66.5h14q0 -63 37 -113t98 -79.5t134 -29.5q72 0 108.5 48.5t50.5 129t15 177t1 191.5v863h-172v15h451v-943q0 -98 -31.5 -187.5t-90 -159t-138.5 -110t-178 -40.5z
M905 1180q-72 0 -121 49.5t-49 120.5q0 73 49 121.5t121 48.5t120.5 -48.5t48.5 -121.5q0 -71 -48.5 -120.5t-120.5 -49.5z" />
    <glyph glyph-name="Jcircumflex" unicode="&#x134;" horiz-adv-x="1071" 
d="M1033 1500v-15h-200v-1145q-28 -71 -67.5 -142t-94.5 -129.5t-129.5 -94t-173.5 -35.5q-102 0 -180.5 34.5t-122.5 94.5t-44 135q0 57 24.5 99t65.5 65t89 23q42 0 83 -20t68 -59t27 -95q0 -54 -25.5 -91.5t-66.5 -57.5t-89 -19q-46 1 -89 31t-55 74q13 -60 55 -103.5
t102.5 -67.5t127.5 -24q77 0 117 47.5t54.5 141.5t14.5 233v1105h-260v15h769zM335 1709l-8 8l240 270h170l240 -270l-8 -8l-318 138z" />
    <glyph glyph-name="jcircumflex" unicode="&#x135;" horiz-adv-x="660" 
d="M62 -520q-88 0 -156 32t-106.5 86t-38.5 120q0 73 48 118.5t116 45.5q40 0 77 -18.5t60.5 -52.5t23.5 -82q0 -60 -44 -104.5t-117 -44.5q-44 0 -80.5 20t-59 51.5t-22.5 66.5h14q0 -63 37 -113t98 -79.5t134 -29.5q72 0 108.5 49t50.5 129t15 176.5t1 191.5v863h-172v15
h451v-943q0 -98 -31.5 -187.5t-90 -159t-138.5 -110t-178 -40.5zM14 1129l-8 8l240 270h170l240 -270l-8 -8l-318 138z" />
    <glyph glyph-name="uni0136" unicode="&#x136;" horiz-adv-x="1540" 
d="M291 434l899 1051h-233v15h480v-15h-225l-899 -1051h-22zM37 0v15h180v1470h-180v15h690v-15h-199v-1470h179v-15h-670zM807 0v15h196l-425 748l205 232l580 -980h164v-15h-720zM612 -704v13q99 0 172.5 47.5t108.5 129.5t16 185h4q2 -38 -19.5 -71.5t-57 -54.5
t-76.5 -21q-70 0 -107.5 42.5t-37.5 99.5q0 39 21 71.5t56.5 52t77.5 19.5q65 0 112.5 -54t47.5 -148q0 -87 -38.5 -157t-110 -112t-169.5 -42z" />
    <glyph glyph-name="uni0137" unicode="&#x137;" horiz-adv-x="1281" 
d="M44 0v15h172v1470h-172v15h452v-1485h110v-15h-562zM703 0v15h123l-385 518l522 372h-232v15h429v-15h-175l-324 -237l510 -653h87v-15h-555zM490 -704v13q99 0 172.5 47.5t108.5 129.5t16 185h4q2 -38 -19.5 -71.5t-57 -54.5t-76.5 -21q-70 0 -107.5 42.5t-37.5 99.5
q0 39 21 71.5t56.5 52t77.5 19.5q65 0 112.5 -54t47.5 -148q0 -87 -38.5 -157t-110 -112t-169.5 -42z" />
    <glyph glyph-name="kgreenlandic" unicode="&#x138;" horiz-adv-x="1286" 
d="M844 0l-397 533l544 387h21l-344 -252l521 -668h-345zM42 0v15h571v-15h-571zM223 0v905h-181v15h461v-920h-280zM701 0v15h564v-15h-564zM721 905v15h446v-15h-446z" />
    <glyph glyph-name="Lacute" unicode="&#x139;" horiz-adv-x="1239" 
d="M37 0v15h180v1470h-180v15h670v-15h-179v-1470h202q110 0 190 32t133.5 90t84.5 138t42 175h15v-450h-1158zM274 1683l-8 10l168 248q29 48 71 60t80.5 -1.5t56.5 -41.5q22 -32 18 -73t-31 -74t-75 -43z" />
    <glyph glyph-name="lacute" unicode="&#x13a;" horiz-adv-x="711" 
d="M496 1500v-1485h171v-15h-623v15h172v1470h-172v15h452zM269 1683l-8 10l168 248q29 48 71 60t80.5 -1.5t56.5 -41.5q22 -32 18 -73t-31 -74t-75 -43z" />
    <glyph glyph-name="uni013B" unicode="&#x13b;" horiz-adv-x="1239" 
d="M37 0v15h180v1470h-180v15h670v-15h-179v-1470h202q110 0 190 32t133.5 90t84.5 138t42 175h15v-450h-1158zM492 -704v13q99 0 172.5 47.5t108.5 129.5t16 185h4q2 -38 -19.5 -71.5t-57 -54.5t-76.5 -21q-70 0 -107.5 42.5t-37.5 99.5q0 39 21 71.5t56.5 52t77.5 19.5
q65 0 112.5 -54t47.5 -148q0 -87 -38.5 -157t-110 -112t-169.5 -42z" />
    <glyph glyph-name="uni013C" unicode="&#x13c;" horiz-adv-x="711" 
d="M496 1500v-1485h171v-15h-623v15h172v1470h-172v15h452zM214 -704v13q99 0 172.5 47.5t108.5 129.5t16 185h4q2 -38 -19.5 -71.5t-57 -54.5t-76.5 -21q-70 0 -107.5 42.5t-37.5 99.5q0 39 21 71.5t56.5 52t77.5 19.5q65 0 112.5 -54t47.5 -148q0 -87 -38.5 -157
t-110 -112t-169.5 -42z" />
    <glyph glyph-name="Lcaron" unicode="&#x13d;" horiz-adv-x="1239" 
d="M37 0v15h180v1470h-180v15h670v-15h-179v-1470h202q110 0 190 32t133.5 90t84.5 138t42 175h15v-450h-1158zM845 991v13q76 0 138 29t103.5 80.5t58 120.5t1.5 148h4q2 -38 -19 -72t-57 -55.5t-78 -21.5q-71 0 -109 43t-38 101q0 59 46 101.5t111 42.5q66 0 114.5 -56
t48.5 -153q0 -88 -39 -161t-111.5 -116.5t-173.5 -43.5z" />
    <glyph glyph-name="lcaron" unicode="&#x13e;" horiz-adv-x="711" 
d="M496 1500v-1485h171v-15h-623v15h172v1470h-172v15h452zM623 980v13q76 0 138 29t103.5 80.5t58 120.5t1.5 148h4q2 -38 -19 -72t-57 -55.5t-78 -21.5q-71 0 -109 43t-38 101q0 59 46 101.5t111 42.5q66 0 114.5 -56t48.5 -153q0 -88 -39 -161t-111.5 -116.5
t-173.5 -43.5z" />
    <glyph glyph-name="Ldot" unicode="&#x13f;" horiz-adv-x="1239" 
d="M37 0v15h180v1470h-180v15h670v-15h-179v-1470h202q110 0 190 32t133.5 90t84.5 138t42 175h15v-450h-1158zM1006 680q-50 0 -90.5 24.5t-65 65.5t-24.5 90t24.5 90.5t65 66t90.5 24.5q49 0 90.5 -24.5t65.5 -66t24 -90.5t-24 -90t-65.5 -65.5t-90.5 -24.5z" />
    <glyph glyph-name="ldot" unicode="&#x140;" horiz-adv-x="867" 
d="M496 1500v-1485h171v-15h-623v15h172v1470h-172v15h452zM798 680q-50 0 -90.5 24.5t-65 65.5t-24.5 90t24.5 90.5t65 66t90.5 24.5q49 0 90.5 -24.5t65.5 -66t24 -90.5t-24 -90t-65.5 -65.5t-90.5 -24.5z" />
    <glyph glyph-name="Lslash" unicode="&#x141;" horiz-adv-x="1239" 
d="M36 702v18l790 440v-18zM37 0v15h180v1470h-180v15h670v-15h-179v-1470h202q110 0 190 32t133.5 90t84.5 138t42 175h15v-450h-1158z" />
    <glyph glyph-name="lslash" unicode="&#x142;" horiz-adv-x="711" 
d="M37 743v17l670 400v-17zM496 1500v-1485h171v-15h-623v15h172v1470h-172v15h452z" />
    <glyph glyph-name="Nacute" unicode="&#x143;" horiz-adv-x="1517" 
d="M253 1500v-1485h232v-15h-448v15h200v1470h-200v15h216zM1481 1500v-15h-210v-1505h-20l-1008 1520h369l643 -990v975h-228v15h454zM699 1683l-8 10l168 248q29 48 71 60t80.5 -1.5t56.5 -41.5q22 -32 18 -73t-31 -74t-75 -43z" />
    <glyph glyph-name="nacute" unicode="&#x144;" horiz-adv-x="1240" 
d="M455 920v-905h102v-15h-513v15h132v890h-132v15h411zM1065 638v-623h132v-15h-512v15h101v614q0 84 -7 139t-27.5 81.5t-62.5 26.5q-69 0 -114.5 -41t-71.5 -106t-37 -140t-11 -143l-12 -4q0 73 12 159t46.5 163t102 126.5t178.5 49.5q112 0 173.5 -39t85.5 -107.5
t24 -155.5zM541 1103l-8 10l168 248q29 48 71 60t80.5 -1.5t56.5 -41.5q22 -32 18 -73t-31 -74t-75 -43z" />
    <glyph glyph-name="uni0145" unicode="&#x145;" horiz-adv-x="1517" 
d="M253 1500v-1485h232v-15h-448v15h200v1470h-200v15h216zM1481 1500v-15h-210v-1505h-20l-1008 1520h369l643 -990v975h-228v15h454zM586 -704v13q99 0 172.5 47.5t108.5 129.5t16 185h4q2 -38 -19.5 -71.5t-57 -54.5t-76.5 -21q-70 0 -107.5 42.5t-37.5 99.5
q0 39 21 71.5t56.5 52t77.5 19.5q65 0 112.5 -54t47.5 -148q0 -87 -38.5 -157t-110 -112t-169.5 -42z" />
    <glyph glyph-name="uni0146" unicode="&#x146;" horiz-adv-x="1240" 
d="M455 920v-905h102v-15h-513v15h132v890h-132v15h411zM1065 638v-623h132v-15h-512v15h101v614q0 84 -7 139t-27.5 81.5t-62.5 26.5q-69 0 -114.5 -41t-71.5 -106t-37 -140t-11 -143l-12 -4q0 73 12 159t46.5 163t102 126.5t178.5 49.5q112 0 173.5 -39t85.5 -107.5
t24 -155.5zM474 -704v13q99 0 172.5 47.5t108.5 129.5t16 185h4q2 -38 -19.5 -71.5t-57 -54.5t-76.5 -21q-70 0 -107.5 42.5t-37.5 99.5q0 39 21 71.5t56.5 52t77.5 19.5q65 0 112.5 -54t47.5 -148q0 -87 -38.5 -157t-110 -112t-169.5 -42z" />
    <glyph glyph-name="Ncaron" unicode="&#x147;" horiz-adv-x="1517" 
d="M253 1500v-1485h232v-15h-448v15h200v1470h-200v15h216zM1481 1500v-15h-210v-1505h-20l-1008 1520h369l643 -990v975h-228v15h454zM709 1700l-240 270l8 8l317 -138l316 138l9 -8l-240 -270h-170z" />
    <glyph glyph-name="ncaron" unicode="&#x148;" horiz-adv-x="1240" 
d="M455 920v-905h102v-15h-513v15h132v890h-132v15h411zM1065 638v-623h132v-15h-512v15h101v614q0 84 -7 139t-27.5 81.5t-62.5 26.5q-69 0 -114.5 -41t-71.5 -106t-37 -140t-11 -143l-12 -4q0 73 12 159t46.5 163t102 126.5t178.5 49.5q112 0 173.5 -39t85.5 -107.5
t24 -155.5zM551 1120l-240 270l8 8l317 -138l316 138l9 -8l-240 -270h-170z" />
    <glyph glyph-name="napostrophe" unicode="&#x149;" horiz-adv-x="1546" 
d="M725 920v-905h102v-15h-513v15h132v890h-132v15h411zM1335 638v-623h132v-15h-512v15h101v614q0 84 -7 139t-27.5 81.5t-62.5 26.5q-69 0 -114.5 -41t-71.5 -106t-37 -140t-11 -143l-12 -4q0 73 12 159t46.5 163t102 126.5t178.5 49.5q112 0 173.5 -39t85.5 -107.5
t24 -155.5zM16 936v15q92 0 168 34t127.5 95t72.5 144t3 180h5q2 -47 -24.5 -89t-71 -68.5t-95.5 -26.5q-86 0 -133.5 53.5t-47.5 124.5q0 48 26.5 89t70.5 65t97 24q54 0 100 -31t73 -87t27 -134q0 -108 -48.5 -196t-137.5 -140t-212 -52z" />
    <glyph glyph-name="Eng" unicode="&#x14a;" horiz-adv-x="1570" 
d="M938 -520q-96 0 -169.5 33t-115 88.5t-41.5 121.5q0 73 48 118.5t116 45.5q40 0 77 -18.5t60.5 -52.5t23.5 -82q0 -60 -42 -104.5t-115 -44.5q-44 0 -81.5 20t-61 51.5t-23.5 66.5h14q0 -64 40.5 -115t107.5 -81t146 -30q72 0 112.5 48.5t59 128t23.5 175.5t5 191v972
q0 95 -18 177.5t-54 145t-89 97.5t-122 35q-99 0 -168.5 -48.5t-113 -126t-64 -166t-20.5 -170.5h-11q0 65 13 140.5t43 150t82.5 136.5t132 99t189.5 37q168 0 273.5 -62.5t156 -169t50.5 -238.5l-1 -1072q0 -97 -33.5 -186.5t-95 -159.5t-146 -110.5t-188.5 -40.5zM57 0
v15h554v-15h-554zM197 0v1485h-140v15h416v-1500h-276z" />
    <glyph glyph-name="eng" unicode="&#x14b;" horiz-adv-x="1255" 
d="M648 -520q-88 0 -156 32t-106.5 86t-38.5 120q0 73 48 118.5t116 45.5q40 0 77 -18.5t60.5 -52.5t23.5 -82q0 -60 -42 -104.5t-115 -44.5q-44 0 -81.5 20t-61 51.5t-23.5 66.5h13q0 -62 37 -113t101 -81t145 -30q72 0 106.5 49t46 129t10.5 176.5t-1 191.5v562l280 37
l-1 -662q0 -97 -31.5 -186.5t-90 -159.5t-138.5 -110.5t-178 -40.5zM57 0v15h554v-15h-554zM197 0v905h-140v15h416v-920h-276zM462 451q0 62 15.5 144.5t54 161t104.5 130.5t167 52q115 0 176 -38.5t84.5 -106.5t23.5 -155l-280 -37q0 88 -7 148t-27.5 91t-62.5 31
q-55 0 -99 -38.5t-75 -101.5t-47 -136.5t-16 -144.5h-11z" />
    <glyph glyph-name="Omacron" unicode="&#x14c;" horiz-adv-x="1531" 
d="M766 -20q-159 0 -285.5 58.5t-214.5 163t-134 244.5t-46 304t48.5 304t139 245t215.5 163t277 58q153 0 277.5 -58t215 -163t139 -245t48.5 -304t-46 -304t-134 -245t-214 -163t-286 -58zM766 -6q105 0 169.5 59.5t99.5 163.5t48 241t13 292t-15.5 292t-52.5 241
t-101 163.5t-161 59.5q-96 0 -160.5 -59.5t-101.5 -163.5t-52.5 -241t-15.5 -292t13 -292t48 -241t100 -163.5t169 -59.5zM527 1700v15h480v-15h-480z" />
    <glyph glyph-name="omacron" unicode="&#x14d;" horiz-adv-x="1124" 
d="M563 -20q-151 0 -260.5 66t-168.5 175t-59 239t59 239t168.5 175t260.5 66t260.5 -66t168.5 -175t59 -239t-59 -239t-168.5 -175t-260.5 -66zM563 -5q55 0 91.5 38.5t58 104.5t30 149.5t8.5 172.5q0 90 -8.5 173t-30 149t-58 104.5t-91.5 38.5q-56 0 -92.5 -38.5
t-57.5 -104.5t-30 -149t-9 -173q0 -89 9 -172.5t30 -149.5t57.5 -104.5t92.5 -38.5zM323 1120v15h480v-15h-480z" />
    <glyph glyph-name="Obreve" unicode="&#x14e;" horiz-adv-x="1531" 
d="M766 -20q-159 0 -285.5 58.5t-214.5 163t-134 244.5t-46 304t48.5 304t139 245t215.5 163t277 58q153 0 277.5 -58t215 -163t139 -245t48.5 -304t-46 -304t-134 -245t-214 -163t-286 -58zM766 -6q105 0 169.5 59.5t99.5 163.5t48 241t13 292t-15.5 292t-52.5 241
t-101 163.5t-161 59.5q-96 0 -160.5 -59.5t-101.5 -163.5t-52.5 -241t-15.5 -292t13 -292t48 -241t100 -163.5t169 -59.5zM767 1680q-85 0 -138 39.5t-77.5 111t-24.5 167.5h12q0 -46 34.5 -74.5t87 -41t106.5 -12.5t106.5 12.5t87 41t34.5 74.5h12q0 -96 -24.5 -167.5
t-77.5 -111t-138 -39.5z" />
    <glyph glyph-name="obreve" unicode="&#x14f;" horiz-adv-x="1124" 
d="M563 -20q-151 0 -260.5 66t-168.5 175t-59 239t59 239t168.5 175t260.5 66t260.5 -66t168.5 -175t59 -239t-59 -239t-168.5 -175t-260.5 -66zM563 -5q55 0 91.5 38.5t58 104.5t30 149.5t8.5 172.5q0 90 -8.5 173t-30 149t-58 104.5t-91.5 38.5q-56 0 -92.5 -38.5
t-57.5 -104.5t-30 -149t-9 -173q0 -89 9 -172.5t30 -149.5t57.5 -104.5t92.5 -38.5zM563 1100q-85 0 -138 39.5t-77.5 111t-24.5 167.5h12q0 -46 34.5 -74.5t87 -41t106.5 -12.5t106.5 12.5t87 41t34.5 74.5h12q0 -96 -24.5 -167.5t-77.5 -111t-138 -39.5z" />
    <glyph glyph-name="Ohungarumlaut" unicode="&#x150;" horiz-adv-x="1531" 
d="M766 -20q-159 0 -285.5 58.5t-214.5 163t-134 244.5t-46 304t48.5 304t139 245t215.5 163t277 58q153 0 277.5 -58t215 -163t139 -245t48.5 -304t-46 -304t-134 -245t-214 -163t-286 -58zM766 -6q105 0 169.5 59.5t99.5 163.5t48 241t13 292t-15.5 292t-52.5 241
t-101 163.5t-161 59.5q-96 0 -160.5 -59.5t-101.5 -163.5t-52.5 -241t-15.5 -292t13 -292t48 -241t100 -163.5t169 -59.5zM441 1682l-8 10l168 248q29 48 71 60t80.5 -1.5t56.5 -41.5q22 -32 18 -73t-31 -74t-75 -43zM901 1682l-8 10l168 248q29 48 71 60t80.5 -1.5
t56.5 -41.5q22 -32 18 -73t-31 -74t-75 -43z" />
    <glyph glyph-name="ohungarumlaut" unicode="&#x151;" horiz-adv-x="1124" 
d="M563 -20q-151 0 -260.5 66t-168.5 175t-59 239t59 239t168.5 175t260.5 66t260.5 -66t168.5 -175t59 -239t-59 -239t-168.5 -175t-260.5 -66zM563 -5q55 0 91.5 38.5t58 104.5t30 149.5t8.5 172.5q0 90 -8.5 173t-30 149t-58 104.5t-91.5 38.5q-56 0 -92.5 -38.5
t-57.5 -104.5t-30 -149t-9 -173q0 -89 9 -172.5t30 -149.5t57.5 -104.5t92.5 -38.5zM237 1102l-8 10l168 248q29 48 71 60t80.5 -1.5t56.5 -41.5q22 -32 18 -73t-31 -74t-75 -43zM697 1102l-8 10l168 248q29 48 71 60t80.5 -1.5t56.5 -41.5q22 -32 18 -73t-31 -74t-75 -43z
" />
    <glyph glyph-name="OE" unicode="&#x152;" horiz-adv-x="1990" 
d="M430 750q0 148 19.5 280.5t63 234.5t115.5 161t176 59l-40 15q-203 0 -357 -94.5t-240.5 -263.5t-86.5 -392q0 -222 86.5 -391t240.5 -264t357 -95l40 15q-104 0 -176 59t-115.5 161t-63 235t-19.5 280zM763 0v15h180v1470h-180v15h1142v-410h-14q-15 107 -67.5 197
t-139 144t-203.5 54h-228v-1470h207q137 0 232 56t149.5 154t69.5 225h15v-450h-1163zM1580 526q-15 67 -54.5 122t-94 87.5t-111.5 32.5h-141v15h141q57 0 111 30.5t94 83t55 119.5h16v-490h-16z" />
    <glyph glyph-name="oe" unicode="&#x153;" horiz-adv-x="1745" 
d="M563 -20q-151 0 -260.5 66t-168.5 175t-59 239t59 239t168.5 175t260.5 66t260.5 -66t168.5 -175t59 -239t-59 -239t-168.5 -175t-260.5 -66zM563 -5q55 0 91.5 38.5t58 104.5t30 149.5t8.5 172.5q0 90 -8.5 173t-30 149t-58 104.5t-91.5 38.5q-56 0 -92.5 -38.5
t-57.5 -104.5t-30 -149t-9 -173q0 -89 9 -172.5t30 -149.5t57.5 -104.5t92.5 -38.5zM1244 -20q-141 0 -251.5 55.5t-174 162.5t-63.5 262t61.5 262t170.5 162.5t250 55.5q148 0 244.5 -59.5t144 -155.5t47.5 -205h-784v15h487q0 64 -4.5 132t-18 127t-41.5 95t-75 36
q-51 0 -85 -37t-53 -100t-27 -142.5t-8 -165.5q0 -97 9.5 -183t34.5 -151.5t69.5 -103.5t114.5 -38q139 0 235.5 79t133.5 199h16q-39 -129 -145.5 -215.5t-287.5 -86.5z" />
    <glyph glyph-name="Racute" unicode="&#x154;" horiz-adv-x="1493" 
d="M398 765v11h289q96 0 160.5 38t97.5 116.5t33 197.5t-33 198.5t-97.5 119t-159.5 39.5h-651v15h700q166 0 292.5 -39t197.5 -121t71 -212t-67 -210t-192.5 -116.5t-301.5 -36.5h-339zM37 0v15h711v-15h-711zM237 8v1484h310v-1484h-310zM1227 -15q-102 0 -160 32.5
t-85.5 88t-35.5 124.5t-9 142.5t-6.5 142.5t-27.5 124.5t-73 88t-143 32.5h-289v10h449q140 0 222 -41t122 -108.5t52.5 -148t12.5 -161.5t2 -148t21.5 -108t71.5 -41q32 0 61 7.5t50 17.5l5 -13q-24 -13 -87.5 -27t-152.5 -14zM570 1683l-8 10l168 248q29 48 71 60
t80.5 -1.5t56.5 -41.5q22 -32 18 -73t-31 -74t-75 -43z" />
    <glyph glyph-name="racute" unicode="&#x155;" horiz-adv-x="978" 
d="M445 436q0 103 14 194t46.5 160.5t87 109.5t135.5 40q69 0 116.5 -30.5t73 -78.5t25.5 -101q0 -70 -45.5 -121t-120.5 -51t-121.5 46t-46.5 109q0 74 47.5 120.5t118.5 46.5q48 0 85.5 -21.5t59 -55.5t21.5 -73h-14q0 49 -24 93.5t-68.5 72.5t-107.5 28q-76 0 -128 -38.5
t-83.5 -106t-46 -156t-14.5 -187.5h-10zM455 920v-905h150v-15h-561v15h132v890h-132v15h411zM448 1103l-8 10l168 248q29 48 71 60t80.5 -1.5t56.5 -41.5q22 -32 18 -73t-31 -74t-75 -43z" />
    <glyph glyph-name="uni0156" unicode="&#x156;" horiz-adv-x="1493" 
d="M398 765v11h289q96 0 160.5 38t97.5 116.5t33 197.5t-33 198.5t-97.5 119t-159.5 39.5h-651v15h700q166 0 292.5 -39t197.5 -121t71 -212t-67 -210t-192.5 -116.5t-301.5 -36.5h-339zM37 0v15h711v-15h-711zM237 8v1484h310v-1484h-310zM1227 -15q-102 0 -160 32.5
t-85.5 88t-35.5 124.5t-9 142.5t-6.5 142.5t-27.5 124.5t-73 88t-143 32.5h-289v10h449q140 0 222 -41t122 -108.5t52.5 -148t12.5 -161.5t2 -148t21.5 -108t71.5 -41q32 0 61 7.5t50 17.5l5 -13q-24 -13 -87.5 -27t-152.5 -14zM623 -704v13q99 0 172.5 47.5t108.5 129.5
t16 185h4q2 -38 -19.5 -71.5t-57 -54.5t-76.5 -21q-70 0 -107.5 42.5t-37.5 99.5q0 39 21 71.5t56.5 52t77.5 19.5q65 0 112.5 -54t47.5 -148q0 -87 -38.5 -157t-110 -112t-169.5 -42z" />
    <glyph glyph-name="uni0157" unicode="&#x157;" horiz-adv-x="978" 
d="M445 436q0 103 14 194t46.5 160.5t87 109.5t135.5 40q69 0 116.5 -30.5t73 -78.5t25.5 -101q0 -70 -45.5 -121t-120.5 -51t-121.5 46t-46.5 109q0 74 47.5 120.5t118.5 46.5q48 0 85.5 -21.5t59 -55.5t21.5 -73h-14q0 49 -24 93.5t-68.5 72.5t-107.5 28q-76 0 -128 -38.5
t-83.5 -106t-46 -156t-14.5 -187.5h-10zM455 920v-905h150v-15h-561v15h132v890h-132v15h411zM173 -704v13q99 0 172.5 47.5t108.5 129.5t16 185h4q2 -38 -19.5 -71.5t-57 -54.5t-76.5 -21q-70 0 -107.5 42.5t-37.5 99.5q0 39 21 71.5t56.5 52t77.5 19.5q65 0 112.5 -54
t47.5 -148q0 -87 -38.5 -157t-110 -112t-169.5 -42z" />
    <glyph glyph-name="Rcaron" unicode="&#x158;" horiz-adv-x="1493" 
d="M398 765v11h289q96 0 160.5 38t97.5 116.5t33 197.5t-33 198.5t-97.5 119t-159.5 39.5h-651v15h700q166 0 292.5 -39t197.5 -121t71 -212t-67 -210t-192.5 -116.5t-301.5 -36.5h-339zM37 0v15h711v-15h-711zM237 8v1484h310v-1484h-310zM1227 -15q-102 0 -160 32.5
t-85.5 88t-35.5 124.5t-9 142.5t-6.5 142.5t-27.5 124.5t-73 88t-143 32.5h-289v10h449q140 0 222 -41t122 -108.5t52.5 -148t12.5 -161.5t2 -148t21.5 -108t71.5 -41q32 0 61 7.5t50 17.5l5 -13q-24 -13 -87.5 -27t-152.5 -14zM580 1700l-240 270l8 8l317 -138l316 138
l9 -8l-240 -270h-170z" />
    <glyph glyph-name="rcaron" unicode="&#x159;" horiz-adv-x="978" 
d="M445 436q0 103 14 194t46.5 160.5t87 109.5t135.5 40q69 0 116.5 -30.5t73 -78.5t25.5 -101q0 -70 -45.5 -121t-120.5 -51t-121.5 46t-46.5 109q0 74 47.5 120.5t118.5 46.5q48 0 85.5 -21.5t59 -55.5t21.5 -73h-14q0 49 -24 93.5t-68.5 72.5t-107.5 28q-76 0 -128 -38.5
t-83.5 -106t-46 -156t-14.5 -187.5h-10zM455 920v-905h150v-15h-561v15h132v890h-132v15h411zM459 1120l-240 270l8 8l317 -138l316 138l9 -8l-240 -270h-170z" />
    <glyph glyph-name="Sacute" unicode="&#x15a;" horiz-adv-x="1198" 
d="M621 -30q-113 0 -196.5 37t-142.5 98l-180 -125h-14v470h16q28 -87 70 -169.5t102.5 -149t143 -106t191.5 -39.5q95 0 164 38t106.5 104.5t37.5 153.5q0 81 -44 136t-116 95t-158 75.5t-172.5 77t-158.5 100.5t-116 144.5t-44 209.5q0 125 62.5 215t164 137.5t218.5 47.5
q90 0 165.5 -29t134.5 -86l175 115h13v-450h-16q-40 135 -104 232t-153 149t-204 52q-121 0 -183 -67t-62 -169q0 -73 43.5 -124t114.5 -90t156.5 -76t170.5 -81.5t156 -105.5t114.5 -148.5t43.5 -211.5q0 -140 -66 -243t-179 -160t-254 -57zM486 1683l-8 10l168 248
q29 48 71 60t80.5 -1.5t56.5 -41.5q22 -32 18 -73t-31 -74t-75 -43z" />
    <glyph glyph-name="sacute" unicode="&#x15b;" horiz-adv-x="904" 
d="M85 -20v312h16q26 -90 79 -156.5t127.5 -103t163.5 -36.5q63 0 112 17.5t77 51.5t28 83q0 55 -42 87t-108.5 54.5t-141 46.5t-140.5 60.5t-108 97t-42 157.5q0 79 37.5 144t107 104t164.5 39q70 0 126.5 -23t100.5 -59l116 84h13v-280h-15q-26 69 -72 128.5t-112.5 96.5
t-155.5 37q-54 0 -94 -16.5t-62 -45t-22 -66.5q0 -53 43.5 -85.5t112 -56t145 -48.5t145 -62.5t112 -96.5t43.5 -152q0 -104 -51.5 -173.5t-134 -104.5t-174.5 -35q-78 0 -144 25t-118 71l-118 -96h-14zM354 1103l-8 10l168 248q29 48 71 60t80.5 -1.5t56.5 -41.5
q22 -32 18 -73t-31 -74t-75 -43z" />
    <glyph glyph-name="Scircumflex" unicode="&#x15c;" horiz-adv-x="1198" 
d="M621 -30q-113 0 -196.5 37t-142.5 98l-180 -125h-14v470h16q28 -87 70 -169.5t102.5 -149t143 -106t191.5 -39.5q95 0 164 38t106.5 104.5t37.5 153.5q0 81 -44 136t-116 95t-158 75.5t-172.5 77t-158.5 100.5t-116 144.5t-44 209.5q0 125 62.5 215t164 137.5t218.5 47.5
q90 0 165.5 -29t134.5 -86l175 115h13v-450h-16q-40 135 -104 232t-153 149t-204 52q-121 0 -183 -67t-62 -169q0 -73 43.5 -124t114.5 -90t156.5 -76t170.5 -81.5t156 -105.5t114.5 -148.5t43.5 -211.5q0 -140 -66 -243t-179 -160t-254 -57zM265 1709l-8 8l240 270h170
l240 -270l-8 -8l-318 138z" />
    <glyph glyph-name="scircumflex" unicode="&#x15d;" horiz-adv-x="904" 
d="M85 -20v312h16q26 -90 79 -156.5t127.5 -103t163.5 -36.5q63 0 112 17.5t77 51.5t28 83q0 55 -42 87t-108.5 54.5t-141 46.5t-140.5 60.5t-108 97t-42 157.5q0 79 37.5 144t107 104t164.5 39q70 0 126.5 -23t100.5 -59l116 84h13v-280h-15q-26 69 -72 128.5t-112.5 96.5
t-155.5 37q-54 0 -94 -16.5t-62 -45t-22 -66.5q0 -53 43.5 -85.5t112 -56t145 -48.5t145 -62.5t112 -96.5t43.5 -152q0 -104 -51.5 -173.5t-134 -104.5t-174.5 -35q-78 0 -144 25t-118 71l-118 -96h-14zM133 1129l-8 8l240 270h170l240 -270l-8 -8l-318 138z" />
    <glyph glyph-name="Scedilla" unicode="&#x15e;" horiz-adv-x="1198" 
d="M621 -30q-113 0 -196.5 37t-142.5 98l-180 -125h-14v470h16q28 -87 70 -169.5t102.5 -149t143 -106t191.5 -39.5q95 0 164 38t106.5 104.5t37.5 153.5q0 81 -44 136t-116 95t-158 75.5t-172.5 77t-158.5 100.5t-116 144.5t-44 209.5q0 125 62.5 215t164 137.5t218.5 47.5
q90 0 165.5 -29t134.5 -86l175 115h13v-450h-16q-40 135 -104 232t-153 149t-204 52q-121 0 -183 -67t-62 -169q0 -73 43.5 -124t114.5 -90t156.5 -76t170.5 -81.5t156 -105.5t114.5 -148.5t43.5 -211.5q0 -140 -66 -243t-179 -160t-254 -57zM466 -518v15q89 0 132.5 37
t43.5 94q0 52 -25.5 78t-67.5 34.5t-92 8.5l171 231h19l-111 -151q96 -3 170 -20t116 -51.5t42 -90.5q0 -50 -36.5 -92t-123.5 -67.5t-238 -25.5z" />
    <glyph glyph-name="scedilla" unicode="&#x15f;" horiz-adv-x="904" 
d="M85 -20v312h16q26 -90 79 -156.5t127.5 -103t163.5 -36.5q63 0 112 17.5t77 51.5t28 83q0 55 -42 87t-108.5 54.5t-141 46.5t-140.5 60.5t-108 97t-42 157.5q0 79 37.5 144t107 104t164.5 39q70 0 126.5 -23t100.5 -59l116 84h13v-280h-15q-26 69 -72 128.5t-112.5 96.5
t-155.5 37q-54 0 -94 -16.5t-62 -45t-22 -66.5q0 -53 43.5 -85.5t112 -56t145 -48.5t145 -62.5t112 -96.5t43.5 -152q0 -104 -51.5 -173.5t-134 -104.5t-174.5 -35q-78 0 -144 25t-118 71l-118 -96h-14zM301 -512v15q89 0 132.5 37t43.5 94q0 52 -25.5 78t-67.5 34.5
t-92 8.5l171 231h19l-111 -151q96 -3 170 -20t116 -51.5t42 -90.5q0 -50 -36.5 -92t-123.5 -67.5t-238 -25.5z" />
    <glyph glyph-name="Scaron" unicode="&#x160;" horiz-adv-x="1198" 
d="M621 -30q-113 0 -196.5 37t-142.5 98l-180 -125h-14v470h16q28 -87 70 -169.5t102.5 -149t143 -106t191.5 -39.5q95 0 164 38t106.5 104.5t37.5 153.5q0 81 -44 136t-116 95t-158 75.5t-172.5 77t-158.5 100.5t-116 144.5t-44 209.5q0 125 62.5 215t164 137.5t218.5 47.5
q90 0 165.5 -29t134.5 -86l175 115h13v-450h-16q-40 135 -104 232t-153 149t-204 52q-121 0 -183 -67t-62 -169q0 -73 43.5 -124t114.5 -90t156.5 -76t170.5 -81.5t156 -105.5t114.5 -148.5t43.5 -211.5q0 -140 -66 -243t-179 -160t-254 -57zM497 1700l-240 270l8 8
l317 -138l316 138l9 -8l-240 -270h-170z" />
    <glyph glyph-name="scaron" unicode="&#x161;" horiz-adv-x="904" 
d="M85 -20v312h16q26 -90 79 -156.5t127.5 -103t163.5 -36.5q63 0 112 17.5t77 51.5t28 83q0 55 -42 87t-108.5 54.5t-141 46.5t-140.5 60.5t-108 97t-42 157.5q0 79 37.5 144t107 104t164.5 39q70 0 126.5 -23t100.5 -59l116 84h13v-280h-15q-26 69 -72 128.5t-112.5 96.5
t-155.5 37q-54 0 -94 -16.5t-62 -45t-22 -66.5q0 -53 43.5 -85.5t112 -56t145 -48.5t145 -62.5t112 -96.5t43.5 -152q0 -104 -51.5 -173.5t-134 -104.5t-174.5 -35q-78 0 -144 25t-118 71l-118 -96h-14zM365 1120l-240 270l8 8l317 -138l316 138l9 -8l-240 -270h-170z" />
    <glyph glyph-name="uni0162" unicode="&#x162;" horiz-adv-x="1369" 
d="M310 0v15h220v1470h-127q-81 0 -141.5 -36.5t-103 -100.5t-68.5 -148.5t-37 -179.5h-16v480h1296v-480h-16q-11 95 -37 179.5t-68.5 148.5t-103 100.5t-141.5 36.5h-127v-1470h220v-15h-750zM515 -497v15q89 0 132.5 37t43.5 94q0 52 -25.5 78t-67.5 34.5t-92 8.5
l171 231h19l-111 -151q96 -3 170 -20t116 -51.5t42 -90.5q0 -50 -36.5 -92t-123.5 -67.5t-238 -25.5z" />
    <glyph glyph-name="uni0163" unicode="&#x163;" horiz-adv-x="738" 
d="M402 -14q-97 0 -147 32.5t-68.5 88t-18.5 125.5v888q68 0 148 15.5t132 44.5v-1004q0 -75 18 -106t59 -31q47 0 99.5 44t84.5 121l14 -6q-37 -93 -117.5 -152.5t-203.5 -59.5zM24 905v15h638v-15h-638zM234 -497v15q89 0 132.5 37t43.5 94q0 52 -25.5 78t-67.5 34.5
t-92 8.5l171 231h19l-111 -151q96 -3 170 -20t116 -51.5t42 -90.5q0 -50 -36.5 -92t-123.5 -67.5t-238 -25.5z" />
    <glyph glyph-name="Tcaron" unicode="&#x164;" horiz-adv-x="1369" 
d="M310 0v15h220v1470h-127q-81 0 -141.5 -36.5t-103 -100.5t-68.5 -148.5t-37 -179.5h-16v480h1296v-480h-16q-11 95 -37 179.5t-68.5 148.5t-103 100.5t-141.5 36.5h-127v-1470h220v-15h-750zM606 1700l-240 270l8 8l317 -138l316 138l9 -8l-240 -270h-170z" />
    <glyph glyph-name="tcaron" unicode="&#x165;" horiz-adv-x="738" 
d="M402 -14q-97 0 -147 32.5t-68.5 88t-18.5 125.5v888q68 0 148 15.5t132 44.5v-1004q0 -75 18 -106t59 -31q47 0 99.5 44t84.5 121l14 -6q-37 -93 -117.5 -152.5t-203.5 -59.5zM24 905v15h638v-15h-638zM568 1080v13q76 0 138 29t103.5 80.5t58 120.5t1.5 148h4
q2 -38 -19 -72t-57 -55.5t-78 -21.5q-71 0 -109 43t-38 101q0 59 46 101.5t111 42.5q66 0 114.5 -56t48.5 -153q0 -88 -39 -161t-111.5 -116.5t-173.5 -43.5z" />
    <glyph glyph-name="Tbar" unicode="&#x166;" horiz-adv-x="1359" 
d="M323 701v14h726v-14h-726zM310 0v15h220v1470h-127q-81 0 -141.5 -36.5t-103 -100.5t-68.5 -148.5t-37 -179.5h-16v480h1296v-480h-16q-11 95 -37 179.5t-68.5 148.5t-103 100.5t-141.5 36.5h-127v-1470h220v-15h-750z" />
    <glyph glyph-name="tbar" unicode="&#x167;" horiz-adv-x="738" 
d="M24 575v14h640v-14h-640zM402 -14q-97 0 -147 32.5t-68.5 88t-18.5 125.5v888q68 0 148 15.5t132 44.5v-1004q0 -75 18 -106t59 -31q47 0 99.5 44t84.5 121l14 -6q-37 -93 -117.5 -152.5t-203.5 -59.5zM24 905v15h638v-15h-638z" />
    <glyph glyph-name="Utilde" unicode="&#x168;" horiz-adv-x="1457" 
d="M1419 1500v-15h-195v-1025q0 -247 -112 -368.5t-356 -121.5q-282 0 -411 115.5t-129 374.5v1025h-180v15h690v-15h-200v-1005q0 -99 12 -186t44.5 -153.5t92.5 -104t157 -37.5q116 0 200.5 48t130.5 149.5t46 263.5v1025h-186v15h396zM975 1660q-58 0 -105 24t-88 55
t-85 55t-97 24q-54 0 -90 -31t-36 -87h-15q0 85 23 151.5t68 104.5t109 38q61 0 106.5 -24t84 -55t77.5 -55t87 -24q61 0 93.5 31.5t32.5 86.5h15q0 -95 -14 -160.5t-53 -99.5t-113 -34z" />
    <glyph glyph-name="utilde" unicode="&#x169;" horiz-adv-x="1241" 
d="M460 -20q-112 0 -173.5 39.5t-86 107.5t-24.5 155v623h-132v15h412v-629q0 -84 7 -139t27.5 -81.5t62.5 -26.5q69 0 114.5 41t71 106t36.5 140t11 143l12 4q0 -73 -11.5 -159t-46 -163t-101.5 -126.5t-179 -49.5zM786 0v905h-130v15h410v-905h132v-15h-412zM746 1080
q-58 0 -105 24t-88 55t-85 55t-97 24q-54 0 -90 -31t-36 -87h-15q0 85 23 151.5t68 104.5t109 38q61 0 106.5 -24t84 -55t77.5 -55t87 -24q61 0 93.5 31.5t32.5 86.5h15q0 -95 -14 -160.5t-53 -99.5t-113 -34z" />
    <glyph glyph-name="Umacron" unicode="&#x16a;" horiz-adv-x="1457" 
d="M1419 1500v-15h-195v-1025q0 -247 -112 -368.5t-356 -121.5q-282 0 -411 115.5t-129 374.5v1025h-180v15h690v-15h-200v-1005q0 -99 12 -186t44.5 -153.5t92.5 -104t157 -37.5q116 0 200.5 48t130.5 149.5t46 263.5v1025h-186v15h396zM568 1700v15h480v-15h-480z" />
    <glyph glyph-name="umacron" unicode="&#x16b;" horiz-adv-x="1241" 
d="M460 -20q-112 0 -173.5 39.5t-86 107.5t-24.5 155v623h-132v15h412v-629q0 -84 7 -139t27.5 -81.5t62.5 -26.5q69 0 114.5 41t71 106t36.5 140t11 143l12 4q0 -73 -11.5 -159t-46 -163t-101.5 -126.5t-179 -49.5zM786 0v905h-130v15h410v-905h132v-15h-412zM339 1120v15
h480v-15h-480z" />
    <glyph glyph-name="Ubreve" unicode="&#x16c;" horiz-adv-x="1457" 
d="M1419 1500v-15h-195v-1025q0 -247 -112 -368.5t-356 -121.5q-282 0 -411 115.5t-129 374.5v1025h-180v15h690v-15h-200v-1005q0 -99 12 -186t44.5 -153.5t92.5 -104t157 -37.5q116 0 200.5 48t130.5 149.5t46 263.5v1025h-186v15h396zM808 1680q-85 0 -138 39.5
t-77.5 111t-24.5 167.5h12q0 -46 34.5 -74.5t87 -41t106.5 -12.5t106.5 12.5t87 41t34.5 74.5h12q0 -96 -24.5 -167.5t-77.5 -111t-138 -39.5z" />
    <glyph glyph-name="ubreve" unicode="&#x16d;" horiz-adv-x="1241" 
d="M460 -20q-112 0 -173.5 39.5t-86 107.5t-24.5 155v623h-132v15h412v-629q0 -84 7 -139t27.5 -81.5t62.5 -26.5q69 0 114.5 41t71 106t36.5 140t11 143l12 4q0 -73 -11.5 -159t-46 -163t-101.5 -126.5t-179 -49.5zM786 0v905h-130v15h410v-905h132v-15h-412zM579 1100
q-85 0 -138 39.5t-77.5 111t-24.5 167.5h12q0 -46 34.5 -74.5t87 -41t106.5 -12.5t106.5 12.5t87 41t34.5 74.5h12q0 -96 -24.5 -167.5t-77.5 -111t-138 -39.5z" />
    <glyph glyph-name="Uring" unicode="&#x16e;" horiz-adv-x="1457" 
d="M1419 1500v-15h-195v-1025q0 -247 -112 -368.5t-356 -121.5q-282 0 -411 115.5t-129 374.5v1025h-180v15h690v-15h-200v-1005q0 -99 12 -186t44.5 -153.5t92.5 -104t157 -37.5q116 0 200.5 48t130.5 149.5t46 263.5v1025h-186v15h396zM808 1680q-91 0 -145.5 52
t-54.5 128q0 77 54.5 128.5t145.5 51.5q92 0 146 -51.5t54 -128.5q0 -76 -54 -128t-146 -52zM808 1695q30 0 47.5 20.5t24.5 57.5t7 87t-7 87t-24.5 57.5t-47.5 20.5t-47.5 -20.5t-24.5 -57.5t-7 -87t7 -87t24.5 -57.5t47.5 -20.5z" />
    <glyph glyph-name="uring" unicode="&#x16f;" horiz-adv-x="1241" 
d="M460 -20q-112 0 -173.5 39.5t-86 107.5t-24.5 155v623h-132v15h412v-629q0 -84 7 -139t27.5 -81.5t62.5 -26.5q69 0 114.5 41t71 106t36.5 140t11 143l12 4q0 -73 -11.5 -159t-46 -163t-101.5 -126.5t-179 -49.5zM786 0v905h-130v15h410v-905h132v-15h-412zM579 1100
q-91 0 -145.5 52t-54.5 128q0 77 54.5 128.5t145.5 51.5q92 0 146 -51.5t54 -128.5q0 -76 -54 -128t-146 -52zM579 1115q30 0 47.5 20.5t24.5 57.5t7 87t-7 87t-24.5 57.5t-47.5 20.5t-47.5 -20.5t-24.5 -57.5t-7 -87t7 -87t24.5 -57.5t47.5 -20.5z" />
    <glyph glyph-name="Uhungarumlaut" unicode="&#x170;" horiz-adv-x="1457" 
d="M1419 1500v-15h-195v-1025q0 -247 -112 -368.5t-356 -121.5q-282 0 -411 115.5t-129 374.5v1025h-180v15h690v-15h-200v-1005q0 -99 12 -186t44.5 -153.5t92.5 -104t157 -37.5q116 0 200.5 48t130.5 149.5t46 263.5v1025h-186v15h396zM482 1682l-8 10l168 248
q29 48 71 60t80.5 -1.5t56.5 -41.5q22 -32 18 -73t-31 -74t-75 -43zM942 1682l-8 10l168 248q29 48 71 60t80.5 -1.5t56.5 -41.5q22 -32 18 -73t-31 -74t-75 -43z" />
    <glyph glyph-name="uhungarumlaut" unicode="&#x171;" horiz-adv-x="1241" 
d="M460 -20q-112 0 -173.5 39.5t-86 107.5t-24.5 155v623h-132v15h412v-629q0 -84 7 -139t27.5 -81.5t62.5 -26.5q69 0 114.5 41t71 106t36.5 140t11 143l12 4q0 -73 -11.5 -159t-46 -163t-101.5 -126.5t-179 -49.5zM786 0v905h-130v15h410v-905h132v-15h-412zM253 1102
l-8 10l168 248q29 48 71 60t80.5 -1.5t56.5 -41.5q22 -32 18 -73t-31 -74t-75 -43zM713 1102l-8 10l168 248q29 48 71 60t80.5 -1.5t56.5 -41.5q22 -32 18 -73t-31 -74t-75 -43z" />
    <glyph glyph-name="Uogonek" unicode="&#x172;" horiz-adv-x="1457" 
d="M1419 1500v-15h-195v-1025q0 -247 -112 -368.5t-356 -121.5q-282 0 -411 115.5t-129 374.5v1025h-180v15h690v-15h-200v-1005q0 -99 12 -186t44.5 -153.5t92.5 -104t157 -37.5q116 0 200.5 48t130.5 149.5t46 263.5v1025h-186v15h396zM910 -446q-66 0 -121.5 18t-90 56
t-34.5 98t32.5 109t84.5 88t113 66.5t118 44.5l5 -11q-21 -12 -41 -45t-33 -84.5t-13 -116.5q0 -81 29.5 -125t72.5 -44q42 0 68 28t50 70l10 -7q-15 -28 -40 -62t-74.5 -58.5t-135.5 -24.5z" />
    <glyph glyph-name="uogonek" unicode="&#x173;" horiz-adv-x="1241" 
d="M460 -20q-112 0 -173.5 39.5t-86 107.5t-24.5 155v623h-132v15h412v-629q0 -84 7 -139t27.5 -81.5t62.5 -26.5q69 0 114.5 41t71 106t36.5 140t11 143l12 4q0 -73 -11.5 -159t-46 -163t-101.5 -126.5t-179 -49.5zM786 0v905h-130v15h410v-905h132v-15h-412zM912 -446
q-66 0 -121.5 18t-90 56t-34.5 98t32.5 109t84.5 88t113 66.5t118 44.5l5 -11q-21 -12 -41 -45t-33 -84.5t-13 -116.5q0 -81 29.5 -125t72.5 -44q42 0 68 28t50 70l10 -7q-15 -28 -40 -62t-74.5 -58.5t-135.5 -24.5z" />
    <glyph glyph-name="Wcircumflex" unicode="&#x174;" horiz-adv-x="2211" 
d="M734 -20l-547 1505h-163v15h1674v-15h-544l408 -1142l428 1142h-202v15h400v-15h-181l-562 -1505h-65l-548 1505h-293l410 -1142l177 466l9 -25l-306 -804h-95zM1315 928l-14 11l207 556l17 -2zM880 1709l-8 8l240 270h170l240 -270l-8 -8l-318 138z" />
    <glyph glyph-name="wcircumflex" unicode="&#x175;" horiz-adv-x="1654" 
d="M1637 920v-15h-183l-309 -925h-87l-255 695l-285 -695h-87l-299 925h-124v15h588v-15h-169l187 -648l280 683h146l195 -639l202 604h-204v15h404zM528 1129l-8 8l240 270h170l240 -270l-8 -8l-318 138z" />
    <glyph glyph-name="Ycircumflex" unicode="&#x176;" horiz-adv-x="1478" 
d="M423 0v15h180v705l-443 765h-136v15h700v-15h-204l385 -704l355 704h-224v15h418v-15h-175l-366 -722v-748h201v-15h-691zM495 1709l-8 8l240 270h170l240 -270l-8 -8l-318 138z" />
    <glyph glyph-name="ycircumflex" unicode="&#x177;" horiz-adv-x="1205" 
d="M453 905l317 -627l-157 -326l-494 953h-120v15h646v-15h-192zM1217 920v-15h-156l-591 -1289q-28 -59 -68 -97.5t-109 -38.5q-38 0 -73.5 17t-59 50.5t-23.5 83.5q0 46 22 81.5t58.5 55.5t80.5 20q43 0 80 -23.5t58 -63.5t14 -90l593 1294h-194v15h368zM333 1129l-8 8
l240 270h170l240 -270l-8 -8l-318 138z" />
    <glyph glyph-name="Ydieresis" unicode="&#x178;" horiz-adv-x="1478" 
d="M423 0v15h180v705l-443 765h-136v15h700v-15h-204l385 -704l355 704h-224v15h418v-15h-175l-366 -722v-748h201v-15h-691zM997 1685q-47 0 -81 34t-34 81q0 48 34 82t81 34q48 0 82 -34t34 -82q0 -47 -34 -81t-82 -34zM623 1685q-47 0 -81 34t-34 81q0 48 34 82t81 34
q48 0 82 -34t34 -82q0 -47 -34 -81t-82 -34z" />
    <glyph glyph-name="Zacute" unicode="&#x179;" horiz-adv-x="1232" 
d="M27 0v15l770 1470h-303q-137 0 -220 -44t-126.5 -124t-63.5 -187h-16v370h1079v-15l-770 -1470h364q137 0 219.5 46t126.5 134t64 215h15v-410h-1139zM500 1683l-8 10l168 248q29 48 71 60t80.5 -1.5t56.5 -41.5q22 -32 18 -73t-31 -74t-75 -43z" />
    <glyph glyph-name="zacute" unicode="&#x17a;" horiz-adv-x="966" 
d="M35 0v15l538 890h-151q-94 0 -159.5 -40t-104 -114t-53.5 -175h-15v344h800v-15l-541 -890h196q88 0 151.5 20.5t106 63t68 109.5t36.5 160h15v-368h-887zM402 1103l-8 10l168 248q29 48 71 60t80.5 -1.5t56.5 -41.5q22 -32 18 -73t-31 -74t-75 -43z" />
    <glyph glyph-name="Zdotaccent" unicode="&#x17b;" horiz-adv-x="1232" 
d="M27 0v15l770 1470h-303q-137 0 -220 -44t-126.5 -124t-63.5 -187h-16v370h1079v-15l-770 -1470h364q137 0 219.5 46t126.5 134t64 215h15v-410h-1139zM595 1759q-72 0 -121 49.5t-49 120.5q0 73 49 121.5t121 48.5t121 -48.5t49 -121.5q0 -71 -49 -120.5t-121 -49.5z" />
    <glyph glyph-name="zdotaccent" unicode="&#x17c;" horiz-adv-x="966" 
d="M35 0v15l538 890h-151q-94 0 -159.5 -40t-104 -114t-53.5 -175h-15v344h800v-15l-541 -890h196q88 0 151.5 20.5t106 63t68 109.5t36.5 160h15v-368h-887zM497 1179q-72 0 -121 49.5t-49 120.5q0 73 49 121.5t121 48.5t121 -48.5t49 -121.5q0 -71 -49 -120.5t-121 -49.5z
" />
    <glyph glyph-name="Zcaron" unicode="&#x17d;" horiz-adv-x="1232" 
d="M27 0v15l770 1470h-303q-137 0 -220 -44t-126.5 -124t-63.5 -187h-16v370h1079v-15l-770 -1470h364q137 0 219.5 46t126.5 134t64 215h15v-410h-1139zM510 1700l-240 270l8 8l317 -138l316 138l9 -8l-240 -270h-170z" />
    <glyph glyph-name="zcaron" unicode="&#x17e;" horiz-adv-x="966" 
d="M35 0v15l538 890h-151q-94 0 -159.5 -40t-104 -114t-53.5 -175h-15v344h800v-15l-541 -890h196q88 0 151.5 20.5t106 63t68 109.5t36.5 160h15v-368h-887zM412 1120l-240 270l8 8l317 -138l316 138l9 -8l-240 -270h-170z" />
    <glyph glyph-name="longs" unicode="&#x17f;" horiz-adv-x="810" 
d="M691 1520q89 0 150.5 -35.5t93.5 -88t32 -104.5q0 -80 -49.5 -122t-110.5 -42q-35 0 -71 15.5t-60.5 48.5t-24.5 85q0 48 23 82t58 52t73 17q42 -1 80 -23t50 -61q-11 45 -44.5 81t-81 57.5t-103.5 21.5q-82 0 -132.5 -53t-73.5 -148.5t-23 -222.5v-1065h232v-15h-673v15
h171v1008q0 141 60 253.5t168.5 178t255.5 65.5z" />
    <glyph glyph-name="florin" unicode="&#x192;" horiz-adv-x="791" 
d="M-114 -520q-91 0 -160 33.5t-108 86.5t-39 111q0 52 22.5 89t59 57t78.5 20q38 0 75.5 -16.5t62 -51t24.5 -87.5q0 -47 -23.5 -78t-59 -46.5t-75.5 -15.5q-34 0 -71.5 17t-64 46t-26.5 66h14q0 -42 21.5 -81t61 -69.5t94 -47.5t119.5 -17q64 0 112 55t80 151t44 218
l113 1103q14 139 87 252t193 179t275 66q91 0 155.5 -33t98.5 -84t34 -106q0 -80 -47 -127t-112 -47q-37 0 -75 16.5t-64 51t-26 87.5q0 47 24 78.5t61 46.5t73 15q34 0 72 -15.5t65 -43t27 -62.5h-14q0 40 -19 77t-54.5 66.5t-84.5 46.5t-109 17q-77 0 -131.5 -55
t-87.5 -150.5t-47 -218.5l-122 -1103q-15 -137 -80.5 -250t-178 -180t-267.5 -67zM63 905v15h741v-15h-741z" />
    <glyph glyph-name="uni0212" unicode="&#x212;" horiz-adv-x="1493" 
d="M398 765v11h289q96 0 160.5 38t97.5 116.5t33 197.5t-33 198.5t-97.5 119t-159.5 39.5h-651v15h700q166 0 292.5 -39t197.5 -121t71 -212t-67 -210t-192.5 -116.5t-301.5 -36.5h-339zM37 0v15h711v-15h-711zM237 8v1484h310v-1484h-310zM1227 -15q-102 0 -160 32.5
t-85.5 88t-35.5 124.5t-9 142.5t-6.5 142.5t-27.5 124.5t-73 88t-143 32.5h-289v10h449q140 0 222 -41t122 -108.5t52.5 -148t12.5 -161.5t2 -148t21.5 -108t71.5 -41q32 0 61 7.5t50 17.5l5 -13q-24 -13 -87.5 -27t-152.5 -14zM427 1681q0 96 24.5 167.5t77.5 111t138 39.5
t138 -39.5t77.5 -111t24.5 -167.5h-12q0 46 -34.5 74.5t-87 41t-106.5 12.5t-106.5 -12.5t-87 -41t-34.5 -74.5h-12z" />
    <glyph glyph-name="uni0213" unicode="&#x213;" horiz-adv-x="978" 
d="M445 436q0 103 14 194t46.5 160.5t87 109.5t135.5 40q69 0 116.5 -30.5t73 -78.5t25.5 -101q0 -70 -45.5 -121t-120.5 -51t-121.5 46t-46.5 109q0 74 47.5 120.5t118.5 46.5q48 0 85.5 -21.5t59 -55.5t21.5 -73h-14q0 49 -24 93.5t-68.5 72.5t-107.5 28q-76 0 -128 -38.5
t-83.5 -106t-46 -156t-14.5 -187.5h-10zM455 920v-905h150v-15h-561v15h132v890h-132v15h411zM306 1101q0 96 24.5 167.5t77.5 111t138 39.5t138 -39.5t77.5 -111t24.5 -167.5h-12q0 46 -34.5 74.5t-87 41t-106.5 12.5t-106.5 -12.5t-87 -41t-34.5 -74.5h-12z" />
    <glyph glyph-name="uni0218" unicode="&#x218;" horiz-adv-x="1198" 
d="M621 -30q-113 0 -196.5 37t-142.5 98l-180 -125h-14v470h16q28 -87 70 -169.5t102.5 -149t143 -106t191.5 -39.5q95 0 164 38t106.5 104.5t37.5 153.5q0 81 -44 136t-116 95t-158 75.5t-172.5 77t-158.5 100.5t-116 144.5t-44 209.5q0 125 62.5 215t164 137.5t218.5 47.5
q90 0 165.5 -29t134.5 -86l175 115h13v-450h-16q-40 135 -104 232t-153 149t-204 52q-121 0 -183 -67t-62 -169q0 -73 43.5 -124t114.5 -90t156.5 -76t170.5 -81.5t156 -105.5t114.5 -148.5t43.5 -211.5q0 -140 -66 -243t-179 -160t-254 -57zM486 -725v13q99 0 172.5 47.5
t108.5 129.5t16 185h4q2 -38 -19.5 -71.5t-57 -54.5t-76.5 -21q-70 0 -107.5 42.5t-37.5 99.5q0 39 21 71.5t56.5 52t77.5 19.5q65 0 112.5 -54t47.5 -148q0 -87 -38.5 -157t-110 -112t-169.5 -42z" />
    <glyph glyph-name="uni0219" unicode="&#x219;" horiz-adv-x="904" 
d="M85 -20v312h16q26 -90 79 -156.5t127.5 -103t163.5 -36.5q63 0 112 17.5t77 51.5t28 83q0 55 -42 87t-108.5 54.5t-141 46.5t-140.5 60.5t-108 97t-42 157.5q0 79 37.5 144t107 104t164.5 39q70 0 126.5 -23t100.5 -59l116 84h13v-280h-15q-26 69 -72 128.5t-112.5 96.5
t-155.5 37q-54 0 -94 -16.5t-62 -45t-22 -66.5q0 -53 43.5 -85.5t112 -56t145 -48.5t145 -62.5t112 -96.5t43.5 -152q0 -104 -51.5 -173.5t-134 -104.5t-174.5 -35q-78 0 -144 25t-118 71l-118 -96h-14zM322 -720v13q99 0 172.5 47.5t108.5 129.5t16 185h4
q2 -38 -19.5 -71.5t-57 -54.5t-76.5 -21q-70 0 -107.5 42.5t-37.5 99.5q0 39 21 71.5t56.5 52t77.5 19.5q65 0 112.5 -54t47.5 -148q0 -87 -38.5 -157t-110 -112t-169.5 -42z" />
    <glyph glyph-name="uni021A" unicode="&#x21a;" horiz-adv-x="1369" 
d="M310 0v15h220v1470h-127q-81 0 -141.5 -36.5t-103 -100.5t-68.5 -148.5t-37 -179.5h-16v480h1296v-480h-16q-11 95 -37 179.5t-68.5 148.5t-103 100.5t-141.5 36.5h-127v-1470h220v-15h-750zM535 -704v13q99 0 172.5 47.5t108.5 129.5t16 185h4q2 -38 -19.5 -71.5
t-57 -54.5t-76.5 -21q-70 0 -107.5 42.5t-37.5 99.5q0 39 21 71.5t56.5 52t77.5 19.5q65 0 112.5 -54t47.5 -148q0 -87 -38.5 -157t-110 -112t-169.5 -42z" />
    <glyph glyph-name="uni021B" unicode="&#x21b;" horiz-adv-x="738" 
d="M402 -14q-97 0 -147 32.5t-68.5 88t-18.5 125.5v888q68 0 148 15.5t132 44.5v-1004q0 -75 18 -106t59 -31q47 0 99.5 44t84.5 121l14 -6q-37 -93 -117.5 -152.5t-203.5 -59.5zM24 905v15h638v-15h-638zM254 -704v13q99 0 172.5 47.5t108.5 129.5t16 185h4
q2 -38 -19.5 -71.5t-57 -54.5t-76.5 -21q-70 0 -107.5 42.5t-37.5 99.5q0 39 21 71.5t56.5 52t77.5 19.5q65 0 112.5 -54t47.5 -148q0 -87 -38.5 -157t-110 -112t-169.5 -42z" />
    <glyph glyph-name="uni0237" unicode="&#x237;" horiz-adv-x="660" 
d="M62 -520q-88 0 -156 32t-106.5 86t-38.5 120q0 73 48 118.5t116 45.5q40 0 77 -18.5t60.5 -52.5t23.5 -82q0 -60 -44 -104.5t-117 -44.5q-44 0 -80.5 20t-59 51.5t-22.5 66.5h14q0 -63 37 -113t98 -79.5t134 -29.5q72 0 108.5 49t50.5 129t15 176.5t1 191.5v863h-172v15
h451v-943q0 -98 -31.5 -187.5t-90 -159t-138.5 -110t-178 -40.5z" />
    <glyph glyph-name="circumflex" unicode="&#x2c6;" horiz-adv-x="1000" 
d="M183 1709l-8 8l240 270h170l240 -270l-8 -8l-318 138z" />
    <glyph glyph-name="caron" unicode="&#x2c7;" horiz-adv-x="1000" 
d="M415 1700l-240 270l8 8l317 -138l316 138l9 -8l-240 -270h-170z" />
    <glyph glyph-name="breve" unicode="&#x2d8;" horiz-adv-x="1000" 
d="M500 1680q-85 0 -138 39.5t-77.5 111t-24.5 167.5h12q0 -46 34.5 -74.5t87 -41t106.5 -12.5t106.5 12.5t87 41t34.5 74.5h12q0 -96 -24.5 -167.5t-77.5 -111t-138 -39.5z" />
    <glyph glyph-name="dotaccent" unicode="&#x2d9;" horiz-adv-x="1000" 
d="M501 1179q-72 0 -121 49.5t-49 120.5q0 73 49 121.5t121 48.5t121 -48.5t49 -121.5q0 -71 -49 -120.5t-121 -49.5z" />
    <glyph glyph-name="ring" unicode="&#x2da;" horiz-adv-x="1000" 
d="M500 1680q-91 0 -145.5 52t-54.5 128q0 77 54.5 128.5t145.5 51.5q92 0 146 -51.5t54 -128.5q0 -76 -54 -128t-146 -52zM500 1695q30 0 47.5 20.5t24.5 57.5t7 87t-7 87t-24.5 57.5t-47.5 20.5t-47.5 -20.5t-24.5 -57.5t-7 -87t7 -87t24.5 -57.5t47.5 -20.5z" />
    <glyph glyph-name="ogonek" unicode="&#x2db;" horiz-adv-x="1000" 
d="M498 -404q-66 0 -121.5 18t-90 56t-34.5 98t32.5 109t84.5 88t113 66.5t118 44.5l5 -11q-21 -12 -41 -45t-33 -84.5t-13 -116.5q0 -81 29.5 -125t72.5 -44q42 0 68 28t50 70l10 -7q-15 -28 -40 -62t-74.5 -58.5t-135.5 -24.5z" />
    <glyph glyph-name="tilde" unicode="&#x2dc;" horiz-adv-x="1000" 
d="M668 1660q-58 0 -105 24t-88 55t-85 55t-97 24q-54 0 -90 -31t-36 -87h-15q0 85 23 151.5t68 104.5t109 38q61 0 106.5 -24t84 -55t77.5 -55t87 -24q61 0 93.5 31.5t32.5 86.5h15q0 -95 -14 -160.5t-53 -99.5t-113 -34z" />
    <glyph glyph-name="hungarumlaut" unicode="&#x2dd;" horiz-adv-x="1000" 
d="M81 1683l-8 10l168 248q29 48 71 60t80.5 -1.5t56.5 -41.5q22 -32 18 -73t-31 -74t-75 -43zM541 1683l-8 10l168 248q29 48 71 60t80.5 -1.5t56.5 -41.5q22 -32 18 -73t-31 -74t-75 -43z" />
    <glyph glyph-name="gravecomb" unicode="&#x300;" 
d="M689 1683l-279 85q-49 10 -76 43t-30.5 74t17.5 73q19 28 57 41.5t80.5 1.5t71.5 -60l167 -248z" />
    <glyph glyph-name="acutecomb" unicode="&#x301;" 
d="M311 1683l-8 10l168 248q29 48 71 60t80.5 -1.5t56.5 -41.5q22 -32 18 -73t-31 -74t-75 -43z" />
    <glyph glyph-name="uni0302" unicode="&#x302;" 
d="M183 1709l-8 8l240 270h170l240 -270l-8 -8l-318 138z" />
    <glyph glyph-name="tildecomb" unicode="&#x303;" 
d="M668 1660q-58 0 -105 24t-88 55t-85 55t-97 24q-54 0 -90 -31t-36 -87h-15q0 85 23 151.5t68 104.5t109 38q61 0 106.5 -24t84 -55t77.5 -55t87 -24q61 0 93.5 31.5t32.5 86.5h15q0 -95 -14 -160.5t-53 -99.5t-113 -34z" />
    <glyph glyph-name="uni0304" unicode="&#x304;" 
d="M260 1700v15h480v-15h-480z" />
    <glyph glyph-name="uni0306" unicode="&#x306;" 
d="M500 1680q-85 0 -138 39.5t-77.5 111t-24.5 167.5h12q0 -46 34.5 -74.5t87 -41t106.5 -12.5t106.5 12.5t87 41t34.5 74.5h12q0 -96 -24.5 -167.5t-77.5 -111t-138 -39.5z" />
    <glyph glyph-name="uni0307" unicode="&#x307;" 
d="M501 1179q-72 0 -121 49.5t-49 120.5q0 73 49 121.5t121 48.5t121 -48.5t49 -121.5q0 -71 -49 -120.5t-121 -49.5z" />
    <glyph glyph-name="uni0308" unicode="&#x308;" 
d="M687 1685q-47 0 -81 34t-34 81q0 48 34 82t81 34q48 0 82 -34t34 -82q0 -47 -34 -81t-82 -34zM313 1685q-47 0 -81 34t-34 81q0 48 34 82t81 34q48 0 82 -34t34 -82q0 -47 -34 -81t-82 -34z" />
    <glyph glyph-name="uni030A" unicode="&#x30a;" 
d="M500 1680q-91 0 -145.5 52t-54.5 128q0 77 54.5 128.5t145.5 51.5q92 0 146 -51.5t54 -128.5q0 -76 -54 -128t-146 -52zM500 1695q30 0 47.5 20.5t24.5 57.5t7 87t-7 87t-24.5 57.5t-47.5 20.5t-47.5 -20.5t-24.5 -57.5t-7 -87t7 -87t24.5 -57.5t47.5 -20.5z" />
    <glyph glyph-name="uni030B" unicode="&#x30b;" 
d="M81 1683l-8 10l168 248q29 48 71 60t80.5 -1.5t56.5 -41.5q22 -32 18 -73t-31 -74t-75 -43zM541 1683l-8 10l168 248q29 48 71 60t80.5 -1.5t56.5 -41.5q22 -32 18 -73t-31 -74t-75 -43z" />
    <glyph glyph-name="uni030C" unicode="&#x30c;" 
d="M415 1700l-240 270l8 8l317 -138l316 138l9 -8l-240 -270h-170z" />
    <glyph glyph-name="uni0311" unicode="&#x311;" 
d="M260 1681q0 96 24.5 167.5t77.5 111t138 39.5t138 -39.5t77.5 -111t24.5 -167.5h-12q0 46 -34.5 74.5t-87 41t-106.5 12.5t-106.5 -12.5t-87 -41t-34.5 -74.5h-12z" />
    <glyph glyph-name="uni0312" unicode="&#x312;" 
d="M502 1116q-65 0 -112.5 54t-47.5 148q0 86 39 156.5t110 112.5t169 42v-13q-98 0 -172 -47.5t-108.5 -129t-15.5 -186.5h-5q-1 38 20 72t56.5 55t76.5 21q70 0 107.5 -42.5t37.5 -99.5q0 -39 -21 -71.5t-56 -52t-78 -19.5z" />
    <glyph glyph-name="dotbelowcomb" unicode="&#x323;" 
d="M500 -486q-71 0 -120 49.5t-49 120.5q0 73 49 121.5t120 48.5q73 0 122 -48.5t49 -121.5q0 -71 -49 -120.5t-122 -49.5z" />
    <glyph glyph-name="uni0326" unicode="&#x326;" 
d="M341 -704v13q99 0 172.5 47.5t108.5 129.5t16 185h4q2 -38 -19.5 -71.5t-57 -54.5t-76.5 -21q-70 0 -107.5 42.5t-37.5 99.5q0 39 21 71.5t56.5 52t77.5 19.5q65 0 112.5 -54t47.5 -148q0 -87 -38.5 -157t-110 -112t-169.5 -42z" />
    <glyph glyph-name="uni0327" unicode="&#x327;" 
d="M308 -495v15q89 0 132.5 37t43.5 94q0 52 -25.5 78t-67.5 34.5t-92 8.5l171 231h19l-111 -151q96 -3 170 -20t116 -51.5t42 -90.5q0 -50 -36.5 -92t-123.5 -67.5t-238 -25.5z" />
    <glyph glyph-name="uni0328" unicode="&#x328;" 
d="M498 -404q-66 0 -121.5 18t-90 56t-34.5 98t32.5 109t84.5 88t113 66.5t118 44.5l5 -11q-21 -12 -41 -45t-33 -84.5t-13 -116.5q0 -81 29.5 -125t72.5 -44q42 0 68 28t50 70l10 -7q-15 -28 -40 -62t-74.5 -58.5t-135.5 -24.5z" />
    <glyph glyph-name="uni0394" unicode="&#x394;" horiz-adv-x="1317" 
d="M73 0l542 1529h112l530 -1529h-358l-391 1182l-418 -1182h-17zM83 0v15h1038v-15h-1038z" />
    <glyph glyph-name="uni03A9" unicode="&#x3a9;" horiz-adv-x="1552" 
d="M626 363q-94 18 -185.5 62.5t-165.5 114.5t-118.5 166.5t-44.5 218.5q0 188 80 321.5t229.5 203.5t354.5 70q207 0 355.5 -70t229 -203.5t80.5 -321.5q0 -122 -44.5 -217t-118.5 -163.5t-165 -111.5t-186 -61v13q72 33 118.5 110t69 188t22.5 242q0 117 -15.5 222
t-55 186t-110 127t-180.5 46t-180.5 -46t-109.5 -127t-54.5 -186t-15.5 -222q0 -131 23 -244t69.5 -192.5t117.5 -112.5v-13zM162 0v400h15q0 -70 44 -103.5t121 -33.5h269v108l15 -2v-369h-464zM927 0v378l15 2v-117h269q77 0 121 33.5t44 103.5h15v-400h-464z" />
    <glyph glyph-name="uni03BC" unicode="&#x3bc;" horiz-adv-x="1241" 
d="M1066 920v-905h132v-15h-412v338q-11 -86 -43.5 -168.5t-99.5 -136t-183 -53.5q-132 0 -192.5 56.5t-76.5 147.5v-426q0 -81 37 -137.5t98 -87.5t131 -37q-37 13 -61 60t-24 97q0 61 44.5 106t108.5 45q65 0 109 -45t44 -114t-49 -117t-148 -48q-77 0 -147 32t-114 94
t-44 152v1147h-132v15h412v-629q0 -84 7 -139t27.5 -81.5t62.5 -26.5q69 0 114.5 41t71 106t36.5 140t11 143v431h-130v15h410z" />
    <glyph glyph-name="pi" unicode="&#x3c0;" horiz-adv-x="1261" 
d="M82 490v430h1070v-280h-1055v-150h-15zM248 -20q-76 0 -122 38.5t-46 97.5q0 47 22.5 74.5t58.5 47t76.5 40.5t76 53.5t58 87t22.5 139.5v198h112v-270q0 -237 -66.5 -371.5t-191.5 -134.5zM926 -20q-100 0 -167 45t-67 141v534h280v-538q0 -30 17.5 -54t59.5 -24
q38 0 70 29t62 100l11 -7q-34 -105 -95.5 -165.5t-170.5 -60.5z" />
    <glyph glyph-name="Wgrave" unicode="&#x1e80;" horiz-adv-x="2211" 
d="M734 -20l-547 1505h-163v15h1674v-15h-544l408 -1142l428 1142h-202v15h400v-15h-181l-562 -1505h-65l-548 1505h-293l410 -1142l177 466l9 -25l-306 -804h-95zM1315 928l-14 11l207 556l17 -2zM1288 1683l-279 85q-49 10 -76 43t-30.5 74t17.5 73q19 28 57 41.5
t80.5 1.5t71.5 -60l167 -248z" />
    <glyph glyph-name="wgrave" unicode="&#x1e81;" horiz-adv-x="1654" 
d="M1637 920v-15h-183l-309 -925h-87l-255 695l-285 -695h-87l-299 925h-124v15h588v-15h-169l187 -648l280 683h146l195 -639l202 604h-204v15h404zM937 1103l-279 85q-49 10 -76 43t-30.5 74t17.5 73q19 28 57 41.5t80.5 1.5t71.5 -60l167 -248z" />
    <glyph glyph-name="Wacute" unicode="&#x1e82;" horiz-adv-x="2211" 
d="M734 -20l-547 1505h-163v15h1674v-15h-544l408 -1142l428 1142h-202v15h400v-15h-181l-562 -1505h-65l-548 1505h-293l410 -1142l177 466l9 -25l-306 -804h-95zM1315 928l-14 11l207 556l17 -2zM1101 1683l-8 10l168 248q29 48 71 60t80.5 -1.5t56.5 -41.5q22 -32 18 -73
t-31 -74t-75 -43z" />
    <glyph glyph-name="wacute" unicode="&#x1e83;" horiz-adv-x="1654" 
d="M1637 920v-15h-183l-309 -925h-87l-255 695l-285 -695h-87l-299 925h-124v15h588v-15h-169l187 -648l280 683h146l195 -639l202 604h-204v15h404zM750 1103l-8 10l168 248q29 48 71 60t80.5 -1.5t56.5 -41.5q22 -32 18 -73t-31 -74t-75 -43z" />
    <glyph glyph-name="Wdieresis" unicode="&#x1e84;" horiz-adv-x="2211" 
d="M734 -20l-547 1505h-163v15h1674v-15h-544l408 -1142l428 1142h-202v15h400v-15h-181l-562 -1505h-65l-548 1505h-293l410 -1142l177 466l9 -25l-306 -804h-95zM1315 928l-14 11l207 556l17 -2zM1382 1685q-47 0 -81 34t-34 81q0 48 34 82t81 34q48 0 82 -34t34 -82
q0 -47 -34 -81t-82 -34zM1008 1685q-47 0 -81 34t-34 81q0 48 34 82t81 34q48 0 82 -34t34 -82q0 -47 -34 -81t-82 -34z" />
    <glyph glyph-name="wdieresis" unicode="&#x1e85;" horiz-adv-x="1654" 
d="M1637 920v-15h-183l-309 -925h-87l-255 695l-285 -695h-87l-299 925h-124v15h588v-15h-169l187 -648l280 683h146l195 -639l202 604h-204v15h404zM1031 1105q-47 0 -81 34t-34 81q0 48 34 82t81 34q48 0 82 -34t34 -82q0 -47 -34 -81t-82 -34zM657 1105q-47 0 -81 34
t-34 81q0 48 34 82t81 34q48 0 82 -34t34 -82q0 -47 -34 -81t-82 -34z" />
    <glyph glyph-name="uni1E86" unicode="&#x1e86;" horiz-adv-x="2211" 
d="M734 -20l-547 1505h-163v15h1674v-15h-544l408 -1142l428 1142h-202v15h400v-15h-181l-562 -1505h-65l-548 1505h-293l410 -1142l177 466l9 -25l-306 -804h-95zM1315 928l-14 11l207 556l17 -2zM1197 1759q-72 0 -121 49.5t-49 120.5q0 73 49 121.5t121 48.5t121 -48.5
t49 -121.5q0 -71 -49 -120.5t-121 -49.5z" />
    <glyph glyph-name="uni1E87" unicode="&#x1e87;" horiz-adv-x="1654" 
d="M1637 920v-15h-183l-309 -925h-87l-255 695l-285 -695h-87l-299 925h-124v15h588v-15h-169l187 -648l280 683h146l195 -639l202 604h-204v15h404zM845 1179q-72 0 -121 49.5t-49 120.5q0 73 49 121.5t121 48.5t121 -48.5t49 -121.5q0 -71 -49 -120.5t-121 -49.5z" />
    <glyph glyph-name="uni1E88" unicode="&#x1e88;" horiz-adv-x="2211" 
d="M734 -20l-547 1505h-163v15h1674v-15h-544l408 -1142l428 1142h-202v15h400v-15h-181l-562 -1505h-65l-548 1505h-293l410 -1142l177 466l9 -25l-306 -804h-95zM1315 928l-14 11l207 556l17 -2zM1134 -486q-71 0 -120 49.5t-49 120.5q0 73 49 121.5t120 48.5
q73 0 122 -48.5t49 -121.5q0 -71 -49 -120.5t-122 -49.5z" />
    <glyph glyph-name="uni1E89" unicode="&#x1e89;" horiz-adv-x="1654" 
d="M1637 920v-15h-183l-309 -925h-87l-255 695l-285 -695h-87l-299 925h-124v15h588v-15h-169l187 -648l280 683h146l195 -639l202 604h-204v15h404zM808 -486q-71 0 -120 49.5t-49 120.5q0 73 49 121.5t120 48.5q73 0 122 -48.5t49 -121.5q0 -71 -49 -120.5t-122 -49.5z
" />
    <glyph glyph-name="uni1E9E" unicode="&#x1e9e;" horiz-adv-x="1781" 
d="M210 0v882q0 160 64.5 279.5t180 199t269.5 119.5t332 40q154 0 273 -36t198.5 -85t114.5 -87l-425 -548q-46 16 -128 32.5t-173 21.5l486 615q-53 26 -140 48.5t-206 22.5q-145 0 -245.5 -47.5t-162.5 -134t-90 -204t-28 -257.5v-861h-320zM29 0v15h681v-15h-681z
M1151 -20q-154 0 -256.5 51t-154 129.5t-51.5 160.5q0 81 49.5 133.5t124.5 52.5q68 0 114 -47t46 -120q0 -44 -23 -80.5t-60 -58t-80 -21.5q-42 0 -81 21t-63.5 53t-24.5 67h13q0 -69 32.5 -127t87.5 -101t124.5 -66.5t143.5 -23.5q104 0 166.5 56t90 146.5t27.5 194.5
q0 53 -12.5 109.5t-42 109t-82 94t-132 66t-191.5 24.5v15q228 0 379.5 -30t241 -85.5t127 -131t37.5 -166.5q0 -104 -45.5 -184t-123.5 -133.5t-176.5 -80.5t-204.5 -27z" />
    <glyph glyph-name="Ygrave" unicode="&#x1ef2;" horiz-adv-x="1478" 
d="M423 0v15h180v705l-443 765h-136v15h700v-15h-204l385 -704l355 704h-224v15h418v-15h-175l-366 -722v-748h201v-15h-691zM903 1683l-279 85q-49 10 -76 43t-30.5 74t17.5 73q19 28 57 41.5t80.5 1.5t71.5 -60l167 -248z" />
    <glyph glyph-name="ygrave" unicode="&#x1ef3;" horiz-adv-x="1205" 
d="M453 905l317 -627l-157 -326l-494 953h-120v15h646v-15h-192zM1217 920v-15h-156l-591 -1289q-28 -59 -68 -97.5t-109 -38.5q-38 0 -73.5 17t-59 50.5t-23.5 83.5q0 46 22 81.5t58.5 55.5t80.5 20q43 0 80 -23.5t58 -63.5t14 -90l593 1294h-194v15h368zM741 1103l-279 85
q-49 10 -76 43t-30.5 74t17.5 73q19 28 57 41.5t80.5 1.5t71.5 -60l167 -248z" />
    <glyph glyph-name="uni2000" unicode="&#x2000;" horiz-adv-x="1000" 
 />
    <glyph glyph-name="uni2001" unicode="&#x2001;" horiz-adv-x="2000" 
 />
    <glyph glyph-name="uni2002" unicode="&#x2002;" horiz-adv-x="1000" 
 />
    <glyph glyph-name="uni2003" unicode="&#x2003;" horiz-adv-x="2000" 
 />
    <glyph glyph-name="uni2004" unicode="&#x2004;" horiz-adv-x="666" 
 />
    <glyph glyph-name="uni2005" unicode="&#x2005;" horiz-adv-x="500" 
 />
    <glyph glyph-name="uni2006" unicode="&#x2006;" horiz-adv-x="333" 
 />
    <glyph glyph-name="uni2007" unicode="&#x2007;" horiz-adv-x="1160" 
 />
    <glyph glyph-name="uni2008" unicode="&#x2008;" horiz-adv-x="399" 
 />
    <glyph glyph-name="uni2009" unicode="&#x2009;" horiz-adv-x="333" 
 />
    <glyph glyph-name="uni200A" unicode="&#x200a;" horiz-adv-x="200" 
 />
    <glyph glyph-name="uni200B" unicode="&#x200b;" 
 />
    <glyph glyph-name="uni2010" unicode="&#x2010;" horiz-adv-x="719" 
d="M120 543v14h480v-14h-480z" />
    <glyph glyph-name="uni2011" unicode="&#x2011;" horiz-adv-x="719" 
d="M120 543v14h480v-14h-480z" />
    <glyph glyph-name="figuredash" unicode="&#x2012;" horiz-adv-x="934" 
d="M120 543v14h695v-14h-695z" />
    <glyph glyph-name="endash" unicode="&#x2013;" horiz-adv-x="1081" 
d="M119 543v14h842v-14h-842z" />
    <glyph glyph-name="emdash" unicode="&#x2014;" horiz-adv-x="1569" 
d="M119 543v14h1330v-14h-1330z" />
    <glyph glyph-name="uni2015" unicode="&#x2015;" horiz-adv-x="1715" 
d="M120 543v14h1476v-14h-1476z" />
    <glyph glyph-name="quoteleft" unicode="&#x2018;" horiz-adv-x="549" 
d="M276 912q-54 0 -99 30.5t-73 87t-28 134.5q0 109 48.5 196.5t138 139.5t211.5 52v-15q-92 0 -168 -34t-127.5 -95t-72.5 -144t-3 -180h-5q-2 47 24.5 89t71 68.5t95.5 26.5q88 0 134.5 -52.5t46.5 -125.5q0 -48 -26 -88.5t-70.5 -65t-97.5 -24.5z" />
    <glyph glyph-name="quoteright" unicode="&#x2019;" horiz-adv-x="549" 
d="M76 900v15q92 0 168 34t127.5 95t72.5 144t3 180h5q2 -47 -24.5 -89t-71 -68.5t-95.5 -26.5q-86 0 -133.5 53.5t-47.5 124.5q0 48 26.5 89t70.5 65t97 24q54 0 100 -31t73 -87t27 -134q0 -108 -48.5 -196t-137.5 -140t-212 -52z" />
    <glyph glyph-name="quotesinglbase" unicode="&#x201a;" horiz-adv-x="677" 
d="M76 -304v15q92 0 168 34t127.5 95t72.5 144t3 180h5q2 -47 -24.5 -89t-71 -68.5t-95.5 -26.5q-86 0 -133.5 53.5t-47.5 124.5q0 48 26.5 89t70.5 65t97 24q54 0 100 -31t73 -87t27 -134q0 -108 -48.5 -196t-137.5 -140t-212 -52z" />
    <glyph glyph-name="quotedblleft" unicode="&#x201c;" horiz-adv-x="1049" 
d="M776 912q-54 0 -99.5 30.5t-73 87t-27.5 134.5q0 109 48.5 196.5t138 139.5t211.5 52v-15q-92 0 -168 -34t-127.5 -95t-72.5 -144t-3 -180h-5q-2 47 24.5 89t71 68.5t95.5 26.5q88 0 134.5 -52.5t46.5 -125.5q0 -48 -26 -88.5t-70.5 -65t-97.5 -24.5zM276 912
q-54 0 -99 30.5t-73 87t-28 134.5q0 109 48.5 196.5t138 139.5t211.5 52v-15q-92 0 -168 -34t-127.5 -95t-72.5 -144t-3 -180h-5q-2 47 24.5 89t71 68.5t95.5 26.5q88 0 134.5 -52.5t46.5 -125.5q0 -48 -26 -88.5t-70.5 -65t-97.5 -24.5z" />
    <glyph glyph-name="quotedblright" unicode="&#x201d;" horiz-adv-x="1049" 
d="M576 900v15q92 0 168 34t127.5 95t72.5 144t3 180h5q2 -47 -24.5 -89t-71 -68.5t-95.5 -26.5q-86 0 -133.5 53.5t-47.5 124.5q0 48 26.5 89t70.5 65t97 24q54 0 99.5 -31t73 -87t27.5 -134q0 -108 -48.5 -196t-137.5 -140t-212 -52zM76 900v15q92 0 168 34t127.5 95
t72.5 144t3 180h5q2 -47 -24.5 -89t-71 -68.5t-95.5 -26.5q-86 0 -133.5 53.5t-47.5 124.5q0 48 26.5 89t70.5 65t97 24q54 0 100 -31t73 -87t27 -134q0 -108 -48.5 -196t-137.5 -140t-212 -52z" />
    <glyph glyph-name="quotedblbase" unicode="&#x201e;" horiz-adv-x="1049" 
d="M576 -304v15q92 0 168 34t127.5 95t72.5 144t3 180h5q2 -47 -24.5 -89t-71 -68.5t-95.5 -26.5q-86 0 -133.5 53.5t-47.5 124.5q0 48 26.5 89t70.5 65t97 24q54 0 99.5 -31t73 -87t27.5 -134q0 -108 -48.5 -196t-137.5 -140t-212 -52zM76 -304v15q92 0 168 34t127.5 95
t72.5 144t3 180h5q2 -47 -24.5 -89t-71 -68.5t-95.5 -26.5q-86 0 -133.5 53.5t-47.5 124.5q0 48 26.5 89t70.5 65t97 24q54 0 100 -31t73 -87t27 -134q0 -108 -48.5 -196t-137.5 -140t-212 -52z" />
    <glyph glyph-name="dagger" unicode="&#x2020;" horiz-adv-x="1237" 
d="M611 -500q0 207 -11.5 368t-33 282.5t-51 207.5t-67.5 142h342q-37 -56 -67.5 -142t-52 -207.5t-33 -282.5t-11.5 -368h-15zM262 813q-73 0 -117.5 47t-44.5 113t44.5 113t117.5 47q9 0 17.5 -0.5t19.5 -1.5q50 -7 88.5 -31t73 -51.5t72 -48t86.5 -20.5v-15
q-49 0 -86.5 -20t-72 -48t-73 -51.5t-88.5 -30.5q-11 -1 -19.5 -1.5t-17.5 -0.5zM448 500q35 50 72.5 116.5t64 155t26.5 205.5h15q0 -117 26.5 -205.5t64.5 -155t73 -116.5h-342zM975 813q-9 0 -17 0.5t-19 1.5q-51 7 -89 30.5t-72.5 51.5t-72 48t-86.5 20v15
q49 0 86.5 20.5t72 48t72.5 51.5t89 31q11 1 19 1.5t17 0.5q74 0 118 -47t44 -113t-44 -113t-118 -47zM611 977q0 68 -20 111.5t-48 77.5t-51.5 69.5t-30.5 86.5q-1 11 -1.5 19t-0.5 17q0 74 47 118t113 44t113 -44t47 -118q0 -9 -0.5 -17t-1.5 -19q-7 -51 -31 -86.5
t-52 -69.5t-48 -77.5t-20 -111.5h-15z" />
    <glyph glyph-name="daggerdbl" unicode="&#x2021;" horiz-adv-x="1237" 
d="M619 -520q-66 0 -113 44.5t-47 117.5q0 9 0.5 18t1.5 19q6 50 29.5 85t51 68t48 76.5t21.5 110.5q-47 -1 -83.5 -22t-70 -48t-71.5 -50t-87 -29q-10 -1 -19 -1.5t-18 -0.5q-73 0 -117.5 47t-44.5 113t44.5 113t117.5 47h18t19 -2q49 -7 87 -30t71.5 -50.5t70 -48.5
t83.5 -22q-1 114 -27.5 200t-64 151t-71.5 114q34 49 71.5 114t64 151.5t27.5 199.5q-47 -1 -83.5 -22t-70 -48.5t-71.5 -50.5t-87 -29q-10 -1 -19 -1.5t-18 -0.5q-73 0 -117.5 47t-44.5 113t44.5 113t117.5 47h18t19 -2q49 -7 87 -30t71.5 -50t70 -48t83.5 -22
q-1 67 -21.5 110t-48 76.5t-51 68.5t-29.5 86q-1 11 -1.5 19t-0.5 17q0 74 47 118t113 44t113 -44t47 -118v-17t-2 -19q-7 -51 -30.5 -86t-51 -68t-48 -76.5t-21.5 -110.5q47 1 83.5 22t70 48t71.5 50t88 30q11 2 19 2h17q74 0 118 -47t44 -113t-44 -113t-118 -47
q-9 0 -17 0.5t-19 1.5q-50 6 -88 29t-71.5 50.5t-70 48.5t-83.5 22q1 -113 27.5 -199.5t64 -151.5t72.5 -114q-35 -49 -72.5 -114t-64 -151t-27.5 -200q47 1 83.5 22t70 48.5t71.5 50.5t88 30q11 2 19 2h17q74 0 118 -47t44 -113t-44 -113t-118 -47q-9 0 -17 0.5t-19 1.5
q-50 6 -88 29t-71.5 50t-70 48t-83.5 22q1 -66 21.5 -109.5t48 -77t51 -68.5t30.5 -85q2 -10 2 -19v-18q0 -73 -47 -117.5t-113 -44.5z" />
    <glyph glyph-name="bullet" unicode="&#x2022;" horiz-adv-x="399" 
d="M260 610q-50 0 -90.5 24.5t-65 65.5t-24.5 90t24.5 90.5t65 66t90.5 24.5q49 0 90.5 -24.5t65.5 -66t24 -90.5t-24 -90t-65.5 -65.5t-90.5 -24.5z" />
    <glyph glyph-name="ellipsis" unicode="&#x2026;" horiz-adv-x="1559" 
d="M1300 -20q-50 0 -90.5 24.5t-65 65.5t-24.5 90t24.5 90.5t65 66t90.5 24.5q49 0 90.5 -24.5t65.5 -66t24 -90.5t-24 -90t-65.5 -65.5t-90.5 -24.5zM780 -20q-50 0 -90.5 24.5t-65 65.5t-24.5 90t24.5 90.5t65 66t90.5 24.5q49 0 90.5 -24.5t65.5 -66t24 -90.5t-24 -90
t-65.5 -65.5t-90.5 -24.5zM260 -20q-50 0 -90.5 24.5t-65 65.5t-24.5 90t24.5 90.5t65 66t90.5 24.5q49 0 90.5 -24.5t65.5 -66t24 -90.5t-24 -90t-65.5 -65.5t-90.5 -24.5z" />
    <glyph glyph-name="perthousand" unicode="&#x2030;" horiz-adv-x="3019" 
d="M489 0l1047 1500h15l-1047 -1500h-15zM510 640q-85 0 -163.5 28.5t-141 84.5t-99 138t-36.5 189t36.5 189t99 138t141 84.5t163.5 28.5t163.5 -28.5t141 -84.5t99 -138t36.5 -189t-41.5 -189t-108.5 -138t-143.5 -84.5t-146.5 -28.5zM510 652q37 0 62 29t40 84
t21.5 134.5t6.5 180.5q0 102 -6.5 181t-21.5 134t-40 84t-62 29q-36 0 -61 -29t-40.5 -84t-22 -134t-6.5 -181q0 -101 6.5 -180.5t22 -134.5t40.5 -84t61 -29zM1530 -20q-85 0 -163.5 28.5t-141 84.5t-99 138t-36.5 189t36.5 189t99 138t141 84.5t163.5 28.5t163.5 -28.5
t141 -84.5t99 -138t36.5 -189t-42 -189t-108.5 -138t-143 -84.5t-146.5 -28.5zM1530 -8q37 0 61.5 29t40 84t22 134.5t6.5 180.5q0 102 -6.5 181t-22 134t-40 84t-61.5 29t-62 -29t-40 -84t-21.5 -134t-6.5 -181q0 -101 6.5 -180.5t21.5 -134.5t40 -84t62 -29zM2510 -20
q-85 0 -163.5 28.5t-141 84.5t-99 138t-36.5 189t36.5 189t99 138t141 84.5t163.5 28.5t163.5 -28.5t141 -84.5t99 -138t36.5 -189t-41.5 -189t-108.5 -138t-143.5 -84.5t-146.5 -28.5zM2510 -8q37 0 62 29t40 84t21.5 134.5t6.5 180.5q0 102 -6.5 181t-21.5 134t-40 84
t-62 29q-36 0 -61 -29t-40.5 -84t-22 -134t-6.5 -181q0 -101 6.5 -180.5t22 -134.5t40.5 -84t61 -29z" />
    <glyph glyph-name="uni2031" unicode="&#x2031;" horiz-adv-x="3019" 
d="M489 0l1047 1500h15l-1047 -1500h-15zM510 640q-85 0 -163.5 28.5t-141 84.5t-99 138t-36.5 189t36.5 189t99 138t141 84.5t163.5 28.5t163.5 -28.5t141 -84.5t99 -138t36.5 -189t-41.5 -189t-108.5 -138t-143.5 -84.5t-146.5 -28.5zM510 652q37 0 62 29t40 84
t21.5 134.5t6.5 180.5q0 102 -6.5 181t-21.5 134t-40 84t-62 29q-36 0 -61 -29t-40.5 -84t-22 -134t-6.5 -181q0 -101 6.5 -180.5t22 -134.5t40.5 -84t61 -29zM1530 -20q-85 0 -163.5 28.5t-141 84.5t-99 138t-36.5 189t36.5 189t99 138t141 84.5t163.5 28.5t163.5 -28.5
t141 -84.5t99 -138t36.5 -189t-42 -189t-108.5 -138t-143 -84.5t-146.5 -28.5zM1530 -8q37 0 61.5 29t40 84t22 134.5t6.5 180.5q0 102 -6.5 181t-22 134t-40 84t-61.5 29t-62 -29t-40 -84t-21.5 -134t-6.5 -181q0 -101 6.5 -180.5t21.5 -134.5t40 -84t62 -29zM2510 -20
q-85 0 -163.5 28.5t-141 84.5t-99 138t-36.5 189t36.5 189t99 138t141 84.5t163.5 28.5t163.5 -28.5t141 -84.5t99 -138t36.5 -189t-41.5 -189t-108.5 -138t-143.5 -84.5t-146.5 -28.5zM2510 -8q37 0 62 29t40 84t21.5 134.5t6.5 180.5q0 102 -6.5 181t-21.5 134t-40 84
t-62 29q-36 0 -61 -29t-40.5 -84t-22 -134t-6.5 -181q0 -101 6.5 -180.5t22 -134.5t40.5 -84t61 -29z" />
    <glyph glyph-name="guilsinglleft" unicode="&#x2039;" horiz-adv-x="889" 
d="M770 290l-720 468v34l720 468l8 -7l-376 -477l376 -479z" />
    <glyph glyph-name="guilsinglright" unicode="&#x203a;" horiz-adv-x="889" 
d="M118 290l-8 7l373 477l-373 479l8 7l720 -468v-34z" />
    <glyph glyph-name="uni203D" unicode="&#x203d;" horiz-adv-x="1319" 
d="M671 670v12q64 4 119.5 43t97.5 101.5t66 138.5t24 155q0 107 -41.5 192t-119.5 135t-187 50q-90 0 -171 -27.5t-144.5 -75t-104.5 -108.5t-52 -128q11 41 49 66.5t77 25.5q43 0 77.5 -21t55.5 -56t21 -78q0 -47 -22.5 -82.5t-58 -55t-73.5 -19.5q-64 0 -108.5 48.5
t-44.5 120.5q0 73 36 146t106 133.5t172 97t232 36.5q113 0 215 -27t180.5 -80t123.5 -131t45 -182q0 -82 -35 -149t-95 -119.5t-134 -88.5t-153.5 -54.5t-152.5 -18.5zM638 -20q-49 0 -90 24.5t-65.5 65.5t-24.5 90q0 50 24.5 91t65.5 65.5t90 24.5q50 0 91 -24.5t65 -65.5
t24 -91q0 -49 -24 -90t-65 -65.5t-91 -24.5zM623 486q0 71 -22.5 163t-48 193t-36.5 196q-1 11 -1.5 20t-0.5 18q0 39 18 73t51.5 55.5t80.5 21.5t80.5 -21.5t51.5 -55.5t18 -73v-18t-2 -20q-8 -72 -31 -147t-49.5 -148t-45.5 -138.5t-19 -118.5h-44z" />
    <glyph glyph-name="uni203E" unicode="&#x203e;" horiz-adv-x="719" 
d="M-10 1571v15h740v-15h-740z" />
    <glyph glyph-name="fraction" unicode="&#x2044;" horiz-adv-x="1072" 
d="M80 -300l870 1860h15l-870 -1860h-15z" />
    <glyph glyph-name="uni2074" unicode="&#x2074;" horiz-adv-x="821" 
d="M329 919v9h114v806l-379 -553h697v-8h-714l444 646h138v-891h90v-9h-390z" />
    <glyph glyph-name="Euro" unicode="&#x20ac;" horiz-adv-x="1416" 
d="M862 -20q-130 0 -246.5 55t-206.5 157.5t-141.5 244t-51.5 313.5q0 158 48.5 297t140 245.5t220.5 167t289 60.5q92 0 172 -26.5t141 -71.5t95.5 -99.5t34.5 -110.5t-25 -95t-62.5 -59.5t-78.5 -20.5q-40 0 -77.5 20.5t-61.5 57t-24 86.5q0 45 22 81t59.5 57t81.5 21
q36 0 74 -22.5t64 -56.5t26 -69h-14q0 55 -33.5 106.5t-90 93t-126.5 65t-142 23.5q-108 0 -180 -67t-114.5 -177.5t-60.5 -242.5t-18 -263q0 -146 17 -279t56.5 -236.5t105 -163.5t162.5 -60q96 0 177.5 47.5t139 125.5t83.5 171h16q-26 -96 -89 -182t-159.5 -139.5
t-222.5 -53.5zM55 773v14h880v-14h-880zM55 472v14h880v-14h-880z" />
    <glyph glyph-name="uni2116" unicode="&#x2116;" horiz-adv-x="2297" 
d="M1736 1141q0 170 32.5 262t105.5 92q74 0 106 -92t32 -262q0 -172 -32 -264t-106 -92q-73 0 -105.5 92t-32.5 264zM1506 1140q0 -125 48 -209.5t130.5 -127.5t189.5 -43t190 43t130.5 127.5t47.5 209.5t-47.5 209.5t-131 127.5t-189.5 43t-189 -43t-131 -127.5
t-48 -209.5zM1634 623v14h480v-14h-480zM253 1500v-1485h232v-15h-448v15h200v1470h-200v15h216zM1481 1500v-15h-210v-1505h-20l-1008 1520h369l643 -990v975h-228v15h454z" />
    <glyph glyph-name="trademark" unicode="&#x2122;" horiz-adv-x="1297" 
d="M861 968l-197 538v-526h55v-5h-113v5h52v530h-56v5h170l145 -387l136 387h166v-5h-50v-530h50v-5h-220v5h58v529l-189 -541h-7zM174 975v5h80v530h-46q-58 0 -88 -49.5t-38 -118.5h-6v173h467v-173h-6q-8 69 -38 118.5t-88 49.5h-46v-530h80v-5h-271z" />
    <glyph glyph-name="partialdiff" unicode="&#x2202;" horiz-adv-x="1219" 
d="M581 -20q-113 0 -208.5 38.5t-166 109t-109.5 165.5t-39 207q0 128 45.5 219t118 148.5t156 85t159.5 27.5q75 0 126 -29.5t82 -83.5t44 -127t13 -159h-13q0 166 -51.5 264.5t-146.5 98.5q-69 0 -113.5 -55t-66 -155t-21.5 -234q0 -86 7 -175t26.5 -163.5t56 -120.5
t95.5 -46q63 0 104.5 53t65.5 139.5t34 190t10 203.5l-11 319q0 55 -3.5 132.5t-17 159.5t-42.5 153t-79 115t-127 44l20 16q115 0 220.5 -50.5t189 -148.5t132 -241.5t48.5 -329.5q0 -166 -35.5 -307t-104.5 -244.5t-169.5 -161t-228.5 -57.5zM347 1146q-57 0 -98 37.5
t-41 102.5q0 70 46.5 123t120 82.5t154.5 28.5l-20 -16q-63 0 -128.5 -25t-110 -73.5t-44.5 -119.5h-16q0 63 43 101.5t94 38.5q54 0 99 -36.5t45 -99.5q0 -71 -45.5 -107.5t-98.5 -36.5z" />
    <glyph glyph-name="emptyset" unicode="&#x2205;" horiz-adv-x="1140" 
d="M90 279l-11 11l971 971l11 -11zM571 310q-141 0 -244 63t-159 167.5t-56 229.5t56 229.5t159 167t244 62.5t243.5 -62.5t158 -167t55.5 -229.5t-55.5 -229.5t-158 -167.5t-243.5 -63zM571 327q138 0 236 61t150.5 162t52.5 220t-52.5 220t-150.5 161.5t-236 60.5
q-137 0 -236 -60.5t-152 -161.5t-53 -220t53 -220t152 -162t236 -61z" />
    <glyph glyph-name="product" unicode="&#x220f;" horiz-adv-x="1634" 
d="M1088 0v1500h310v-1500h-310zM57 0v15h670v-15h-670zM238 0v1500h310v-1500h-310zM908 0v15h669v-15h-669zM57 1485v15h1520v-15h-1520z" />
    <glyph glyph-name="summation" unicode="&#x2211;" horiz-adv-x="1350" 
d="M56 0l567 633l-537 852v15h1129v-410h-15q-13 107 -71.5 197t-151.5 144t-210 54h-331l404 -657l-751 -813h652q137 0 239.5 56t164 154t74.5 225h15v-450h-1178z" />
    <glyph glyph-name="minus" unicode="&#x2212;" horiz-adv-x="934" 
d="M120 763v14h695v-14h-695z" />
    <glyph glyph-name="uni2215" unicode="&#x2215;" horiz-adv-x="1072" 
d="M80 -300l870 1860h15l-870 -1860h-15z" />
    <glyph glyph-name="uni2219" unicode="&#x2219;" horiz-adv-x="500" 
d="M260 610q-50 0 -90.5 24.5t-65 65.5t-24.5 90t24.5 90.5t65 66t90.5 24.5q49 0 90.5 -24.5t65.5 -66t24 -90.5t-24 -90t-65.5 -65.5t-90.5 -24.5z" />
    <glyph glyph-name="radical" unicode="&#x221a;" horiz-adv-x="1160" 
d="M539 -20l-312 518l-110 -61l-6 13l314 178l218 -373l296 1245h221v-15h-209l-357 -1505h-55z" />
    <glyph glyph-name="infinity" unicode="&#x221e;" horiz-adv-x="1914" 
d="M1417 316q140 0 235 51t143.5 137t48.5 191h-260q0 -44 -7 -104t-27 -117t-58.5 -95.5t-101.5 -38.5q-69 0 -129.5 35.5t-113 91t-98 116.5t-83.5 112q-68 91 -134.5 178t-146.5 144t-189 57q-140 0 -235 -50.5t-143 -136.5t-48 -192h259q0 44 7 104.5t26.5 117.5
t58.5 95t102 38q69 0 129.5 -35t112.5 -90t97 -116.5t84 -113.5q67 -90 136 -177t150 -144.5t185 -57.5zM496 316q109 0 189.5 57.5t147 144.5t133.5 177q39 52 84 113.5t97.5 116.5t113 90t129.5 35q63 0 101.5 -38t58.5 -95t27 -117.5t7 -104.5h260q0 106 -48.5 192
t-143.5 136.5t-235 50.5q-109 0 -189 -57t-147 -144t-135 -178q-38 -51 -83 -112t-97.5 -116.5t-113 -91t-129.5 -35.5q-63 0 -102 38.5t-58.5 95.5t-26.5 117t-7 104h-259q0 -109 48 -195t143 -135t235 -49z" />
    <glyph glyph-name="integral" unicode="&#x222b;" horiz-adv-x="822" 
d="M1059 1299h13q0 35 -27 62.5t-65 43t-72 15.5q-36 0 -72.5 -15t-61 -46t-24.5 -79q0 -52 26 -86.5t64 -51.5t75 -17q65 0 112 47t47 127q0 55 -34.5 105.5t-99 83t-154.5 32.5q-154 0 -276.5 -66t-194 -178.5t-76.5 -252.5l-30 -1103q-3 -123 -33.5 -218.5t-81 -150.5
t-112.5 -55q-65 0 -119 17t-94 47t-62 68.5t-22 80.5h-13q0 -37 26 -66t63.5 -46t72.5 -17q39 0 75 15t59.5 46t23.5 79q0 52 -25 86.5t-62.5 51.5t-74.5 17q-43 0 -79.5 -20t-58.5 -57.5t-22 -88.5q0 -59 39 -111t108.5 -85t159.5 -33q154 0 268.5 67t179 179.5t70.5 250.5
l38 1103q5 123 37 218.5t88 150.5t133 55q59 0 108 -17t85 -46.5t55.5 -65.5t19.5 -76z" />
    <glyph glyph-name="approxequal" unicode="&#x2248;" horiz-adv-x="1200" 
d="M798 888q-81 0 -129.5 38t-87.5 89q-22 30 -47.5 57t-64 44t-99.5 17q-73 0 -129 -34.5t-81 -91.5t-7 -125h-17q-20 70 8 131t88.5 99t137.5 38q67 0 108.5 -19t68.5 -48t50 -59q37 -53 82.5 -86t116.5 -33q67 0 119 33t75 89.5t5 128.5h17q18 -75 -8 -135.5t-81.5 -96.5
t-124.5 -36zM798 388q-81 0 -129.5 38t-87.5 89q-22 30 -47.5 57t-64 44t-99.5 17q-73 0 -129 -34.5t-81 -91.5t-7 -125h-17q-20 70 8 131t88.5 99t137.5 38q67 0 108.5 -19t68.5 -48t50 -59q37 -53 82.5 -86t116.5 -33q67 0 119 33t75 89.5t5 128.5h17q18 -75 -8 -135.5
t-81.5 -96.5t-124.5 -36z" />
    <glyph glyph-name="notequal" unicode="&#x2260;" horiz-adv-x="1119" 
d="M245 302l-12 8l643 917l11 -8zM120 613v14h880v-14h-880zM120 914v14h880v-14h-880z" />
    <glyph glyph-name="lessequal" unicode="&#x2264;" horiz-adv-x="1119" 
d="M120 769v17l880 418v-16zM120 73v14h880v-14h-880zM1000 346l-880 418v17l880 -419v-16z" />
    <glyph glyph-name="greaterequal" unicode="&#x2265;" horiz-adv-x="1119" 
d="M120 1188v16l880 -418v-22l-880 -418v16l868 413zM1000 73h-880v14h880v-14z" />
    <glyph glyph-name="lozenge" unicode="&#x25ca;" horiz-adv-x="1200" 
d="M612 30l-412 682l412 680l388 -680zM612 62l370 650l-370 648l-393 -648z" />
    <glyph glyph-name="uni2761" unicode="&#x2761;" horiz-adv-x="1322" 
d="M475 -94q-112 0 -191 48.5t-120 120.5t-41 142q0 111 54.5 163t123.5 52q62 0 109.5 -43.5t47.5 -121.5q0 -61 -48.5 -99.5t-108.5 -38.5q-56 0 -100 24.5t-61 52.5q4 -66 45 -131.5t114.5 -109.5t175.5 -44q132 0 218.5 74t130 195t43.5 261v1149h15v-1143
q0 -145 -44 -271t-134 -203t-229 -77zM686 619q-271 0 -413 98t-142 293t142 293.5t413 98.5h488v-15h-459q-50 0 -94.5 -45t-72 -129.5t-27.5 -202.5t27.5 -202t72 -129t94.5 -45h163v-15h-192z" />
    <glyph glyph-name="uniF8E8" unicode="&#xf8e8;" horiz-adv-x="1131" 
d="M564 668q-127 0 -232 62.5t-167 167t-62 232.5t62 232.5t167 167t232 62.5q129 0 234 -62.5t167 -167t62 -232.5t-62 -232.5t-167 -167t-234 -62.5zM322 858v5h256v-5h-256zM394 858v540h111v-540h-111zM750 852q-58 0 -79 28.5t-23 70t-3 83t-18.5 69.5t-70.5 28h-105v3
h163q70 0 101 -27t39 -67.5t6.5 -81t3 -68t31.5 -27.5q11 0 21.5 2.5t18.5 5.5l2 -5q-9 -4 -32 -9t-55 -5zM565 677q125 0 227.5 61.5t164 164t61.5 227.5t-61.5 227.5t-164 164t-227.5 61.5t-228 -61.5t-164.5 -164t-61.5 -227.5t61.5 -227.5t164.5 -164t228 -61.5z
M451 1133v3h105q52 0 78 31.5t26 95.5q0 65 -26 97t-78 32h-234v6h252q89 0 145 -32t56 -102q0 -71 -53 -101t-148 -30h-123z" />
    <glyph glyph-name="uniF8E9" unicode="&#xf8e9;" horiz-adv-x="1122" 
d="M560 1592q128 0 233 -62t167 -167t62 -233t-62 -233t-167 -167t-233 -62t-233 62t-167 167t-62 233t62 233t167 167t233 62zM560 677q125 0 227.5 61.5t164 164.5t61.5 227q0 125 -61.5 227.5t-164 164t-227.5 61.5t-227.5 -61.5t-164 -164t-61.5 -227.5
q0 -124 61.5 -227t164 -164.5t227.5 -61.5zM574 860q49 0 84 21.5t57.5 58t33.5 79.5h6v-159h-5l-58 40q-49 -47 -125 -47q-120 0 -189.5 78t-69.5 199t69.5 199t189.5 78q66 0 113 -44l63 37h5v-159h-6q-19 69 -63 114t-105 45q-53 0 -84 -40t-43.5 -102t-12.5 -128
q0 -65 12.5 -127.5t43.5 -102.5t84 -40z" />
    <glyph glyph-name="i.loclTRK" horiz-adv-x="638" 
d="M466 920v-905h132v-15h-544v15h132v890h-132v15h412zM328 1179q-72 0 -121 49.5t-49 120.5q0 73 49 121.5t121 48.5t121 -48.5t49 -121.5q0 -71 -49 -120.5t-121 -49.5z" />
    <glyph glyph-name="longs_t" horiz-adv-x="1417" 
d="M1087 -14q-94 0 -145.5 31.5t-71 85.5t-19.5 120v857q0 127 -17 222.5t-58.5 149t-113.5 53.5q-73 0 -114 -53.5t-58 -149t-17 -222.5v-1080h-270v1023q0 131 49 244.5t151 183t259 69.5q158 0 262 -69.5t156 -183t52 -244.5l-1 -857q0 -75 20 -101t61 -26q27 0 61.5 20
t66.5 56.5t52 88.5l14 -6q-37 -94 -118.5 -153t-200.5 -59zM40 0v15h648v-15h-648zM729 905v15h616v-15h-616z" />
    <glyph glyph-name="a.sc" horiz-adv-x="1209" 
d="M98 0l462 1040h107l450 -1040h-360l-316 731l-326 -731h-17zM0 0v15h306v-15h-306zM245 302v15h606v-15h-606zM577 0v15h632v-15h-632z" />
    <glyph glyph-name="aacute.sc" horiz-adv-x="1209" 
d="M98 0l462 1040h107l450 -1040h-360l-316 731l-326 -731h-17zM0 0v15h306v-15h-306zM245 302v15h606v-15h-606zM577 0v15h632v-15h-632zM501 1194l-8 10l168 248q29 48 71 60t80.5 -1.5t56.5 -41.5q22 -32 18 -73t-31 -74t-75 -43z" />
    <glyph glyph-name="abreve.sc" horiz-adv-x="1209" 
d="M98 0l462 1040h107l450 -1040h-360l-316 731l-326 -731h-17zM0 0v15h306v-15h-306zM245 302v15h606v-15h-606zM577 0v15h632v-15h-632zM596 1191q-85 0 -138 39.5t-77.5 111t-24.5 167.5h12q0 -46 34.5 -74.5t87 -41t106.5 -12.5t106.5 12.5t87 41t34.5 74.5h12
q0 -96 -24.5 -167.5t-77.5 -111t-138 -39.5z" />
    <glyph glyph-name="acircumflex.sc" horiz-adv-x="1209" 
d="M98 0l462 1040h107l450 -1040h-360l-316 731l-326 -731h-17zM0 0v15h306v-15h-306zM245 302v15h606v-15h-606zM577 0v15h632v-15h-632zM280 1220l-8 8l240 270h170l240 -270l-8 -8l-318 138z" />
    <glyph glyph-name="adieresis.sc" horiz-adv-x="1209" 
d="M98 0l462 1040h107l450 -1040h-360l-316 731l-326 -731h-17zM0 0v15h306v-15h-306zM245 302v15h606v-15h-606zM577 0v15h632v-15h-632zM782 1196q-47 0 -81 34t-34 81q0 48 34 82t81 34q48 0 82 -34t34 -82q0 -47 -34 -81t-82 -34zM408 1196q-47 0 -81 34t-34 81
q0 48 34 82t81 34q48 0 82 -34t34 -82q0 -47 -34 -81t-82 -34z" />
    <glyph glyph-name="agrave.sc" horiz-adv-x="1209" 
d="M98 0l462 1040h107l450 -1040h-360l-316 731l-326 -731h-17zM0 0v15h306v-15h-306zM245 302v15h606v-15h-606zM577 0v15h632v-15h-632zM688 1194l-279 85q-49 10 -76 43t-30.5 74t17.5 73q19 28 57 41.5t80.5 1.5t71.5 -60l167 -248z" />
    <glyph glyph-name="aogonek.sc" horiz-adv-x="1209" 
d="M98 0l462 1040h107l450 -1040h-360l-316 731l-326 -731h-17zM0 0v15h306v-15h-306zM245 302v15h606v-15h-606zM577 0v15h632v-15h-632zM875 -446q-66 0 -121.5 18t-90 56t-34.5 98t32.5 109t84.5 88t113 66.5t118 44.5l5 -11q-21 -12 -41 -45t-33 -84.5t-13 -116.5
q0 -81 29.5 -125t72.5 -44q42 0 68 28t50 70l10 -7q-15 -28 -40 -62t-74.5 -58.5t-135.5 -24.5z" />
    <glyph glyph-name="aring.sc" horiz-adv-x="1209" 
d="M98 0l462 1040h107l450 -1040h-360l-316 731l-326 -731h-17zM0 0v15h306v-15h-306zM245 302v15h606v-15h-606zM577 0v15h632v-15h-632zM596 1191q-91 0 -145.5 52t-54.5 128q0 77 54.5 128.5t145.5 51.5q92 0 146 -51.5t54 -128.5q0 -76 -54 -128t-146 -52zM596 1206
q30 0 47.5 20.5t24.5 57.5t7 87t-7 87t-24.5 57.5t-47.5 20.5t-47.5 -20.5t-24.5 -57.5t-7 -87t7 -87t24.5 -57.5t47.5 -20.5z" />
    <glyph glyph-name="atilde.sc" horiz-adv-x="1209" 
d="M98 0l462 1040h107l450 -1040h-360l-316 731l-326 -731h-17zM0 0v15h306v-15h-306zM245 302v15h606v-15h-606zM577 0v15h632v-15h-632zM763 1171q-58 0 -105 24t-88 55t-85 55t-97 24q-54 0 -90 -31t-36 -87h-15q0 85 23 151.5t68 104.5t109 38q61 0 106.5 -24t84 -55
t77.5 -55t87 -24q61 0 93.5 31.5t32.5 86.5h15q0 -95 -14 -160.5t-53 -99.5t-113 -34z" />
    <glyph glyph-name="ae.sc" horiz-adv-x="1780" 
d="M134 0l705 1020h20l-705 -1020h-20zM0 0v15h352v-15h-352zM379 337l5 15h593v-15h-598zM717 0v15h605q87 0 157.5 36t116.5 110.5t59 188.5h15v-350h-953zM848 0v1020h310v-1020h-310zM1402 377q-8 52 -43 88t-79 54.5t-78 18.5h-110v15h110q34 0 78 16.5t79 50.5t43 86
h15v-329h-15zM1645 710q-12 95 -56.5 160.5t-106.5 100t-129 34.5h-421v15h729v-310h-16z" />
    <glyph glyph-name="b.sc" horiz-adv-x="1297" 
d="M85 0v15h597q61 0 102 39t61.5 103t20.5 140q0 113 -46.5 176.5t-137.5 63.5h-191v10h261q133 0 236 -21t161 -77.5t58 -161.5t-50 -168t-151 -91t-254 -28h-667zM232 0v1030h310v-1030h-310zM491 542v11h155q81 0 131 60.5t50 170.5q0 117 -50 174t-131 57h-561v15h612
q219 0 334.5 -52.5t115.5 -179.5q0 -131 -108 -193.5t-342 -62.5h-206z" />
    <glyph glyph-name="c.sc" horiz-adv-x="1163" 
d="M634 -20q-97 0 -192 27.5t-172.5 89.5t-123.5 163.5t-46 249.5t46.5 249.5t122 163.5t163.5 89.5t171 27.5q81 0 146.5 -30.5t113.5 -81.5l122 92h14v-345h-16q-16 55 -46 113t-70 107t-89 79t-105 30q-84 0 -137.5 -58.5t-80 -168.5t-26.5 -267q0 -156 28 -267
t84.5 -170t142.5 -59q53 0 102 31.5t90.5 81.5t72 108t45.5 110h15v-345h-14l-114 99q-48 -51 -111.5 -85t-135.5 -34z" />
    <glyph glyph-name="cacute.sc" horiz-adv-x="1163" 
d="M634 -20q-97 0 -192 27.5t-172.5 89.5t-123.5 163.5t-46 249.5t46.5 249.5t122 163.5t163.5 89.5t171 27.5q81 0 146.5 -30.5t113.5 -81.5l122 92h14v-345h-16q-16 55 -46 113t-70 107t-89 79t-105 30q-84 0 -137.5 -58.5t-80 -168.5t-26.5 -267q0 -156 28 -267
t84.5 -170t142.5 -59q53 0 102 31.5t90.5 81.5t72 108t45.5 110h15v-345h-14l-114 99q-48 -51 -111.5 -85t-135.5 -34zM550 1203l-8 10l168 248q29 48 71 60t80.5 -1.5t56.5 -41.5q22 -32 18 -73t-31 -74t-75 -43z" />
    <glyph glyph-name="ccaron.sc" horiz-adv-x="1163" 
d="M634 -20q-97 0 -192 27.5t-172.5 89.5t-123.5 163.5t-46 249.5t46.5 249.5t122 163.5t163.5 89.5t171 27.5q81 0 146.5 -30.5t113.5 -81.5l122 92h14v-345h-16q-16 55 -46 113t-70 107t-89 79t-105 30q-84 0 -137.5 -58.5t-80 -168.5t-26.5 -267q0 -156 28 -267
t84.5 -170t142.5 -59q53 0 102 31.5t90.5 81.5t72 108t45.5 110h15v-345h-14l-114 99q-48 -51 -111.5 -85t-135.5 -34zM560 1220l-240 270l8 8l317 -138l316 138l9 -8l-240 -270h-170z" />
    <glyph glyph-name="ccedilla.sc" horiz-adv-x="1163" 
d="M634 -20q-97 0 -192 27.5t-172.5 89.5t-123.5 163.5t-46 249.5t46.5 249.5t122 163.5t163.5 89.5t171 27.5q81 0 146.5 -30.5t113.5 -81.5l122 92h14v-345h-16q-16 55 -46 113t-70 107t-89 79t-105 30q-84 0 -137.5 -58.5t-80 -168.5t-26.5 -267q0 -156 28 -267
t84.5 -170t142.5 -59q53 0 102 31.5t90.5 81.5t72 108t45.5 110h15v-345h-14l-114 99q-48 -51 -111.5 -85t-135.5 -34zM459 -499v15q89 0 132.5 37t43.5 94q0 52 -25.5 78t-67.5 34.5t-92 8.5l171 231h19l-111 -151q96 -3 170 -20t116 -51.5t42 -90.5q0 -50 -36.5 -92
t-123.5 -67.5t-238 -25.5z" />
    <glyph glyph-name="d.sc" horiz-adv-x="1351" 
d="M85 0v15h566q89 0 144.5 59.5t81 170.5t25.5 265q0 152 -28 263t-83.5 171.5t-139.5 60.5h-566v15h566q193 0 324.5 -53t198.5 -166t67 -291q0 -180 -73 -292.5t-206 -165t-311 -52.5h-566zM232 0v1020h310v-1020h-310z" />
    <glyph glyph-name="eth.sc" horiz-adv-x="1351" 
d="M100 543v14h604v-14h-604zM85 0v15h566q89 0 144.5 59.5t81 170.5t25.5 265q0 152 -28 263t-83.5 171.5t-139.5 60.5h-566v15h566q193 0 324.5 -53t198.5 -166t67 -291q0 -180 -73 -292.5t-206 -165t-311 -52.5h-566zM232 0v1020h310v-1020h-310z" />
    <glyph glyph-name="dcaron.sc" horiz-adv-x="1351" 
d="M85 0v15h566q89 0 144.5 59.5t81 170.5t25.5 265q0 152 -28 263t-83.5 171.5t-139.5 60.5h-566v15h566q193 0 324.5 -53t198.5 -166t67 -291q0 -180 -73 -292.5t-206 -165t-311 -52.5h-566zM232 0v1020h310v-1020h-310zM548 1220l-240 270l8 8l317 -138l316 138l9 -8
l-240 -270h-170z" />
    <glyph glyph-name="dcroat.sc" horiz-adv-x="1351" 
d="M100 543v14h604v-14h-604zM85 0v15h566q89 0 144.5 59.5t81 170.5t25.5 265q0 152 -28 263t-83.5 171.5t-139.5 60.5h-566v15h566q193 0 324.5 -53t198.5 -166t67 -291q0 -180 -73 -292.5t-206 -165t-311 -52.5h-566zM232 0v1020h310v-1020h-310z" />
    <glyph glyph-name="e.sc" horiz-adv-x="1148" 
d="M770 377q-10 52 -45 87.5t-77.5 54.5t-77.5 19h-110v15h110q35 0 77.5 16.5t77.5 50.5t45 86h16v-329h-16zM1022 350h16v-350h-953v15h131v990h-131v15h944v-310h-16q-12 95 -56.5 160.5t-106.5 100t-129 34.5h-195v-990h164q87 0 158 36t116.5 110t57.5 189z" />
    <glyph glyph-name="eacute.sc" horiz-adv-x="1148" 
d="M770 377q-10 52 -45 87.5t-77.5 54.5t-77.5 19h-110v15h110q35 0 77.5 16.5t77.5 50.5t45 86h16v-329h-16zM1022 350h16v-350h-953v15h131v990h-131v15h944v-310h-16q-12 95 -56.5 160.5t-106.5 100t-129 34.5h-195v-990h164q87 0 158 36t116.5 110t57.5 189zM528 1203
l-8 10l168 248q29 48 71 60t80.5 -1.5t56.5 -41.5q22 -32 18 -73t-31 -74t-75 -43z" />
    <glyph glyph-name="ecaron.sc" horiz-adv-x="1148" 
d="M770 377q-10 52 -45 87.5t-77.5 54.5t-77.5 19h-110v15h110q35 0 77.5 16.5t77.5 50.5t45 86h16v-329h-16zM1022 350h16v-350h-953v15h131v990h-131v15h944v-310h-16q-12 95 -56.5 160.5t-106.5 100t-129 34.5h-195v-990h164q87 0 158 36t116.5 110t57.5 189zM538 1220
l-240 270l8 8l317 -138l316 138l9 -8l-240 -270h-170z" />
    <glyph glyph-name="ecircumflex.sc" horiz-adv-x="1148" 
d="M770 377q-10 52 -45 87.5t-77.5 54.5t-77.5 19h-110v15h110q35 0 77.5 16.5t77.5 50.5t45 86h16v-329h-16zM1022 350h16v-350h-953v15h131v990h-131v15h944v-310h-16q-12 95 -56.5 160.5t-106.5 100t-129 34.5h-195v-990h164q87 0 158 36t116.5 110t57.5 189zM306 1229
l-8 8l240 270h170l240 -270l-8 -8l-318 138z" />
    <glyph glyph-name="edieresis.sc" horiz-adv-x="1148" 
d="M770 377q-10 52 -45 87.5t-77.5 54.5t-77.5 19h-110v15h110q35 0 77.5 16.5t77.5 50.5t45 86h16v-329h-16zM1022 350h16v-350h-953v15h131v990h-131v15h944v-310h-16q-12 95 -56.5 160.5t-106.5 100t-129 34.5h-195v-990h164q87 0 158 36t116.5 110t57.5 189zM809 1205
q-47 0 -81 34t-34 81q0 48 34 82t81 34q48 0 82 -34t34 -82q0 -47 -34 -81t-82 -34zM435 1205q-47 0 -81 34t-34 81q0 48 34 82t81 34q48 0 82 -34t34 -82q0 -47 -34 -81t-82 -34z" />
    <glyph glyph-name="egrave.sc" horiz-adv-x="1148" 
d="M770 377q-10 52 -45 87.5t-77.5 54.5t-77.5 19h-110v15h110q35 0 77.5 16.5t77.5 50.5t45 86h16v-329h-16zM1022 350h16v-350h-953v15h131v990h-131v15h944v-310h-16q-12 95 -56.5 160.5t-106.5 100t-129 34.5h-195v-990h164q87 0 158 36t116.5 110t57.5 189zM714 1203
l-279 85q-49 10 -76 43t-30.5 74t17.5 73q19 28 57 41.5t80.5 1.5t71.5 -60l167 -248z" />
    <glyph glyph-name="eogonek.sc" horiz-adv-x="1148" 
d="M770 377q-10 52 -45 87.5t-77.5 54.5t-77.5 19h-110v15h110q35 0 77.5 16.5t77.5 50.5t45 86h16v-329h-16zM1022 350h16v-350h-953v15h131v990h-131v15h944v-310h-16q-12 95 -56.5 160.5t-106.5 100t-129 34.5h-195v-990h164q87 0 158 36t116.5 110t57.5 189zM822 -446
q-66 0 -121.5 18t-90 56t-34.5 98t32.5 109t84.5 88t113 66.5t118 44.5l5 -11q-21 -12 -41 -45t-33 -84.5t-13 -116.5q0 -81 29.5 -125t72.5 -44q42 0 68 28t50 70l10 -7q-15 -28 -40 -62t-74.5 -58.5t-135.5 -24.5z" />
    <glyph glyph-name="f.sc" horiz-adv-x="1068" 
d="M790 346q-18 63 -76 108t-133 45h-111v14h111q75 0 133 39.5t76 102.5h16v-309h-16zM1008 1020v-310h-15q-13 92 -57.5 158t-107.5 101t-133 35h-169v-989h149v-15h-590v15h131v989h-131v16h923z" />
    <glyph glyph-name="g.sc" horiz-adv-x="1240" 
d="M630 -20q-88 0 -179.5 27.5t-169 89.5t-124.5 163.5t-47 249.5t48 249.5t125.5 163.5t166 89.5t169.5 27.5t151.5 -33.5t126.5 -87t92.5 -114t48.5 -115.5h-15q-14 54 -49 111t-84 105t-107.5 78t-118.5 30q-76 0 -126 -61t-74.5 -173.5t-24.5 -269.5q0 -156 26 -271.5
t71.5 -179t103.5 -63.5q36 0 62 21t43.5 51.5t28.5 61.5t16 50v248h284v-168q-35 -63 -94 -127.5t-145.5 -108.5t-204.5 -44zM649 422v16h526v-16h-526zM1038 690q-19 48 -42 90t-54 80.5t-75 77.5l157 82h14v-330z" />
    <glyph glyph-name="gbreve.sc" horiz-adv-x="1240" 
d="M630 -20q-88 0 -179.5 27.5t-169 89.5t-124.5 163.5t-47 249.5t48 249.5t125.5 163.5t166 89.5t169.5 27.5t151.5 -33.5t126.5 -87t92.5 -114t48.5 -115.5h-15q-14 54 -49 111t-84 105t-107.5 78t-118.5 30q-76 0 -126 -61t-74.5 -173.5t-24.5 -269.5q0 -156 26 -271.5
t71.5 -179t103.5 -63.5q36 0 62 21t43.5 51.5t28.5 61.5t16 50v248h284v-168q-35 -63 -94 -127.5t-145.5 -108.5t-204.5 -44zM649 422v16h526v-16h-526zM1038 690q-19 48 -42 90t-54 80.5t-75 77.5l157 82h14v-330zM619 1200q-85 0 -138 39.5t-77.5 111t-24.5 167.5h12
q0 -46 34.5 -74.5t87 -41t106.5 -12.5t106.5 12.5t87 41t34.5 74.5h12q0 -96 -24.5 -167.5t-77.5 -111t-138 -39.5z" />
    <glyph glyph-name="h.sc" horiz-adv-x="1450" 
d="M945 0v1020h311v-1020h-311zM85 0v15h565v-15h-565zM216 0v1020h310v-1020h-310zM820 0v15h565v-15h-565zM435 521v15h550v-15h-550zM85 1005v15h565v-15h-565zM820 1005v15h565v-15h-565z" />
    <glyph glyph-name="i.sc" horiz-adv-x="840" 
d="M256 0v1020h309v-1020h-309zM85 0v15h670v-15h-670zM85 1005v15h670v-15h-670z" />
    <glyph glyph-name="iacute.sc" horiz-adv-x="840" 
d="M256 0v1020h309v-1020h-309zM85 0v15h670v-15h-670zM85 1005v15h670v-15h-670zM321 1203l-8 10l168 248q29 48 71 60t80.5 -1.5t56.5 -41.5q22 -32 18 -73t-31 -74t-75 -43z" />
    <glyph glyph-name="icircumflex.sc" horiz-adv-x="840" 
d="M256 0v1020h309v-1020h-309zM85 0v15h670v-15h-670zM85 1005v15h670v-15h-670zM99 1229l-8 8l240 270h170l240 -270l-8 -8l-318 138z" />
    <glyph glyph-name="idieresis.sc" horiz-adv-x="840" 
d="M256 0v1020h309v-1020h-309zM85 0v15h670v-15h-670zM85 1005v15h670v-15h-670zM602 1205q-47 0 -81 34t-34 81q0 48 34 82t81 34q48 0 82 -34t34 -82q0 -47 -34 -81t-82 -34zM228 1205q-47 0 -81 34t-34 81q0 48 34 82t81 34q48 0 82 -34t34 -82q0 -47 -34 -81t-82 -34z
" />
    <glyph glyph-name="igrave.sc" horiz-adv-x="840" 
d="M256 0v1020h309v-1020h-309zM85 0v15h670v-15h-670zM85 1005v15h670v-15h-670zM507 1203l-279 85q-49 10 -76 43t-30.5 74t17.5 73q19 28 57 41.5t80.5 1.5t71.5 -60l167 -248z" />
    <glyph glyph-name="ij.sc" horiz-adv-x="1842" 
d="M256 0v1020h309v-1020h-309zM85 0v15h670v-15h-670zM85 1005v15h670v-15h-670zM1167 -20q-97 0 -170.5 37.5t-115 100t-41.5 137.5q0 86 54 140.5t129 54.5q68 0 120.5 -39.5t52.5 -123.5q0 -67 -52.5 -113.5t-118.5 -46.5q-31 0 -63.5 11.5t-59.5 31t-43.5 42
t-16.5 43.5h13q0 -58 24 -105t65 -80.5t91 -51.5t102 -18q71 0 110 67t54.5 180.5t15.5 252.5v520h310v-709q-19 -49 -58 -106t-97.5 -108.5t-135 -84t-169.5 -32.5zM1077 1005v15h700v-15h-700z" />
    <glyph glyph-name="j.sc" horiz-adv-x="1002" 
d="M327 -20q-97 0 -170.5 37.5t-115 100t-41.5 137.5q0 86 54 140.5t129 54.5q68 0 120.5 -39.5t52.5 -123.5q0 -67 -52.5 -113.5t-118.5 -46.5q-31 0 -63.5 11.5t-59.5 31t-43.5 42t-16.5 43.5h13q0 -58 24 -105t65 -80.5t91 -51.5t102 -18q71 0 110 67t54.5 180.5
t15.5 252.5v520h310v-709q-19 -49 -58 -106t-97.5 -108.5t-135 -84t-169.5 -32.5zM237 1005v15h700v-15h-700z" />
    <glyph glyph-name="k.sc" horiz-adv-x="1345" 
d="M299 244l778 772h22l-778 -772h-22zM85 0v15h550v-15h-550zM216 0v1020h310v-1020h-310zM740 0v15h585v-15h-585zM879 0l-298 521l220 215l438 -736h-360zM85 1005v15h590v-15h-590zM875 1005v15h381v-15h-381z" />
    <glyph glyph-name="l.sc" horiz-adv-x="1065" 
d="M85 0v15h131v990h-131v15h571v-15h-130v-990h85q99 0 170 25t119.5 70t79.5 106t49 134h16v-350h-960z" />
    <glyph glyph-name="lacute.sc" horiz-adv-x="1065" 
d="M85 0v15h131v990h-131v15h571v-15h-130v-990h85q99 0 170 25t119.5 70t79.5 106t49 134h16v-350h-960zM269 1203l-8 10l168 248q29 48 71 60t80.5 -1.5t56.5 -41.5q22 -32 18 -73t-31 -74t-75 -43z" />
    <glyph glyph-name="lcaron.sc" horiz-adv-x="1065" 
d="M85 0v15h131v990h-131v15h571v-15h-130v-990h85q99 0 170 25t119.5 70t79.5 106t49 134h16v-350h-960zM743 523v13q76 0 138 29t103.5 80.5t58 120.5t1.5 148h4q2 -38 -19 -72t-57 -55.5t-78 -21.5q-71 0 -109 43t-38 101q0 59 46 101.5t111 42.5q66 0 114.5 -56
t48.5 -153q0 -88 -39 -161t-111.5 -116.5t-173.5 -43.5z" />
    <glyph glyph-name="lslash.sc" horiz-adv-x="1065" 
d="M85 432v19l646 289v-18zM85 0v15h131v990h-131v15h571v-15h-130v-990h85q99 0 170 25t119.5 70t79.5 106t49 134h16v-350h-960z" />
    <glyph glyph-name="m.sc" horiz-adv-x="1566" 
d="M619 -20l-427 1040h313l304 -712l261 712h16l-370 -1040h-97zM95 0v15h196v-15h-196zM185 0v1005h-100v15h116v-1020h-16zM1006 0v15h510v-15h-510zM1081 0v1020h400v-15h-90v-1005h-310z" />
    <glyph glyph-name="n.sc" horiz-adv-x="1284" 
d="M974 -20l-724 1040h365l421 -606v606h16v-1040h-78zM85 0v15h338v-15h-338zM246 0v1005h-161v15h177v-1020h-16zM865 1005v15h349v-15h-349z" />
    <glyph glyph-name="nacute.sc" horiz-adv-x="1284" 
d="M974 -20l-724 1040h365l421 -606v606h16v-1040h-78zM85 0v15h338v-15h-338zM246 0v1005h-161v15h177v-1020h-16zM865 1005v15h349v-15h-349zM603 1203l-8 10l168 248q29 48 71 60t80.5 -1.5t56.5 -41.5q22 -32 18 -73t-31 -74t-75 -43z" />
    <glyph glyph-name="ncaron.sc" horiz-adv-x="1284" 
d="M974 -20l-724 1040h365l421 -606v606h16v-1040h-78zM85 0v15h338v-15h-338zM246 0v1005h-161v15h177v-1020h-16zM865 1005v15h349v-15h-349zM613 1220l-240 270l8 8l317 -138l316 138l9 -8l-240 -270h-170z" />
    <glyph glyph-name="eng.sc" horiz-adv-x="1435" 
d="M832 -520q-89 0 -157 32t-106 86t-38 120q0 73 47.5 118.5t116.5 45.5q40 0 76.5 -18.5t60.5 -52.5t24 -82q0 -60 -42.5 -104.5t-114.5 -44.5q-44 0 -82 20t-61 51.5t-23 66.5h13q0 -62 37 -113t101 -81t145 -30q72 0 106.5 49t46 129t10.5 176.5t-1 191.5v662l280 37
l-1 -762q0 -97 -31.5 -186.5t-90 -159.5t-138.5 -110.5t-178 -40.5zM57 0v15h554v-15h-554zM197 0v1005h-140v15h416v-1020h-276zM462 551q0 70 24 153.5t75.5 160t134 125.5t199.5 49q135 0 218 -38.5t120.5 -106.5t37.5 -155l-280 -37q0 88 -22 148t-64.5 91t-102.5 31
q-70 0 -130 -35.5t-104.5 -96.5t-69.5 -136t-25 -153h-11z" />
    <glyph glyph-name="ntilde.sc" horiz-adv-x="1284" 
d="M974 -20l-724 1040h365l421 -606v606h16v-1040h-78zM85 0v15h338v-15h-338zM246 0v1005h-161v15h177v-1020h-16zM865 1005v15h349v-15h-349zM864 1180q-58 0 -105 24t-88 55t-85 55t-97 24q-54 0 -90 -31t-36 -87h-15q0 85 23 151.5t68 104.5t109 38q61 0 106.5 -24
t84 -55t77.5 -55t87 -24q61 0 93.5 31.5t32.5 86.5h15q0 -95 -14 -160.5t-53 -99.5t-113 -34z" />
    <glyph glyph-name="o.sc" horiz-adv-x="1289" 
d="M644 -20q-160 0 -287.5 64.5t-202 183.5t-74.5 282t78 282t207 183.5t279 64.5q152 0 280.5 -64.5t206.5 -183.5t78 -282t-74 -282t-202 -183.5t-289 -64.5zM644 -6q67 0 112.5 41t72.5 112.5t39 164.5t12 198t-14.5 198t-44 164.5t-74 112.5t-103.5 41t-103 -41
t-73.5 -112.5t-44 -164.5t-14.5 -198t12 -198t39 -164.5t72 -112.5t112 -41z" />
    <glyph glyph-name="oacute.sc" horiz-adv-x="1289" 
d="M644 -20q-160 0 -287.5 64.5t-202 183.5t-74.5 282t78 282t207 183.5t279 64.5q152 0 280.5 -64.5t206.5 -183.5t78 -282t-74 -282t-202 -183.5t-289 -64.5zM644 -6q67 0 112.5 41t72.5 112.5t39 164.5t12 198t-14.5 198t-44 164.5t-74 112.5t-103.5 41t-103 -41
t-73.5 -112.5t-44 -164.5t-14.5 -198t12 -198t39 -164.5t72 -112.5t112 -41zM550 1203l-8 10l168 248q29 48 71 60t80.5 -1.5t56.5 -41.5q22 -32 18 -73t-31 -74t-75 -43z" />
    <glyph glyph-name="ocircumflex.sc" horiz-adv-x="1289" 
d="M644 -20q-160 0 -287.5 64.5t-202 183.5t-74.5 282t78 282t207 183.5t279 64.5q152 0 280.5 -64.5t206.5 -183.5t78 -282t-74 -282t-202 -183.5t-289 -64.5zM644 -6q67 0 112.5 41t72.5 112.5t39 164.5t12 198t-14.5 198t-44 164.5t-74 112.5t-103.5 41t-103 -41
t-73.5 -112.5t-44 -164.5t-14.5 -198t12 -198t39 -164.5t72 -112.5t112 -41zM328 1229l-8 8l240 270h170l240 -270l-8 -8l-318 138z" />
    <glyph glyph-name="odieresis.sc" horiz-adv-x="1289" 
d="M644 -20q-160 0 -287.5 64.5t-202 183.5t-74.5 282t78 282t207 183.5t279 64.5q152 0 280.5 -64.5t206.5 -183.5t78 -282t-74 -282t-202 -183.5t-289 -64.5zM644 -6q67 0 112.5 41t72.5 112.5t39 164.5t12 198t-14.5 198t-44 164.5t-74 112.5t-103.5 41t-103 -41
t-73.5 -112.5t-44 -164.5t-14.5 -198t12 -198t39 -164.5t72 -112.5t112 -41zM831 1205q-47 0 -81 34t-34 81q0 48 34 82t81 34q48 0 82 -34t34 -82q0 -47 -34 -81t-82 -34zM457 1205q-47 0 -81 34t-34 81q0 48 34 82t81 34q48 0 82 -34t34 -82q0 -47 -34 -81t-82 -34z" />
    <glyph glyph-name="ograve.sc" horiz-adv-x="1289" 
d="M644 -20q-160 0 -287.5 64.5t-202 183.5t-74.5 282t78 282t207 183.5t279 64.5q152 0 280.5 -64.5t206.5 -183.5t78 -282t-74 -282t-202 -183.5t-289 -64.5zM644 -6q67 0 112.5 41t72.5 112.5t39 164.5t12 198t-14.5 198t-44 164.5t-74 112.5t-103.5 41t-103 -41
t-73.5 -112.5t-44 -164.5t-14.5 -198t12 -198t39 -164.5t72 -112.5t112 -41zM736 1203l-279 85q-49 10 -76 43t-30.5 74t17.5 73q19 28 57 41.5t80.5 1.5t71.5 -60l167 -248z" />
    <glyph glyph-name="ohungarumlaut.sc" horiz-adv-x="1289" 
d="M644 -20q-160 0 -287.5 64.5t-202 183.5t-74.5 282t78 282t207 183.5t279 64.5q152 0 280.5 -64.5t206.5 -183.5t78 -282t-74 -282t-202 -183.5t-289 -64.5zM644 -6q67 0 112.5 41t72.5 112.5t39 164.5t12 198t-14.5 198t-44 164.5t-74 112.5t-103.5 41t-103 -41
t-73.5 -112.5t-44 -164.5t-14.5 -198t12 -198t39 -164.5t72 -112.5t112 -41zM318 1202l-8 10l168 248q29 48 71 60t80.5 -1.5t56.5 -41.5q22 -32 18 -73t-31 -74t-75 -43zM778 1202l-8 10l168 248q29 48 71 60t80.5 -1.5t56.5 -41.5q22 -32 18 -73t-31 -74t-75 -43z" />
    <glyph glyph-name="oslash.sc" horiz-adv-x="1289" 
d="M133 -60l1014 1141h19l-1015 -1141h-18zM644 -20q-160 0 -287.5 64.5t-202 183.5t-74.5 282t78 282t207 183.5t279 64.5q152 0 280.5 -64.5t206.5 -183.5t78 -282t-74 -282t-202 -183.5t-289 -64.5zM644 -6q67 0 112.5 41t72.5 112.5t39 164.5t12 198t-14.5 198
t-44 164.5t-74 112.5t-103.5 41t-103 -41t-73.5 -112.5t-44 -164.5t-14.5 -198t12 -198t39 -164.5t72 -112.5t112 -41z" />
    <glyph glyph-name="otilde.sc" horiz-adv-x="1289" 
d="M644 -20q-160 0 -287.5 64.5t-202 183.5t-74.5 282t78 282t207 183.5t279 64.5q152 0 280.5 -64.5t206.5 -183.5t78 -282t-74 -282t-202 -183.5t-289 -64.5zM644 -6q67 0 112.5 41t72.5 112.5t39 164.5t12 198t-14.5 198t-44 164.5t-74 112.5t-103.5 41t-103 -41
t-73.5 -112.5t-44 -164.5t-14.5 -198t12 -198t39 -164.5t72 -112.5t112 -41zM811 1180q-58 0 -105 24t-88 55t-85 55t-97 24q-54 0 -90 -31t-36 -87h-15q0 85 23 151.5t68 104.5t109 38q61 0 106.5 -24t84 -55t77.5 -55t87 -24q61 0 93.5 31.5t32.5 86.5h15
q0 -95 -14 -160.5t-53 -99.5t-113 -34z" />
    <glyph glyph-name="oe.sc" horiz-adv-x="1708" 
d="M645 1020q-156 0 -284 -59.5t-204.5 -173.5t-76.5 -277t72.5 -277t200 -173.5t292.5 -59.5l15 15q-98 0 -152.5 69t-76.5 182t-22 244q0 132 26 244.5t81.5 181.5t143.5 69zM1330 377q-10 52 -45 87.5t-77.5 54.5t-77.5 19h-110v15h110q35 0 77.5 16.5t77.5 50.5t45 86
h16v-329h-16zM1582 350h16v-350h-953v15h131v990h-131v15h944v-310h-16q-12 95 -56.5 160.5t-106.5 100t-129 34.5h-195v-990h164q87 0 158 36t116.5 110t57.5 189z" />
    <glyph glyph-name="p.sc" horiz-adv-x="1205" 
d="M435 389v15h200q71 0 113 38.5t60 106.5t18 155t-18 155t-60 107t-113 39h-550v15h575q151 0 259.5 -30t167 -99t58.5 -187q0 -117 -58.5 -186t-167 -99t-259.5 -30h-225zM85 0v15h571v-15h-571zM216 0v1020h310v-1020h-310z" />
    <glyph glyph-name="thorn.sc" horiz-adv-x="1225" 
d="M435 194v15h210q63 0 103 40.5t59 108.5t19 151t-19 151.5t-59 109t-103 40.5h-180v15h180q264 0 392 -79t128 -237q0 -157 -128 -236t-392 -79h-210zM85 0v15h670v-15h-670zM256 0v1020h309v-1020h-309zM85 1005v15h670v-15h-670z" />
    </font>
</defs>
</svg>
