<svg width="133" height="38" viewBox="0 0 133 38" fill="none" xmlns="http://www.w3.org/2000/svg">
<path d="M25.8129 2.69922V9.79921H17.422V36.6149H9.32449V9.74053H0.933594V2.69922H25.8129Z" fill="white"/>
<path d="M36.1386 36.6178H28.6865V10.2129H36.1386V15.2591C37.5468 11.6798 39.8353 9.5674 43.884 9.86079V17.6649C38.603 17.2542 36.1386 18.5451 36.1386 22.7699V36.6178Z" fill="white"/>
<path d="M84.7233 36.85C79.7944 36.85 76.7432 34.5029 76.7432 28.9286V0.000488281H84.2539V27.8724C84.2539 29.4566 85.3101 30.0434 86.601 30.0434C86.9531 30.0434 87.3638 30.0434 87.7159 29.9848V36.498C86.7184 36.7327 85.7208 36.85 84.7233 36.85Z" fill="white"/>
<path d="M100.451 36.85C95.5219 36.85 92.4707 34.5029 92.4707 28.9286V0.000488281H99.9814V27.8724C99.9814 29.4566 101.038 30.0434 102.329 30.0434C102.681 30.0434 103.091 30.0434 103.443 29.9848V36.498C102.446 36.7327 101.448 36.85 100.451 36.85Z" fill="white"/>
<path d="M107.022 23.412C107.022 15.2558 111.717 9.6814 119.814 9.6814C127.912 9.6814 132.489 15.2558 132.489 23.412C132.489 31.5681 127.853 37.2599 119.814 37.2599C111.775 37.2599 107.022 31.5095 107.022 23.412ZM114.357 23.412C114.357 27.402 116 30.5119 119.814 30.5119C123.628 30.5119 125.154 27.3434 125.154 23.412C125.154 19.4806 123.511 16.3706 119.814 16.3706C116.117 16.3706 114.357 19.4219 114.357 23.412Z" fill="white"/>
<path d="M53.9763 25.8188C56.0887 26.0535 58.2011 26.1709 60.2548 26.1709C66.0052 26.1709 70.8168 24.6452 70.8168 19.0709C70.8168 13.6725 65.8292 9.62378 59.8441 9.62378C51.8052 9.62378 46.6416 15.4915 46.6416 23.5891C46.6416 32.0386 51.1011 37.0849 61.135 37.0849C64.1275 37.1436 67.0614 36.6155 69.8779 35.5593V29.2221C67.2961 30.0436 64.3622 30.8651 61.4284 30.8651C57.4383 30.9238 54.6804 29.5742 53.9763 25.8188ZM59.7267 15.4329C61.8391 15.4329 63.5408 16.8411 63.5408 18.8362C63.5408 21.3593 60.8416 22.1808 57.7903 22.1808C56.4994 22.1808 55.1499 22.0634 53.8589 21.8874C53.9763 20.6552 54.3284 19.4816 54.9151 18.3667C55.854 16.5477 57.7317 15.4329 59.7267 15.4329Z" fill="white"/>
</svg>
