<svg width="600" height="432" viewBox="0 0 600 432" fill="none" xmlns="http://www.w3.org/2000/svg">
<g filter="url(#filter0_d_77_3)">
<path d="M302.171 28.4461C300.623 27.5514 298.714 27.5514 297.166 28.4461L138.498 120.154C136.952 121.047 136 122.697 136 124.483V307.907C136 309.693 136.952 311.343 138.498 312.236L297.166 403.944C298.715 404.838 300.623 404.838 302.171 403.944L460.839 312.236C462.385 311.343 463.337 309.693 463.337 307.907V124.483C463.337 122.697 462.385 121.047 460.839 120.154L302.171 28.4461ZM220.777 153.13C216.534 153.13 214.219 148.177 216.942 144.922L295.733 50.7242C297.765 48.2954 301.514 48.3427 303.484 50.8221L378.314 145.02C380.916 148.296 378.583 153.13 374.398 153.13H220.777ZM377.741 163.14C381.558 163.14 383.967 167.244 382.108 170.577L303.925 310.674C302.041 314.049 297.204 314.102 295.247 310.768L212.996 170.672C211.039 167.339 213.443 163.14 217.308 163.14H377.741ZM284.753 312.123C286.902 315.772 283.823 320.274 279.643 319.595L157.556 299.761C154.435 299.254 152.563 296.014 153.682 293.056L196.875 178.903C198.36 174.977 203.73 174.519 205.86 178.136L284.753 312.123ZM389.225 178.662C391.265 175.014 396.614 175.33 398.21 179.193L445.411 293.448C446.642 296.427 444.774 299.776 441.592 300.292L319.397 320.144C315.267 320.814 312.189 316.419 314.231 312.768L389.225 178.662ZM399.455 149.678C397.32 150.808 394.682 150.248 393.188 148.35L328.745 66.4371C325.341 62.1098 330.409 56.2617 335.176 59.0162L439.993 119.577C443.397 121.544 443.304 126.489 439.829 128.327L399.455 149.678ZM201.274 148.358C199.711 150.244 197.013 150.72 194.899 149.484L158.934 128.441C155.625 126.504 155.637 121.717 158.956 119.797L261.493 60.4939C266.322 57.701 271.406 63.7167 267.846 68.0122L201.274 148.358ZM189.881 158.007C192.002 159.235 192.92 161.82 192.049 164.111L155.684 259.808C153.711 265 146.01 263.586 146.01 258.032V141.281C146.01 137.429 150.182 135.024 153.515 136.954L189.881 158.007ZM290.454 331.64C292.879 332.029 294.663 334.121 294.663 336.578V382.221C294.663 386.068 290.499 388.474 287.166 386.553L177.544 323.354C172.735 320.581 175.351 313.207 180.832 314.085L290.454 331.64ZM304.674 336.578C304.674 334.121 306.458 332.029 308.883 331.64L418.505 314.085C423.986 313.207 426.602 320.581 421.793 323.354L312.171 386.553C308.838 388.474 304.674 386.069 304.674 382.221V336.578ZM403.013 164.329C402.026 161.951 403.006 159.213 405.278 158.001L446.474 136.03C449.805 134.254 453.827 136.667 453.827 140.442V261.676C453.827 267.145 446.306 268.644 444.209 263.593L403.013 164.329Z" fill="#FFBFBF"/>
<path d="M296.666 27.5804L137.998 119.288C136.143 120.36 135 122.34 135 124.483V307.907C135 310.05 136.143 312.03 137.998 313.102L296.666 404.809C298.524 405.883 300.813 405.883 302.671 404.809L461.339 313.102C463.194 312.03 464.337 310.05 464.337 307.907V124.483C464.337 122.34 463.194 120.36 461.339 119.288L302.671 27.5804C300.813 26.5067 298.524 26.5067 296.666 27.5804ZM217.709 145.564L296.5 51.3658C298.126 49.4227 301.125 49.4606 302.701 51.4441L377.531 145.642C379.613 148.263 377.746 152.13 374.398 152.13H220.777C217.382 152.13 215.531 148.168 217.709 145.564ZM381.234 170.09L303.051 310.186C301.545 312.886 297.675 312.929 296.109 310.262L213.859 170.165C212.293 167.499 214.216 164.14 217.308 164.14H377.741C380.795 164.14 382.722 167.423 381.234 170.09ZM279.803 318.608L157.717 298.774C155.22 298.369 153.722 295.776 154.617 293.41L197.81 179.257C198.998 176.117 203.294 175.75 204.998 178.643L283.891 312.63C285.611 315.55 283.148 319.151 279.803 318.608ZM397.286 179.575L444.487 293.83C445.472 296.213 443.977 298.892 441.432 299.305L319.237 319.157C315.933 319.693 313.47 316.177 315.104 313.256L390.097 179.15C391.729 176.232 396.009 176.485 397.286 179.575ZM393.974 147.731L329.531 65.8188C326.807 62.357 330.862 57.6785 334.676 59.882L439.493 120.443C442.216 122.016 442.142 125.972 439.362 127.443L398.988 148.794C397.279 149.698 395.169 149.25 393.974 147.731ZM195.404 148.621L159.44 127.578C156.792 126.028 156.802 122.198 159.457 120.663L261.994 61.3596C265.857 59.1252 269.924 63.9378 267.076 67.3742L200.504 147.72C199.254 149.229 197.095 149.61 195.404 148.621ZM191.115 163.755L154.749 259.453C153.171 263.607 147.01 262.476 147.01 258.032V141.281C147.01 138.2 150.348 136.275 153.014 137.819L189.38 158.873C191.076 159.855 191.811 161.923 191.115 163.755ZM293.663 336.578V382.221C293.663 385.299 290.332 387.224 287.666 385.686L178.044 322.488C174.196 320.27 176.289 314.37 180.674 315.073L290.296 332.628C292.236 332.939 293.663 334.613 293.663 336.578ZM309.041 332.628L418.663 315.073C423.048 314.37 425.141 320.27 421.293 322.488L311.671 385.686C309.005 387.224 305.674 385.299 305.674 382.221V336.578C305.674 334.613 307.101 332.939 309.041 332.628ZM405.749 158.883L446.945 136.912C449.609 135.491 452.827 137.422 452.827 140.442V261.676C452.827 266.051 446.81 267.25 445.133 263.209L403.937 163.946C403.147 162.044 403.931 159.853 405.749 158.883Z" stroke="#FF6F6F" stroke-width="2"/>
</g>
<g clip-path="url(#clip0_77_3)">
<g clip-path="url(#clip1_77_3)">
<g clip-path="url(#clip2_77_3)">
<g clip-path="url(#clip3_77_3)">
<path d="M0.0141602 259.917V170H40.862C50.6244 170 59.2563 171.858 66.758 175.575C74.2424 179.309 80.0656 184.558 84.2275 191.323C88.3722 198.088 90.4445 205.967 90.4445 214.958C90.4445 223.95 88.3722 231.828 84.2275 238.594C80.0656 245.359 74.2424 250.6 66.758 254.316C59.2563 258.05 50.6244 259.917 40.862 259.917H0.0141602ZM20.8234 242.833H39.8344C48.826 242.833 56.0022 240.323 61.363 235.305C66.7066 230.304 69.3784 223.522 69.3784 214.958C69.3784 206.395 66.7066 199.604 61.363 194.586C56.0022 189.585 48.826 187.084 39.8344 187.084H20.8234V242.833ZM126.797 243.218H175.737V259.917H106.116V170H174.067V186.699H126.797V206.224H168.544V222.409H126.797V243.218ZM245.204 261.458C239.124 261.458 233.54 260.319 228.454 258.041C223.35 255.781 219.171 252.552 215.917 248.356L227.477 234.483C232.359 241.077 237.925 244.374 244.176 244.374C252.654 244.374 256.893 239.407 256.893 229.474V186.699H225.294V170H277.574V228.317C277.574 239.364 274.834 247.645 269.353 253.16C263.872 258.692 255.823 261.458 245.204 261.458ZM338.075 261.458C325.23 261.458 315.236 257.904 308.094 250.797C300.935 243.689 297.355 233.541 297.355 220.353V170H318.165V219.583C318.165 235.682 324.844 243.732 338.203 243.732C344.712 243.732 349.678 241.779 353.104 237.874C356.529 233.986 358.242 227.889 358.242 219.583V170H378.794V220.353C378.794 233.541 375.223 243.689 368.081 250.797C360.922 257.904 350.92 261.458 338.075 261.458ZM500.695 259.917H481.171L481.042 205.967L454.581 250.411H445.204L418.871 207.123V259.917H399.347V170H416.559L450.214 225.877L483.354 170H500.439L500.695 259.917ZM560.94 170C568.904 170 575.814 171.327 581.672 173.982C587.546 176.637 592.068 180.405 595.236 185.286C598.405 190.167 599.989 195.947 599.989 202.627C599.989 209.221 598.405 214.976 595.236 219.891C592.068 224.824 587.546 228.591 581.672 231.195C575.814 233.815 568.904 235.125 560.94 235.125H542.828V259.917H522.018V170H560.94ZM559.783 218.17C566.035 218.17 570.788 216.825 574.042 214.136C577.296 211.43 578.923 207.594 578.923 202.627C578.923 197.574 577.296 193.695 574.042 190.989C570.788 188.3 566.035 186.956 559.783 186.956H542.828V218.17H559.783Z" fill="white"/>
</g>
</g>
</g>
</g>
<defs>
<filter id="filter0_d_77_3" x="109" y="0.775085" width="381.337" height="430.84" filterUnits="userSpaceOnUse" color-interpolation-filters="sRGB">
<feFlood flood-opacity="0" result="BackgroundImageFix"/>
<feColorMatrix in="SourceAlpha" type="matrix" values="0 0 0 0 0 0 0 0 0 0 0 0 0 0 0 0 0 0 127 0" result="hardAlpha"/>
<feOffset/>
<feGaussianBlur stdDeviation="12.5"/>
<feComposite in2="hardAlpha" operator="out"/>
<feColorMatrix type="matrix" values="0 0 0 0 1 0 0 0 0 0 0 0 0 0 0 0 0 0 1 0"/>
<feBlend mode="normal" in2="BackgroundImageFix" result="effect1_dropShadow_77_3"/>
<feBlend mode="normal" in="SourceGraphic" in2="effect1_dropShadow_77_3" result="shape"/>
</filter>
<clipPath id="clip0_77_3">
<rect width="600" height="91.4581" fill="white" transform="translate(0 170)"/>
</clipPath>
<clipPath id="clip1_77_3">
<rect width="600" height="91.4581" fill="white" transform="translate(0 170)"/>
</clipPath>
<clipPath id="clip2_77_3">
<rect width="600" height="91.4581" fill="white" transform="translate(0 170)"/>
</clipPath>
<clipPath id="clip3_77_3">
<rect width="600" height="91.4581" fill="white" transform="translate(0 170)"/>
</clipPath>
</defs>
</svg>
