<svg width="376" height="72" viewBox="0 0 376 72" fill="none" xmlns="http://www.w3.org/2000/svg">
<rect width="72" height="72" rx="16" fill="url(#paint0_radial_177_1657)"/>
<path d="M26.7493 12.0396L27.2031 12.1254L27.4962 12.226L27.6403 12.3035L27.9301 12.4751L28.0775 12.5905L28.3739 12.8429L28.5279 13.0029L28.8442 13.3476L29.0115 13.5571L29.356 14.0058L29.5414 14.2714L29.9256 14.8322L30.136 15.1604L30.5698 15.8466L30.8083 16.2408L31.1842 16.8478L31.4128 17.2091L31.5088 17.3559L31.6893 17.6248L31.7523 17.7122L31.8102 17.793L31.8301 17.8177L31.8665 17.8606L31.8748 17.8656L31.951 17.854L32.0487 17.8194L32.1182 17.7897L32.2723 17.7237L32.3683 17.6792L32.5703 17.5835L32.6863 17.5258L33.1947 17.2734L33.4944 17.1167L34.1204 16.7852L34.4566 16.6004L35.4403 16.0709L36.0663 15.7427L36.366 15.5909L36.9539 15.2957L37.2354 15.1604L37.7886 14.8965L38.0519 14.7777L39.077 14.3291L39.5456 14.1509L40.4548 13.8243L40.8721 13.7039L41.6836 13.4944L42.0579 13.4301L42.7898 13.3295L43.131 13.3196L43.8 13.3262L44.118 13.3674L44.7423 13.4747L45.0437 13.5637L45.7624 13.8738L46.2526 14.1707L46.4812 14.3489L46.9217 14.7167L47.0989 14.9097L47.2695 15.1027L47.3407 15.1984L47.4698 15.3881L47.5179 15.4804L47.8474 16.3332L47.9766 16.9402L47.9965 17.2586L48.0097 17.9052L47.9749 18.2384L47.8756 18.9097L47.7861 19.2511L47.5791 19.9324L47.4351 20.2722L47.1237 20.9501L46.93 21.2833L46.5176 21.9431L46.2742 22.2631L45.7658 22.8899L45.476 23.1885L44.8086 23.812L44.2935 24.2408L44.0087 24.4602L43.4191 24.8973L43.1028 25.1151L42.4586 25.5472L42.1224 25.7584L40.7463 26.5798L40.0507 26.9361L39.3585 27.2825L39.019 27.4359L38.3483 27.7278L38.0287 27.8499L37.7654 27.9885L37.6577 28.0841V28.1204L37.6859 28.2029L37.7306 28.3052L37.767 28.3794L37.8482 28.5427L37.9012 28.6466L38.0154 28.8676L38.085 28.9996L38.2324 29.2784L38.3185 29.4384L38.4974 29.7732L38.5984 29.9596L38.807 30.3456L38.923 30.5567L39.1614 30.9938L39.2923 31.2314L39.5589 31.7163L39.703 31.9769L39.9977 32.5097L40.1551 32.7918L40.4747 33.3691L40.6453 33.6742L40.9914 34.2928L41.1735 34.6194L41.5428 35.2792L41.7349 35.6239L42.1274 36.3217L42.3328 36.6862L43.1707 38.174L43.6212 38.9691L44.123 39.8664L44.4326 40.4289L44.5734 40.6911L44.8483 41.2008L44.9692 41.4334L45.2044 41.8837L45.3037 42.0833L45.4958 42.4676L45.5737 42.6326L45.7177 42.9427L45.7724 43.0681L45.8668 43.299L45.8949 43.3831L45.9363 43.5283V43.5662L45.8602 43.7608L45.7459 43.873L45.6747 43.8994L45.2723 43.9934L45.0189 43.9901L44.8963 43.9555L44.6529 43.8615L44.532 43.779L44.2919 43.5926L44.171 43.4639L44.0037 43.2775L43.8712 43.1241L43.7967 43.0334L43.6377 42.8404L43.55 42.7316L43.3678 42.5023L43.2668 42.3736L42.8412 41.8227L42.5944 41.4961L42.0761 40.8083L41.783 40.414L41.1785 39.5942L40.8456 39.139L40.16 38.1955L39.7891 37.6808L39.0289 36.6235L38.6232 36.0544L37.7935 34.8883L37.3547 34.2681L36.7072 33.3542L36.2932 32.7703L36.0994 32.4965L35.7168 31.9604L35.5413 31.713L35.2018 31.2363L35.0511 31.0252L34.763 30.621L34.6404 30.4495L34.4102 30.1311L34.3208 30.0074L34.1618 29.7864L34.1105 29.7171L34.0277 29.6066L34.0194 29.5984L33.9167 29.5951L33.7776 29.6182L33.6766 29.6412L33.4514 29.6957L33.3106 29.7336L33.0109 29.8144L32.837 29.8656L32.471 29.9711L32.2673 30.0322L31.845 30.1608L31.6165 30.2301L30.6593 30.5303L30.1343 30.7002L29.0595 31.0516L28.5047 31.2363L27.3919 31.6124L26.847 31.8021L25.7723 32.1782L25.2771 32.3579L24.7886 32.5344L24.5617 32.6202L24.1146 32.7868L23.9109 32.866L22.6191 33.3823L21.7994 33.7303L21.4102 33.9052L20.6451 34.2565L20.2824 34.4347L19.572 34.7926L19.2358 34.9724L18.5767 35.3369L18.2654 35.5217L17.6576 35.8928L17.3728 36.0808L16.8147 36.4602L16.553 36.6532L16.043 37.0425L15.8061 37.2404L15.3441 37.6396L15.1305 37.8425L14.7148 38.2532L14.5244 38.4627L14.1534 38.8866L13.9845 39.1027L13.6582 39.5382L13.5109 39.7625L13.226 40.2128L13.1002 40.4437L12.8584 40.9089L12.7524 41.1481L12.3682 42.1196L12.234 42.6326L12.037 43.6602L11.974 44.3596V44.7126L11.9972 45.4186L12.0403 45.7699L12.1463 46.4693L12.2291 46.814L12.4146 47.4953L12.5371 47.8252L12.8004 48.4751L12.9594 48.7852L13.2972 49.3922L13.4926 49.6759L13.9017 50.2268L14.1319 50.4759L14.9185 51.2099L15.5147 51.6553L15.8459 51.8565L16.5298 52.2441L16.9041 52.414L17.6692 52.7406L18.0816 52.8792L18.9212 53.1398L19.3667 53.247L20.2742 53.4417L20.7511 53.5142L21.7182 53.6396L22.2217 53.6775L23.2418 53.732H24.6064L23.79 52.7835L22.8493 51.5959L22.2763 50.7744L22.018 50.3522L21.5195 49.501L21.3009 49.0672L20.8819 48.193L20.7031 47.7509L20.3669 46.8619L20.2295 46.4149L19.9794 45.5208L19.8867 45.0738L19.7227 44.1798L19.6763 43.7361L19.6051 42.852V42.4165L19.62 41.6297L19.6465 41.2157L19.6714 41.0474L19.7277 40.7373L19.7691 40.6054L19.8618 40.3514L19.9247 40.2293L20.1814 39.8087L20.3934 39.5349L20.5176 39.4012L20.7776 39.1357L20.9283 39.0054L21.238 38.7497L21.4119 38.6243L21.7729 38.3769L21.97 38.2565L22.3774 38.0206L22.5976 37.9052L23.0514 37.6775L23.2948 37.5687L23.7916 37.3526L24.0582 37.247L24.5998 37.0425L24.8879 36.9435L25.4725 36.7505L25.7805 36.6582L27.054 36.3019L27.7512 36.1419L29.1837 35.8367L29.9571 35.7048L31.5403 35.454L32.3832 35.3501L32.9463 35.2808L33.2858 35.2396L33.4381 35.2215L34.0045 35.1571L34.2314 35.1373L34.647 35.1043L34.8093 35.1027L35.1058 35.1093L35.2217 35.1291L35.432 35.1802L35.5148 35.2231L35.6705 35.3237L35.7384 35.393L35.8709 35.5481L35.9388 35.6487L36.0812 35.8631L36.1656 35.9951L36.4008 36.3448L36.5482 36.5493L36.6111 36.6318L36.732 36.7802L36.7751 36.8264L36.8529 36.899L36.8695 36.9006L36.9572 36.9468L36.9937 37.0095V37.0491L36.9523 37.0821L36.8844 37.1052L36.833 37.12L36.5813 37.1761L36.3975 37.2074L35.9951 37.2701L35.7533 37.2998L35.2432 37.3608L34.965 37.3889L33.193 37.5835L32.0338 37.7336L31.474 37.8177L30.3645 37.9909L29.8379 38.0833L28.8012 38.273L28.3193 38.3736L27.377 38.5765L26.9497 38.6821L26.125 38.8949L25.764 39.0021L25.0767 39.2182L24.7935 39.3254L24.5203 39.4342L24.3994 39.487L24.1692 39.5942L24.0715 39.647L23.2931 40.1567L22.8427 40.5377L22.6639 40.7357L22.3426 41.1316L22.2432 41.3196L22.1554 41.506L22.1289 41.5934L22.0892 41.765V41.8441L22.1505 42.212L22.2498 42.4561L22.3293 42.5782L22.5082 42.8223L22.6241 42.9427L22.8775 43.1802L23.0315 43.299L23.3561 43.5316L23.5449 43.6454L23.939 43.8697L24.1609 43.9786L24.6213 44.193L24.8763 44.2953L25.403 44.4982L25.6878 44.5938L26.7742 44.9188L27.5691 45.1217L27.9996 45.2157L28.8807 45.3988L29.3493 45.4812L30.3049 45.6445L30.8083 45.7188L31.8284 45.8606L32.3584 45.9233L33.4315 46.0437L33.9846 46.0965L36.2352 46.2829L37.401 46.3439L39.7477 46.4396L40.9284 46.4511L43.2867 46.4528L44.4409 46.4165L45.5886 46.3736L46.15 46.3423L47.2661 46.273L47.8077 46.2285L48.8808 46.1344L49.3975 46.0767L50.416 45.9547L50.9028 45.8837L52.4844 45.6132L53.473 45.4021L53.9334 45.2833L54.831 45.0359L55.2433 44.899L56.0399 44.6169L56.3976 44.4635L57.0865 44.1518L57.3879 43.9852L57.9609 43.6454L58.2027 43.4656L58.6515 43.1027L58.8287 42.913L59.1483 42.527L59.256 42.3291L59.4332 41.981L59.4928 41.8161L59.4911 41.7435L59.4712 41.5984L59.4298 41.5109L59.3288 41.318L59.2477 41.1794L59.0655 40.9237L58.9082 40.7472L58.8154 40.6582L58.3981 40.2969L58.1414 40.1204L57.6016 39.774L57.3018 39.6173L56.6874 39.3171L56.3695 39.1967L55.5249 38.9081L54.8956 38.7184L54.5544 38.626L53.8523 38.4462L53.478 38.3588L52.7179 38.1889L52.3221 38.1097L50.6991 37.8062L49.8595 37.6825L48.1753 37.4582L47.3539 37.3839L46.8306 37.3328L46.5259 37.2998L46.3934 37.285L46.1433 37.252L46.0357 37.2355L45.8353 37.2025L45.7509 37.1843L45.4594 37.1134L45.3683 37.0738L45.2226 36.9881L45.1911 36.9386L44.8814 36.4074L44.6446 35.9802L44.5353 35.774L44.4277 35.5711L44.3813 35.4804L44.2935 35.3072L44.2588 35.2363L44.1975 35.1076L44.1809 35.0664L44.1561 35.0004L44.161 34.9971L44.219 34.9938L44.3051 34.9955L44.3714 34.9971L44.5154 35.0004L44.6065 35.0054L44.8019 35.012L44.9162 35.0186L45.4147 35.0417L45.7144 35.0565L46.3404 35.0911L46.6816 35.1109L48.6539 35.2693L49.9473 35.4144L50.5782 35.5068L51.8269 35.7048L52.4281 35.8202L53.6138 36.0627L54.1785 36.1996L55.2831 36.4833L55.7998 36.64L56.805 36.96L57.2654 37.1332L58.1547 37.4878L58.5488 37.6759L59.304 38.0586L59.6236 38.2582L60.238 38.6788L60.5974 38.9658L60.7514 39.1159L61.0461 39.4177L61.172 39.5761L61.4055 39.8994L61.5016 40.0726L61.6788 40.4239L61.7467 40.612L61.8709 40.998L61.9156 41.2058L61.9901 41.6347L62.01 41.8656L62.0381 42.3406L62.0365 42.598L61.9321 43.9456L61.7665 44.8742L61.639 45.3493L61.3542 46.306L61.1703 46.7876L60.7729 47.7575L60.5344 48.2408L60.0326 49.2074L59.7445 49.6841L59.1433 50.6342L58.8088 51.0977L58.1182 52.0149L57.7407 52.4586L56.9656 53.3295L56.55 53.7435L55.2284 54.9608L54.3226 55.7031L53.8539 56.0396L52.9083 56.6911L52.4198 56.9831L51.4311 57.5456L50.9194 57.793L49.8844 58.2681L49.3495 58.4726L48.2664 58.8619L47.7033 59.0252L46.5673 59.3287L45.9777 59.4507L44.7837 59.6718L44.1644 59.7542L43.6146 59.8186L43.3115 59.8483L42.6921 59.901L42.3841 59.9225L41.7714 59.9604L41.4931 59.9703L40.9616 59.9852L40.7529 59.9835L39.0389 59.906L37.9012 59.7988L37.3365 59.718L36.2137 59.5382L35.6605 59.4227L34.5609 59.172L34.0244 59.0219L32.9579 58.7035L32.4412 58.5204L31.4161 58.1377L30.9242 57.9233L29.9505 57.4779L29.4868 57.2322L28.5743 56.7274L28.1454 56.4536L27.478 56L27.3107 55.873L27.2528 55.8235L27.1551 55.7361L27.1418 55.713L26.9746 55.6487L26.7477 55.6223L26.5821 55.6157L26.2144 55.6107L25.9809 55.6157L25.4808 55.6322L25.1844 55.6487L23.8678 55.6866L23.0067 55.6784L22.5877 55.6553L21.753 55.6008L21.3473 55.5563L20.5408 55.4557L20.1483 55.3881L19.37 55.2412L18.9907 55.1505L18.2422 54.9575L17.8795 54.8454L17.1608 54.6078L16.813 54.4709L16.1274 54.1889L15.7962 54.0305L15.0328 53.6347L14.5956 53.3674L14.3869 53.2124L13.9696 52.8825L13.7394 52.6747L13.5059 52.4586L13.38 52.3365L13.1184 52.0808L12.9726 51.9357L12.1827 51.0796L11.7223 50.5138L11.5253 50.2301L11.1526 49.6577L10.9986 49.3674L10.7088 48.7786L10.5929 48.4734L10.3793 47.8565L10.3014 47.5332L10.1623 46.8751L10.1176 46.527L10.0481 45.8161L10.0365 45.4384L10.0315 44.6631L10.0497 44.2474L10.1424 43.1637L10.2435 42.4825L10.3147 42.1575L10.4753 41.5192L10.578 41.214L10.7999 40.6087L10.9374 40.3151L11.2272 39.7344L11.3994 39.4491L11.7621 38.88L11.9724 38.598L12.4129 38.0322L12.663 37.7468L13.1846 37.1744L13.4794 36.8808L14.6751 35.7938L15.5478 35.101L16.0297 34.7678L17.025 34.1097L17.5765 33.7897L18.7175 33.153L19.3501 32.8396L19.9926 32.5262L20.3305 32.3695L21.0194 32.0577L21.3821 31.901L22.119 31.5893L22.5065 31.4326L23.2948 31.1192L23.7088 30.9608L24.5501 30.6425L24.9923 30.4825L25.8898 30.1608L26.3618 29.9975L27.319 29.6709L27.8224 29.5043L28.8409 29.1695L29.3758 28.9979L30.6344 28.5938L31.0153 28.4701L31.1892 28.4124L31.5254 28.3019L31.6744 28.2524L31.9593 28.1584L32.0785 28.1171L32.3021 28.0412L32.3882 28.0116L32.5405 27.9588L32.5886 27.9406L32.6631 27.9126L32.6664 27.9076L32.6432 27.8186L32.5753 27.6949L32.5174 27.6025L32.3832 27.393L32.2905 27.2577L32.0901 26.9641L31.9642 26.786L31.6943 26.4083L31.5353 26.1872L31.1991 25.7237L31.0054 25.4615L30.603 24.9138L30.3761 24.6087L29.9058 23.9769L29.6458 23.6289L29.0281 22.8305L28.6588 22.3819L28.5047 22.2087L28.3557 22.0437L28.2911 21.9777L28.1669 21.8524L28.1156 21.8062L28.0195 21.7237L27.9831 21.7006L27.9202 21.666L27.9003 21.6676L27.6949 21.6891L27.4747 21.7171L27.3339 21.7353L27.0342 21.7749L26.8653 21.798L26.5191 21.8474L26.3419 21.8738L24.8598 22.0272L23.8314 22.0751L23.3031 22.0718L22.2432 22.0503L21.71 22.014L20.6402 21.925L20.1102 21.8557L19.0553 21.7039L18.5403 21.605L17.5218 21.3905L17.0349 21.2619L16.0744 20.9897L15.6256 20.833L14.7479 20.5064L14.3472 20.3233L13.9762 20.1518L13.7725 20.0528L13.6897 20.0099L13.5374 19.9274L13.4794 19.8895L13.3701 19.8153L13.3303 19.7806L13.2028 19.6388L13.178 19.558L13.1465 19.3831V19.2643L13.1681 19.0136L13.2045 18.8784L13.2376 18.8239L13.3138 18.7233L13.3684 18.6804L13.4893 18.6012L13.5688 18.565L13.8222 18.4825L13.9994 18.4676L14.1054 18.4808L14.3323 18.5237L14.4813 18.5699L14.8042 18.6755L15.0179 18.7547L15.5594 18.9427L16.0198 19.0928L16.2781 19.1736L17.3645 19.5035L17.8663 19.6421L18.4624 19.8037L18.8069 19.8928L18.9659 19.9274L19.5753 20.0462L19.9198 20.0792L20.2758 20.1089L20.4828 20.1188L20.9184 20.1353L21.1784 20.1402L21.7298 20.1485L22.0627 20.1518L22.4055 20.1534H22.5943L22.9818 20.1551L23.1938 20.1567L24.5617 20.1518L24.9757 20.1468L25.1661 20.1435L25.5354 20.1369L25.6977 20.1336L26.0107 20.1237L26.1416 20.1188L26.3883 20.1089L26.4827 20.1039L26.6533 20.0907L26.7063 20.0841L26.7924 20.0726L26.799 20.0643L26.7675 19.9142L26.6798 19.7147L26.6069 19.5777L26.4463 19.2792L26.3453 19.106L26.1283 18.7415L26.0058 18.5468L25.3086 17.3476L24.9078 16.5592L24.7472 16.1864L24.4507 15.4573L24.3481 15.1324L24.2553 14.8124L24.2205 14.6656L24.1609 14.3819L24.1444 14.2532L24.141 13.76L24.199 13.4499L24.2537 13.3081L24.3828 13.0342L24.4706 12.9122L24.6644 12.6763L24.7819 12.5757L25.032 12.3876L25.1761 12.3118L25.4758 12.1749L25.6431 12.1287L25.9859 12.0495L26.1714 12.0347L26.5489 12.0198M43.1641 15.3204L42.8246 15.332L42.6391 15.3452L41.3921 15.5349L40.9467 15.6437L40.7132 15.713L40.2379 15.8615L39.9878 15.9505L39.4794 16.1386L39.2095 16.2491L38.6613 16.48L38.3698 16.612L37.777 16.8858L37.4623 17.0408L36.8198 17.3608L36.4803 17.539L35.6208 17.9843L35.0561 18.273L34.7994 18.4033L34.3075 18.6507L34.1105 18.7497L33.9217 18.8421L33.8439 18.88L33.6981 18.9509L33.6435 18.9757L33.0903 19.2726L32.9612 19.36L32.9214 19.3947L32.8585 19.4573L32.8568 19.4771L32.8949 19.5728L32.9562 19.7031L33.0026 19.7971L33.1069 20.0033L33.1731 20.1303L33.3123 20.4008L33.3934 20.5559L33.5623 20.8775L33.6551 21.054L33.8472 21.4169L33.9482 21.6099L34.3721 22.4033L34.594 22.8157L35.0395 23.6388L35.2515 24.0297L35.6672 24.7885L35.846 25.1101L36.0182 25.4202L36.0944 25.5555L36.2385 25.8095L36.2965 25.9134L36.4058 26.1015L36.4455 26.1658L36.5134 26.2747L36.53 26.2961L36.5962 26.3555L36.6492 26.3654L36.7701 26.372L36.8562 26.3538L37.0467 26.306L37.1742 26.2598L37.4491 26.1526L37.6246 26.0751L38.8633 25.5043L39.6996 25.0953L40.0888 24.8924L40.844 24.4932L41.1586 24.3134L41.46 24.1386L41.5909 24.0594L41.8343 23.9076L41.9303 23.8417L42.9737 23.0301L43.6659 22.405L43.9855 22.0751L44.5999 21.4136L44.8516 21.0953L45.0917 20.7819L45.1928 20.6334L45.3816 20.3431L45.4544 20.2095L45.7509 19.6206L45.8817 19.2957L45.9214 19.1357L45.9844 18.8091L45.9976 18.6128L46.0092 18.4083L46.0125 18.2928L46.0175 18.0487V17.9085L46.0158 17.5142L46.0109 17.2932L46.0059 17.2008L45.9777 16.8759L45.9463 16.7571L45.8668 16.5427L45.8005 16.447L45.6482 16.2557L45.5372 16.1386L45.0106 15.7048L44.6214 15.5019L44.3946 15.4408L43.916 15.3402L43.6261 15.3254L43.3281 15.3171M26.703 14.72L26.6483 14.7794L26.5605 14.9295V15.0516L26.6019 15.2544L26.6698 15.4474L26.7195 15.5662L26.8305 15.8186L26.8984 15.9604L27.0441 16.2557L27.1269 16.4124L27.483 17.0656L27.6784 17.3922L28.0791 18.0355L28.2712 18.3076L28.4534 18.5633L28.5362 18.6771L28.6952 18.8932L28.7598 18.979L28.8774 19.134L28.9171 19.1835L28.98 19.2577H28.9867L29.2235 19.1885L29.4205 19.0878L29.5166 19.0252L29.7021 18.8949L29.7667 18.8338L29.8726 18.7167V18.6788L29.7948 18.461L29.6739 18.2219L29.5861 18.0668L29.3957 17.7369L29.2831 17.5505L29.0463 17.1662L28.9171 16.9666L28.3905 16.1617L28.147 15.8219L27.9135 15.4969L27.8125 15.3683L27.627 15.1373L27.5591 15.0697L27.1965 14.7893L26.9712 14.6953L26.8768 14.6936L26.703 14.72Z" fill="#FFFFF4"/>
<path d="M116.064 63.468C113.184 63.468 110.256 62.196 107.28 59.652L106.704 62.532H96.336L106.128 16.74L116.784 15.3L108.144 55.692C109.488 56.652 110.856 57.132 112.248 57.132C114.984 57.132 117.384 55.548 119.448 52.38C121.56 49.212 123.192 45.18 124.344 40.284C125.496 35.388 126.072 30.444 126.072 25.452C126.072 20.748 125.136 17.316 123.264 15.156C121.44 12.948 118.872 11.844 115.56 11.844C111.96 11.844 108.72 12.564 105.84 14.004C103.008 15.396 100.776 17.412 99.144 20.052C97.512 22.692 96.696 25.788 96.696 29.34C96.696 31.116 96.864 32.364 97.2 33.084C97.536 33.756 97.704 34.14 97.704 34.236C95.208 34.236 93.288 33.708 91.944 32.652C90.648 31.596 90 29.892 90 27.54C90 24.276 91.224 21.18 93.672 18.252C96.12 15.324 99.384 12.972 103.464 11.196C107.592 9.41998 112.032 8.53198 116.784 8.53198C123.36 8.53198 128.208 10.476 131.328 14.364C134.448 18.252 136.008 23.22 136.008 29.268C136.008 34.74 135.072 40.14 133.2 45.468C131.376 50.748 128.928 55.068 125.856 58.428C122.784 61.788 119.52 63.468 116.064 63.468Z" fill="#050F0A"/>
<path d="M149.334 22.644C147.75 22.644 146.406 22.092 145.302 20.988C144.198 19.884 143.646 18.54 143.646 16.956C143.646 15.372 144.198 14.028 145.302 12.924C146.406 11.772 147.75 11.196 149.334 11.196C150.918 11.196 152.262 11.772 153.366 12.924C154.518 14.028 155.094 15.372 155.094 16.956C155.094 18.54 154.518 19.884 153.366 20.988C152.262 22.092 150.918 22.644 149.334 22.644ZM144.438 62.964C142.134 62.964 140.262 62.244 138.822 60.804C137.43 59.364 136.734 57.204 136.734 54.324C136.734 53.124 136.926 51.564 137.31 49.644L142.206 26.532H152.574L147.39 51.012C147.198 51.732 147.102 52.5 147.102 53.316C147.102 54.276 147.318 54.972 147.75 55.404C148.23 55.788 148.998 55.98 150.054 55.98C151.446 55.98 152.742 55.404 153.942 54.252C155.142 53.052 156.006 51.516 156.534 49.644H159.558C157.782 54.828 155.502 58.356 152.718 60.228C149.934 62.052 147.174 62.964 144.438 62.964Z" fill="#050F0A"/>
<path d="M166.801 62.964C163.249 62.964 160.489 62.052 158.521 60.228C156.553 58.356 155.57 55.452 155.57 51.516C155.57 48.204 156.217 44.556 157.513 40.572C158.809 36.588 160.922 33.156 163.85 30.276C166.778 27.348 170.497 25.884 175.009 25.884C180.289 25.884 182.93 28.188 182.93 32.796C182.93 35.484 182.162 37.956 180.626 40.212C179.09 42.468 177.05 44.292 174.506 45.684C171.962 47.028 169.249 47.796 166.369 47.988C166.273 49.428 166.226 50.388 166.226 50.868C166.226 53.22 166.634 54.828 167.45 55.692C168.266 56.508 169.586 56.916 171.41 56.916C174.001 56.916 176.209 56.316 178.034 55.116C179.906 53.916 181.946 52.092 184.154 49.644H186.602C181.274 58.524 174.673 62.964 166.801 62.964ZM166.946 44.532C168.722 44.436 170.401 43.812 171.985 42.66C173.617 41.508 174.914 40.044 175.874 38.268C176.882 36.492 177.385 34.62 177.385 32.652C177.385 30.684 176.786 29.7 175.586 29.7C173.858 29.7 172.154 31.212 170.474 34.236C168.842 37.26 167.666 40.692 166.946 44.532Z" fill="#050F0A"/>
<path d="M190.906 62.964C188.458 62.964 186.634 62.22 185.434 60.732C184.282 59.244 183.706 57.276 183.706 54.828C183.706 53.58 183.85 52.308 184.138 51.012L188.746 29.412H186.37L186.946 26.532H189.322L191.482 16.596L202.138 15.156C201.706 16.98 201.466 18.06 201.418 18.396C201.082 19.74 200.506 22.452 199.69 26.532H211.17L210.594 29.412H199.114L194.506 51.012C194.266 52.068 194.146 52.908 194.146 53.532C194.146 55.26 194.986 56.124 196.666 56.124C197.53 56.124 198.154 56.052 198.538 55.908C197.578 58.692 196.45 60.564 195.154 61.524C193.858 62.484 192.442 62.964 190.906 62.964Z" fill="#050F0A"/>
<path d="M223.234 14.868H222.37C218.098 14.868 214.762 15.948 212.362 18.108C210.01 20.22 208.834 23.988 208.834 29.412C208.834 31.188 209.002 32.436 209.338 33.156C209.674 33.828 209.842 34.212 209.842 34.308C207.25 34.308 205.306 33.78 204.01 32.724C202.762 31.62 202.138 29.82 202.138 27.324C202.138 23.916 202.978 20.82 204.658 18.036C206.338 15.204 209.002 12.924 212.65 11.196C216.346 9.46798 221.026 8.60399 226.69 8.60399C229.858 8.60399 233.266 8.89198 236.914 9.46798C239.986 9.99599 242.722 10.26 245.122 10.26C248.194 10.26 250.978 9.75599 253.474 8.74798C253.378 11.868 252.586 14.172 251.098 15.66C249.61 17.148 247.402 17.892 244.474 17.892C242.938 17.892 241.402 17.772 239.866 17.532C238.33 17.292 236.146 16.884 233.314 16.308L223.378 62.532H213.01L223.234 14.868Z" fill="#050F0A"/>
<path d="M245.01 62.964C242.274 62.964 239.994 62.028 238.17 60.156C236.346 58.284 235.434 55.356 235.434 51.372C235.434 47.82 236.13 44.1 237.522 40.212C238.962 36.276 241.074 32.964 243.858 30.276C246.69 27.54 250.05 26.172 253.938 26.172C255.906 26.172 257.37 26.508 258.33 27.18C259.29 27.852 259.77 28.74 259.77 29.844V30.348L260.562 26.532H270.93L265.746 51.012C265.554 51.732 265.458 52.5 265.458 53.316C265.458 55.38 266.442 56.412 268.41 56.412C269.754 56.412 270.906 55.788 271.866 54.54C272.874 53.292 273.666 51.66 274.242 49.644H277.266C275.49 54.828 273.282 58.356 270.642 60.228C268.05 62.052 265.434 62.964 262.794 62.964C260.778 62.964 259.146 62.412 257.898 61.308C256.698 60.156 255.978 58.5 255.738 56.34C254.346 58.308 252.786 59.916 251.058 61.164C249.378 62.364 247.362 62.964 245.01 62.964ZM249.69 55.98C250.89 55.98 252.066 55.428 253.218 54.324C254.418 53.172 255.234 51.612 255.666 49.644L259.122 33.372C259.122 32.748 258.882 32.148 258.402 31.572C257.922 30.948 257.178 30.636 256.17 30.636C254.25 30.636 252.522 31.764 250.986 34.02C249.45 36.228 248.25 38.916 247.386 42.084C246.522 45.204 246.09 47.964 246.09 50.364C246.09 52.764 246.426 54.3 247.098 54.972C247.818 55.644 248.682 55.98 249.69 55.98Z" fill="#050F0A"/>
<path d="M286.293 22.644C284.709 22.644 283.365 22.092 282.261 20.988C281.157 19.884 280.605 18.54 280.605 16.956C280.605 15.372 281.157 14.028 282.261 12.924C283.365 11.772 284.709 11.196 286.293 11.196C287.877 11.196 289.221 11.772 290.325 12.924C291.477 14.028 292.053 15.372 292.053 16.956C292.053 18.54 291.477 19.884 290.325 20.988C289.221 22.092 287.877 22.644 286.293 22.644ZM281.397 62.964C279.093 62.964 277.221 62.244 275.781 60.804C274.389 59.364 273.693 57.204 273.693 54.324C273.693 53.124 273.885 51.564 274.269 49.644L279.165 26.532H289.533L284.349 51.012C284.157 51.732 284.061 52.5 284.061 53.316C284.061 54.276 284.277 54.972 284.709 55.404C285.189 55.788 285.957 55.98 287.013 55.98C288.405 55.98 289.701 55.404 290.901 54.252C292.101 53.052 292.965 51.516 293.493 49.644H296.517C294.741 54.828 292.461 58.356 289.677 60.228C286.893 62.052 284.133 62.964 281.397 62.964Z" fill="#050F0A"/>
<path d="M300.592 62.964C298.288 62.964 296.416 62.244 294.976 60.804C293.584 59.364 292.888 57.204 292.888 54.324C292.888 53.124 293.08 51.564 293.464 49.644L301.168 13.572L311.824 12.132L303.544 51.012C303.352 51.732 303.256 52.5 303.256 53.316C303.256 54.276 303.472 54.972 303.904 55.404C304.384 55.788 305.152 55.98 306.208 55.98C307.6 55.98 308.896 55.404 310.096 54.252C311.296 53.052 312.16 51.516 312.688 49.644H315.712C313.936 54.828 311.656 58.356 308.872 60.228C306.088 62.052 303.328 62.964 300.592 62.964Z" fill="#050F0A"/>
<path d="M323.171 62.82C319.619 62.82 316.811 61.908 314.747 60.084C312.683 58.26 311.651 55.38 311.651 51.444C311.651 48.18 312.323 44.556 313.667 40.572C315.011 36.588 317.171 33.156 320.147 30.276C323.123 27.348 326.867 25.884 331.379 25.884C337.523 25.884 340.595 29.724 340.595 37.404V37.476C340.739 37.524 341.003 37.548 341.387 37.548C342.971 37.548 344.795 37.14 346.859 36.324C348.923 35.46 350.795 34.428 352.475 33.228L353.123 35.172C351.731 36.66 349.907 37.932 347.651 38.988C345.443 39.996 343.019 40.716 340.379 41.148C339.995 45.516 339.011 49.332 337.427 52.596C335.843 55.86 333.803 58.38 331.307 60.156C328.811 61.932 326.099 62.82 323.171 62.82ZM326.051 56.34C327.203 56.34 328.355 55.692 329.507 54.396C330.659 53.052 331.667 51.252 332.531 48.996C333.395 46.692 334.019 44.148 334.403 41.364C333.107 41.076 332.459 40.068 332.459 38.34C332.459 36.372 333.203 35.076 334.691 34.452C334.595 32.868 334.355 31.788 333.971 31.212C333.587 30.588 332.915 30.276 331.955 30.276C330.371 30.276 328.835 31.428 327.347 33.732C325.859 36.036 324.659 38.796 323.747 42.012C322.835 45.228 322.379 48.06 322.379 50.508C322.379 52.812 322.643 54.372 323.171 55.188C323.699 55.956 324.659 56.34 326.051 56.34Z" fill="#050F0A"/>
<path d="M349.196 26.532H359.564L358.628 30.996C360.26 29.556 361.724 28.452 363.02 27.684C364.364 26.916 365.804 26.532 367.34 26.532C368.876 26.532 370.076 27.06 370.94 28.116C371.852 29.172 372.308 30.444 372.308 31.932C372.308 33.324 371.852 34.548 370.94 35.604C370.028 36.66 368.756 37.188 367.124 37.188C366.068 37.188 365.348 36.948 364.964 36.468C364.628 35.94 364.364 35.196 364.172 34.236C364.028 33.612 363.884 33.156 363.74 32.868C363.596 32.58 363.332 32.436 362.948 32.436C361.94 32.436 361.076 32.652 360.356 33.084C359.684 33.468 358.796 34.164 357.692 35.172L351.932 62.532H341.564L349.196 26.532Z" fill="#050F0A"/>
<defs>
<radialGradient id="paint0_radial_177_1657" cx="0" cy="0" r="1" gradientUnits="userSpaceOnUse" gradientTransform="translate(36 72) rotate(-90) scale(72 74.3368)">
<stop offset="0.298077" stop-color="#0A5C41"/>
<stop offset="0.697115" stop-color="#0D7351"/>
<stop offset="0.927885" stop-color="#1C8F68"/>
<stop offset="1" stop-color="#23A378"/>
</radialGradient>
</defs>
</svg>
