<svg width="24" height="25" viewBox="0 0 24 25" fill="none" xmlns="http://www.w3.org/2000/svg">
<path d="M22.2857 0.285767H1.70893C0.766071 0.285767 0 1.06255 0 2.01612V22.5554C0 23.509 0.766071 24.2858 1.70893 24.2858H22.2857C23.2286 24.2858 24 23.509 24 22.5554V2.01612C24 1.06255 23.2286 0.285767 22.2857 0.285767ZM7.25357 20.8572H3.69643V9.40362H7.25893V20.8572H7.25357ZM5.475 7.83934C4.33393 7.83934 3.4125 6.91255 3.4125 5.77684C3.4125 4.64112 4.33393 3.71434 5.475 3.71434C6.61071 3.71434 7.5375 4.64112 7.5375 5.77684C7.5375 6.91791 6.61607 7.83934 5.475 7.83934ZM20.5875 20.8572H17.0304V15.2858C17.0304 13.9572 17.0036 12.2483 15.1821 12.2483C13.3286 12.2483 13.0446 13.6947 13.0446 15.1893V20.8572H9.4875V9.40362H12.9V10.9679H12.9482C13.425 10.0679 14.5875 9.11969 16.3179 9.11969C19.9179 9.11969 20.5875 11.4929 20.5875 14.5786V20.8572Z" fill="#D4D4D4"/>
</svg>
