<svg width="720" height="280" viewBox="0 0 720 280" fill="none" xmlns="http://www.w3.org/2000/svg">
<g style="mix-blend-mode:exclusion">
<mask id="path-1-outside-1_301_54" maskUnits="userSpaceOnUse" x="0.0302734" y="157.875" width="719" height="122" fill="black">
<rect fill="white" x="0.0302734" y="157.875" width="719" height="122"/>
<path d="M24.8025 274.926H2.03027V161.144H24.8025V206.689H70.2676V161.144H93.0398V274.926H70.2676V229.461H24.8025V274.926ZM203.965 229.461C203.965 235.756 202.775 241.68 200.395 247.234C198.014 252.735 194.761 257.549 190.635 261.675C186.509 265.748 181.669 268.975 176.115 271.355C170.613 273.736 164.715 274.926 158.421 274.926C152.126 274.926 146.201 273.736 140.647 271.355C135.146 268.975 130.332 265.748 126.206 261.675C122.133 257.549 118.906 252.735 116.526 247.234C114.146 241.68 112.956 235.756 112.956 229.461V161.144H135.648V229.461C135.648 232.582 136.23 235.517 137.394 238.268C138.611 241.019 140.25 243.426 142.313 245.489C144.376 247.552 146.783 249.191 149.534 250.408C152.337 251.572 155.3 252.154 158.421 252.154C161.542 252.154 164.477 251.572 167.228 250.408C170.032 249.191 172.465 247.552 174.528 245.489C176.591 243.426 178.204 241.019 179.368 238.268C180.585 235.517 181.193 232.582 181.193 229.461V161.144H203.965V229.461ZM246.494 274.926H223.722V161.144H246.494V274.926ZM348.93 274.926H260.856L309.416 183.916H260.856V161.144H348.93L300.529 252.154H348.93V274.926ZM385.825 274.926H363.053V161.144H385.825V274.926ZM498.02 274.926H473.661L429.783 200.023V274.926H407.011V161.144H431.37L475.248 236.126V161.144H498.02V274.926ZM609.739 263.421C604.449 267.917 598.551 271.382 592.045 273.815C585.539 276.195 578.768 277.386 571.732 277.386C566.337 277.386 561.127 276.671 556.101 275.243C551.129 273.868 546.474 271.911 542.136 269.372C537.799 266.78 533.832 263.712 530.235 260.168C526.638 256.571 523.57 252.603 521.031 248.266C518.491 243.875 516.508 239.167 515.08 234.142C513.704 229.117 513.017 223.907 513.017 218.511C513.017 213.116 513.704 207.932 515.08 202.959C516.508 197.987 518.491 193.332 521.031 188.994C523.57 184.604 526.638 180.637 530.235 177.093C533.832 173.496 537.799 170.428 542.136 167.888C546.474 165.349 551.129 163.392 556.101 162.017C561.127 160.589 566.337 159.875 571.732 159.875C578.768 159.875 585.539 161.091 592.045 163.524C598.551 165.905 604.449 169.343 609.739 173.839L597.837 193.676C594.399 190.185 590.432 187.46 585.935 185.503C581.439 183.493 576.705 182.488 571.732 182.488C566.76 182.488 562.079 183.44 557.688 185.345C553.351 187.249 549.542 189.841 546.262 193.12C542.983 196.347 540.391 200.156 538.487 204.546C536.582 208.884 535.63 213.539 535.63 218.511C535.63 223.536 536.582 228.244 538.487 232.635C540.391 237.025 542.983 240.86 546.262 244.14C549.542 247.419 553.351 250.011 557.688 251.916C562.079 253.82 566.76 254.772 571.732 254.772C574.589 254.772 577.366 254.428 580.064 253.741C582.761 253.053 585.327 252.101 587.76 250.884V218.511H609.739V263.421ZM694.242 229.461V206.689C694.242 203.568 693.634 200.632 692.417 197.881C691.253 195.078 689.64 192.644 687.577 190.581C685.514 188.518 683.081 186.905 680.277 185.741C677.527 184.525 674.591 183.916 671.47 183.916C668.349 183.916 665.387 184.525 662.583 185.741C659.833 186.905 657.426 188.518 655.363 190.581C653.3 192.644 651.66 195.078 650.443 197.881C649.28 200.632 648.698 203.568 648.698 206.689V229.461H694.242ZM717.014 274.926H694.242V252.154H648.698V274.926H626.005V206.689C626.005 200.394 627.195 194.496 629.575 188.994C631.956 183.44 635.183 178.6 639.256 174.474C643.382 170.348 648.195 167.095 653.697 164.715C659.251 162.334 665.175 161.144 671.47 161.144C677.765 161.144 683.663 162.334 689.164 164.715C694.718 167.095 699.558 170.348 703.684 174.474C707.81 178.6 711.063 183.44 713.444 188.994C715.824 194.496 717.014 200.394 717.014 206.689V274.926Z"/>
</mask>
<path d="M24.8025 274.926H2.03027V161.144H24.8025V206.689H70.2676V161.144H93.0398V274.926H70.2676V229.461H24.8025V274.926ZM203.965 229.461C203.965 235.756 202.775 241.68 200.395 247.234C198.014 252.735 194.761 257.549 190.635 261.675C186.509 265.748 181.669 268.975 176.115 271.355C170.613 273.736 164.715 274.926 158.421 274.926C152.126 274.926 146.201 273.736 140.647 271.355C135.146 268.975 130.332 265.748 126.206 261.675C122.133 257.549 118.906 252.735 116.526 247.234C114.146 241.68 112.956 235.756 112.956 229.461V161.144H135.648V229.461C135.648 232.582 136.23 235.517 137.394 238.268C138.611 241.019 140.25 243.426 142.313 245.489C144.376 247.552 146.783 249.191 149.534 250.408C152.337 251.572 155.3 252.154 158.421 252.154C161.542 252.154 164.477 251.572 167.228 250.408C170.032 249.191 172.465 247.552 174.528 245.489C176.591 243.426 178.204 241.019 179.368 238.268C180.585 235.517 181.193 232.582 181.193 229.461V161.144H203.965V229.461ZM246.494 274.926H223.722V161.144H246.494V274.926ZM348.93 274.926H260.856L309.416 183.916H260.856V161.144H348.93L300.529 252.154H348.93V274.926ZM385.825 274.926H363.053V161.144H385.825V274.926ZM498.02 274.926H473.661L429.783 200.023V274.926H407.011V161.144H431.37L475.248 236.126V161.144H498.02V274.926ZM609.739 263.421C604.449 267.917 598.551 271.382 592.045 273.815C585.539 276.195 578.768 277.386 571.732 277.386C566.337 277.386 561.127 276.671 556.101 275.243C551.129 273.868 546.474 271.911 542.136 269.372C537.799 266.78 533.832 263.712 530.235 260.168C526.638 256.571 523.57 252.603 521.031 248.266C518.491 243.875 516.508 239.167 515.08 234.142C513.704 229.117 513.017 223.907 513.017 218.511C513.017 213.116 513.704 207.932 515.08 202.959C516.508 197.987 518.491 193.332 521.031 188.994C523.57 184.604 526.638 180.637 530.235 177.093C533.832 173.496 537.799 170.428 542.136 167.888C546.474 165.349 551.129 163.392 556.101 162.017C561.127 160.589 566.337 159.875 571.732 159.875C578.768 159.875 585.539 161.091 592.045 163.524C598.551 165.905 604.449 169.343 609.739 173.839L597.837 193.676C594.399 190.185 590.432 187.46 585.935 185.503C581.439 183.493 576.705 182.488 571.732 182.488C566.76 182.488 562.079 183.44 557.688 185.345C553.351 187.249 549.542 189.841 546.262 193.12C542.983 196.347 540.391 200.156 538.487 204.546C536.582 208.884 535.63 213.539 535.63 218.511C535.63 223.536 536.582 228.244 538.487 232.635C540.391 237.025 542.983 240.86 546.262 244.14C549.542 247.419 553.351 250.011 557.688 251.916C562.079 253.82 566.76 254.772 571.732 254.772C574.589 254.772 577.366 254.428 580.064 253.741C582.761 253.053 585.327 252.101 587.76 250.884V218.511H609.739V263.421ZM694.242 229.461V206.689C694.242 203.568 693.634 200.632 692.417 197.881C691.253 195.078 689.64 192.644 687.577 190.581C685.514 188.518 683.081 186.905 680.277 185.741C677.527 184.525 674.591 183.916 671.47 183.916C668.349 183.916 665.387 184.525 662.583 185.741C659.833 186.905 657.426 188.518 655.363 190.581C653.3 192.644 651.66 195.078 650.443 197.881C649.28 200.632 648.698 203.568 648.698 206.689V229.461H694.242ZM717.014 274.926H694.242V252.154H648.698V274.926H626.005V206.689C626.005 200.394 627.195 194.496 629.575 188.994C631.956 183.44 635.183 178.6 639.256 174.474C643.382 170.348 648.195 167.095 653.697 164.715C659.251 162.334 665.175 161.144 671.47 161.144C677.765 161.144 683.663 162.334 689.164 164.715C694.718 167.095 699.558 170.348 703.684 174.474C707.81 178.6 711.063 183.44 713.444 188.994C715.824 194.496 717.014 200.394 717.014 206.689V274.926Z" stroke="url(#paint0_linear_301_54)" stroke-width="4" mask="url(#path-1-outside-1_301_54)"/>
</g>
<path d="M25.2246 26.9824V77.4316H50.4492C53.9062 77.4316 57.1582 76.7871 60.2051 75.498C63.252 74.1504 65.918 72.334 68.2031 70.0488C70.4883 67.7637 72.2754 65.0977 73.5645 62.0508C74.9121 58.9453 75.5859 55.6641 75.5859 52.207C75.5859 48.75 74.9121 45.498 73.5645 42.4512C72.2754 39.3457 70.4883 36.6504 68.2031 34.3652C65.918 32.0801 63.252 30.293 60.2051 29.0039C57.1582 27.6562 53.9062 26.9824 50.4492 26.9824H25.2246ZM25.2246 127.793H0V1.75781H50.4492C55.0781 1.75781 59.5312 2.37305 63.8086 3.60352C68.0859 4.77539 72.0703 6.47461 75.7617 8.70117C79.5117 10.8691 82.9102 13.5059 85.957 16.6113C89.0625 19.6582 91.6992 23.0566 93.8672 26.8066C96.0938 30.5566 97.793 34.5703 98.9648 38.8477C100.195 43.125 100.811 47.5781 100.811 52.207C100.811 59.1211 99.4922 65.6543 96.8555 71.8066C94.2188 77.9004 90.6152 83.2324 86.0449 87.8027C81.4746 92.373 76.1133 95.9766 69.9609 98.6133C63.8672 101.25 57.3633 102.568 50.4492 102.568H25.2246V127.793Z" fill="#E5E5E5"/>
<path d="M189.844 77.4316V52.207C189.844 48.75 189.17 45.498 187.822 42.4512C186.533 39.3457 184.746 36.6504 182.461 34.3652C180.176 32.0801 177.48 30.293 174.375 29.0039C171.328 27.6562 168.076 26.9824 164.619 26.9824C161.162 26.9824 157.881 27.6562 154.775 29.0039C151.729 30.293 149.062 32.0801 146.777 34.3652C144.492 36.6504 142.676 39.3457 141.328 42.4512C140.039 45.498 139.395 48.75 139.395 52.207V77.4316H189.844ZM215.068 127.793H189.844V102.568H139.395V127.793H114.258V52.207C114.258 45.2344 115.576 38.7012 118.213 32.6074C120.85 26.4551 124.424 21.0938 128.936 16.5234C133.506 11.9531 138.838 8.34961 144.932 5.71289C151.084 3.07617 157.646 1.75781 164.619 1.75781C171.592 1.75781 178.125 3.07617 184.219 5.71289C190.371 8.34961 195.732 11.9531 200.303 16.5234C204.873 21.0938 208.477 26.4551 211.113 32.6074C213.75 38.7012 215.068 45.2344 215.068 52.207V127.793Z" fill="#E5E5E5"/>
<path d="M285.996 127.793H260.859V26.9824H222.979V1.75781H323.789V26.9824H285.996V127.793Z" fill="#E5E5E5"/>
<path d="M362.373 26.9824V77.4316H387.598C391.055 77.4316 394.307 76.7871 397.354 75.498C400.4 74.1504 403.066 72.334 405.352 70.0488C407.637 67.7637 409.424 65.0977 410.713 62.0508C412.061 58.9453 412.734 55.6641 412.734 52.207C412.734 48.75 412.061 45.498 410.713 42.4512C409.424 39.3457 407.637 36.6504 405.352 34.3652C403.066 32.0801 400.4 30.293 397.354 29.0039C394.307 27.6562 391.055 26.9824 387.598 26.9824H362.373ZM362.373 127.793H337.148V1.75781H387.598C392.227 1.75781 396.68 2.37305 400.957 3.60352C405.234 4.77539 409.219 6.47461 412.91 8.70117C416.66 10.8691 420.059 13.5059 423.105 16.6113C426.211 19.6582 428.848 23.0566 431.016 26.8066C433.242 30.5566 434.941 34.5703 436.113 38.8477C437.344 43.125 437.959 47.5781 437.959 52.207C437.959 56.543 437.402 60.7617 436.289 64.8633C435.234 68.9648 433.682 72.8613 431.631 76.5527C429.639 80.2441 427.178 83.6426 424.248 86.748C421.318 89.8535 418.037 92.5488 414.404 94.834L428.379 127.793H401.572L390.586 102.393L362.373 102.568V127.793Z" fill="#E5E5E5"/>
<path d="M479.795 127.793H454.57V1.75781H479.795V127.793Z" fill="#E5E5E5"/>
<path d="M603.896 114.873C598.037 119.912 591.475 123.779 584.209 126.475C576.943 129.17 569.414 130.518 561.621 130.518C555.645 130.518 549.873 129.727 544.307 128.145C538.799 126.621 533.613 124.453 528.75 121.641C523.945 118.77 519.551 115.342 515.566 111.357C511.582 107.373 508.154 102.979 505.283 98.1738C502.471 93.3105 500.273 88.125 498.691 82.6172C497.168 77.0508 496.406 71.2793 496.406 65.3027C496.406 59.3262 497.168 53.5547 498.691 47.9883C500.273 42.4219 502.471 37.2363 505.283 32.4316C508.154 27.5684 511.582 23.1445 515.566 19.1602C519.551 15.1758 523.945 11.7773 528.75 8.96484C533.613 6.09375 538.799 3.89648 544.307 2.37305C549.873 0.791016 555.645 0 561.621 0C569.414 0 576.943 1.34766 584.209 4.04297C591.475 6.67969 598.037 10.5469 603.896 15.6445L590.537 37.6172C586.846 33.6328 582.48 30.5859 577.441 28.4766C572.402 26.3086 567.129 25.2246 561.621 25.2246C556.055 25.2246 550.84 26.2793 545.977 28.3887C541.113 30.498 536.865 33.3691 533.232 37.002C529.6 40.5762 526.729 44.8242 524.619 49.7461C522.51 54.6094 521.455 59.7949 521.455 65.3027C521.455 70.8105 522.51 75.9961 524.619 80.8594C526.729 85.6641 529.6 89.8828 533.232 93.5156C536.865 97.1484 541.113 100.02 545.977 102.129C550.84 104.238 556.055 105.293 561.621 105.293C567.129 105.293 572.402 104.238 577.441 102.129C582.48 99.9609 586.846 96.8848 590.537 92.9004L603.896 114.873Z" fill="#E5E5E5"/>
<path d="M643.799 127.793H618.574V1.75781H643.799V64.7754L690.732 1.75781H719.385L679.57 54.9316L719.385 127.793H690.732L663.047 76.8164L643.799 102.568V127.793Z" fill="#E5E5E5"/>
<defs>
<linearGradient id="paint0_linear_301_54" x1="-1.15234" y1="154.793" x2="727.848" y2="298.793" gradientUnits="userSpaceOnUse">
<stop stop-color="#D9D9D9"/>
<stop offset="0.0001" stop-color="#E5E5E5"/>
<stop offset="1" stop-color="#958CFF"/>
<stop offset="1" stop-color="#958CFF"/>
</linearGradient>
</defs>
</svg>
