<svg width="37" height="37" viewBox="0 0 37 37" fill="none" xmlns="http://www.w3.org/2000/svg">
<path d="M32.214 0H4.34214C1.93636 0 0 1.93636 0 4.34214V32.2727C0 34.6785 1.93636 36.6148 4.34214 36.6148H32.214C34.6198 36.6148 36.5561 34.6785 36.5561 32.2727V4.34214C36.5561 1.93636 34.6198 0 32.214 0ZM15.7256 26.3463C15.7256 27.1677 15.0801 27.8132 14.2587 27.8132H8.15619C7.3347 27.8132 6.68925 27.1677 6.68925 26.3463V8.21487C6.68925 7.39338 7.3347 6.74793 8.15619 6.74793H14.2587C15.0801 6.74793 15.7256 7.39338 15.7256 8.21487V26.3463ZM29.8082 18.014C29.8082 18.8355 29.1628 19.481 28.4 19.481H22.2388C21.4173 19.481 20.7719 18.8355 20.7719 18.014V8.21487C20.7719 7.39338 21.4173 6.74793 22.2388 6.74793H28.3413C29.1628 6.74793 29.8082 7.39338 29.8082 8.21487V18.014Z" fill="white"/>
</svg>
